<?xml version="1.0" encoding="utf-8"?>
<!-- Generator: Adobe Illustrator 21.1.0, SVG Export Plug-In . SVG Version: 6.00 Build 0)  -->
<svg version="1.1" id="Object" xmlns="http://www.w3.org/2000/svg" xmlns:xlink="http://www.w3.org/1999/xlink" x="0px" y="0px"
	 viewBox="0 0 1920 950" style="enable-background:new 0 0 1920 950;" xml:space="preserve">
<style type="text/css">
	.st0{fill:url(#SVGID_1_);}
	.st1{opacity:0.56;clip-path:url(#SVGID_3_);}
	.st2{fill:#C7CEEF;}
	.st3{fill:#AFB9EF;}
	.st4{fill:#9BA9EF;}
	.st5{fill:#8697EF;}
</style>
<linearGradient id="SVGID_1_" gradientUnits="userSpaceOnUse" x1="977.8093" y1="1197.9397" x2="977.8093" y2="219.2877" gradientTransform="matrix(-1 0 0 -1 1937.8093 1228.2532)">
	<stop  offset="0" style="stop-color:#5180EF"/>
	<stop  offset="1" style="stop-color:#3056D9"/>
</linearGradient>
<rect class="st0" width="1920" height="950"/>
<g>
	<defs>
		<rect id="SVGID_2_" width="1920" height="950"/>
	</defs>
	<clipPath id="SVGID_3_">
		<use xlink:href="#SVGID_2_"  style="overflow:visible;"/>
	</clipPath>
	<g class="st1">
		<g>
			<polygon class="st2" points="-20.3,1194.3 -20.3,1167 108.5,1167 108.5,964.1 169,964.1 169,626.4 196.4,626.4 196.4,603 
				266.6,603 266.6,624.5 292,624.5 292,821.6 342.7,821.6 342.7,790.4 469.6,790.4 469.6,747.4 487.1,747.4 487.1,446.9 
				512.5,446.9 512.5,411.8 532,411.8 532,366.9 549.6,366.9 549.6,409.8 567.1,409.8 567.1,448.9 596.4,448.9 596.4,774.8 
				678.4,774.8 678.4,708.4 768.1,708.4 768.1,782.6 818.9,782.6 818.9,624.5 867.7,624.5 867.7,708.4 885.2,708.4 885.2,806 
				885.2,823.6 951.6,823.6 951.6,523 1062.8,398.1 1084.3,398.1 1084.3,751.3 1121.4,751.3 1121.4,710.4 1240.4,710.4 
				1240.4,751.3 1275.5,751.3 1275.5,390.3 1314.6,390.3 1314.6,359.1 1394.6,359.1 1394.6,392.3 1433.6,392.3 1433.6,727.9 
				1503.9,727.9 1503.9,761.1 1572.2,761.1 1572.2,605 1589.7,591.3 1681.4,591.3 1699,608.9 1699,794.3 1747.8,794.3 1747.8,901.6 
				1794.6,901.6 1794.6,1008.9 1794.6,1194.3 			"/>
		</g>
		<g>
			<rect x="693.7" y="1058.7" class="st3" width="0.7" height="1.5"/>
			<path class="st3" d="M1886.3,1114.3v-64.4h-31.2V905.5h-42.9v85.9h-44.9v-29.3h-42.9V860.6h-83.9v-42.9h-122.9v37.1h-56.6V804
				h-52.7V685h-21.5l-72.2,48.8v48.8h-44.9v48.8h-46.8V688.9h-23.4v-23.4h-17.6v21.5h-23.4v218.6h-66.4v-93.7h-74.2v50.7h-95.6
				v-89.8h-19.5v-19.5h-52.7v17.6h-15.6v83.9h-25v-67.7c0.1-7.6,0.1-15.6,0-23.9v-4.8h-0.1c-1.2-88.2-12.6-204.1-64.7-198.3
				c-42,4.7-50.7,114.9-51.2,198.3h-0.1v92.5h-30.6V749.4H539.8v99.5h-74.2v46.8h-23.4v-203h-21.5v-54.6H413v54.6h-25.4v204.9h-68.3
				v-48.8h-52.7v-23.4h-70.3v25.4h-74.2v126.8H79.3v193.2h-179.5v21.5l2051,3.9v-82H1886.3z"/>
		</g>
		<g>
			<polygon class="st4" points="-92.9,1184.6 -92.9,1172.9 30,1172.9 30,1074.8 30,1055.8 92.9,1055.8 92.9,932.8 147.1,932.8 
				147.1,1055.8 185.1,1055.8 185.1,1011.9 204.2,1011.9 204.2,988.4 328.6,988.4 328.6,1011.9 347.6,1011.9 347.6,1055.8 
				420.8,1055.8 420.8,966.5 458.8,966.5 458.8,1055.8 495.4,1055.8 495.4,932.8 511.5,932.8 511.5,915.3 637.4,915.3 637.4,932.8 
				653.5,932.8 653.5,981.1 695.9,981.1 695.9,1030.9 776.4,1030.9 776.4,1060.2 899.4,1060.2 899.4,937.2 949.1,937.2 949.1,912.3 
				974,912.3 974,937.2 1023.8,937.2 1023.8,998.7 1064.8,998.7 1064.8,1036.7 1225.8,1036.7 1225.8,919.7 1402.9,919.7 1402.9,968 
				1524.3,968 1524.3,1008.9 1582.9,1008.9 1582.9,922.6 1606.3,922.6 1606.3,908 1659,908 1659,922.6 1679.5,922.6 1679.5,1008.9 
				1739.5,1008.9 1739.5,1061.6 1799.5,1061.6 1799.5,1038.2 1834.6,1038.2 1834.6,1093.8 1906.3,1093.8 1906.3,1167 1959,1167 
				1959,1183.1 1959,1194.8 -92.9,1194.8 			"/>
		</g>
		<g>
			<polygon class="st5" points="1952.7,1194.3 -127.6,1194.3 -127.6,1155.3 -51.5,1155.3 -51.5,1124.1 5.1,1124.1 5.1,1030.4 
				52,1030.4 52,1124.1 104.6,1124.1 104.6,1079.2 115.2,1079.2 115.2,1068.4 182,1068.4 182,1079.2 191,1079.2 191,1123.1 
				211.5,1123.1 211.5,1057.2 245.1,1057.2 245.1,1126 255.4,1126 255.4,1104.1 286.1,1104.1 286.1,1066 331.5,1066 331.5,1118.7 
				379.8,1118.7 379.8,1011.9 404.7,1011.9 404.7,997.2 533.5,997.2 533.5,1016.3 552.5,1016.3 552.5,1124.6 578.8,1124.6 
				578.8,1098.2 603.7,1098.2 603.7,1124.6 630.1,1124.6 630.1,1085 688.6,1085 688.6,1126 688.6,1137.7 722.3,1137.7 745.7,1137.7 
				745.7,956.2 763.3,956.2 763.3,946 791.1,946 791.1,957.7 807.2,957.7 807.2,1102.6 865.7,1102.6 865.7,1020.6 924.3,1020.6 
				924.3,1071.9 1057.4,1071.9 1057.4,1126 1116,1126 1116,994.3 1183.3,994.3 1183.3,1098.2 1230.2,1098.2 1230.2,1129 1277,1129 
				1277,1102.6 1300.4,1102.6 1300.4,1032.4 1328.2,1032.4 1328.2,1013.3 1449.7,1013.3 1449.7,1032.4 1476,1032.4 1476,1111.4 
				1499.5,1111.4 1499.5,1134.8 1528.7,1134.8 1528.7,1079.2 1661.9,1079.2 1661.9,1109.9 1777.5,1109.9 1777.5,1149.4 
				1841.9,1149.4 1841.9,1127.5 1880,1127.5 1880,1149.4 1928.3,1149.4 1928.3,1175.8 1981,1175.8 1981,1194.3 			"/>
		</g>
	</g>
</g>
</svg>
