<svg xmlns="http://www.w3.org/2000/svg" xmlns:xlink="http://www.w3.org/1999/xlink" viewBox="0 0 2108.57 1196.28"><defs><style>.cls-1{fill:none;}.cls-2{isolation:isolate;}.cls-3{fill:url(#linear-gradient);}.cls-4{clip-path:url(#clip-path);}.cls-5{opacity:0.56;}.cls-6{mix-blend-mode:multiply;}.cls-7{fill:#c7ceef;}.cls-8{fill:#afb9ef;}.cls-9{fill:#9ba9ef;}.cls-10{fill:#8697ef;}</style><linearGradient id="linear-gradient" x1="977.81" y1="1197.94" x2="977.81" y2="219.29" gradientTransform="translate(2065.39 1228.25) rotate(180)" gradientUnits="userSpaceOnUse"><stop offset="0" stop-color="#5180ef"/><stop offset="1" stop-color="#3056d9"/></linearGradient><clipPath id="clip-path" transform="translate(127.58)"><rect class="cls-1" width="1920" height="950"/></clipPath></defs><title>bg-city1</title><g class="cls-2"><g id="Object"><rect class="cls-3" x="127.58" width="1920" height="950"/><g class="cls-4"><g class="cls-5"><g class="cls-6"><polygon class="cls-7" points="107.33 1194.33 107.33 1167.01 236.13 1167.01 236.13 964.05 296.62 964.05 296.62 626.45 323.94 626.45 323.94 603.03 394.2 603.03 394.2 624.5 419.57 624.5 419.57 821.6 470.31 821.6 470.31 790.37 597.15 790.37 597.15 747.44 614.71 747.44 614.71 446.91 640.08 446.91 640.08 411.79 659.6 411.79 659.6 366.9 677.16 366.9 677.16 409.83 694.73 409.83 694.73 448.86 724 448.86 724 774.76 805.96 774.76 805.96 708.41 895.73 708.41 895.73 782.57 946.47 782.57 946.47 624.5 995.25 624.5 995.25 708.41 1012.82 708.41 1012.82 805.99 1012.82 823.55 1079.17 823.55 1079.17 523.02 1190.4 398.13 1211.87 398.13 1211.87 751.34 1248.95 751.34 1248.95 710.36 1367.98 710.36 1367.98 751.34 1403.11 751.34 1403.11 390.32 1442.14 390.32 1442.14 359.1 1522.15 359.1 1522.15 392.27 1561.18 392.27 1561.18 727.92 1631.43 727.92 1631.43 761.1 1699.74 761.1 1699.74 604.98 1717.3 591.32 1809.02 591.32 1826.58 608.88 1826.58 794.27 1875.37 794.27 1875.37 901.61 1922.21 901.61 1922.21 1008.94 1922.21 1194.33 107.33 1194.33"/></g><g class="cls-6"><rect class="cls-8" x="821.33" y="1058.7" width="0.73" height="1.46"/><path class="cls-8" d="M1886.34,1114.32v-64.4h-31.22V905.51h-42.93v85.87H1767.3V962.1h-42.93V860.63h-83.91V817.7H1517.51v37.08h-56.59V804h-52.69V685h-21.47l-72.21,48.79v48.79h-44.88v48.79h-46.84V688.9h-23.42V665.48h-17.56v21.47h-23.42V905.51h-66.35V811.84h-74.16v50.74H922.31V772.81H902.79V753.3H850.1v17.56H834.49v83.91h-25V787.08c.07-7.6.08-15.59,0-23.87v-4.79h-.05c-1.18-88.15-12.58-204.1-64.74-198.32C702.7,564.75,694,675,693.49,758.42h-.11v92.45H662.76V749.39H539.82v99.53H465.66v46.84H442.24v-203H420.78V638.16H413V692.8H387.6V897.71H319.3V848.92H266.61V825.5H196.36v25.37H122.2V977.72H79.27v193.2H-100.27v21.47l2051,3.9v-82Z" transform="translate(127.58)"/></g><g class="cls-6"><polygon class="cls-9" points="34.63 1184.57 34.63 1172.86 157.58 1172.86 157.58 1074.8 157.58 1055.78 220.51 1055.78 220.51 932.83 274.67 932.83 274.67 1055.78 312.72 1055.78 312.72 1011.87 331.75 1011.87 331.75 988.45 456.15 988.45 456.15 1011.87 475.18 1011.87 475.18 1055.78 548.36 1055.78 548.36 966.5 586.42 966.5 586.42 1055.78 623.01 1055.78 623.01 932.83 639.11 932.83 639.11 915.27 764.98 915.27 764.98 932.83 781.08 932.83 781.08 981.13 823.52 981.13 823.52 1030.89 904.02 1030.89 904.02 1060.17 1026.96 1060.17 1026.96 937.22 1076.73 937.22 1076.73 912.34 1101.61 912.34 1101.61 937.22 1151.37 937.22 1151.37 998.7 1192.35 998.7 1192.35 1036.75 1353.35 1036.75 1353.35 919.66 1530.44 919.66 1530.44 967.96 1651.92 967.96 1651.92 1008.94 1710.47 1008.94 1710.47 922.59 1733.89 922.59 1733.89 907.95 1786.58 907.95 1786.58 922.59 1807.07 922.59 1807.07 1008.94 1867.08 1008.94 1867.08 1061.63 1927.08 1061.63 1927.08 1038.21 1962.21 1038.21 1962.21 1093.83 2033.93 1093.83 2033.93 1167.01 2086.62 1167.01 2086.62 1183.11 2086.62 1194.82 34.63 1194.82 34.63 1184.57"/></g><g class="cls-6"><polygon class="cls-10" points="2080.28 1194.33 0 1194.33 0 1155.3 76.11 1155.3 76.11 1124.08 132.7 1124.08 132.7 1030.41 179.54 1030.41 179.54 1124.08 232.22 1124.08 232.22 1079.19 242.74 1079.19 242.74 1068.39 309.63 1068.39 309.63 1079.19 318.57 1079.19 318.57 1123.1 339.07 1123.1 339.07 1057.24 372.73 1057.24 372.73 1126.03 382.97 1126.03 382.97 1104.08 413.71 1104.08 413.71 1066.02 459.08 1066.02 459.08 1118.71 507.38 1118.71 507.38 1011.87 532.26 1011.87 532.26 997.23 661.06 997.23 661.06 1016.26 680.09 1016.26 680.09 1124.57 706.43 1124.57 706.43 1098.22 731.31 1098.22 731.31 1124.57 757.66 1124.57 757.66 1085.05 816.2 1085.05 816.2 1126.03 816.2 1137.74 849.87 1137.74 873.28 1137.74 873.28 956.25 890.85 956.25 890.85 946 918.66 946 918.66 957.71 934.76 957.71 934.76 1102.61 993.3 1102.61 993.3 1020.65 1051.85 1020.65 1051.85 1071.88 1185.03 1071.88 1185.03 1126.03 1243.58 1126.03 1243.58 994.3 1310.9 994.3 1310.9 1098.22 1357.74 1098.22 1357.74 1128.96 1404.58 1128.96 1404.58 1102.61 1427.99 1102.61 1427.99 1032.36 1455.8 1032.36 1455.8 1013.33 1577.28 1013.33 1577.28 1032.36 1603.63 1032.36 1603.63 1111.39 1627.04 1111.39 1627.04 1134.81 1656.32 1134.81 1656.32 1079.19 1789.51 1079.19 1789.51 1109.93 1905.13 1109.93 1905.13 1149.45 1969.53 1149.45 1969.53 1127.49 2007.58 1127.49 2007.58 1149.45 2055.88 1149.45 2055.88 1175.79 2108.57 1175.79 2108.57 1194.33 2080.28 1194.33"/></g></g></g></g></g></svg>