<svg xmlns="http://www.w3.org/2000/svg" viewBox="0 0 526.2 208.92"><defs><style>.cls-1{isolation:isolate;}.cls-2{opacity:0.56;}.cls-3{mix-blend-mode:multiply;}.cls-4{fill:#c7ceef;}.cls-5{fill:#afb9ef;}.cls-6{fill:#9ba9ef;}.cls-7{fill:#8697ef;}</style></defs><title>bg-price</title><g class="cls-1"><g id="Isolation_Mode" data-name="Isolation Mode"><g class="cls-2"><g class="cls-3"><polygon class="cls-4" points="26.78 208.43 26.78 201.62 58.93 201.62 58.93 150.97 74.02 150.97 74.02 66.72 80.84 66.72 80.84 60.87 98.37 60.87 98.37 66.23 104.7 66.23 104.7 115.42 117.36 115.42 117.36 107.63 149.02 107.63 149.02 96.91 153.4 96.91 153.4 21.91 159.73 21.91 159.73 13.15 164.6 13.15 164.6 1.95 168.99 1.95 168.99 12.66 173.37 12.66 173.37 22.4 180.68 22.4 180.68 103.73 201.13 103.73 201.13 87.17 223.53 87.17 223.53 105.68 236.19 105.68 236.19 66.23 248.37 66.23 248.37 87.17 252.75 87.17 252.75 111.52 252.75 115.91 269.31 115.91 269.31 40.91 297.07 9.74 302.42 9.74 302.42 97.89 311.68 97.89 311.68 87.66 341.38 87.66 341.38 97.89 350.15 97.89 350.15 7.79 359.89 7.79 359.89 0 379.86 0 379.86 8.28 389.6 8.28 389.6 92.04 407.13 92.04 407.13 100.32 424.17 100.32 424.17 61.36 428.56 57.95 451.44 57.95 455.83 62.34 455.83 108.6 468 108.6 468 135.38 479.69 135.38 479.69 162.17 479.69 208.43 26.78 208.43"/></g><g class="cls-3"><rect class="cls-5" x="204.96" y="174.59" width="0.18" height="0.37"/><path class="cls-5" d="M502.58,188.47V172.4h-7.79v-36H484.07v21.43h-11.2v-7.3H462.16V125.16H441.22V114.44H410.54v9.25H396.41V111H383.26V81.33h-5.36l-18,12.17v12.18h-11.2v12.18H337V82.3h-5.84V76.46h-4.38v5.36h-5.84v54.54H304.37V113H285.87v12.66H262v-22.4h-4.87V98.37H244v4.38h-3.9V123.7h-6.23V106.8c0-1.9,0-3.89,0-6v-1.2h0c-.3-22-3.14-50.93-16.16-49.49C207.2,51.32,205,78.85,204.9,99.65h0v23.07h-7.64V97.4H166.55v24.84H148v11.69H142.2V83.28h-5.36V69.64H134.9V83.28h-6.33v51.13h-17V122.24H98.37v-5.84H80.84v6.33H62.33v31.65H51.62v48.21H6.82v5.36l511.83,1V188.47Z"/></g><g class="cls-3"><polygon class="cls-6" points="8.64 206 8.64 203.08 39.32 203.08 39.32 178.6 39.32 173.86 55.03 173.86 55.03 143.18 68.54 143.18 68.54 173.86 78.04 173.86 78.04 162.9 82.79 162.9 82.79 157.06 113.83 157.06 113.83 162.9 118.58 162.9 118.58 173.86 136.84 173.86 136.84 151.58 146.34 151.58 146.34 173.86 155.47 173.86 155.47 143.18 159.49 143.18 159.49 138.79 190.9 138.79 190.9 143.18 194.92 143.18 194.92 155.23 205.51 155.23 205.51 167.65 225.6 167.65 225.6 174.95 256.28 174.95 256.28 144.27 268.7 144.27 268.7 138.06 274.91 138.06 274.91 144.27 287.33 144.27 287.33 159.61 297.55 159.61 297.55 169.11 337.73 169.11 337.73 139.89 381.93 139.89 381.93 151.94 412.24 151.94 412.24 162.17 426.85 162.17 426.85 140.62 432.69 140.62 432.69 136.97 445.84 136.97 445.84 140.62 450.96 140.62 450.96 162.17 465.93 162.17 465.93 175.32 480.91 175.32 480.91 169.47 489.67 169.47 489.67 183.35 507.57 183.35 507.57 201.62 520.72 201.62 520.72 205.63 520.72 208.56 8.64 208.56 8.64 206"/></g><g class="cls-3"><polygon class="cls-7" points="519.14 208.43 0 208.43 0 198.69 18.99 198.69 18.99 190.9 33.12 190.9 33.12 167.53 44.8 167.53 44.8 190.9 57.95 190.9 57.95 179.7 60.58 179.7 60.58 177 77.27 177 77.27 179.7 79.5 179.7 79.5 190.66 84.61 190.66 84.61 174.22 93.02 174.22 93.02 191.39 95.57 191.39 95.57 185.91 103.24 185.91 103.24 176.41 114.56 176.41 114.56 189.56 126.62 189.56 126.62 162.9 132.83 162.9 132.83 159.25 164.97 159.25 164.97 164 169.72 164 169.72 191.02 176.29 191.02 176.29 184.45 182.5 184.45 182.5 191.02 189.07 191.02 189.07 181.16 203.69 181.16 203.69 191.39 203.69 194.31 212.09 194.31 217.93 194.31 217.93 149.02 222.31 149.02 222.31 146.46 229.25 146.46 229.25 149.39 233.27 149.39 233.27 185.54 247.88 185.54 247.88 165.09 262.49 165.09 262.49 177.88 295.73 177.88 295.73 191.39 310.34 191.39 310.34 158.52 327.14 158.52 327.14 184.45 338.83 184.45 338.83 192.12 350.51 192.12 350.51 185.54 356.36 185.54 356.36 168.01 363.3 168.01 363.3 163.26 393.61 163.26 393.61 168.01 400.19 168.01 400.19 187.74 406.03 187.74 406.03 193.58 413.34 193.58 413.34 179.7 446.57 179.7 446.57 187.37 475.43 187.37 475.43 197.23 491.5 197.23 491.5 191.75 501 191.75 501 197.23 513.05 197.23 513.05 203.81 526.2 203.81 526.2 208.43 519.14 208.43"/></g></g></g></g></svg>