<svg id="Layer_1" data-name="Layer 1" xmlns="http://www.w3.org/2000/svg" viewBox="0 0 164.67 153.67"><title>circle</title><path d="M148.77,89.62c0-.81.06-1.63.06-2.45A66.57,66.57,0,0,0,107,25.44c0-.26,0-.51,0-.77a24.67,24.67,0,0,0-49.33,0c0,.26,0,.51,0,.76A66.58,66.58,0,0,0,15.83,87.17c0,.82,0,1.63.07,2.45a24.66,24.66,0,1,0,19.94,45,66.31,66.31,0,0,0,93,0,24.66,24.66,0,1,0,20-45ZM82.33,7A17.67,17.67,0,1,1,64.67,24.67,17.69,17.69,0,0,1,82.33,7ZM7,112.67a17.67,17.67,0,1,1,17.67,17.67A17.69,17.69,0,0,1,7,112.67Zm75.33,34a59.23,59.23,0,0,1-40.68-16.14A24.65,24.65,0,0,0,24.67,88c-.61,0-1.21,0-1.81.07,0-.3,0-.6,0-.91A59.58,59.58,0,0,1,58.94,32.47a24.66,24.66,0,0,0,46.78,0,59.55,59.55,0,0,1,36.11,54.68c0,.3,0,.6,0,.91-.6,0-1.2-.07-1.81-.07a24.65,24.65,0,0,0-17,42.52A59.25,59.25,0,0,1,82.33,146.67ZM140,130.33a17.67,17.67,0,1,1,17.67-17.67A17.69,17.69,0,0,1,140,130.33Z"/></svg>