<?xml version="1.0" encoding="utf-8"?>
<!-- Generator: Adobe Illustrator 21.1.0, SVG Export Plug-In . SVG Version: 6.00 Build 0)  -->
<svg version="1.1" id="Object" xmlns="http://www.w3.org/2000/svg" xmlns:xlink="http://www.w3.org/1999/xlink" x="0px" y="0px"
	 viewBox="0 0 601.6 979" style="enable-background:new 0 0 601.6 979;" xml:space="preserve">
<style type="text/css">
	.st0{fill:url(#SVGID_1_);}
	.st1{opacity:0.27;fill:#FFFFFF;}
</style>
<linearGradient id="SVGID_1_" gradientUnits="userSpaceOnUse" x1="686.512" y1="491.7591" x2="686.512" y2="-516.7667" gradientTransform="matrix(-1 0 0 -1 987.294 522.998)">
	<stop  offset="0" style="stop-color:#5180EF"/>
	<stop  offset="1" style="stop-color:#3056D9"/>
</linearGradient>
<rect class="st0" width="601.6" height="979"/>
<g>
	<path class="st1" d="M601.6,802.6V979H0V793.1c1.7-0.4,3.3-0.8,5-1.3c2.6-0.8,5.1-1.5,7.7-2.2c52-14.1,105.4-14.2,157.4,0
		c43,11.7,84.9,33,127.6,47.5c0.8,0.3,1.5,0.5,2.3,0.8c9.7,3.2,19.4,6.1,29.2,8.6c16.3,4.2,33.4,8.1,50.6,10.9
		c31.8,5.3,64.5,7,95.5,1.2c6.2-1.2,12.4-2.6,18.4-4.4c25.9-7.7,51.3-17.5,76.2-31.5c5.3-3,10.6-6.2,15.8-9.5
		C591.1,809.8,596.4,806.3,601.6,802.6z"/>
	<path class="st1" d="M601.6,817.8V979H0V787.6c4.2,0.6,8.5,1.2,12.7,2c2.3,0.4,4.6,0.9,6.9,1.3c68.4,14.3,134.7,54.5,202.2,73.8
		c25.3,7.2,50.8,11.6,76.6,10.5c27.5-1.2,54.6-8.4,81.5-17.8c17.2-6,34.3-12.8,51.5-19.4c10-3.8,19.9-7.6,29.9-11
		c40.7-14.1,83.6-23.3,124.6-13.8C591.1,814.4,596.4,815.9,601.6,817.8z"/>
	<path class="st1" d="M601.6,921.9V979H0v-58.1c35.9,3.8,73-2.1,108.1-12.6c38.7-11.6,76-28.4,113.6-43.7
		c15.1-6.1,30.3-12,45.7-17.2c10.7-3.6,21.6-6.9,32.6-9.6c43.6-11,88.9-14.2,131.3,0.1c0.6,0.2,1.2,0.4,1.8,0.6
		c14.7,5.1,28.6,12.2,42.2,20c20.8,12,40.9,25.7,62,37.1C557.9,906.8,579.5,915.5,601.6,921.9z"/>
</g>
</svg>
