<svg id="Layer_1" data-name="Layer 1" xmlns="http://www.w3.org/2000/svg" viewBox="0 0 479.33 479.33"><defs><style>.cls-1,.cls-2,.cls-3,.cls-4{fill:#d2e4f7;}.cls-1{opacity:0.1;}.cls-2{opacity:0.4;}.cls-3{opacity:0.7;}.cls-5{fill:none;}.cls-5,.cls-6,.cls-7,.cls-8{stroke:#5c82ee;stroke-linecap:round;stroke-linejoin:round;stroke-width:5px;}.cls-6{fill:#bfdbff;}.cls-7{fill:#94c2ff;}.cls-8,.cls-9{fill:#fff;}</style></defs><title>item6</title><circle class="cls-1" cx="239.67" cy="239.67" r="239.67"/><circle class="cls-2" cx="239.67" cy="239.67" r="201.17"/><circle class="cls-3" cx="239.67" cy="239.67" r="162.67"/><circle class="cls-4" cx="239.67" cy="239.67" r="124.17"/><circle class="cls-5" cx="421.35" cy="225.08" r="7.02" transform="translate(-30.74 70.77) rotate(-9.26)"/><circle class="cls-5" cx="82.96" cy="139.88" r="7.02" transform="translate(-21.44 15.18) rotate(-9.26)"/><circle class="cls-5" cx="243.94" cy="53.6" r="7.02" transform="translate(-5.45 39.97) rotate(-9.26)"/><circle class="cls-5" cx="247.35" cy="402.08" r="7.02" transform="translate(-61.5 45.06) rotate(-9.26)"/><line class="cls-5" x1="320.22" y1="408.92" x2="320.22" y2="415.09"/><line class="cls-5" x1="320.22" y1="425.6" x2="320.22" y2="431.76"/><line class="cls-5" x1="331.64" y1="420.34" x2="325.48" y2="420.34"/><line class="cls-5" x1="314.97" y1="420.34" x2="308.8" y2="420.34"/><line class="cls-5" x1="73.48" y1="317.33" x2="73.48" y2="323.5"/><line class="cls-5" x1="73.48" y1="334.01" x2="73.48" y2="340.17"/><line class="cls-5" x1="84.9" y1="328.75" x2="78.73" y2="328.75"/><line class="cls-5" x1="68.22" y1="328.75" x2="62.05" y2="328.75"/><line class="cls-5" x1="441.48" y1="144.33" x2="441.48" y2="150.5"/><line class="cls-5" x1="441.48" y1="161.01" x2="441.48" y2="167.17"/><line class="cls-5" x1="452.9" y1="155.75" x2="446.73" y2="155.75"/><line class="cls-5" x1="436.22" y1="155.75" x2="430.05" y2="155.75"/><line class="cls-5" x1="121.48" y1="94.33" x2="121.48" y2="100.5"/><line class="cls-5" x1="121.48" y1="111.01" x2="121.48" y2="117.17"/><line class="cls-5" x1="132.9" y1="105.75" x2="126.73" y2="105.75"/><line class="cls-5" x1="116.22" y1="105.75" x2="110.05" y2="105.75"/><path class="cls-6" d="M187.4,162s-74,73-67,192c2.5,1,18,1,18,1s-.5-123.5,54.5-182.5C193.9,174.54,202.9,154.54,187.4,162Z"/><path class="cls-7" d="M188.9,158.54s-51-15-63.5,33.5C126.4,190.54,188.9,158.54,188.9,158.54Z"/><path class="cls-7" d="M192.9,160.54l3,72.5S229.9,187,192.9,160.54Z"/><path class="cls-7" d="M192.4,154.54s-30-37.5-71.5-4.5C120.4,150,192.4,154.54,192.4,154.54Z"/><path class="cls-7" d="M234.4,215.54s11.5-55.5-42-59C193.4,157.54,234.4,215.54,234.4,215.54Z"/><path class="cls-7" d="M72.07,225.71s18.33-28.33,50-5Z"/><path class="cls-7" d="M44.4,266.71l27.67-41S39.4,224.37,44.4,266.71Z"/><path class="cls-7" d="M74.07,227.37,71.4,277S47.07,253.71,74.07,227.37Z"/><path class="cls-7" d="M76.4,229l43,20.33S111.4,215,76.4,229Z"/><path class="cls-6" d="M115.07,355.37s-3.67-78.33-42-121c2-7.33,1-7,1-7S115.4,258,138.4,355Z"/><path class="cls-8" d="M246.4,232l65,37.11,62.31,35.56s15.67-45.67-37.67-83C306.07,203,268.07,212.37,246.4,232Z"/><line class="cls-5" x1="257.9" y1="361.04" x2="311.42" y2="269.14"/><path class="cls-8" d="M66.9,372s42-35,206.5-11c40,.5,69-22,123.5-5.5s59,25,59,25Z"/><path class="cls-6" d="M171.4,256.54l59,1s-3.31,19.49.27,39.12c2.84,15.62,10,31.33,26.73,37.38,5.33,1.33,20.67,2.33,30-6,.67-.67,61.67,0,61.67,0a65.8,65.8,0,0,1-29.67,10.67c.67-.33-105.33,0-105.33,0s-32-2.33-41-34a97.31,97.31,0,0,1-2-16.67Z"/><line class="cls-5" x1="295.4" y1="359.04" x2="230.67" y2="296.66"/><line class="cls-5" x1="255.74" y1="321.04" x2="248.4" y2="329.71"/><line class="cls-5" x1="172.4" y1="277.37" x2="227.4" y2="277.37"/><line class="cls-5" x1="181.4" y1="319.71" x2="238.07" y2="319.71"/><path class="cls-7" d="M336.47,223.52S355,248.9,338.2,284c.25-.24-55.8-31.48-55.8-31.48S305.36,216.93,336.47,223.52Z"/><circle class="cls-6" cx="307.9" cy="127.54" r="29.5"/><path class="cls-8" d="M328.6,128.28a31.16,31.16,0,0,1,34.07-17.09c13.1,2.59,25.73,15.11,25.26,31.56a56.45,56.45,0,0,1,6.27,1.26c16.08,5.12,20.47,26.07,7.94,37.83a21.14,21.14,0,0,1-14.92,6q-36.93,0-73.85,0a24.4,24.4,0,0,1-23.88-27.35c1.26-9.33,6.48-15.63,15-19.27a1.9,1.9,0,0,0,1.26-1.48c2-8.2,9-13.42,17.11-12.73A41.18,41.18,0,0,1,328.6,128.28Z"/><path class="cls-9" d="M173.6,279.88l52.75.13a76.07,76.07,0,0,0,2.13,17.5c.13-.25-54-.12-54-.12S172.6,286.26,173.6,279.88Z"/><path class="cls-9" d="M185.35,322.26h52.38s8.38,11,18.13,13.63c-.25.13-40.25,2.25-50.87-1.5C205.35,334.76,195.1,332.63,185.35,322.26Z"/><polyline class="cls-5" points="233.4 355.04 195.91 320.85 172.74 299.71 231.4 299.71"/><line class="cls-5" x1="176.4" y1="352.04" x2="196.74" y2="319.71"/></svg>