<svg id="Layer_1" data-name="Layer 1" xmlns="http://www.w3.org/2000/svg" viewBox="0 0 487.31 479.33"><defs><style>.cls-1,.cls-2,.cls-3,.cls-4{fill:#d2e4f7;}.cls-1{opacity:0.1;}.cls-2{opacity:0.4;}.cls-3{opacity:0.7;}.cls-13,.cls-5{fill:none;}.cls-12,.cls-13,.cls-5,.cls-6,.cls-7{stroke:#5c82ee;stroke-width:5px;}.cls-12,.cls-5{stroke-linecap:round;stroke-linejoin:round;}.cls-10,.cls-6{fill:#94c2ff;}.cls-13,.cls-6,.cls-7{stroke-miterlimit:10;}.cls-12,.cls-7,.cls-8{fill:#fff;}.cls-9{fill:#bfdbff;}.cls-11{fill:#5c82ee;}</style></defs><title>item4</title><circle class="cls-1" cx="247.64" cy="239.67" r="239.67"/><circle class="cls-2" cx="247.64" cy="239.67" r="201.17"/><circle class="cls-3" cx="247.64" cy="239.67" r="162.67"/><circle class="cls-4" cx="247.64" cy="239.67" r="124.17"/><circle class="cls-5" cx="106.21" cy="116.73" r="7.02" transform="translate(-14.91 18.62) rotate(-9.26)"/><circle class="cls-5" cx="270.33" cy="373.17" r="7.02" transform="translate(-54.05 48.39) rotate(-9.26)"/><line class="cls-5" x1="142.92" y1="70.33" x2="142.92" y2="76.5"/><line class="cls-5" x1="142.92" y1="87.01" x2="142.92" y2="93.17"/><line class="cls-5" x1="154.34" y1="81.75" x2="148.18" y2="81.75"/><line class="cls-5" x1="137.67" y1="81.75" x2="131.5" y2="81.75"/><circle class="cls-5" cx="28.1" cy="196.18" r="7.02" transform="translate(-28.72 7.08) rotate(-9.26)"/><circle class="cls-5" cx="434.29" cy="194.08" r="7.02" transform="translate(-23.08 72.45) rotate(-9.26)"/><line class="cls-5" x1="318.92" y1="69.84" x2="318.92" y2="76.01"/><line class="cls-5" x1="318.92" y1="86.52" x2="318.92" y2="92.68"/><line class="cls-5" x1="330.34" y1="81.26" x2="324.18" y2="81.26"/><line class="cls-5" x1="313.67" y1="81.26" x2="307.5" y2="81.26"/><line class="cls-5" x1="13.92" y1="228.33" x2="13.92" y2="234.5"/><line class="cls-5" x1="13.92" y1="245.01" x2="13.92" y2="251.17"/><line class="cls-5" x1="25.34" y1="239.75" x2="19.18" y2="239.75"/><line class="cls-5" x1="8.67" y1="239.75" x2="2.5" y2="239.75"/><line class="cls-5" x1="161.5" y1="378.59" x2="161.5" y2="384.75"/><line class="cls-5" x1="161.5" y1="395.26" x2="161.5" y2="401.43"/><line class="cls-5" x1="172.92" y1="390.01" x2="166.75" y2="390.01"/><line class="cls-5" x1="156.25" y1="390.01" x2="150.08" y2="390.01"/><path class="cls-6" d="M349.46,149c0-4.76-2-8.26-6.33-10.25A11.33,11.33,0,0,0,340,138a21.12,21.12,0,0,0-2.95-.09l-79.28,0h-121a21.12,21.12,0,0,0-2.95.09,11.33,11.33,0,0,0-3.11.77c-4.36,2-6.34,5.49-6.33,10.25q0,32.15,0,64.29,0,37.63,0,75.26a11,11,0,0,0,.45,3.59c1.73,4.86,5.4,7.38,10.54,7.38H215a13.52,13.52,0,0,1-.12,1.43c-.6,3-1.24,6-1.84,9.07-1.07,5.36-2.15,10.73-3.17,16.1-.21,1.11-.63,1.64-1.72,1.7H208a1.77,1.77,0,0,0-.52,0c-3.07-.08-6.15-.06-9.23,0a3.35,3.35,0,0,0-3.53,3.68c.12,1.88,1.6,3.11,3.81,3.11h76.8c2.21,0,3.69-1.23,3.81-3.11a3.35,3.35,0,0,0-3.53-3.68c-3.08-.07-6.15-.09-9.23,0a1.77,1.77,0,0,0-.52,0h-.12c-1.09-.05-1.51-.58-1.72-1.7-1-5.37-2.1-10.74-3.17-16.1-.6-3-1.24-6-1.84-9.07a13.52,13.52,0,0,1-.12-1.43h47.93a2.07,2.07,0,0,0,.94,0h30.65c.35,0,.67,0,1-.06h.38a6.56,6.56,0,0,0,1.94-.35,10.23,10.23,0,0,0,7.22-7,11,11,0,0,0,.45-3.59q0-37.63,0-75.26,0-6.15,0-12.31t0-12.31q0-6.06,0-12.13v-.06q0-6.16,0-12.32t0-12.32Q349.45,150.45,349.46,149Z" transform="translate(2.5)"/><path class="cls-7" d="M342.5,170.39q0-2.82,0-5.64c0-3.73,0-7.46,0-11.19q0-1.35,0-2.7a7.33,7.33,0,0,0-1.18-4.56,4,4,0,0,0-3.38-1.25H135.78c-3.12,0-4.41,1.64-4.41,5.57q0,3,0,6c0,.2,0,.41,0,.65q.07,66.33,0,132.67a6.59,6.59,0,0,0,.08,1.15,1.7,1.7,0,0,0,.28.73,1.06,1.06,0,0,0,.55.38,2.82,2.82,0,0,0,.88.1c5.14,0,10.28-.05,15.43-.05h17.57c.51,0,1,0,1.54,0H306.26c.57,0,1.15,0,1.71,0H340.5a9,9,0,0,0,1.17,0l.11,0a1.05,1.05,0,0,0,.6-.51,1.87,1.87,0,0,0,.05-.24s0-.09,0-.14,0-.19,0-.3,0-.16,0-.25,0-.21,0-.33,0-.43,0-.7q0-44.59,0-89.18V194c0-.55,0-1.11,0-1.7s0-1.25,0-1.93v-4.23c0-2.1,0-4.15,0-6.23Q342.49,175.15,342.5,170.39Z" transform="translate(2.5)"/><path class="cls-8" d="M85.82,197.92V355.65h92.46a16.32,16.32,0,0,0,16.32-16.32V197.92Z" transform="translate(2.5)"/><path class="cls-9" d="M162,339.34V328.46H61.35v10.88a16.32,16.32,0,0,0,16.32,16.32H178.29A16.32,16.32,0,0,1,162,339.34Z" transform="translate(2.5)"/><polygon class="cls-8" points="101.92 216.96 145.43 216.96 145.43 268.63 101.92 268.63 101.92 216.96 101.92 216.96"/><path class="cls-10" d="M121.18,225.12a8.16,8.16,0,1,1-8.16,8.16,8.16,8.16,0,0,1,8.16-8.16Z" transform="translate(2.5)"/><path class="cls-10" d="M126.62,246.87H115.74a5.44,5.44,0,0,0-5.44,5.44v16.32h21.76V252.31a5.44,5.44,0,0,0-5.44-5.44Z" transform="translate(2.5)"/><path class="cls-11" d="M85.82,290.21a2.55,2.55,0,0,0,2.55-2.55v-87.2h76.32a2.55,2.55,0,1,0,0-5.1H85.82a2.55,2.55,0,0,0-2.55,2.55v89.75a2.55,2.55,0,0,0,2.55,2.55Z" transform="translate(2.5)"/><path class="cls-11" d="M112.85,266.08V252.31a2.89,2.89,0,0,1,2.89-2.89h10.88a2.89,2.89,0,0,1,2.89,2.89v13.77ZM102,219.51h38.41v46.57h-5.78V252.31a8,8,0,0,0-8-8H115.74a8,8,0,0,0-8,8v13.77H102V219.51Zm41,51.67a2.55,2.55,0,0,0,2.55-2.55V217a2.55,2.55,0,0,0-2.55-2.55H99.42A2.55,2.55,0,0,0,96.87,217v51.67a2.55,2.55,0,0,0,2.55,2.55Z" transform="translate(2.5)"/><path class="cls-11" d="M121.18,227.66a5.61,5.61,0,1,1-5.61,5.61,5.62,5.62,0,0,1,5.61-5.61Zm0,16.32a10.71,10.71,0,1,0-10.71-10.71A10.72,10.72,0,0,0,121.18,244Z" transform="translate(2.5)"/><path class="cls-11" d="M181,219.85h-27.2a2.55,2.55,0,1,0,0,5.1H181a2.55,2.55,0,1,0,0-5.1Z" transform="translate(2.5)"/><path class="cls-11" d="M181,233.44h-27.2a2.55,2.55,0,1,0,0,5.1H181a2.55,2.55,0,1,0,0-5.1Z" transform="translate(2.5)"/><path class="cls-11" d="M181,247h-27.2a2.55,2.55,0,1,0,0,5.1H181a2.55,2.55,0,1,0,0-5.1Z" transform="translate(2.5)"/><path class="cls-11" d="M183.56,263.19a2.55,2.55,0,0,0-2.55-2.55h-27.2a2.55,2.55,0,1,0,0,5.1H181a2.55,2.55,0,0,0,2.55-2.55Z" transform="translate(2.5)"/><path class="cls-11" d="M110.3,282.4h-2.72a2.55,2.55,0,0,0,0,5.1h2.72a2.55,2.55,0,1,0,0-5.1Z" transform="translate(2.5)"/><path class="cls-11" d="M159.25,282.4H121.18a2.55,2.55,0,1,0,0,5.1h38.07a2.55,2.55,0,1,0,0-5.1Z" transform="translate(2.5)"/><path class="cls-11" d="M110.3,296h-2.72a2.55,2.55,0,0,0,0,5.1h2.72a2.55,2.55,0,0,0,0-5.1Z" transform="translate(2.5)"/><path class="cls-11" d="M159.25,296H121.18a2.55,2.55,0,1,0,0,5.1h38.07a2.55,2.55,0,1,0,0-5.1Z" transform="translate(2.5)"/><path class="cls-11" d="M110.3,309.59h-2.72a2.55,2.55,0,0,0,0,5.1h2.72a2.55,2.55,0,0,0,0-5.1Z" transform="translate(2.5)"/><path class="cls-11" d="M159.25,309.59H121.18a2.55,2.55,0,1,0,0,5.1h38.07a2.55,2.55,0,1,0,0-5.1Z" transform="translate(2.5)"/><path class="cls-11" d="M192.06,334v5.31a13.77,13.77,0,1,1-27.54,0V328.46a2.55,2.55,0,0,0-2.55-2.55H88.37V301.26a2.55,2.55,0,0,0-5.1,0v24.65H61.35a2.55,2.55,0,0,0-2.55,2.55v10.88A18.89,18.89,0,0,0,77.66,358.2H178.29a18.89,18.89,0,0,0,18.87-18.87v-2.21A14,14,0,0,1,192.06,334ZM77.66,353.1A13.78,13.78,0,0,1,63.9,339.34V331h95.52v8.33a18.82,18.82,0,0,0,6,13.77Z" transform="translate(2.5)"/><path class="cls-11" d="M192.06,275.3a14.32,14.32,0,0,1,4.92-.91h.18V197.92a2.55,2.55,0,0,0-2.55-2.55H178.29a2.55,2.55,0,1,0,0,5.1h13.77V275.3Z" transform="translate(2.5)"/><path class="cls-11" d="M192.23,337.89h4.93V270.64l-4.88,4.88S191.92,337.58,192.23,337.89Z" transform="translate(2.5)"/><path class="cls-12" d="M78,269.47A24.48,24.48,0,1,1,53.5,293.94,24.48,24.48,0,0,1,78,269.47Z" transform="translate(2.5)"/><path class="cls-11" d="M78,285.61h5.44a2.55,2.55,0,0,0,0-5.1H80.53v-2.89a2.55,2.55,0,1,0-5.1,0v3.31A8,8,0,0,0,78,296.49a2.89,2.89,0,1,1,0,5.78H72.54a2.55,2.55,0,0,0,0,5.1h2.89v2.89a2.55,2.55,0,1,0,5.1,0V307A8,8,0,0,0,78,291.39a2.89,2.89,0,1,1,0-5.78Z" transform="translate(2.5)"/><polygon class="cls-9" points="362.87 113.03 365.49 122.66 373.29 122.53 372.45 69.41 351.95 75.25 362.75 113.15 362.87 113.03 362.87 113.03"/><path class="cls-8" d="M345.22,161.63l-19.34.31a4,4,0,0,1-4.09-4l-.52-32.83a4,4,0,0,1,4-4.09l19.34-.31a4,4,0,0,1,4.09,4l.52,32.83a4,4,0,0,1-4,4.09Z" transform="translate(2.5)"/><polygon class="cls-9" points="373.9 161.22 372.33 62.1 421.89 61.32 423.46 160.43 395.98 160.86 373.9 161.22 373.9 161.22"/><path class="cls-8" d="M412.56,133l-.46-28.82L411.89,91l-.18-11.2a7.44,7.44,0,0,1-7.56-7.32l-18.75.3a7.44,7.44,0,0,1-7.32,7.56l.67,42.12L412.56,133Z" transform="translate(2.5)"/><path class="cls-9" d="M395.28,103.64a7.63,7.63,0,1,1-7.51,7.75,7.63,7.63,0,0,1,7.51-7.75Z" transform="translate(2.5)"/><path class="cls-8" d="M409.05,131.6l-6.31.1a4.84,4.84,0,0,0,4.76-4.91h0a4.84,4.84,0,0,0-4.91-4.76l-39.6.63-3.25-9L348.67,125.1l.47,29.61,5.63,4.76a8.14,8.14,0,0,0,5.38,1.92l38.07-.6a4.92,4.92,0,0,0,4.86-5,4.83,4.83,0,0,0-4.91-4.66l6.76-.11a4.92,4.92,0,0,0,4.86-5,4.84,4.84,0,0,0-4.91-4.66l4.31-.07a4.84,4.84,0,0,0,4.76-4.91h0a4.83,4.83,0,0,0-4.91-4.76Z" transform="translate(2.5)"/><path class="cls-8" d="M369.78,81.15l-2.48.71A7.44,7.44,0,0,1,362.19,91l8.58,29.88" transform="translate(2.5)"/><path class="cls-11" d="M335.39,151.71a2,2,0,1,0,1.43.57,2,2,0,0,0-1.43-.57Z" transform="translate(2.5)"/><path class="cls-11" d="M412,95.69a2,2,0,1,0,1.43.57,2,2,0,0,0-1.43-.57Z" transform="translate(2.5)"/><path class="cls-11" d="M395.49,116.88a5.61,5.61,0,1,1,5.52-5.7,5.62,5.62,0,0,1-5.52,5.7Zm23.43,41.57-14.38.23a6.83,6.83,0,0,0-.09-5.64h.63a6.85,6.85,0,0,0,6-10,6.84,6.84,0,0,0,3.52-10.74l-.4-25.53a2,2,0,1,0-4,.06l.36,22.92a6.85,6.85,0,0,0-1.47-.14H409a6.85,6.85,0,0,0-6.39-9.57l-3.24.05a9.64,9.64,0,1,0-7.57.12l-11,.17-.61-38.3a9.48,9.48,0,0,0,7.11-7.34l15.15-.24a9.48,9.48,0,0,0,7.34,7.11l.1,6.26a2,2,0,1,0,4-.06l-.13-8.06a2,2,0,0,0-2-2,5.43,5.43,0,0,1-5.51-5.34,2,2,0,0,0-2-2l-18.75.3a2,2,0,0,0-2,2,5.43,5.43,0,0,1-5.34,5.51,2,2,0,0,0-2,2l.63,40.1-3.94.06-.89-56.4,45.53-.72,1.5,95.08Zm-58.79.93a6.12,6.12,0,0,1-4-1.44l-4.93-4.17-.44-27.86,8.66-8.93,1.69,6.22a2,2,0,0,0,2,1.48l39.6-.62a2.82,2.82,0,1,1,.09,5.64l-20.29.32a2,2,0,1,0,.06,4l26.6-.42a2.82,2.82,0,0,1,.09,5.64l-26.6.42a2,2,0,1,0,.06,4l22.29-.35A2.82,2.82,0,1,1,405,149l-22.29.35a2,2,0,1,0,.06,4l15.42-.24a2.82,2.82,0,0,1,.09,5.64l-38.18.6Zm-14.93.24-19.34.31a2,2,0,0,1-2-2l-.52-32.83a2,2,0,0,1,2-2l7.65-.12.37,23.21a2,2,0,1,0,4-.06l-.37-23.21,7.65-.12a2,2,0,0,1,2,2l.52,32.83a2,2,0,0,1-2,2ZM368,72.07l.12,7.46-1.34.38a2,2,0,0,0-1.39,2.49,5.43,5.43,0,0,1-3.73,6.7,2,2,0,0,0-1.38,2.49l8.31,29-4,.06-2.21-8.12a2,2,0,0,0-.35-.7l-10-35.16,16-4.57Zm.53,33.7-3.89-13.55a9.44,9.44,0,0,0,3.62-3.45l.27,17Zm52.28-45.9a2,2,0,0,0-1.43-.57l-49.55.79a2,2,0,0,0-2,2l.09,5.76-19,5.42a2,2,0,0,0-1.39,2.49L358,112.58l-8.43,8.7a6,6,0,0,0-5-2.56L325.2,119a6.05,6.05,0,0,0-5.95,6.14l.52,32.83a6.05,6.05,0,0,0,6.14,5.95l19.34-.31A6.05,6.05,0,0,0,351,159l2.43,2.05a10.15,10.15,0,0,0,6.71,2.39l60.81-1a2,2,0,0,0,2-2L421.4,61.29a2,2,0,0,0-.61-1.42Z" transform="translate(2.5)"/><polyline class="cls-13" points="213.69 254.99 261.98 207.38 286.7 230.96 327.53 186.11"/><circle class="cls-7" cx="259.88" cy="208.52" r="7.91" transform="translate(-61.3 129.46) rotate(-25.02)"/><circle class="cls-7" cx="284.89" cy="229.22" r="7.91" transform="translate(-67.71 141.98) rotate(-25.02)"/><circle class="cls-7" cx="324.85" cy="185.52" r="7.91" transform="translate(-45.48 154.78) rotate(-25.02)"/><circle class="cls-7" cx="208.13" cy="257.97" r="7.91" transform="translate(-87.07 112.22) rotate(-25.02)"/><line class="cls-12" x1="238.98" y1="241.88" x2="238.98" y2="253.38"/><line class="cls-12" x1="275.35" y1="244.9" x2="275.35" y2="253.38"/><line class="cls-12" x1="287.57" y1="244.9" x2="287.57" y2="253.38"/><line class="cls-12" x1="298.49" y1="244.9" x2="298.49" y2="253.38"/><line class="cls-12" x1="251.06" y1="233.54" x2="251.06" y2="253.38"/><line class="cls-12" x1="309.85" y1="222.33" x2="309.85" y2="253.09"/><line class="cls-12" x1="320.76" y1="210.26" x2="320.76" y2="253.09"/><line class="cls-12" x1="331.89" y1="201.01" x2="331.89" y2="253.09"/><line class="cls-12" x1="263.42" y1="223.77" x2="263.42" y2="253.38"/><path class="cls-9" d="M416.35,329.45a161.49,161.49,0,0,1-51.29,49,161.48,161.48,0,0,1-51.29-49A139.69,139.69,0,0,1,291,262.37c0-.06.07-.14.17-.16,33.36-6.62,58.85-26,71.59-41.9a2.87,2.87,0,0,1,4.52,0c12.74,15.92,38.23,35.28,71.59,41.9.11,0,.18.1.17.16a139.67,139.67,0,0,1-22.73,67.09Z" transform="translate(2.5)"/><path class="cls-11" d="M439.9,256.94c-32-6.35-56.4-24.86-68.57-40.06a8,8,0,0,0-12.56,0c-12.17,15.21-36.57,33.72-68.57,40.06a5.34,5.34,0,0,0-4.31,5.55,144.82,144.82,0,0,0,23.56,69.57,166.89,166.89,0,0,0,54.28,51.39,2.57,2.57,0,0,0,2.63,0,166.87,166.87,0,0,0,54.28-51.39,144.84,144.84,0,0,0,23.56-69.57,5.34,5.34,0,0,0-4.31-5.55Zm-23.56,72.3a161.49,161.49,0,0,1-51.29,49,161.48,161.48,0,0,1-51.29-49A139.69,139.69,0,0,1,291,262.15c0-.06.07-.14.17-.16,33.36-6.62,58.85-26,71.59-41.9a2.87,2.87,0,0,1,4.52,0C380.05,236,405.55,255.37,438.9,262c.11,0,.18.1.17.16a139.67,139.67,0,0,1-22.73,67.09Zm0,0" transform="translate(2.5)"/><path class="cls-11" d="M365.05,230.33a2.58,2.58,0,0,0-2.58,2.58V364.75a2.58,2.58,0,1,0,5.15,0V232.9a2.58,2.58,0,0,0-2.58-2.58Zm0,0" transform="translate(2.5)"/></svg>