<svg id="Layer_1" data-name="Layer 1" xmlns="http://www.w3.org/2000/svg" xmlns:xlink="http://www.w3.org/1999/xlink" viewBox="0 0 479.33 479.33"><defs><style>.cls-1,.cls-7{fill:none;}.cls-2,.cls-3,.cls-4,.cls-5{fill:#d2e4f7;}.cls-2{opacity:0.1;}.cls-3{opacity:0.4;}.cls-4{opacity:0.7;}.cls-6,.cls-9{fill:#bfdbff;}.cls-6,.cls-7,.cls-8{stroke:#5c82ee;stroke-linecap:round;stroke-linejoin:round;stroke-width:5px;}.cls-11,.cls-8{fill:#fff;}.cls-10{fill:#5c82ee;}.cls-12{clip-path:url(#clip-path);}.cls-13{fill:#94c2ff;}.cls-14{fill:#5180e1;}.cls-15{clip-path:url(#clip-path-2);}.cls-16{clip-path:url(#clip-path-3);}</style><clipPath id="clip-path" transform="translate(0 8.96)"><circle class="cls-1" cx="97.86" cy="149.84" r="50.25"/></clipPath><clipPath id="clip-path-2" transform="translate(0 8.96)"><circle class="cls-1" cx="233.86" cy="104.51" r="50.25"/></clipPath><clipPath id="clip-path-3" transform="translate(0 8.96)"><circle class="cls-1" cx="373.19" cy="165.84" r="50.25"/></clipPath></defs><title>item5</title><circle class="cls-2" cx="239.67" cy="239.67" r="239.67"/><circle class="cls-3" cx="239.67" cy="239.67" r="201.17"/><circle class="cls-4" cx="239.67" cy="239.67" r="162.67"/><circle class="cls-5" cx="239.67" cy="239.67" r="124.17"/><rect class="cls-6" x="103.87" y="242.51" width="211.5" height="144.75" rx="8" ry="8"/><circle class="cls-7" cx="64.93" cy="75.9" r="7.02" transform="translate(-11.37 20.4) rotate(-9.26)"/><circle class="cls-7" cx="392.88" cy="76.1" r="7.02" transform="translate(-7.13 73.2) rotate(-9.26)"/><line class="cls-7" x1="23.01" y1="224.31" x2="23.01" y2="230.47"/><line class="cls-7" x1="23.01" y1="240.98" x2="23.01" y2="247.15"/><line class="cls-7" x1="34.43" y1="235.73" x2="28.26" y2="235.73"/><line class="cls-7" x1="17.75" y1="235.73" x2="11.59" y2="235.73"/><circle class="cls-7" cx="67.49" cy="248.9" r="7.02" transform="translate(-39.19 23.07) rotate(-9.26)"/><circle class="cls-7" cx="424.73" cy="246.92" r="7.02" transform="translate(-34.21 80.55) rotate(-9.26)"/><line class="cls-7" x1="332.59" y1="98.56" x2="332.59" y2="104.73"/><line class="cls-7" x1="332.59" y1="115.24" x2="332.59" y2="121.4"/><line class="cls-7" x1="344.01" y1="109.98" x2="337.84" y2="109.98"/><line class="cls-7" x1="327.33" y1="109.98" x2="321.16" y2="109.98"/><line class="cls-7" x1="227.59" y1="15.56" x2="227.59" y2="21.73"/><line class="cls-7" x1="227.59" y1="32.24" x2="227.59" y2="38.4"/><line class="cls-7" x1="239.01" y1="26.98" x2="232.84" y2="26.98"/><line class="cls-7" x1="222.33" y1="26.98" x2="216.16" y2="26.98"/><line class="cls-7" x1="80.59" y1="310.56" x2="80.59" y2="316.73"/><line class="cls-7" x1="80.59" y1="327.24" x2="80.59" y2="333.4"/><line class="cls-7" x1="92.01" y1="321.98" x2="85.84" y2="321.98"/><line class="cls-7" x1="75.33" y1="321.98" x2="69.16" y2="321.98"/><rect class="cls-8" x="115.79" y="253.59" width="189" height="121" rx="4" ry="4"/><path class="cls-9" d="M95.87,381.05H95.6a9,9,0,0,1-7.69-7.28,54.62,54.62,0,0,1-.29-6.33,2.5,2.5,0,0,1,2.5-2.5H330a2.5,2.5,0,0,1,2.5,2.5v5.75c0,.07,0,.13,0,.2a8.5,8.5,0,0,1-7.09,7.64,2.51,2.51,0,0,1-.4,0h-.06c-1.57,0-22.34-.06-61.73-.06-67.89,0-167.33.06-167.33.06Z" transform="translate(0 8.96)"/><path class="cls-10" d="M330,367.43v5.75a6.05,6.05,0,0,1-5,5.38c-1.79,0-27.85-.06-61.79-.06-67.89,0-167.33.06-167.33.06a6.49,6.49,0,0,1-5.5-5.25,58.41,58.41,0,0,1-.25-5.87H330m0-5H90.12a5,5,0,0,0-5,5,52.72,52.72,0,0,0,.33,6.77,11.51,11.51,0,0,0,9.88,9.33l.54,0h0c1,0,100.22-.06,167.33-.06,49,0,60.61,0,61.68.05H325a5,5,0,0,0,.8-.06,11,11,0,0,0,9.18-9.91q0-.2,0-.4v-5.75a5,5,0,0,0-5-5Z" transform="translate(0 8.96)"/><path class="cls-9" d="M397,374.92H360.6c-6.33,0-12.37-6.36-16.62-11.06h69.63c-4.25,4.7-10.28,11.06-16.62,11.06Z" transform="translate(0 8.96)"/><path class="cls-11" d="M395.35,363.8H362.24A11.77,11.77,0,0,1,350.47,352V324.56h56.65V352a11.77,11.77,0,0,1-11.77,11.77Z" transform="translate(0 8.96)"/><path class="cls-10" d="M397,372.47H360.6c-3.75,0-7.73-3.06-10.91-6.15H407.9c-3.18,3.09-7.16,6.15-10.91,6.15ZM352.92,327h51.75v7.43H371.31a2.45,2.45,0,1,0,0,4.9h33.36V352a9.33,9.33,0,0,1-9.32,9.32H362.24a9.33,9.33,0,0,1-9.32-9.32V327Zm61.43,22.72h-4.78V339.35h4.78v10.39ZM419,361.41H406a14.18,14.18,0,0,0,3.3-6.77h7.48a2.45,2.45,0,0,0,2.45-2.45V336.89a2.45,2.45,0,0,0-2.45-2.45h-7.23v-9.88a2.45,2.45,0,0,0-2.45-2.45H350.47a2.45,2.45,0,0,0-2.45,2.45V352a14.16,14.16,0,0,0,3.54,9.38h-13a2.45,2.45,0,0,0,0,4.91h4.33c5,5.49,10.92,11.06,17.7,11.06H397c6.78,0,12.67-5.56,17.7-11.06H419a2.45,2.45,0,0,0,0-4.91Z" transform="translate(0 8.96)"/><path class="cls-10" d="M364,339.35a2.42,2.42,0,0,1-.94-.19,2.61,2.61,0,0,1-.42-.23,2.65,2.65,0,0,1-.37-.31,2.35,2.35,0,0,1-.3-.37,2.47,2.47,0,0,1-.23-.42,2.55,2.55,0,0,1-.14-.46,2.36,2.36,0,0,1,0-1,2.46,2.46,0,0,1,.14-.46,2.41,2.41,0,0,1,.23-.42,2.36,2.36,0,0,1,.3-.37,2.46,2.46,0,0,1,.37-.3,2.64,2.64,0,0,1,.42-.23,2.3,2.3,0,0,1,.46-.14,2.42,2.42,0,0,1,1,0,2.29,2.29,0,0,1,.46.14,2.64,2.64,0,0,1,.42.23,2.46,2.46,0,0,1,.37.3,2.36,2.36,0,0,1,.3.37,2.43,2.43,0,0,1,.23.42,2.47,2.47,0,0,1,.14.46,2.36,2.36,0,0,1,0,1,2.55,2.55,0,0,1-.14.46,2.49,2.49,0,0,1-.23.42,2.35,2.35,0,0,1-.3.37,2.65,2.65,0,0,1-.37.31,2.61,2.61,0,0,1-.42.23,2.47,2.47,0,0,1-.46.14,2.42,2.42,0,0,1-.48,0Z" transform="translate(0 8.96)"/><path class="cls-10" d="M377.93,315.34a2.45,2.45,0,0,1-2.09-3.72,9,9,0,0,0,0-9.58,2.45,2.45,0,0,1,4.19-2.54,13.92,13.92,0,0,1,0,14.67,2.45,2.45,0,0,1-2.1,1.18Z" transform="translate(0 8.96)"/><path class="cls-10" d="M387.83,315.88a2.45,2.45,0,0,1-2.09-3.72,5.91,5.91,0,0,0,0-6.31,2.45,2.45,0,1,1,4.19-2.54,10.81,10.81,0,0,1,0,11.39,2.45,2.45,0,0,1-2.1,1.18Z" transform="translate(0 8.96)"/><path class="cls-10" d="M368.49,315.88a2.45,2.45,0,0,1-2.09-3.72,5.91,5.91,0,0,0,0-6.31,2.45,2.45,0,0,1,4.19-2.54,10.81,10.81,0,0,1,0,11.39,2.45,2.45,0,0,1-2.1,1.18Z" transform="translate(0 8.96)"/><path class="cls-11" d="M97.86,202.59a52.75,52.75,0,1,1,52.75-52.75A52.81,52.81,0,0,1,97.86,202.59Z" transform="translate(0 8.96)"/><path class="cls-10" d="M97.86,99.59a50.25,50.25,0,1,1-50.25,50.25A50.25,50.25,0,0,1,97.86,99.59m0-5a55.25,55.25,0,1,0,55.25,55.25A55.31,55.31,0,0,0,97.86,94.59Z" transform="translate(0 8.96)"/><g class="cls-12"><path class="cls-9" d="M78,122.63l-6.54,2.5L68.2,133l3.27,13.65.38,4.23a17.55,17.55,0,0,0,3.27,1.54c.58,0,6-3.27,6-3.27l6-7.88,18.64,4.23,10.76-1.15,4,5,3.08,1.54s3.65-.77,3.65-1.54.58-10.76.58-10.76l-2.11-11.34-4.61-5.19-9.42-5.77-8.46-.77-15.38-.58Z" transform="translate(0 8.96)"/><polygon class="cls-11" points="97.85 213.85 93.24 217.17 89.64 271.38 105.64 271.38 102.9 229.86 102.03 218.32 97.85 213.85"/><path class="cls-13" d="M117.22,187,98.57,202.4l5.38,8.65,1.35,61.51,42.48-4.23s-1.54-8.65-1.54-9.23,1.54-41.71,1.54-41.71l-1.92-11-6.73-6s-10.19-5.38-11.15-6l-8.07-4.81Z" transform="translate(0 8.96)"/><path class="cls-13" d="M78.2,185.49,95.88,202l-4.23,8.27L90.41,265l-12,9.71L49,272.56l1-13.46L48,207.21s2.69-4.81,3.27-4.81,18.45-7.88,18.45-7.88Z" transform="translate(0 8.96)"/><path class="cls-14" d="M139.39,197.27l-14-5.39-7.14-7.14a2.23,2.23,0,0,0-1.73-.65V178a26,26,0,0,0,6.71-13.22.3.3,0,0,1,.14-.14,7,7,0,0,0,1.88-.13,7.24,7.24,0,0,0,5.61-7.19v-1.86a7.33,7.33,0,0,0-2.29-5.33c2.3-12.27.48-22.25-5.28-28.91-5.54-6.4-14.48-9.45-25.86-8.84a33.8,33.8,0,0,0-19.53,7.24c-2.85.36-11.27,2.4-11.27,14.11a63.3,63.3,0,0,0,1.84,15.08,7.23,7.23,0,0,0-4.23,6.68v1.83a7.24,7.24,0,0,0,5.61,7.19,7,7,0,0,0,1.88.13.3.3,0,0,1,.14.14A26,26,0,0,0,78.61,178v6.09a2.23,2.23,0,0,0-1.73.65l-7.14,7.14-14,5.39a16.57,16.57,0,0,0-10.6,16.13l2,49.42A2.24,2.24,0,0,0,49.38,265h.09a2.24,2.24,0,0,0,2.14-2.32l-2-49.42A12.09,12.09,0,0,1,50.2,209l8.13,8.13a12,12,0,0,1,3.55,8.56v37a2.24,2.24,0,0,0,4.47,0v-37A16.47,16.47,0,0,0,61.5,214l-9-9a12.08,12.08,0,0,1,4.92-3.51l13.15-5.07,10,15a7,7,0,0,0,5.15,3.09q.35,0,.7,0a7,7,0,0,0,3.94-1.22l-2.15,49.33A2.24,2.24,0,0,0,90.31,265h.1a2.24,2.24,0,0,0,2.23-2.14l2-45.59h5.9l2,45.59a2.24,2.24,0,0,0,2.23,2.14h.1a2.24,2.24,0,0,0,2.14-2.33l-2.15-49.33a7,7,0,0,0,3.94,1.22c.23,0,.47,0,.7,0a7,7,0,0,0,5.15-3.09l10-15,13.15,5.07A12.09,12.09,0,0,1,142.7,205l-9,9a16.47,16.47,0,0,0-4.86,11.72v37a2.24,2.24,0,0,0,4.47,0v-37a12,12,0,0,1,3.55-8.56L145,209a12.09,12.09,0,0,1,.57,4.19l-2,49.42a2.24,2.24,0,0,0,2.14,2.32h.09a2.24,2.24,0,0,0,2.23-2.15l2-49.42A16.58,16.58,0,0,0,139.39,197.27Zm-41.82,2.81L83.08,187.39v-5.63a26.09,26.09,0,0,0,29,0v5.63Zm-26.12-39.9a2.5,2.5,0,0,1-.68,0,2.8,2.8,0,0,1-2-2.8v-1.83a2.71,2.71,0,0,1,2.07-2.74,2.54,2.54,0,0,1,2.49,1,3.24,3.24,0,0,0,4.46.7,18.34,18.34,0,0,0,4.93-5.21,2.24,2.24,0,0,0-3.78-2.39A14,14,0,0,1,76,150.09a7,7,0,0,0-3-1.64,58.65,58.65,0,0,1-1.9-14.72c0-9.33,6.95-9.7,7.72-9.71a2.24,2.24,0,0,0,1.55-.62c.06-.06,6.32-6,17.29-6.55,9.95-.54,17.64,2,22.24,7.3s6.21,13.72,4.46,24.11a10.62,10.62,0,0,0-2.63.18l-2.5-6a2.24,2.24,0,0,0-2.63-1.3c-.24.06-24,6.1-34-6.38a2.24,2.24,0,1,0-3.49,2.8c10.13,12.61,30.42,9.64,36.76,8.34l2,4.7a3.88,3.88,0,0,0,4.48,2.3,5.8,5.8,0,0,1,2-.14,2.73,2.73,0,0,1,2.07,2.71v1.86a2.8,2.8,0,0,1-2,2.8,2.5,2.5,0,0,1-.68,0,4.66,4.66,0,0,0-4.84,3.79,21.64,21.64,0,0,1-42.56,0A4.65,4.65,0,0,0,71.46,160.17ZM86.12,210a2.54,2.54,0,0,1-1.87-1.12L74.17,193.77l4.39-4.39,15.75,13.78-6.14,6.14A2.53,2.53,0,0,1,86.12,210Zm8.7,2.74.17-4,2.58-2.58,2.58,2.58.17,4Zm16.08-3.86a2.54,2.54,0,0,1-3.92.39l-6.14-6.14,15.75-13.78,4.39,4.39Z" transform="translate(0 8.96)"/></g><path class="cls-11" d="M233.86,157.25a52.75,52.75,0,1,1,52.75-52.75A52.81,52.81,0,0,1,233.86,157.25Z" transform="translate(0 8.96)"/><path class="cls-10" d="M233.86,54.26a50.25,50.25,0,1,1-50.25,50.25,50.25,50.25,0,0,1,50.25-50.25m0-5a55.25,55.25,0,1,0,55.25,55.25,55.31,55.31,0,0,0-55.25-55.25Z" transform="translate(0 8.96)"/><g class="cls-15"><path class="cls-9" d="M214,77.3l-6.54,2.5-3.27,7.88,3.27,13.65.38,4.23a17.55,17.55,0,0,0,3.27,1.54c.58,0,6-3.27,6-3.27l6-7.88,18.64,4.23L252.45,99l4,5,3.08,1.54s3.65-.77,3.65-1.54.58-10.76.58-10.76l-2.11-11.34-4.61-5.19L247.65,71l-8.46-.77-15.38-.58Z" transform="translate(0 8.96)"/><polygon class="cls-11" points="233.85 168.52 229.24 171.84 225.64 226.04 241.64 226.04 238.9 184.52 238.03 172.99 233.85 168.52"/><path class="cls-13" d="M253.22,141.69l-18.64,15.38,5.38,8.65,1.35,61.51L283.78,223s-1.54-8.65-1.54-9.23,1.54-41.71,1.54-41.71l-1.92-11-6.73-6s-10.19-5.38-11.15-6l-8.07-4.81Z" transform="translate(0 8.96)"/><path class="cls-13" d="M214.2,140.15l17.68,16.53-4.23,8.27-1.24,54.68-12,9.71L185,227.23l1-13.46L184,161.87s2.69-4.81,3.27-4.81,18.45-7.88,18.45-7.88Z" transform="translate(0 8.96)"/><path class="cls-14" d="M275.39,151.93l-14-5.39-7.14-7.14a2.23,2.23,0,0,0-1.73-.65v-6.09a26,26,0,0,0,6.71-13.22.3.3,0,0,1,.14-.14,7,7,0,0,0,1.88-.13,7.24,7.24,0,0,0,5.61-7.19v-1.86a7.33,7.33,0,0,0-2.29-5.33c2.3-12.27.48-22.25-5.28-28.91-5.54-6.4-14.48-9.45-25.86-8.84a33.8,33.8,0,0,0-19.53,7.24c-2.85.36-11.27,2.4-11.27,14.11a63.3,63.3,0,0,0,1.84,15.08,7.23,7.23,0,0,0-4.23,6.68V112a7.24,7.24,0,0,0,5.61,7.19,7,7,0,0,0,1.88.13.3.3,0,0,1,.14.14,26,26,0,0,0,6.71,13.22v6.09a2.23,2.23,0,0,0-1.73.65l-7.14,7.14-14,5.39a16.57,16.57,0,0,0-10.6,16.13l2,49.42a2.24,2.24,0,0,0,2.23,2.15h.09a2.24,2.24,0,0,0,2.14-2.32l-2-49.42a12.09,12.09,0,0,1,.57-4.19l8.13,8.13a12,12,0,0,1,3.55,8.56v37a2.24,2.24,0,0,0,4.47,0v-37a16.47,16.47,0,0,0-4.86-11.72l-9-9a12.08,12.08,0,0,1,4.92-3.51L206.52,151l10,15a7,7,0,0,0,5.15,3.09q.35,0,.7,0a7,7,0,0,0,3.94-1.22l-2.15,49.33a2.24,2.24,0,0,0,2.14,2.33h.1a2.24,2.24,0,0,0,2.23-2.14l2-45.59h5.9l2,45.59a2.24,2.24,0,0,0,2.23,2.14h.1a2.24,2.24,0,0,0,2.14-2.33L240.84,168a7,7,0,0,0,3.94,1.22c.23,0,.47,0,.7,0a7,7,0,0,0,5.15-3.09l10-15,13.15,5.07a12.09,12.09,0,0,1,4.92,3.51l-9,9a16.47,16.47,0,0,0-4.86,11.72v37a2.24,2.24,0,0,0,4.47,0v-37a12,12,0,0,1,3.55-8.56l8.13-8.13a12.09,12.09,0,0,1,.57,4.19l-2,49.42a2.24,2.24,0,0,0,2.14,2.32h.09a2.24,2.24,0,0,0,2.23-2.15l2-49.42A16.58,16.58,0,0,0,275.39,151.93Zm-41.82,2.81-14.49-12.68v-5.63a26.09,26.09,0,0,0,29,0v5.63Zm-26.12-39.9a2.5,2.5,0,0,1-.68,0,2.8,2.8,0,0,1-2-2.8v-1.83a2.71,2.71,0,0,1,2.07-2.74,2.54,2.54,0,0,1,2.49,1,3.24,3.24,0,0,0,4.46.7,18.34,18.34,0,0,0,4.93-5.21,2.24,2.24,0,0,0-3.78-2.39,14,14,0,0,1-2.87,3.29,7,7,0,0,0-3-1.64,58.65,58.65,0,0,1-1.9-14.72c0-9.33,6.95-9.7,7.72-9.71a2.24,2.24,0,0,0,1.55-.62c.06-.06,6.32-6,17.29-6.55,9.95-.54,17.64,2,22.24,7.3s6.21,13.72,4.46,24.11a10.62,10.62,0,0,0-2.63.18l-2.5-6a2.24,2.24,0,0,0-2.63-1.3c-.24.06-24,6.1-34-6.38a2.24,2.24,0,1,0-3.49,2.8c10.13,12.61,30.42,9.64,36.76,8.34l2,4.7a3.88,3.88,0,0,0,4.48,2.3,5.8,5.8,0,0,1,2-.14,2.73,2.73,0,0,1,2.07,2.71V112a2.8,2.8,0,0,1-2,2.8,2.5,2.5,0,0,1-.68,0,4.66,4.66,0,0,0-4.84,3.79,21.64,21.64,0,0,1-42.56,0A4.65,4.65,0,0,0,207.46,114.84Zm14.66,49.85a2.54,2.54,0,0,1-1.87-1.12l-10.09-15.13,4.39-4.39,15.75,13.78L224.17,164A2.53,2.53,0,0,1,222.12,164.69Zm8.7,2.74.17-4,2.58-2.58,2.58,2.58.17,4Zm16.08-3.86A2.54,2.54,0,0,1,243,164l-6.14-6.14L252.6,144l4.39,4.39Z" transform="translate(0 8.96)"/></g><path class="cls-11" d="M373.19,218.59a52.75,52.75,0,1,1,52.75-52.75A52.81,52.81,0,0,1,373.19,218.59Z" transform="translate(0 8.96)"/><path class="cls-10" d="M373.19,115.59a50.25,50.25,0,1,1-50.25,50.25,50.25,50.25,0,0,1,50.25-50.25m0-5a55.25,55.25,0,1,0,55.25,55.25,55.31,55.31,0,0,0-55.25-55.25Z" transform="translate(0 8.96)"/><g class="cls-16"><path class="cls-9" d="M353.34,138.63l-6.54,2.5L343.54,149l3.27,13.65.38,4.23a17.55,17.55,0,0,0,3.27,1.54c.58,0,6-3.27,6-3.27l6-7.88L381,161.51l10.76-1.15,4,5,3.08,1.54s3.65-.77,3.65-1.54.58-10.76.58-10.76L401,143.25l-4.61-5.19L387,132.29l-8.46-.77-15.38-.58Z" transform="translate(0 8.96)"/><polygon class="cls-11" points="373.19 229.85 368.57 233.17 364.97 287.38 380.97 287.38 378.23 245.86 377.37 234.32 373.19 229.85"/><path class="cls-13" d="M392.55,203,373.91,218.4l5.38,8.65,1.35,61.51,42.48-4.23s-1.54-8.65-1.54-9.23,1.54-41.71,1.54-41.71l-1.92-11-6.73-6s-10.19-5.38-11.15-6l-8.07-4.81Z" transform="translate(0 8.96)"/><path class="cls-13" d="M353.53,201.49,371.22,218,367,226.28,365.74,281l-12,9.71-29.41-2.11,1-13.46-1.92-51.9s2.69-4.81,3.27-4.81,18.45-7.88,18.45-7.88Z" transform="translate(0 8.96)"/><path class="cls-14" d="M414.73,213.27l-14-5.39-7.14-7.14a2.23,2.23,0,0,0-1.73-.65V194a26,26,0,0,0,6.71-13.22.3.3,0,0,1,.14-.14,7,7,0,0,0,1.88-.13,7.24,7.24,0,0,0,5.61-7.19v-1.86a7.33,7.33,0,0,0-2.29-5.33c2.3-12.27.48-22.25-5.28-28.91-5.54-6.4-14.48-9.45-25.86-8.84a33.8,33.8,0,0,0-19.53,7.24C350.42,136,342,138,342,149.74a63.3,63.3,0,0,0,1.84,15.08,7.23,7.23,0,0,0-4.23,6.68v1.83a7.24,7.24,0,0,0,5.61,7.19,7,7,0,0,0,1.88.13.3.3,0,0,1,.14.14A26,26,0,0,0,353.95,194v6.09a2.23,2.23,0,0,0-1.73.65l-7.14,7.14-14,5.39a16.57,16.57,0,0,0-10.6,16.13l2,49.42a2.24,2.24,0,0,0,2.23,2.15h.09a2.24,2.24,0,0,0,2.14-2.32l-2-49.42a12.09,12.09,0,0,1,.57-4.19l8.13,8.13a12,12,0,0,1,3.55,8.56v37a2.24,2.24,0,0,0,4.47,0v-37A16.47,16.47,0,0,0,336.83,230l-9-9a12.08,12.08,0,0,1,4.92-3.51l13.15-5.07,10,15a7,7,0,0,0,5.15,3.09q.35,0,.7,0a7,7,0,0,0,3.94-1.22l-2.15,49.33a2.24,2.24,0,0,0,2.14,2.33h.1a2.24,2.24,0,0,0,2.23-2.14l2-45.59h5.9l2,45.59a2.24,2.24,0,0,0,2.23,2.14h.1a2.24,2.24,0,0,0,2.14-2.33l-2.15-49.33a7,7,0,0,0,3.94,1.22c.23,0,.47,0,.7,0a7,7,0,0,0,5.15-3.09l10-15,13.15,5.07A12.09,12.09,0,0,1,418,221l-9,9a16.47,16.47,0,0,0-4.86,11.72v37a2.24,2.24,0,0,0,4.47,0v-37a12,12,0,0,1,3.55-8.56l8.13-8.13a12.09,12.09,0,0,1,.57,4.19l-2,49.42A2.24,2.24,0,0,0,421,281h.09a2.24,2.24,0,0,0,2.23-2.15l2-49.42A16.58,16.58,0,0,0,414.73,213.27Zm-41.82,2.81-14.49-12.68v-5.63a26.09,26.09,0,0,0,29,0v5.63Zm-26.12-39.9a2.5,2.5,0,0,1-.68,0,2.8,2.8,0,0,1-2-2.8v-1.83a2.71,2.71,0,0,1,2.07-2.74,2.54,2.54,0,0,1,2.49,1,3.24,3.24,0,0,0,4.46.7A18.34,18.34,0,0,0,358,165.2a2.24,2.24,0,0,0-3.78-2.39,14,14,0,0,1-2.87,3.29,7,7,0,0,0-3-1.64,58.65,58.65,0,0,1-1.9-14.72c0-9.33,6.95-9.7,7.72-9.71a2.24,2.24,0,0,0,1.55-.62c.06-.06,6.32-6,17.29-6.55,9.95-.54,17.64,2,22.24,7.3s6.21,13.72,4.46,24.11a10.62,10.62,0,0,0-2.63.18l-2.5-6a2.24,2.24,0,0,0-2.63-1.3c-.24.06-24,6.1-34-6.38a2.24,2.24,0,1,0-3.49,2.8c10.13,12.61,30.42,9.64,36.76,8.34l2,4.7a3.88,3.88,0,0,0,4.48,2.3,5.8,5.8,0,0,1,2-.14,2.73,2.73,0,0,1,2.07,2.71v1.86a2.8,2.8,0,0,1-2,2.8,2.5,2.5,0,0,1-.68,0,4.66,4.66,0,0,0-4.84,3.79,21.64,21.64,0,0,1-42.56,0A4.65,4.65,0,0,0,346.79,176.17ZM361.45,226a2.54,2.54,0,0,1-1.87-1.12L349.5,209.77l4.39-4.39,15.75,13.78-6.14,6.14A2.53,2.53,0,0,1,361.45,226Zm8.7,2.74.17-4,2.58-2.58,2.58,2.58.17,4Zm16.08-3.86a2.54,2.54,0,0,1-3.92.39l-6.14-6.14,15.75-13.78,4.39,4.39Z" transform="translate(0 8.96)"/></g><line class="cls-6" x1="195.56" y1="381.31" x2="224.56" y2="381.31"/><path class="cls-11" d="M181.73,219.81s-5.82,1.87-4,36.61c.42,20.39.83,22.05.83,22.05l5.46,8.55,10.56-7.71,9.15,7.49,7.9-7.7,8.53,8.32,7.7-7.49,1.46-4.37-.83-47.64,3.33-7.49-.21-1.87Z" transform="translate(0 8.96)"/><path class="cls-13" d="M235,218.69s-4.67-2-4.67,6.83v26.67l20.5.67s-4-6-4.17-10.83-.33-14.5-.33-14.5S243.34,215.19,235,218.69Z" transform="translate(0 8.96)"/><path class="cls-11" d="M212.84,183.69l6.17,7,10.17-6.83,8.17,7.83,9-7.33L254,192l9.5-7.83.33,51.83-1.17,12.83s-4,2.83-7.83,3.33-9-3.33-9-10.17-.17-18.67-.17-18.67-1.33-5.33-8.33-4.67-25.33-.5-25.33-.5Z" transform="translate(0 8.96)"/><path class="cls-10" d="M186.14,289.33c-1.08-.42-2.12-1-2.07-2.31a3.2,3.2,0,0,1,.67-2c2.77-2.89,5.61-5.7,8.46-8.51a2.4,2.4,0,0,1,3.64,0c2,1.91,3.88,3.86,5.8,5.81a10.87,10.87,0,0,1,.84,1.16c1-1,1.71-1.86,2.48-2.66q2-2.07,4.1-4.09c1.41-1.39,2.71-1.41,4.1,0,2.13,2.14,4.23,4.3,6.42,6.52.39-.35.67-.59.94-.85,1.44-1.44,2.85-2.91,4.33-4.3a2.76,2.76,0,0,0,.92-2.21q0-22.64,0-45.28c0-3.29-.26-6.62,1.72-9.72-.53,0-.86-.08-1.19-.08H186.94c-4.09,0-6.53,2.46-6.53,6.57q0,24.8,0,49.6a8.28,8.28,0,0,1-.15,1.77,2.45,2.45,0,0,1-4.83-.37c0-.31,0-.63,0-.95q0-25.06,0-50.13a11,11,0,0,1,4.44-9.3,9.67,9.67,0,0,1,5.92-2.17c7.44,0,14.88,0,22.32,0h1.45c0-.55.07-1,.07-1.43q0-14.64,0-29.27a8.54,8.54,0,0,1,.14-1.56,2.43,2.43,0,0,1,4.8.19c.09.87.07,1.75.07,2.63,0,9.41,0,18.81,0,28.22,0,1,.32,1.23,1.27,1.23,7.27-.05,14.53,0,21.8-.07a11.2,11.2,0,0,1,11.2,11c.06,5.69,0,11.37,0,17.06a6,6,0,1,0,12,.35c.05-4.49,0-9,0-13.48q0-19.59,0-39.17c0-.34,0-.67-.06-1.29l-3.55,3.54c-1.9,1.89-3,1.9-4.86,0s-4-4-6.05-6.15c-.38.36-.66.61-.92.87-1.89,1.88-3.77,3.78-5.66,5.66-1.41,1.39-2.7,1.39-4.1,0-2.71-2.7-5.41-5.42-8.12-8.11a2.56,2.56,0,0,1-.73-2.7,2.33,2.33,0,0,1,2-1.64,2.47,2.47,0,0,1,2.25.84c1.91,1.91,3.83,3.82,5.73,5.74a7.17,7.17,0,0,1,.71,1.05c.54-.51.84-.79,1.13-1.07,1.89-1.88,3.76-3.78,5.66-5.65a2.5,2.5,0,0,1,3.95,0q3.18,3.15,6.34,6.32a1.39,1.39,0,0,0,.24.14,2.48,2.48,0,0,0,.38-.26c2-2,4-4,6-6,1.07-1.09,2.07-1.43,3.17-.94a2.64,2.64,0,0,1,1.49,2.76c0,7.62,0,15.23,0,22.85q0,18.22,0,36.44a10.93,10.93,0,0,1-9.17,11.06,18.29,18.29,0,0,1-3.14.14q-7.69,0-15.37,0c-1.72,0-2.57-.64-2.86-2a2.3,2.3,0,0,1,1.81-2.84,6.87,6.87,0,0,1,1.46-.15c2.21,0,4.41,0,6.71,0a2.68,2.68,0,0,0-.15-.57,11.61,11.61,0,0,1-1.38-5.87q0-8.11,0-16.22c0-3-1.42-5.16-3.85-6.08a5.93,5.93,0,0,0-8.16,5.28c-.14,4.88-.05,9.76-.06,14.64q0,18.17,0,36.33a3.75,3.75,0,0,1-1.18,2.9c-2.48,2.39-4.86,4.87-7.33,7.26a18.24,18.24,0,0,1-2.37,1.67h-.42a17.74,17.74,0,0,1-2.13-1.44c-1.12-1-2.15-2.1-3.2-3.18s-1.91-2-2.95-3.1c-2.12,2.14-4,4.12-6,6a19.62,19.62,0,0,1-2.33,1.68h-.63a20.64,20.64,0,0,1-2.15-1.6c-1.77-1.69-3.48-3.45-5.21-5.18-.26-.26-.54-.5-.9-.82-2,2-3.89,4-5.85,5.88a21.05,21.05,0,0,1-2.32,1.71Z" transform="translate(0 8.96)"/><path class="cls-10" d="M196.29,245.32a6.45,6.45,0,0,0,6.45,6.45,2.15,2.15,0,1,1-1.52,3.67,2.15,2.15,0,0,0-3,3,6.43,6.43,0,0,0,2.41,1.52v2.52a2.15,2.15,0,1,0,4.3,0V260a6.45,6.45,0,0,0-2.15-12.54,2.15,2.15,0,1,1,1.52-3.67,2.15,2.15,0,0,0,3-3,6.43,6.43,0,0,0-2.41-1.52v-2.52a2.15,2.15,0,1,0-4.3,0v2.52a6.46,6.46,0,0,0-4.3,6.08Z" transform="translate(0 8.96)"/><line class="cls-8" x1="150.01" y1="190.65" x2="178.01" y2="215.98"/><line class="cls-8" x1="283.34" y1="225.98" x2="322.01" y2="209.98"/><line class="cls-8" x1="236.67" y1="177.31" x2="236.67" y2="186.65"/><line class="cls-8" x1="138.51" y1="313.98" x2="196.01" y2="313.98"/><line class="cls-8" x1="138.51" y1="327.65" x2="196.01" y2="327.65"/><line class="cls-8" x1="220.84" y1="313.98" x2="278.34" y2="313.98"/><line class="cls-8" x1="220.84" y1="327.65" x2="278.34" y2="327.65"/><line class="cls-8" x1="220.84" y1="342.98" x2="254.63" y2="342.98"/><line class="cls-8" x1="139.22" y1="342.98" x2="173.01" y2="342.98"/><line class="cls-7" x1="65.76" y1="390" x2="103.42" y2="390"/><line class="cls-7" x1="322.76" y1="390" x2="360.42" y2="390"/><line class="cls-7" x1="370.01" y1="390" x2="431.76" y2="390"/></svg>