<svg id="Layer_1" data-name="Layer 1" xmlns="http://www.w3.org/2000/svg" viewBox="0 0 507.36 479.33"><defs><style>.cls-1,.cls-2,.cls-3,.cls-4{fill:#d2e4f7;}.cls-1{opacity:0.1;}.cls-2{opacity:0.4;}.cls-3{opacity:0.7;}.cls-10,.cls-11,.cls-5{fill:none;}.cls-10,.cls-11,.cls-12,.cls-13,.cls-5{stroke:#5c82ee;}.cls-11,.cls-12,.cls-13,.cls-5{stroke-linecap:round;stroke-linejoin:round;}.cls-10,.cls-11,.cls-13,.cls-5{stroke-width:5px;}.cls-5{stroke-dasharray:9.97 49.86 0 9.97 49.86 0;}.cls-6{fill:#94c2ff;}.cls-13,.cls-7{fill:#fff;}.cls-12,.cls-8{fill:#5c82ee;}.cls-9{fill:#bfdbff;}.cls-10{stroke-miterlimit:10;}.cls-12{stroke-width:1.5px;}</style></defs><title>item1</title><circle class="cls-1" cx="239.67" cy="239.67" r="239.67"/><circle class="cls-2" cx="239.67" cy="239.67" r="201.17"/><circle class="cls-3" cx="239.67" cy="239.67" r="162.67"/><circle class="cls-4" cx="239.67" cy="239.67" r="124.17"/><circle class="cls-5" cx="239.67" cy="239.08" r="171.39" transform="translate(-74.9 364.76) rotate(-66.62)"/><path class="cls-6" d="M290.14,335.89l1,0,31.5.48.25,16,2,2a39.37,39.37,0,0,0,7,1h10.25l.25,16.5-18.5,36-32.25.25a6.3,6.3,0,0,1-4-6.25c.25-4.75.5-64,.5-64Z" transform="translate(0 0.59)"/><path class="cls-7" d="M73.89,390.89l10-15.5a40.37,40.37,0,0,0,3.5-10.25c1-5.5,1-16.5,1-16.5l2.5-14,15.25-28.75,12.5-30.5,1.75-12.5.75-15s4.25-11,11.5-5.75,13.75,24.5,11,45.5c-3,14.75-9.5,24.75-8.75,50.25s.75,37.25.75,37.25-.5,5.75,7.25,5.75,51.75,1.25,51.75,1.25-11.25,20.5-28,26.5-31.75,14.75-40.75,23.5S73.89,390.89,73.89,390.89Z" transform="translate(0 0.59)"/><path class="cls-6" d="M143.25,207.13c-2.23,0-3,.78-3,3q0,17.1,0,34.2c0,.38,0,.77,0,1.54-.91-1.11-1.64-1.91-2.26-2.79a3,3,0,0,1-.65-1.56q-.1-18.84-.12-37.68c0-.27,0-.55,0-.82l0-.05s-.18-6.23,4.52-6.78q41.52.05,83,0c2.76,0,4.32,1.21,4.81,3.93a25.31,25.31,0,0,1,.26,4.41c0,15.36,0,30.72-.06,46.08a11.27,11.27,0,0,0,.06,1.17v11.37h0q0,13.36,0,26.73c0,2-.82,3.12-3,3.78,0-.41-.05-.8-.05-1.19q0-11.88,0-23.77h0v-18l0,0q0-20.38,0-40.75c0-2.1-.81-2.87-2.91-2.87H143.25Z" transform="translate(0 0.59)"/><path class="cls-6" d="M229.89,371.73a29,29,0,0,1-.89,4.51,3.66,3.66,0,0,1-3.79,2.32c-7.88,0-15.75,0-23.63,0l-58.66,0c-4.08,0-5.67-1.57-5.7-5.71q-.05-6.72,0-13.43c0-10.76.18-21.51,0-32.27a62.66,62.66,0,0,1,2.35-18.56,8,8,0,0,1,.43-1l.22,0q0,7.79,0,15.59,0,16.43,0,32.87c0,1.84.82,2.67,2.71,2.67h58.38c6.71,0,13.42,0,20.12,0,1.18,0,1.53.31,1.62,1.52a11.12,11.12,0,0,0,5.42,8.81C229.54,369.77,230.15,370.44,229.89,371.73Z" transform="translate(0 0.59)"/><path class="cls-8" d="M243.81,315.61l.46-.39h0a44.89,44.89,0,0,0,4.23-4,1.7,1.7,0,0,0,.38-.4l.08-.08h0l0-.06a13.5,13.5,0,0,0,1.23-12.51,12.71,12.71,0,0,0-9.86-8.27,49,49,0,0,0-5.74-.39c.08-.46-.63-1.32.52-1.68,1.67-.52,3.38-.92,5-1.51A34.19,34.19,0,0,0,252,279.67c4.13-3.77,5.9-8.47,3.45-14.1a11.65,11.65,0,0,0-7.11-6.75,23.59,23.59,0,0,0-8.52-1c-1.71.05-3.42.19-5.12.29l-.08-20.89-.06,0q0-17.51,0-35a14.32,14.32,0,0,0-.76-4.68,8.34,8.34,0,0,0-5.91-5.72,19.27,19.27,0,0,0-4.51-.35q-40.74,0-81.48,0a9.45,9.45,0,0,0-3.93.79,8.94,8.94,0,0,0-5.06,6.56,23.67,23.67,0,0,0-.45,6.21,5.29,5.29,0,0,0,0,.73q0,16,0,31.92c0,.46,0,.91,0,1.44-.36-.06-.52-.06-.67-.1-5-1.35-12.26,1.55-13,8.94a85.21,85.21,0,0,0-.2,11.37c.1,3.22.2,6.42-.72,9.51-1.61,5.42-3.16,10.87-5.14,16.15-2.93,7.82-6.91,15.18-10.89,22.52-4.07,7.5-8.38,14.87-11.62,22.8a42.25,42.25,0,0,0-3.12,11.26c-.61,5.52-.93,11.07-1.53,16.59a56.62,56.62,0,0,1-3.88,15.12A55.3,55.3,0,0,1,73.56,387a1.66,1.66,0,0,0-.31,2.07h0s1.06,1.88,2.8,1.64h.07a2.53,2.53,0,0,0,.59-.17c1.16-.68,3-3.75,3.58-4.83,1.06-1.64,2.12-3.29,3.07-5a51.25,51.25,0,0,0,5.87-16.59c.85-5.11,1.56-10.27,2-15.43.42-4.78.53-9.63,2.41-14.1,2.24-5.31,4.71-10.53,7.32-15.68,3.43-6.76,7.17-13.37,10.65-20.11a129.92,129.92,0,0,0,10.25-26.56,41.76,41.76,0,0,0,1.31-13.4,68.59,68.59,0,0,1,.19-10,5.74,5.74,0,0,1,9.25-4.15,21.7,21.7,0,0,1,4,4.64,35.84,35.84,0,0,1,4.74,11.9,106,106,0,0,1,1.77,10.61c.68,5.69-1,11.11-2.37,16.5-1.48,5.66-3.24,11.25-5,16.83a69,69,0,0,0-3.33,21.2c0,15.56,0,31.12,0,46.68,0,5.66,3.86,10.52,10.32,10.39,9.3-.19,18.61-.06,27.92-.06l18.84,0c.41,0,.82,0,1.52.08-.81,1.17-1.43,2.12-2.12,3a63.17,63.17,0,0,1-12.54,12.26c-4.84,3.68-9.73,7.32-15.18,10-5.19,2.57-10.53,4.86-15.91,7a43.78,43.78,0,0,0-16.88,11.65,2.43,2.43,0,0,0-.11,3.27,2.4,2.4,0,0,0,3.35.14,10.86,10.86,0,0,0,1.1-1.09c4.83-5.52,11.21-8.47,17.87-11.08,4.14-1.62,8.25-3.37,12.21-5.37a104.76,104.76,0,0,0,16.87-11.14c6.47-5,12.34-10.65,16.3-18a1.48,1.48,0,0,1,1.53-.82c9,0,18-.12,27,0,6.15.11,9.89-4.75,10-9.92,0-.75,0-1.5,0-2.26A13.88,13.88,0,0,0,242,369c1.5-1,3-2.11,4.43-3.21a12.16,12.16,0,0,0-.66-19.86c-1-.65-2.1-1.14-3.27-1.76.89-.64,1.67-1.23,2.47-1.78,3.41-2.34,6.46-5,8-9a13.38,13.38,0,0,0-.22-10.92C251,318.72,247.89,316.66,243.81,315.61Zm-1-19.71a9,9,0,0,1,3.4,9.29c-.65,2.9-2.65,4.61-4.85,6.23q-2.78,2-5.57,4.06a8.17,8.17,0,0,1-5.22,1.82,8.77,8.77,0,0,1-8.78-6.21,8.62,8.62,0,0,1,3-9.72c2.68-2,5.4-4,8.21-5.91A8.61,8.61,0,0,1,242.84,295.91Zm-26.61,39.8h0a11.69,11.69,0,0,0,2,8.85l0,0,.24.27,0,.06h0a23.78,23.78,0,0,0,1.64,1.78,12.48,12.48,0,0,0,6.52,3.14c-.89,1.33-1.68,2.59-2.56,3.78a1.43,1.43,0,0,1-1,.38q-7.89.05-15.8.07l-15.59,0h-6.19q-19.54,0-39.09,0c-1.17,0-1.56-.22-1.56-1.49q.08-30.24.05-60.48A4.85,4.85,0,0,1,145,291c.62-2.72,1.17-5.46,1.91-8.15,1.92-6.93,1.12-13.81-.48-20.62-.93-4-1.95-7.89-1.53-12a2.38,2.38,0,0,0,0-.24q0-18.36,0-36.72c0-1.07.25-1.48,1.4-1.44,2.68.09,5.36,0,8,0h66.36c1.6,0,1.6,0,1.6,1.56,0,13.34.05,26.68-.06,40h0l0,17.8h0c0,8.26,0,16.52.05,24.78a2.68,2.68,0,0,1-1,2.25,13.34,13.34,0,0,0-.41,19.81c1.65,1.56,3.8,2.6,5.76,3.91-.94.7-2.1,1.58-3.28,2.42A15.9,15.9,0,0,0,216.23,335.7Zm30.93-72.33c3.55,1.36,6.81,7.11,2.91,11.52a22.72,22.72,0,0,1-8.07,5.55c-2.34,1-4.81,1.82-7.37,2.77V262.82C238.84,262.61,243.08,261.81,247.16,263.37ZM143.25,207.13c-2.23,0-3,.78-3,3q0,17.1,0,34.2c0,.38,0,.77,0,1.54-.91-1.11-1.64-1.91-2.26-2.79a3,3,0,0,1-.65-1.56q-.1-18.84-.12-37.68c0-.27,0-.55,0-.82l0-.05s-.18-6.23,4.52-6.78q41.52.05,83,0c2.76,0,4.32,1.21,4.81,3.93a25.31,25.31,0,0,1,.26,4.41c0,15.36,0,30.72-.06,46.08a11.27,11.27,0,0,0,.06,1.17v11.37h0q0,13.36,0,26.73c0,2-.82,3.12-3,3.78,0-.41-.05-.8-.05-1.19q0-11.88,0-23.77h0v-18l0,0q0-20.38,0-40.75c0-2.1-.81-2.87-2.91-2.87H143.25Zm86.64,164.6a29,29,0,0,1-.89,4.51,3.66,3.66,0,0,1-3.79,2.32c-7.88,0-15.75,0-23.63,0l-58.66,0c-4.08,0-5.67-1.57-5.7-5.71q-.05-6.72,0-13.43c0-10.76.18-21.51,0-32.27a62.66,62.66,0,0,1,2.35-18.56,8,8,0,0,1,.43-1l.22,0q0,7.79,0,15.59,0,16.43,0,32.87c0,1.84.82,2.67,2.71,2.67h58.38c6.71,0,13.42,0,20.12,0,1.18,0,1.53.31,1.62,1.52a11.12,11.12,0,0,0,5.42,8.81C229.54,369.77,230.15,370.44,229.89,371.73Zm16.71-15.62a7.75,7.75,0,0,1-3.46,6.34q-1.87,1.36-3.78,2.67a7.58,7.58,0,0,1-10.32-1.79,7.44,7.44,0,0,1,1.29-10.18,42.78,42.78,0,0,1,5.14-3.62A7.48,7.48,0,0,1,246.61,356.12Zm2.07-24.55a14.14,14.14,0,0,1-5.29,6.13c-2.71,1.87-5.25,4-8,5.76-3.56,2.27-7.36,2.78-11.16.45a7.85,7.85,0,0,1-1-.73h0a7.94,7.94,0,0,1-1.1-1.47l-.09-.15a9,9,0,0,1-1.21-4.25s0,0,0,0,0-.14,0-.21c.14-3.61,2-6.41,5-8.62s5.85-4.35,8.84-6.44c3.62-2.53,8.71-2.52,11.78-.07A8.32,8.32,0,0,1,248.68,331.57Z" transform="translate(0 0.59)"/><path class="cls-8" d="M189.16,199.81c-1.88,0-3.76,0-5.64,0s-3.76,0-5.64,0c-1.61,0-2.46.82-2.48,2.26a2.16,2.16,0,0,0,2.4,2.35q5.7.07,11.39,0a2.32,2.32,0,0,0,2.46-2.35A2.26,2.26,0,0,0,189.16,199.81Z" transform="translate(0 0.59)"/><path class="cls-8" d="M194.85,365.17q-11.33,0-22.66,0a2.34,2.34,0,0,0-2.64,2.31,2.42,2.42,0,0,0,2.67,2.39c3.75-.09,7.51,0,11.27,0h0c3.8,0,7.6-.06,11.39,0a2.43,2.43,0,0,0,2.59-2.35A2.32,2.32,0,0,0,194.85,365.17Z" transform="translate(0 0.59)"/><path class="cls-7" d="M216.23,335.7h0a11.69,11.69,0,0,0,2,8.85l0,0,.24.27,0,.06h0a23.78,23.78,0,0,0,1.64,1.78,12.48,12.48,0,0,0,6.52,3.14c-.89,1.33-1.68,2.59-2.56,3.78a1.43,1.43,0,0,1-1,.38q-7.89.05-15.8.07l-15.59,0h-6.19q-19.54,0-39.09,0c-1.17,0-1.56-.22-1.56-1.49q.08-30.24.05-60.48A4.85,4.85,0,0,1,145,291c.62-2.72,1.17-5.46,1.91-8.15,1.92-6.93,1.12-13.81-.48-20.62-.93-4-1.95-7.89-1.53-12a2.38,2.38,0,0,0,0-.24q0-18.36,0-36.72c0-1.07.25-1.48,1.4-1.44,2.68.09,5.36,0,8,0h66.36c1.6,0,1.6,0,1.6,1.56,0,13.34.05,26.68-.06,40h0l0,17.8h0c0,8.26,0,16.52.05,24.78a2.68,2.68,0,0,1-1,2.25,13.34,13.34,0,0,0-.41,19.81c1.65,1.56,3.8,2.6,5.76,3.91-.94.7-2.1,1.58-3.28,2.42A15.9,15.9,0,0,0,216.23,335.7Z" transform="translate(0 0.59)"/><circle class="cls-6" cx="172.11" cy="100.98" r="55.16"/><path class="cls-9" d="M172.47,57.78a42.82,42.82,0,1,1-42.9,42.63A42.83,42.83,0,0,1,172.47,57.78Zm2.17,29.78c0-1.77,0-3.53,0-5.3a2.25,2.25,0,0,0-1.77-2.42c-1.56-.32-2.72.69-2.73,2.44q0,5.07,0,10.14a1.36,1.36,0,0,1-.93,1.5,7.38,7.38,0,0,0,5.62,13.64,1.41,1.41,0,0,1,1.75.41q8.62,8.67,17.29,17.3a7.48,7.48,0,0,0,1.1,1,2.2,2.2,0,0,0,3-3,7.2,7.2,0,0,0-1-1.11q-8.64-8.65-17.3-17.29a1.32,1.32,0,0,1-.46-1.64,7.23,7.23,0,0,0-4-9.35,1,1,0,0,1-.71-1.08C174.67,91,174.64,89.29,174.64,87.56Zm28.28-2.44a7.92,7.92,0,0,0,1.82-1.27,2.16,2.16,0,0,0-.1-2.63,37.64,37.64,0,0,0-12.39-12.55,46.06,46.06,0,0,0-5-2.6,2.14,2.14,0,0,0-2.89,1,2.21,2.21,0,0,0,.95,3c.48.29,1,.48,1.5.77,2.1,1.31,4.27,2.51,6.25,4a30.3,30.3,0,0,1,7.53,8.45A3.46,3.46,0,0,0,202.92,85.12Zm4.88,17.76h0a16.13,16.13,0,0,0,1.91,0,2.21,2.21,0,0,0,1.91-2.06,2.06,2.06,0,0,0-1.68-2.22,20,20,0,0,0-4.25,0,2,2,0,0,0-1.74,2.26,2.17,2.17,0,0,0,2,2C206.59,102.92,207.2,102.87,207.8,102.87ZM137,98.36c-.6,0-1.21,0-1.8,0a2.23,2.23,0,0,0-2.07,2,2.08,2.08,0,0,0,1.73,2.29,19.5,19.5,0,0,0,4.14,0,2,2,0,0,0,1.79-2.23,2.19,2.19,0,0,0-2.1-2.11C138.18,98.32,137.61,98.36,137,98.36Zm33.1,37.59a17.92,17.92,0,0,0,0,1.91,2.24,2.24,0,0,0,2.12,2,2.07,2.07,0,0,0,2.18-1.72,20,20,0,0,0,0-4.25,2,2,0,0,0-2.3-1.69,2.16,2.16,0,0,0-2,2A16.4,16.4,0,0,0,170.15,135.95Zm0-70.74a17.58,17.58,0,0,0,.21,2.14,2.19,2.19,0,0,0,4.31-.24,28.48,28.48,0,0,0,0-3.71,2.2,2.2,0,0,0-2.1-2,2.17,2.17,0,0,0-2.22,1.71A17.14,17.14,0,0,0,170.11,65.21Zm36,27.07a2.26,2.26,0,0,0,2.26-2.19,2.3,2.3,0,0,0-2.15-2.31A2.26,2.26,0,0,0,204,90,2.23,2.23,0,0,0,206.15,92.28Z" transform="translate(0 0.59)"/><polygon class="cls-7" points="172.42 56.98 173.26 101.8 204.27 132.24 213.01 120.68 217.8 105.46 216.11 91.37 205.68 70.79 190.46 61.21 172.42 56.98"/><path class="cls-8" d="M169,158.37c-2.19-.29-4.39-.51-6.57-.89a56.5,56.5,0,0,1-33.48-18.84,55.11,55.11,0,0,1-13.72-30.08c-2.27-17.95,2.62-33.78,14.86-47.15a56.17,56.17,0,0,1,33.12-17.75,56.85,56.85,0,0,1,29.37,2.92,56,56,0,0,1,14,7.57c1.27.94,1.57,2.23.8,3.31a2.25,2.25,0,0,1-3.38.36,55.37,55.37,0,0,0-11.59-6.43,53.71,53.71,0,0,0-36.81-1.16,53,53,0,0,0-36.41,51.62c.46,24.69,18.13,46.14,42.41,50.81,20.46,3.93,37.82-2.16,51.51-17.88a50.63,50.63,0,0,0,12-28.49,52.58,52.58,0,0,0-5-29c-1.28-2.66-3-5.1-4.52-7.65-.23-.39-.52-.74-.72-1.14a2.19,2.19,0,0,1,.69-2.81,2.11,2.11,0,0,1,2.86.29,21,21,0,0,1,1.82,2.43,57.78,57.78,0,0,1,9.64,27.76c0,.37.13.73.2,1.09v7a8.28,8.28,0,0,0-.2,1,57.73,57.73,0,0,1-47.58,52.25c-2.17.39-4.38.6-6.57.89Z" transform="translate(0 0.59)"/><path class="cls-8" d="M125,100.6A47.35,47.35,0,1,1,172.35,148,47.5,47.5,0,0,1,125,100.6Zm47.43-42.82a42.82,42.82,0,1,0,42.74,43.1A42.92,42.92,0,0,0,172.47,57.78Z" transform="translate(0 0.59)"/><path class="cls-8" d="M211.56,63.67a2.25,2.25,0,0,1,0-4.5,2.34,2.34,0,0,1,2.23,2.34A2.29,2.29,0,0,1,211.56,63.67Z" transform="translate(0 0.59)"/><path class="cls-8" d="M174.64,87.56c0,1.73,0,3.46,0,5.18a1,1,0,0,0,.71,1.08,7.23,7.23,0,0,1,4,9.35,1.32,1.32,0,0,0,.46,1.64q8.66,8.63,17.3,17.29a7.2,7.2,0,0,1,1,1.11,2.2,2.2,0,0,1-3,3,7.48,7.48,0,0,1-1.1-1q-8.65-8.64-17.29-17.3a1.41,1.41,0,0,0-1.75-.41,7.38,7.38,0,0,1-5.62-13.64,1.36,1.36,0,0,0,.93-1.5q-.06-5.07,0-10.14c0-1.75,1.18-2.76,2.73-2.44a2.25,2.25,0,0,1,1.77,2.42C174.66,84,174.64,85.8,174.64,87.56Zm-2.33,16a2.92,2.92,0,1,0-2.83-3A3,3,0,0,0,172.31,103.54Z" transform="translate(0 0.59)"/><path class="cls-8" d="M202.92,85.12a3.46,3.46,0,0,1-2.32-1.85,30.3,30.3,0,0,0-7.53-8.45c-2-1.47-4.15-2.68-6.25-4-.48-.3-1-.48-1.5-.77a2.21,2.21,0,0,1-.95-3,2.14,2.14,0,0,1,2.89-1,46.06,46.06,0,0,1,5,2.6,37.64,37.64,0,0,1,12.39,12.55,2.16,2.16,0,0,1,.1,2.63A7.92,7.92,0,0,1,202.92,85.12Z" transform="translate(0 0.59)"/><path class="cls-8" d="M207.8,102.87c-.6,0-1.21,0-1.8,0a2.17,2.17,0,0,1-2-2,2,2,0,0,1,1.74-2.26,20,20,0,0,1,4.25,0,2.06,2.06,0,0,1,1.68,2.22,2.21,2.21,0,0,1-1.91,2.06,16.13,16.13,0,0,1-1.91,0Z" transform="translate(0 0.59)"/><path class="cls-8" d="M137,98.36c.56,0,1.13,0,1.69,0a2.19,2.19,0,0,1,2.1,2.11A2,2,0,0,1,139,102.7a19.5,19.5,0,0,1-4.14,0,2.08,2.08,0,0,1-1.73-2.29,2.23,2.23,0,0,1,2.07-2C135.84,98.31,136.45,98.36,137,98.36Z" transform="translate(0 0.59)"/><path class="cls-8" d="M170.15,135.95a16.64,16.64,0,0,1,0-1.8,2.16,2.16,0,0,1,2-2,2,2,0,0,1,2.3,1.69,20,20,0,0,1,0,4.25,2.07,2.07,0,0,1-2.18,1.72,2.24,2.24,0,0,1-2.12-2A18.17,18.17,0,0,1,170.15,135.95Z" transform="translate(0 0.59)"/><path class="cls-8" d="M170.11,65.21a17.14,17.14,0,0,1,.21-2.11,2.17,2.17,0,0,1,2.22-1.71,2.2,2.2,0,0,1,2.1,2,28.48,28.48,0,0,1,0,3.71,2.19,2.19,0,0,1-4.31.24A17.58,17.58,0,0,1,170.11,65.21Z" transform="translate(0 0.59)"/><path class="cls-8" d="M206.15,92.28A2.23,2.23,0,0,1,204,90a2.26,2.26,0,0,1,2.3-2.26,2.3,2.3,0,0,1,2.15,2.31A2.26,2.26,0,0,1,206.15,92.28Z" transform="translate(0 0.59)"/><path class="cls-7" d="M172.31,103.54a2.92,2.92,0,1,1,3-2.86A3.05,3.05,0,0,1,172.31,103.54Z" transform="translate(0 0.59)"/><circle class="cls-10" cx="54.39" cy="298.22" r="7.02" transform="translate(-47.3 13.24) rotate(-9.26)"/><circle class="cls-10" cx="395.26" cy="379.97" r="7.02" transform="translate(-56.01 69.18) rotate(-9.26)"/><circle class="cls-10" cx="260.47" cy="69.02" r="7.02" transform="translate(-7.71 43.42) rotate(-9.26)"/><circle class="cls-10" cx="302.97" cy="112.02" r="7.02" transform="translate(-14.08 50.83) rotate(-9.26)"/><line class="cls-11" x1="69.97" y1="110.06" x2="69.97" y2="116.23"/><line class="cls-11" x1="69.97" y1="126.74" x2="69.97" y2="132.9"/><line class="cls-11" x1="81.39" y1="121.48" x2="75.22" y2="121.48"/><line class="cls-11" x1="64.71" y1="121.48" x2="58.55" y2="121.48"/><line class="cls-11" x1="400.97" y1="318.06" x2="400.97" y2="324.23"/><line class="cls-11" x1="400.97" y1="334.74" x2="400.97" y2="340.9"/><line class="cls-11" x1="412.39" y1="329.48" x2="406.22" y2="329.48"/><line class="cls-11" x1="395.71" y1="329.48" x2="389.55" y2="329.48"/><line class="cls-11" x1="378.14" y1="93.06" x2="378.14" y2="99.23"/><line class="cls-11" x1="378.14" y1="109.74" x2="378.14" y2="115.9"/><line class="cls-11" x1="389.56" y1="104.48" x2="383.39" y2="104.48"/><line class="cls-11" x1="372.88" y1="104.48" x2="366.71" y2="104.48"/><path class="cls-7" d="M456.28,244.17v-8.76a1.76,1.76,0,1,0-3.52,0v8.76A34.56,34.56,0,0,1,420,211.46h8.76a1.76,1.76,0,1,0,0-3.52H420a34.56,34.56,0,0,1,32.71-32.71V184a1.76,1.76,0,1,0,3.52,0v-8.76A34.56,34.56,0,0,1,489,207.94h-8.76a1.76,1.76,0,0,0,0,3.52H489a34.56,34.56,0,0,1-32.71,32.71Z" transform="translate(0 0.59)"/><path class="cls-12" d="M456.28,244.17v-8.76a1.76,1.76,0,1,0-3.52,0v8.76A34.56,34.56,0,0,1,420,211.46h8.76a1.76,1.76,0,1,0,0-3.52H420a34.56,34.56,0,0,1,32.71-32.71V184a1.76,1.76,0,1,0,3.52,0v-8.76A34.56,34.56,0,0,1,489,207.94h-8.76a1.76,1.76,0,0,0,0,3.52H489a34.56,34.56,0,0,1-32.71,32.71Zm25.14-61.37a38,38,0,1,0,11.14,26.9,37.79,37.79,0,0,0-11.14-26.9Z" transform="translate(0 0.59)"/><path class="cls-12" d="M454.52,211.46a1.76,1.76,0,1,1,1.76-1.76,1.76,1.76,0,0,1-1.76,1.76Zm6.15-9.65a1.75,1.75,0,0,0-1.24.49l-2.63,2.63a5.28,5.28,0,0,0-4.55,0l-13.74-13.74a1.76,1.76,0,1,0-2.49,2.49l13.74,13.74a5.28,5.28,0,1,0,9.53,0l2.63-2.63a1.79,1.79,0,0,0,0-2.49,1.76,1.76,0,0,0-1.25-.49Z" transform="translate(0 0.59)"/><path class="cls-12" d="M465.61,196.84a1.76,1.76,0,1,1-1.76,1.76,1.76,1.76,0,0,1,1.76-1.76Z" transform="translate(0 0.59)"/><path class="cls-7" d="M242.84,295.91a9,9,0,0,1,3.4,9.29c-.65,2.9-2.65,4.61-4.85,6.23q-2.78,2-5.57,4.06a8.17,8.17,0,0,1-5.22,1.82,8.77,8.77,0,0,1-8.78-6.21,8.62,8.62,0,0,1,3-9.72c2.68-2,5.4-4,8.21-5.91A8.61,8.61,0,0,1,242.84,295.91Z" transform="translate(0 0.59)"/><path class="cls-7" d="M247.16,263.37c3.55,1.36,6.81,7.11,2.91,11.52a22.72,22.72,0,0,1-8.07,5.55c-2.34,1-4.81,1.82-7.37,2.77V262.82C238.84,262.61,243.08,261.81,247.16,263.37Z" transform="translate(0 0.59)"/><path class="cls-7" d="M246.61,356.12a7.75,7.75,0,0,1-3.46,6.34q-1.87,1.36-3.78,2.67a7.58,7.58,0,0,1-10.32-1.79,7.44,7.44,0,0,1,1.29-10.18,42.78,42.78,0,0,1,5.14-3.62A7.48,7.48,0,0,1,246.61,356.12Z" transform="translate(0 0.59)"/><path class="cls-7" d="M248.68,331.57a14.14,14.14,0,0,1-5.29,6.13c-2.71,1.87-5.25,4-8,5.76-3.56,2.27-7.36,2.78-11.16.45a7.85,7.85,0,0,1-1-.73h0a7.94,7.94,0,0,1-1.1-1.47l-.09-.15a9,9,0,0,1-1.21-4.25s0,0,0,0,0-.14,0-.21c.14-3.61,2-6.41,5-8.62s5.85-4.35,8.84-6.44c3.62-2.53,8.71-2.52,11.78-.07A8.32,8.32,0,0,1,248.68,331.57Z" transform="translate(0 0.59)"/><line class="cls-13" x1="268.37" y1="226.15" x2="296.97" y2="226.15"/><line class="cls-13" x1="281.85" y1="239.93" x2="310.46" y2="239.93"/><line class="cls-13" x1="304.88" y1="226.15" x2="321.45" y2="226.15"/><path class="cls-6" d="M343.78,218.17l-9.65,10.18L329.3,236l-2.68,5-.36,6.07s-9.83,9.83-3.93,21.44c2.86,4.29,7.75,8.58,43.45,8.13s92.68-.63,92.68-.63l40.55.71s13.22-8.93,4.64-20-19.12-18.22-35.37-22.15c-7.32-2.32-38.95-21.62-64.85-22.33S348.06,210.49,343.78,218.17Z" transform="translate(0 0.59)"/><path class="cls-8" d="M384.09,209.06c-.43.05-.86.13-1.3.16-8.11.43-16.23.71-24.31,1.35a122.29,122.29,0,0,0-12.29,2,7.81,7.81,0,0,0-4.49,2.74A158.21,158.21,0,0,0,327,234.26a18.73,18.73,0,0,0-3,9.42c0,.91-.13,1.82-.26,2.73a1.7,1.7,0,0,1-.45,1c-4.17,3.84-5.43,8.73-5.11,14.18a16.82,16.82,0,0,0,2,7.89,10.52,10.52,0,0,0,1.53,2,2.07,2.07,0,0,0,2.93.11,2.17,2.17,0,0,0,.24-2.95c-3.41-5-3.19-10.28-.68-15.55a9,9,0,0,1,2.44-2.79,3.48,3.48,0,0,0,1.35-2.58c.18-2.19.44-4.37.66-6.56.19-1.87,1.32-3.32,2.26-4.82a124.56,124.56,0,0,1,14.56-18.58,4.47,4.47,0,0,1,2.33-1.09c3.18-.62,6.37-1.3,9.59-1.65a283.5,283.5,0,0,1,41.26-1.41c21.2.77,40.85,6.74,58.59,18.57a29.48,29.48,0,0,1,3.42,2.53,7,7,0,0,0,3.83,1.6c9,1.48,17.75,4,25.71,8.65a27.48,27.48,0,0,1,10.44,10,16.46,16.46,0,0,1,2.31,8.32,66,66,0,0,1-.46,7.17,4.62,4.62,0,0,1-4.12,4.26c-1.16.21-2.34.34-3.52.46-1.53.15-2.41,1-2.3,2.39a2.15,2.15,0,0,0,2.63,1.88,40.14,40.14,0,0,0,4.7-.72,8.31,8.31,0,0,0,6.62-6.66c1.4-6.55,1.29-13-2-19a30.52,30.52,0,0,0-10.71-10.88c-6.8-4.37-14.33-6.95-22.14-8.79-2.17-.51-4.38-.83-6.56-1.3a4.68,4.68,0,0,1-1.81-.79,104.82,104.82,0,0,0-29.92-15.59,122,122,0,0,0-32-6.25c-1.1-.07-2.19-.19-3.29-.28Z" transform="translate(0 0.59)"/><path class="cls-8" d="M444.89,243.89c-4.84-.54-9.66-1.18-14.51-1.61-8.15-.72-16.31-1.33-24.47-2q-10.07-.78-20.13-1.5c-9-.63-18-1.18-27-1.84a14.34,14.34,0,0,1-4.41-1,3.67,3.67,0,0,1-1.92-5.17,9.91,9.91,0,0,1,2-2.76,28.66,28.66,0,0,1,14-7.64,101.41,101.41,0,0,1,17.29-2.12A103.87,103.87,0,0,1,412.21,220c3.83.79,7.66,1.65,11.43,2.71A70.88,70.88,0,0,1,443.26,231a21.76,21.76,0,0,1,6.7,6.25c1,1.49,1.65,3.12.67,4.85S448,244,446.31,244C445.84,244,445.36,243.95,444.89,243.89Zm-50.11-9.32c0,.65.42.66.88.7,3.74.28,7.48.55,11.23.84,9.13.71,18.27,1.39,27.4,2.18,3.6.31,7.18.85,10.76,1.28.35,0,.71.06,1.06.1l.2-.3c-1-1-2-2.14-3.13-3.06a42.77,42.77,0,0,0-12.25-6.64,109.75,109.75,0,0,0-35.29-7.23,10.08,10.08,0,0,0-1,0c-.09,0-.17.09-.32.18C394.47,226.61,394.65,230.59,394.79,234.58Zm-4.3.25L390,222.62a3.47,3.47,0,0,0-.66-.12c-7,.24-14,.64-20.82,2.34a25.13,25.13,0,0,0-11.37,6.55,8.23,8.23,0,0,0-.64.76l.06.34Z" transform="translate(0 0.59)"/><path class="cls-8" d="M362.31,274.32a16,16,0,1,1-16-15.91A16,16,0,0,1,362.31,274.32Zm-15.79,11.76a11.71,11.71,0,1,0-11.9-11.77A11.7,11.7,0,0,0,346.52,286.08Z" transform="translate(0 0.59)"/><path class="cls-8" d="M455.61,274.73a16,16,0,1,1,16.16,15.65A16,16,0,0,1,455.61,274.73ZM472,286.08a11.7,11.7,0,1,0-12.08-11.59A11.71,11.71,0,0,0,472,286.08Z" transform="translate(0 0.59)"/><path class="cls-8" d="M408.74,278.77h39.89c2,0,2.93-.69,2.94-2.12s-1-2.16-2.91-2.16H368.77a9.67,9.67,0,0,0-1,0,2.1,2.1,0,0,0-2,2.17,2,2,0,0,0,2.05,2.06c2.64,0,5.28,0,7.92,0Z" transform="translate(0 0.59)"/><path class="cls-7" d="M472,286.08a11.7,11.7,0,1,0-12.08-11.59A11.71,11.71,0,0,0,472,286.08Z" transform="translate(0 0.59)"/><path class="cls-7" d="M346.52,286.08a11.71,11.71,0,1,0-11.9-11.77A11.7,11.7,0,0,0,346.52,286.08Z" transform="translate(0 0.59)"/><path class="cls-7" d="M394.79,234.58c0,.65.42.66.88.7,3.74.28,7.48.55,11.23.84,9.13.71,18.27,1.39,27.4,2.18,3.6.31,7.18.85,10.76,1.28.35,0,.71.06,1.06.1l.2-.3c-1-1-2-2.14-3.13-3.06a42.77,42.77,0,0,0-12.25-6.64,109.75,109.75,0,0,0-35.29-7.23,10.08,10.08,0,0,0-1,0c-.09,0-.17.09-.32.18C394.47,226.61,394.65,230.59,394.79,234.58Z" transform="translate(0 0.59)"/><path class="cls-7" d="M390.49,234.83,390,222.62a3.47,3.47,0,0,0-.66-.12c-7,.24-14,.64-20.82,2.34a25.13,25.13,0,0,0-11.37,6.55,8.23,8.23,0,0,0-.64.76l.06.34Z" transform="translate(0 0.59)"/><path class="cls-8" d="M13.89,234.22V181.09a2.75,2.75,0,0,1,2.75-1.78q35,0,70.09,0A2.41,2.41,0,0,1,89.45,182q0,25.67,0,51.35a21.25,21.25,0,0,1-26.22,20.86A20.55,20.55,0,0,1,48.3,240.94,51.12,51.12,0,0,1,46.93,236h-.79c-9.71,0-19.43,0-29.14,0A2.94,2.94,0,0,1,13.89,234.22Zm4.76-3c3,0,5.86,0,8.76,0a1.43,1.43,0,0,0,1.2-.53q6.72-7.5,13.49-15a6.23,6.23,0,0,1,6.77-1.86,6.61,6.61,0,0,1,2.92,1.92l2,2.08,3.78-4.2C61,209.9,64.44,206,67.91,202.22a8,8,0,0,1,11.59-.68c1.32,1.24,2.47,2.67,3.69,4l1.47,1.63v-23.1h-66Zm49.54,18.89a16.53,16.53,0,1,0-16.52-16.54A16.59,16.59,0,0,0,68.19,250.15Zm16.54-29.89c0-1.9,0-3.61,0-5.32a1.85,1.85,0,0,0-.42-1.09c-2.46-2.78-5-5.53-7.45-8.28-1.76-1.94-3.81-1.95-5.57,0-2,2.16-3.92,4.34-5.88,6.52-.14.16-.26.34-.41.53C72.88,211.68,79.39,214.2,84.73,220.26Zm-34,1.32-2.37-2.48c-1-1.07-1.92-1.07-2.92,0L35,230.7c-.14.15-.25.32-.42.54h12.5A21.53,21.53,0,0,1,50.71,221.58Z" transform="translate(0 0.59)"/><path class="cls-6" d="M18.65,231.27V184.08h66v23.1l-1.47-1.63c-1.23-1.35-2.37-2.78-3.69-4a8,8,0,0,0-11.59.68C64.44,206,61,209.9,57.55,213.74l-3.78,4.2-2-2.08a6.61,6.61,0,0,0-2.92-1.92,6.23,6.23,0,0,0-6.77,1.86q-6.79,7.44-13.49,15a1.43,1.43,0,0,1-1.2.53C24.51,231.25,21.61,231.27,18.65,231.27Zm25.94-30.73a9.44,9.44,0,1,0-9.4,9.47A9.47,9.47,0,0,0,44.58,200.54Z" transform="translate(0 0.59)"/><path class="cls-7" d="M68.19,250.15a16.53,16.53,0,1,1,16.54-16.52A16.59,16.59,0,0,1,68.19,250.15Zm-2.35-18.89H58.95A2.37,2.37,0,1,0,59,236h6.86c0,2.37,0,4.63,0,6.89a2.37,2.37,0,1,0,4.72,0c0-2,0-4.08,0-6.12,0-.23,0-.47,0-.74h6.88a2.37,2.37,0,1,0,0-4.72H70.56c0-.37,0-.64,0-.91q0-3,0-6a2.36,2.36,0,1,0-4.72-.06C65.82,226.56,65.84,228.87,65.84,231.27Z" transform="translate(0 0.59)"/><path class="cls-7" d="M84.73,220.26c-5.34-6.06-11.85-8.58-19.75-7.66.15-.19.27-.37.41-.53,2-2.18,3.91-4.35,5.88-6.52,1.76-1.94,3.81-1.93,5.57,0,2.49,2.75,5,5.5,7.45,8.28a1.85,1.85,0,0,1,.42,1.09C84.75,216.65,84.73,218.37,84.73,220.26Z" transform="translate(0 0.59)"/><path class="cls-7" d="M50.71,221.58a21.53,21.53,0,0,0-3.62,9.65H34.58c.17-.22.28-.39.42-.54l10.42-11.55c1-1.11,1.9-1.12,2.92,0Z" transform="translate(0 0.59)"/><path class="cls-8" d="M44.58,200.54a9.44,9.44,0,1,1-9.45-9.41A9.47,9.47,0,0,1,44.58,200.54Zm-9.44-4.69a4.72,4.72,0,1,0,4.72,4.68A4.78,4.78,0,0,0,35.14,195.85Z" transform="translate(0 0.59)"/><path class="cls-8" d="M65.84,231.27c0-2.4,0-4.71,0-7a2.36,2.36,0,1,1,4.72.06q0,3,0,6c0,.27,0,.54,0,.91h6.87a2.37,2.37,0,1,1,0,4.72H70.56c0,.27,0,.51,0,.74,0,2,0,4.08,0,6.12a2.37,2.37,0,1,1-4.72,0c0-2.26,0-4.52,0-6.89H59a2.37,2.37,0,1,1,0-4.72Z" transform="translate(0 0.59)"/><path class="cls-7" d="M35.14,195.85a4.72,4.72,0,1,1-4.72,4.76A4.76,4.76,0,0,1,35.14,195.85Z" transform="translate(0 0.59)"/><path class="cls-8" d="M325.2,332.39a7.71,7.71,0,0,0,.56.7q9.21,9.22,18.44,18.43a1.7,1.7,0,0,1,.56,1.34c0,4,0,7.95,0,12l-4.93-1.93V357H325.27a4.91,4.91,0,0,1-5.14-5.12q0-6.77,0-13.54c0-.31,0-.61,0-1H290.63v68.83c.25,0,.5,0,.75,0q9.73,0,19.46,0a1.52,1.52,0,0,1,1.18.53c1.48,1.48,3,2.91,4.52,4.36a3.05,3.05,0,0,1-.42,0H290.74a4.91,4.91,0,0,1-5.08-5.18q0-25.61,0-51.22,0-8.58,0-17.15a4.88,4.88,0,0,1,3.81-5.09.78.78,0,0,0,.19-.12Zm14.63,19.67L325.1,337.24v14.81Z" transform="translate(0 0.59)"/><path class="cls-8" d="M354.59,390.86c-.29,1.45-.49,2.93-.9,4.35a22.09,22.09,0,1,1,.71-9.17c.05.38.12.75.18,1.13Zm-22.2,15.39A17.23,17.23,0,1,0,315.2,389,17.24,17.24,0,0,0,332.39,406.24Z" transform="translate(0 0.59)"/><path class="cls-7" d="M339.83,352.06H325.1V337.24Z" transform="translate(0 0.59)"/><path class="cls-7" d="M332.39,406.24a17.23,17.23,0,1,1,17.28-17.17A17.24,17.24,0,0,1,332.39,406.24Zm2.51-14.77h4.73a2.47,2.47,0,1,0,0-4.92h-4.78c0-1.69,0-3.28,0-4.87a2.46,2.46,0,1,0-4.91-.08c0,1.63,0,3.26,0,4.84-.12.07-.14.09-.16.09l-4.69,0a2.4,2.4,0,0,0-2.22,1.27,2.44,2.44,0,0,0,2.1,3.65c1.63,0,3.27,0,5,0,0,.82,0,1.56,0,2.29,0,.9,0,1.8,0,2.69a2.46,2.46,0,0,0,4.91,0C334.92,394.82,334.9,393.19,334.9,391.47Z" transform="translate(0 0.59)"/><path class="cls-8" d="M334.9,391.47c0,1.71,0,3.35,0,5a2.46,2.46,0,0,1-4.91,0c0-.9,0-1.79,0-2.69,0-.74,0-1.47,0-2.29-1.7,0-3.33,0-5,0a2.44,2.44,0,0,1-2.1-3.65,2.4,2.4,0,0,1,2.22-1.27l4.69,0s0,0,.16-.09c0-1.57,0-3.21,0-4.84a2.46,2.46,0,1,1,4.91.08c0,1.59,0,3.17,0,4.87h4.78a2.47,2.47,0,1,1,0,4.92Z" transform="translate(0 0.59)"/><path class="cls-8" d="M182.83,290.38a2.2,2.2,0,0,1-1.56-.65l-7.82-7.82a2.21,2.21,0,0,1,3.13-3.13l6.26,6.26L196.91,271a2.21,2.21,0,1,1,3.13,3.13l-15.64,15.65a2.21,2.21,0,0,1-1.56.65Z" transform="translate(0 0.59)"/><circle class="cls-10" cx="185.21" cy="279.48" r="25.25"/></svg>