<svg id="Layer_1" data-name="Layer 1" xmlns="http://www.w3.org/2000/svg" viewBox="0 0 479.33 479.33"><defs><style>.cls-1,.cls-2,.cls-3,.cls-4{fill:#d2e4f7;}.cls-1{opacity:0.1;}.cls-2{opacity:0.4;}.cls-3{opacity:0.7;}.cls-10,.cls-5,.cls-9{fill:none;}.cls-10,.cls-11,.cls-5,.cls-7,.cls-8,.cls-9{stroke:#5c82ee;stroke-width:5px;}.cls-10,.cls-11,.cls-5,.cls-9{stroke-linecap:round;stroke-linejoin:round;}.cls-6,.cls-8{fill:#fff;}.cls-11,.cls-12,.cls-7{fill:#94c2ff;}.cls-7,.cls-8{stroke-miterlimit:10;}.cls-9{stroke-dasharray:11.65 11.65;}.cls-10{stroke-dasharray:13.1 13.1;}.cls-13{fill:#5c82ee;}</style></defs><title>item2</title><circle class="cls-1" cx="239.67" cy="239.67" r="239.67"/><circle class="cls-2" cx="239.67" cy="239.67" r="201.17"/><circle class="cls-3" cx="239.67" cy="239.67" r="162.67"/><circle class="cls-4" cx="239.67" cy="239.67" r="124.17"/><circle class="cls-5" cx="78.82" cy="144.08" r="7.02" transform="translate(-22.17 14.57) rotate(-9.26)"/><circle class="cls-5" cx="314.82" cy="344.08" r="7.02" transform="translate(-51.29 55.17) rotate(-9.26)"/><line class="cls-5" x1="135.48" y1="85.89" x2="135.48" y2="92.06"/><line class="cls-5" x1="135.48" y1="102.57" x2="135.48" y2="108.73"/><line class="cls-5" x1="146.91" y1="97.31" x2="140.74" y2="97.31"/><line class="cls-5" x1="130.23" y1="97.31" x2="124.06" y2="97.31"/><circle class="cls-5" cx="406.25" cy="304.16" r="7.02" transform="translate(-43.67 69.37) rotate(-9.26)"/><line class="cls-5" x1="450.69" y1="130.59" x2="450.69" y2="136.75"/><line class="cls-5" x1="450.69" y1="147.26" x2="450.69" y2="153.43"/><line class="cls-5" x1="462.11" y1="142.01" x2="455.94" y2="142.01"/><line class="cls-5" x1="445.44" y1="142.01" x2="439.27" y2="142.01"/><line class="cls-5" x1="307.52" y1="52.59" x2="307.52" y2="58.75"/><line class="cls-5" x1="307.52" y1="69.26" x2="307.52" y2="75.43"/><line class="cls-5" x1="318.94" y1="64.01" x2="312.78" y2="64.01"/><line class="cls-5" x1="302.27" y1="64.01" x2="296.1" y2="64.01"/><line class="cls-5" x1="347.09" y1="285.67" x2="347.09" y2="291.84"/><line class="cls-5" x1="347.09" y1="302.35" x2="347.09" y2="308.51"/><line class="cls-5" x1="358.51" y1="297.09" x2="352.34" y2="297.09"/><line class="cls-5" x1="341.83" y1="297.09" x2="335.67" y2="297.09"/><path class="cls-6" d="M325.88,109.72l59.25,145.16L419,235s9.32-3.36,6.47-20.18c-4.4-15-38.81-139.21-38.81-139.21s-13.46-3.11-26.13,9.06a280.09,280.09,0,0,1-23.81,20.44A31.35,31.35,0,0,1,325.88,109.72Z"/><path class="cls-6" d="M235.06,93.41,286.81,245.3s-9.83,4.14-16.3,7.5-50.72,26.65-50.72,26.65-8,4.4-11.64-6.73c-2.07-14.49-23.29-136.62-23.29-136.62s-2.07-12.42,12.68-20.18S235.06,93.41,235.06,93.41Z"/><path class="cls-5" d="M200.9,113.6s-19.41,8.8-15.53,26.39c3.36,18.37,22.77,132.74,22.77,132.74s3.36,12.68,15,6,54.34-30.27,54.34-30.27,13.46-5.18,25.36-2.07,59.25,13.46,59.25,13.46,11.13,1.55,19.92-2.85,38-22.77,38-22.77,9.83-6,5.43-21.48S383.06,63.14,383.06,63.14l-46.32,41.92s-11.13,9.32-31.57.52c-23-7.5-49.42-15.53-49.42-15.53s-13.71-1.81-23,4.66l-9.32,6.47"/><line class="cls-5" x1="216.17" y1="105.32" x2="210.47" y2="108.94"/><path class="cls-7" d="M248,158.55a27.72,27.72,0,0,0-27.69,27.69c0,8.8,7.38,21.92,11.79,29a125.39,125.39,0,0,0,8.76,12.4c4.42,5.41,6,5.86,7.14,5.86s2.65-.45,7.06-5.86a129.54,129.54,0,0,0,8.77-12.4c4.43-7.05,11.86-20.19,11.86-29A27.72,27.72,0,0,0,248,158.55Z"/><path class="cls-8" d="M248,196.27a10.62,10.62,0,1,1,10.62-10.62A10.63,10.63,0,0,1,248,196.27Z"/><path class="cls-7" d="M369.09,37.45A27.72,27.72,0,0,0,341.4,65.14c0,8.8,7.38,21.92,11.79,29A125.39,125.39,0,0,0,362,106.5c4.42,5.41,6,5.86,7.14,5.86s2.65-.45,7.06-5.86a129.54,129.54,0,0,0,8.77-12.4c4.43-7.05,11.86-20.19,11.86-29a27.72,27.72,0,0,0-27.69-27.69Z"/><path class="cls-8" d="M369.09,75.17a10.62,10.62,0,1,1,10.62-10.62,10.63,10.63,0,0,1-10.62,10.62Z"/><path class="cls-5" d="M367.51,112a16.36,16.36,0,0,0,.62,5.94"/><path class="cls-9" d="M374.29,127.69a26.86,26.86,0,0,0,4.75,3.37c13.07,7.37,18.45,14,2.69,29.11-12.68,9.7-30.37,26.39-48.43,13.58-7.69-8.54-8.84-12.42-9.61-16.69s-5.77-26-33.06-21,11.53,50.46,11.53,50.46l17.54,19.85"/><polyline class="cls-5" points="323.56 210.79 327.54 215.29 321.72 216.78"/><line class="cls-10" x1="309.03" y1="220.02" x2="264.6" y2="231.4"/><line class="cls-5" x1="258.26" y1="233.02" x2="252.44" y2="234.51"/><polygon class="cls-11" points="320.58 224.02 324.85 243.43 350.85 249.06 344.64 227.51 320.58 224.02"/><polygon class="cls-11" points="195.72 132.62 204.26 171.04 240.75 148.53 235.7 126.41 254.72 115.93 277.23 120.58 274.9 108.55 249.68 100.01 195.72 132.62"/><polygon class="cls-11" points="403.7 180.36 373.94 207.01 385.07 239.61 418.45 221.24 403.7 180.36"/><path class="cls-6" d="M55,359l10-15.5a40.37,40.37,0,0,0,3.5-10.25c1-5.5,1-16.5,1-16.5l2.5-14L87.21,274l12.5-30.5,1.75-12.5.75-15s4.25-11,11.5-5.75,13.75,24.5,11,45.5c-3,14.75-9.5,24.75-8.75,50.25s.75,37.25.75,37.25S116.21,349,124,349s51.75,1.25,51.75,1.25-11.25,20.5-28,26.5S116,391.51,107,400.26,55,359,55,359Z"/><path class="cls-12" d="M124.32,175.25c-2.23,0-3,.78-3,3q0,17.1,0,34.2c0,.38,0,.77,0,1.54-.91-1.11-1.64-1.91-2.26-2.79a3,3,0,0,1-.65-1.56q-.1-18.84-.12-37.68c0-.27,0-.55,0-.82l0-.05s-.18-6.23,4.52-6.78q41.52.05,83,0c2.76,0,4.32,1.21,4.81,3.93a25.31,25.31,0,0,1,.26,4.41c0,15.36,0,30.72-.06,46.08a11.27,11.27,0,0,0,.06,1.17v11.37h0q0,13.36,0,26.73c0,2-.82,3.12-3,3.78,0-.41-.05-.8-.05-1.19q0-11.88,0-23.77h0v-18l0,0q0-20.38,0-40.75c0-2.1-.81-2.87-2.91-2.87H124.32Z"/><path class="cls-12" d="M211,339.85a29,29,0,0,1-.89,4.51,3.66,3.66,0,0,1-3.79,2.32c-7.88,0-15.75,0-23.63,0l-58.66,0c-4.08,0-5.67-1.57-5.7-5.71q-.05-6.72,0-13.43c0-10.76.18-21.51,0-32.27a62.66,62.66,0,0,1,2.35-18.56,8,8,0,0,1,.43-1l.22,0q0,7.79,0,15.59,0,16.43,0,32.87c0,1.84.82,2.67,2.71,2.67h58.38c6.71,0,13.42,0,20.12,0,1.18,0,1.53.31,1.62,1.52a11.12,11.12,0,0,0,5.42,8.81C210.61,337.88,211.22,338.56,211,339.85Z"/><path class="cls-13" d="M224.88,283.73l.46-.39h0a44.89,44.89,0,0,0,4.23-4,1.7,1.7,0,0,0,.38-.4l.08-.08h0l0-.06a13.5,13.5,0,0,0,1.23-12.51,12.71,12.71,0,0,0-9.86-8.27,49,49,0,0,0-5.74-.39c.08-.46-.63-1.32.52-1.68,1.67-.52,3.38-.92,5-1.51a34.19,34.19,0,0,0,11.79-6.59c4.13-3.77,5.9-8.47,3.45-14.1a11.65,11.65,0,0,0-7.11-6.75,23.59,23.59,0,0,0-8.52-1c-1.71.05-3.42.19-5.12.29l-.08-20.89-.06,0q0-17.51,0-35a14.32,14.32,0,0,0-.76-4.68,8.34,8.34,0,0,0-5.91-5.72,19.27,19.27,0,0,0-4.51-.35q-40.74,0-81.48,0a9.45,9.45,0,0,0-3.93.79A8.94,8.94,0,0,0,114,167a23.67,23.67,0,0,0-.45,6.21,5.29,5.29,0,0,0,0,.73q0,16,0,31.92c0,.46,0,.91,0,1.44-.36-.06-.52-.06-.67-.1-5-1.35-12.26,1.55-13,8.94a85.21,85.21,0,0,0-.2,11.37c.1,3.22.2,6.42-.72,9.51-1.61,5.42-3.16,10.87-5.14,16.15-2.93,7.82-6.91,15.18-10.89,22.52-4.07,7.5-8.38,14.87-11.62,22.8a42.25,42.25,0,0,0-3.12,11.26c-.61,5.52-.93,11.07-1.53,16.59a56.62,56.62,0,0,1-3.88,15.12,55.3,55.3,0,0,1-8.1,13.68,1.66,1.66,0,0,0-.31,2.07h0s1.06,1.88,2.8,1.64h.07a2.53,2.53,0,0,0,.59-.17c1.16-.68,3-3.75,3.58-4.83,1.06-1.64,2.12-3.29,3.07-5a51.25,51.25,0,0,0,5.87-16.59c.85-5.11,1.56-10.27,2-15.43.42-4.78.53-9.63,2.41-14.1,2.24-5.31,4.71-10.53,7.32-15.68,3.43-6.76,7.17-13.37,10.65-20.11a129.92,129.92,0,0,0,10.25-26.56,41.76,41.76,0,0,0,1.31-13.4,68.59,68.59,0,0,1,.19-10,5.74,5.74,0,0,1,9.25-4.15,21.7,21.7,0,0,1,4,4.64,35.84,35.84,0,0,1,4.74,11.9A106,106,0,0,1,124.19,240c.68,5.69-1,11.11-2.37,16.5-1.48,5.66-3.24,11.25-5,16.83a69,69,0,0,0-3.33,21.2c0,15.56,0,31.12,0,46.68,0,5.66,3.86,10.52,10.32,10.39,9.3-.19,18.61-.06,27.92-.06l18.84,0c.41,0,.82,0,1.52.08-.81,1.17-1.43,2.12-2.12,3a63.17,63.17,0,0,1-12.54,12.26c-4.84,3.68-9.73,7.32-15.18,10-5.19,2.57-10.53,4.86-15.91,7a43.78,43.78,0,0,0-16.88,11.65,2.43,2.43,0,0,0-.11,3.27,2.4,2.4,0,0,0,3.35.14,10.86,10.86,0,0,0,1.1-1.09c4.83-5.52,11.21-8.47,17.87-11.08,4.14-1.62,8.25-3.37,12.21-5.37a104.76,104.76,0,0,0,16.87-11.14c6.47-5,12.34-10.65,16.3-18a1.48,1.48,0,0,1,1.53-.82c9,0,18-.12,27,0,6.15.11,9.89-4.75,10-9.92,0-.75,0-1.5,0-2.26a13.88,13.88,0,0,0,7.47-2.24c1.5-1,3-2.11,4.43-3.21a12.16,12.16,0,0,0-.66-19.86c-1-.65-2.1-1.14-3.27-1.76.89-.64,1.67-1.23,2.47-1.78,3.41-2.34,6.46-5,8-9a13.38,13.38,0,0,0-.22-10.92C232.07,286.84,229,284.78,224.88,283.73Zm-1-19.71a9,9,0,0,1,3.4,9.29c-.65,2.9-2.65,4.61-4.85,6.23q-2.78,2-5.57,4.06a8.17,8.17,0,0,1-5.22,1.82,8.77,8.77,0,0,1-8.78-6.21,8.62,8.62,0,0,1,3-9.72c2.68-2,5.4-4,8.21-5.91A8.61,8.61,0,0,1,223.91,264Zm-26.61,39.8h0a11.69,11.69,0,0,0,2,8.85l0,0,.24.27,0,.06h0a23.78,23.78,0,0,0,1.64,1.78,12.48,12.48,0,0,0,6.52,3.14c-.89,1.33-1.68,2.59-2.56,3.78a1.43,1.43,0,0,1-1,.38q-7.89.05-15.8.07l-15.59,0h-6.19q-19.54,0-39.09,0c-1.17,0-1.56-.22-1.56-1.49q.08-30.24.05-60.48a4.85,4.85,0,0,1,.1-1.07c.62-2.72,1.17-5.46,1.91-8.15,1.92-6.93,1.12-13.81-.48-20.62-.93-4-1.95-7.89-1.53-12a2.38,2.38,0,0,0,0-.24q0-18.36,0-36.72c0-1.07.25-1.48,1.4-1.44,2.68.09,5.36,0,8,0h66.36c1.6,0,1.6,0,1.6,1.56,0,13.34.05,26.68-.06,40h0l0,17.8h0c0,8.26,0,16.52.05,24.78a2.68,2.68,0,0,1-1,2.25,13.34,13.34,0,0,0-.41,19.81c1.65,1.56,3.8,2.6,5.76,3.91-.94.7-2.1,1.58-3.28,2.42A15.9,15.9,0,0,0,197.3,303.82Zm30.93-72.33c3.55,1.36,6.81,7.11,2.91,11.52a22.72,22.72,0,0,1-8.07,5.55c-2.34,1-4.81,1.82-7.37,2.77V230.94C219.91,230.73,224.15,229.92,228.23,231.49ZM124.32,175.25c-2.23,0-3,.78-3,3q0,17.1,0,34.2c0,.38,0,.77,0,1.54-.91-1.11-1.64-1.91-2.26-2.79a3,3,0,0,1-.65-1.56q-.1-18.84-.12-37.68c0-.27,0-.55,0-.82l0-.05s-.18-6.23,4.52-6.78q41.52.05,83,0c2.76,0,4.32,1.21,4.81,3.93a25.31,25.31,0,0,1,.26,4.41c0,15.36,0,30.72-.06,46.08a11.27,11.27,0,0,0,.06,1.17v11.37h0q0,13.36,0,26.73c0,2-.82,3.12-3,3.78,0-.41-.05-.8-.05-1.19q0-11.88,0-23.77h0v-18l0,0q0-20.38,0-40.75c0-2.1-.81-2.87-2.91-2.87H124.32ZM211,339.85a29,29,0,0,1-.89,4.51,3.66,3.66,0,0,1-3.79,2.32c-7.88,0-15.75,0-23.63,0l-58.66,0c-4.08,0-5.67-1.57-5.7-5.71q-.05-6.72,0-13.43c0-10.76.18-21.51,0-32.27a62.66,62.66,0,0,1,2.35-18.56,8,8,0,0,1,.43-1l.22,0q0,7.79,0,15.59,0,16.43,0,32.87c0,1.84.82,2.67,2.71,2.67h58.38c6.71,0,13.42,0,20.12,0,1.18,0,1.53.31,1.62,1.52a11.12,11.12,0,0,0,5.42,8.81C210.61,337.88,211.22,338.56,211,339.85Zm16.71-15.62a7.75,7.75,0,0,1-3.46,6.34q-1.87,1.36-3.78,2.67a7.58,7.58,0,0,1-10.32-1.79,7.44,7.44,0,0,1,1.29-10.18,42.78,42.78,0,0,1,5.14-3.62A7.48,7.48,0,0,1,227.68,324.23Zm2.07-24.55a14.14,14.14,0,0,1-5.29,6.13c-2.71,1.87-5.25,4-8,5.76-3.56,2.27-7.36,2.78-11.16.45a7.85,7.85,0,0,1-1-.73h0a7.94,7.94,0,0,1-1.1-1.47l-.09-.15a9,9,0,0,1-1.21-4.25s0,0,0,0,0-.14,0-.21c.14-3.61,2-6.41,5-8.62s5.85-4.35,8.84-6.44c3.62-2.53,8.71-2.52,11.78-.07A8.32,8.32,0,0,1,229.75,299.69Z"/><path class="cls-13" d="M170.23,167.93c-1.88,0-3.76,0-5.64,0s-3.76,0-5.64,0c-1.61,0-2.46.82-2.48,2.26a2.16,2.16,0,0,0,2.4,2.35q5.7.07,11.39,0a2.32,2.32,0,0,0,2.46-2.35A2.26,2.26,0,0,0,170.23,167.93Z"/><path class="cls-13" d="M175.92,333.29q-11.33,0-22.66,0a2.34,2.34,0,0,0-2.64,2.31,2.42,2.42,0,0,0,2.67,2.39c3.75-.09,7.51,0,11.27,0h0c3.8,0,7.6-.06,11.39,0a2.43,2.43,0,0,0,2.59-2.35A2.32,2.32,0,0,0,175.92,333.29Z"/><path class="cls-6" d="M197.3,303.82h0a11.69,11.69,0,0,0,2,8.85l0,0,.24.27,0,.06h0a23.78,23.78,0,0,0,1.64,1.78,12.48,12.48,0,0,0,6.52,3.14c-.89,1.33-1.68,2.59-2.56,3.78a1.43,1.43,0,0,1-1,.38q-7.89.05-15.8.07l-15.59,0h-6.19q-19.54,0-39.09,0c-1.17,0-1.56-.22-1.56-1.49q.08-30.24.05-60.48a4.85,4.85,0,0,1,.1-1.07c.62-2.72,1.17-5.46,1.91-8.15,1.92-6.93,1.12-13.81-.48-20.62-.93-4-1.95-7.89-1.53-12a2.38,2.38,0,0,0,0-.24q0-18.36,0-36.72c0-1.07.25-1.48,1.4-1.44,2.68.09,5.36,0,8,0h66.36c1.6,0,1.6,0,1.6,1.56,0,13.34.05,26.68-.06,40h0l0,17.8h0c0,8.26,0,16.52.05,24.78a2.68,2.68,0,0,1-1,2.25,13.34,13.34,0,0,0-.41,19.81c1.65,1.56,3.8,2.6,5.76,3.91-.94.7-2.1,1.58-3.28,2.42A15.9,15.9,0,0,0,197.3,303.82Z"/><path class="cls-6" d="M223.91,264a9,9,0,0,1,3.4,9.29c-.65,2.9-2.65,4.61-4.85,6.23q-2.78,2-5.57,4.06a8.17,8.17,0,0,1-5.22,1.82,8.77,8.77,0,0,1-8.78-6.21,8.62,8.62,0,0,1,3-9.72c2.68-2,5.4-4,8.21-5.91A8.61,8.61,0,0,1,223.91,264Z"/><path class="cls-6" d="M228.23,231.49c3.55,1.36,6.81,7.11,2.91,11.52a22.72,22.72,0,0,1-8.07,5.55c-2.34,1-4.81,1.82-7.37,2.77V230.94C219.91,230.73,224.15,229.92,228.23,231.49Z"/><path class="cls-6" d="M227.68,324.23a7.75,7.75,0,0,1-3.46,6.34q-1.87,1.36-3.78,2.67a7.58,7.58,0,0,1-10.32-1.79,7.44,7.44,0,0,1,1.29-10.18,42.78,42.78,0,0,1,5.14-3.62A7.48,7.48,0,0,1,227.68,324.23Z"/><path class="cls-6" d="M229.75,299.69a14.14,14.14,0,0,1-5.29,6.13c-2.71,1.87-5.25,4-8,5.76-3.56,2.27-7.36,2.78-11.16.45a7.85,7.85,0,0,1-1-.73h0a7.94,7.94,0,0,1-1.1-1.47l-.09-.15a9,9,0,0,1-1.21-4.25s0,0,0,0,0-.14,0-.21c.14-3.61,2-6.41,5-8.62s5.85-4.35,8.84-6.44c3.62-2.53,8.71-2.52,11.78-.07A8.32,8.32,0,0,1,229.75,299.69Z"/><path class="cls-5" d="M133.38,232.88V220.94a6,6,0,0,1,5.94-5.94h12"/><path class="cls-5" d="M151.07,279.56H139.32a6,6,0,0,1-5.94-5.94v-13"/><path class="cls-5" d="M197.69,261.26v12.37a6,6,0,0,1-5.94,5.94h-12.3"/><path class="cls-5" d="M179.76,215h12a6,6,0,0,1,5.94,5.94v11.69"/><line class="cls-5" x1="140.06" y1="257.05" x2="191.75" y2="257.05"/><path class="cls-5" d="M148.72,243.57c.25.12-1.48-20.16,17.31-20.28"/><path class="cls-5" d="M151.56,254.09l-1.11-3a1.31,1.31,0,0,0-1.73-.37c-1.24.49-3.34-6.68,0-7.17.25.12-1.48-20.16,17.31-20.28"/><path class="cls-5" d="M179.69,254.09l1.11-3a1.31,1.31,0,0,1,1.73-.37c1.24.49,3.34-6.68,0-7.17-.25.12,1.48-20.16-17.31-20.28"/><line class="cls-5" x1="154.42" y1="262.44" x2="155.04" y2="263.67"/><line class="cls-5" x1="156.75" y1="269.54" x2="156.75" y2="272.02"/><line class="cls-5" x1="176.27" y1="262.44" x2="175.66" y2="263.68"/><line class="cls-5" x1="173.94" y1="269.54" x2="173.94" y2="272.02"/></svg>