<?xml version="1.0" encoding="iso-8859-1"?>
<!-- Generator: Adobe Illustrator 17.1.0, SVG Export Plug-In . SVG Version: 6.00 Build 0)  -->
<!DOCTYPE svg PUBLIC "-//W3C//DTD SVG 1.1//EN" "http://www.w3.org/Graphics/SVG/1.1/DTD/svg11.dtd">
<svg version="1.1" id="&#x421;&#x43B;&#x43E;&#x439;_1"
	 xmlns="http://www.w3.org/2000/svg" xmlns:xlink="http://www.w3.org/1999/xlink" x="0px" y="0px" viewBox="0 0 221.459 42.132"
	 style="enable-background:new 0 0 221.459 42.132;" xml:space="preserve">
	<path style="fill:#5180E1;" d="M1.119,26.644c0-5.176,3.742-8.848,8.953-8.848c3.462,0,5.561,1.504,6.68,3.042l-2.902,2.728
		c-0.805-1.189-2.029-1.819-3.567-1.819c-2.693,0-4.582,1.958-4.582,4.896c0,2.938,1.889,4.932,4.582,4.932
		c1.539,0,2.763-0.699,3.567-1.818l2.902,2.692c-1.119,1.574-3.217,3.078-6.68,3.078C4.861,35.527,1.119,31.854,1.119,26.644z"/>
	<path style="fill:#5180E1;" d="M19.658,35.107V11.78H24.1v23.327H19.658z"/>
	<path style="fill:#5180E1;" d="M27.424,26.644c0-4.791,3.357-8.848,8.918-8.848c5.596,0,8.953,4.057,8.953,8.848
		c0,4.826-3.357,8.884-8.953,8.884C30.781,35.527,27.424,31.47,27.424,26.644z M40.679,26.644c0-2.623-1.574-4.896-4.337-4.896
		c-2.763,0-4.302,2.273-4.302,4.896c0,2.658,1.539,4.932,4.302,4.932C39.105,31.575,40.679,29.302,40.679,26.644z"/>
	<path style="fill:#5180E1;" d="M47.502,26.644c0-5.176,3.742-8.848,8.953-8.848c3.462,0,5.561,1.504,6.68,3.042l-2.903,2.728
		c-0.804-1.189-2.028-1.819-3.567-1.819c-2.693,0-4.582,1.958-4.582,4.896c0,2.938,1.889,4.932,4.582,4.932
		c1.539,0,2.763-0.699,3.567-1.818l2.903,2.692c-1.119,1.574-3.217,3.078-6.68,3.078C51.245,35.527,47.502,31.854,47.502,26.644z"/>
	<path style="fill:#5180E1;" d="M76.988,35.107l-4.477-6.505l-2.028,2.168v4.337h-4.442V11.78h4.442v13.954l6.4-7.519h5.456
		l-6.68,7.659l6.89,9.233H76.988z"/>
	<path style="fill:#68737C;" d="M85.142,14.298c0-0.56,0.49-1.014,1.014-1.014c0.56,0,1.014,0.455,1.014,1.014
		s-0.455,1.014-1.014,1.014C85.631,15.312,85.142,14.858,85.142,14.298z M85.631,35.107V18.215h1.049v16.892H85.631z"/>
	<path style="fill:#68737C;" d="M104.099,35.107V23.321c0-3.532-1.749-4.581-4.372-4.581c-2.308,0-4.791,1.503-5.98,3.182v13.185
			h-1.049V18.215h1.049v2.658c1.259-1.539,3.777-3.078,6.121-3.078c3.357,0,5.281,1.539,5.281,5.525v11.786H104.099z"/>
	<path style="fill:#68737C;" d="M109.802,26.644c0-4.896,3.498-8.848,8.324-8.848c5.106,0,8.114,3.987,8.114,9.058v0.665h-13.675
		c0.21,3.183,2.448,5.84,6.085,5.84c1.924,0,3.882-0.77,5.211-2.133l1.26,1.714c-1.679,1.679-3.952,2.588-6.715,2.588
		C113.404,35.527,109.802,31.925,109.802,26.644z M118.091,19.964c-3.602,0-5.386,3.043-5.525,5.631h11.086
		C123.617,23.077,121.938,19.964,118.091,19.964z"/>
	<path style="fill:#68737C;" d="M141.037,35.107v-1.924c-1.398,1.539-3.322,2.344-5.596,2.344c-2.867,0-5.91-1.924-5.91-5.596
		c0-3.777,3.043-5.561,5.91-5.561c2.309,0,4.232,0.734,5.596,2.308v-3.043c0-2.273-1.818-3.567-4.267-3.567
		c-2.028,0-3.672,0.734-5.176,2.343l-1.224-1.818c1.818-1.889,3.986-2.798,6.749-2.798c3.567,0,6.54,1.608,6.54,5.7v11.611H141.037z
		 M141.037,31.54v-3.183c-1.014-1.398-2.798-2.099-4.651-2.099c-2.448,0-4.161,1.539-4.161,3.708c0,2.133,1.713,3.672,4.161,3.672
		C138.239,33.639,140.023,32.939,141.037,31.54z"/>
	<path style="fill:#68737C;" d="M147.441,32.869l1.363-1.889c1.119,1.294,3.253,2.413,5.562,2.413c2.588,0,3.986-1.224,3.986-2.902
		c0-4.092-10.457-1.574-10.457-7.834c0-2.623,2.273-4.861,6.296-4.861c2.867,0,4.896,1.084,6.26,2.448l-1.224,1.819
		c-1.015-1.224-2.868-2.133-5.036-2.133c-2.309,0-3.742,1.154-3.742,2.658c0,3.707,10.457,1.259,10.457,7.834
		c0,2.833-2.273,5.106-6.646,5.106C151.498,35.527,149.155,34.687,147.441,32.869z"/>
	<path style="fill:#68737C;" d="M164.651,39.339c0.385,0.175,1.014,0.28,1.434,0.28c1.154,0,1.924-0.385,2.519-1.784l1.119-2.553
		l-7.065-17.067h2.833l5.631,13.849l5.596-13.849h2.868l-8.464,20.32c-1.014,2.448-2.728,3.392-4.966,3.427
		c-0.56,0-1.435-0.104-1.924-0.244L164.651,39.339z"/>
	<path style="fill:#5180E1;" d="M218.852,7.631c-0.072-0.112-0.145-0.223-0.219-0.333
		c-0.298-0.44-0.616-0.865-0.953-1.274c-0.253-0.307-0.517-0.604-0.791-0.892C213.874,1.97,209.621,0,204.907,0
		s-8.967,1.97-11.982,5.132c-0.274,0.288-0.538,0.585-0.791,0.892c-0.337,0.409-0.656,0.834-0.953,1.274
		c-0.074,0.11-0.147,0.221-0.219,0.333c-1.651,2.575-2.608,5.637-2.608,8.922c0,0.144,0.002,0.288,0.006,0.431
		c0.001,0.046,0.004,0.092,0.005,0.139c0.003,0.096,0.007,0.194,0.011,0.29c0.003,0.053,0.007,0.107,0.011,0.16
		c0.005,0.089,0.01,0.178,0.017,0.266c0.004,0.054,0.01,0.108,0.014,0.162c0.008,0.087,0.015,0.175,0.024,0.262
		c0.005,0.054,0.012,0.107,0.018,0.161c0.01,0.086,0.019,0.173,0.03,0.259c0.007,0.053,0.015,0.106,0.023,0.159
		c0.011,0.086,0.023,0.173,0.036,0.259c0.009,0.051,0.018,0.103,0.026,0.155c0.014,0.086,0.028,0.173,0.044,0.259
		c0.009,0.051,0.019,0.1,0.029,0.151c0.017,0.087,0.033,0.173,0.051,0.26c0.009,0.048,0.021,0.096,0.031,0.144
		c0.019,0.088,0.038,0.176,0.059,0.264c0.01,0.046,0.022,0.091,0.033,0.137c0.022,0.089,0.043,0.178,0.066,0.266
		c0.012,0.045,0.024,0.088,0.036,0.132c0.024,0.09,0.049,0.179,0.074,0.269c0.012,0.042,0.025,0.083,0.037,0.125
		c0.027,0.091,0.054,0.181,0.083,0.271c0.012,0.04,0.025,0.078,0.038,0.118c0.029,0.092,0.06,0.184,0.091,0.275
		c0.013,0.037,0.026,0.073,0.039,0.11c0.032,0.093,0.066,0.186,0.1,0.279c0.012,0.034,0.026,0.068,0.039,0.102
		c0.035,0.094,0.072,0.188,0.109,0.281c0.013,0.032,0.026,0.064,0.039,0.096c0.039,0.095,0.078,0.19,0.119,0.285
		c0.012,0.029,0.025,0.057,0.037,0.086c0.043,0.097,0.085,0.193,0.129,0.288c0.013,0.027,0.025,0.054,0.037,0.081
		c0.046,0.097,0.092,0.194,0.139,0.29c0.012,0.024,0.024,0.048,0.036,0.073c0.049,0.098,0.098,0.195,0.149,0.293
		c0.011,0.022,0.023,0.043,0.034,0.065c0.053,0.099,0.105,0.197,0.16,0.295c0.01,0.019,0.021,0.039,0.032,0.058
		c0.055,0.1,0.112,0.199,0.17,0.298c0.01,0.017,0.02,0.034,0.03,0.051c0.06,0.1,0.12,0.2,0.181,0.298
		c0.009,0.016,0.019,0.03,0.028,0.045c0.062,0.101,0.126,0.201,0.191,0.3c0.009,0.013,0.017,0.026,0.026,0.039
		c0.066,0.1,0.133,0.2,0.202,0.3c0.007,0.01,0.015,0.022,0.022,0.032c0.07,0.101,0.141,0.201,0.214,0.301
		c0.006,0.008,0.012,0.018,0.019,0.026c0.074,0.102,0.148,0.201,0.224,0.301c0.006,0.007,0.011,0.014,0.017,0.021
		c0.077,0.101,0.155,0.2,0.235,0.299c0.004,0.006,0.009,0.011,0.013,0.017c0.081,0.1,0.163,0.199,0.246,0.297
		c0.004,0.004,0.007,0.008,0.01,0.013c0.085,0.099,0.17,0.197,0.257,0.295c0.002,0.003,0.005,0.006,0.007,0.008
		c0.087,0.099,0.176,0.196,0.267,0.293c0.001,0.001,0.003,0.003,0.004,0.005c0.091,0.097,0.183,0.193,0.276,0.288
		c0.001,0.001,0.002,0.002,0.003,0.003c0.094,0.096,0.189,0.191,0.286,0.284h-0.053l11.565,11.478l9.922-9.861
		c-0.001-0.003-0.001-0.007-0.002-0.01c0.258-0.174,0.429-0.469,0.429-0.805c0-0.277-0.117-0.527-0.304-0.703l-10.891-10.851
		c-0.231-0.231-0.361-0.544-0.361-0.871V6.821c0-0.678,0.55-1.229,1.229-1.229c0.678,0,1.229,0.551,1.229,1.229v9.469l10.511,10.473
		c0.002-0.001,0.003-0.002,0.005-0.003c0.17,0.146,0.389,0.234,0.63,0.234c0.359,0,0.671-0.196,0.839-0.485c0.002,0,0.005,0,0.007,0
		c2.091-2.771,3.331-6.218,3.331-9.956C221.459,13.268,220.502,10.206,218.852,7.631"/>
</svg>
