<?xml version="1.0" encoding="utf-8"?>
<!-- Generator: Adobe Illustrator 21.1.0, SVG Export Plug-In . SVG Version: 6.00 Build 0)  -->
<svg version="1.1" id="Слой_1" xmlns="http://www.w3.org/2000/svg" xmlns:xlink="http://www.w3.org/1999/xlink" x="0px" y="0px"
	 viewBox="0 0 137.3 26.1" style="enable-background:new 0 0 137.3 26.1;" xml:space="preserve">
<style type="text/css">
	.st0{fill:#FFFFFF;}
</style>
<g>
	<g>
		<path class="st0" d="M0,16.6c0-3.2,2.4-5.5,5.6-5.5C7.7,11.1,9,12,9.7,13l-1.8,1.7c-0.5-0.7-1.3-1.1-2.2-1.1
			c-1.7,0-2.9,1.2-2.9,3.1s1.2,3.1,2.9,3.1c1,0,1.7-0.4,2.2-1.2l1.8,1.7c-0.7,1-2,1.9-4.2,1.9C2.4,22.1,0,19.8,0,16.6z"/>
		<path class="st0" d="M11.6,21.9V7.3h2.8v14.5H11.6z"/>
		<path class="st0" d="M16.4,16.6c0-3,2.1-5.5,5.6-5.5c3.5,0,5.6,2.5,5.6,5.5c0,3-2.1,5.5-5.6,5.5C18.5,22.1,16.4,19.6,16.4,16.6z
			 M24.6,16.6c0-1.6-1-3.1-2.7-3.1c-1.7,0-2.7,1.4-2.7,3.1c0,1.7,1,3.1,2.7,3.1C23.7,19.7,24.6,18.3,24.6,16.6z"/>
		<path class="st0" d="M28.9,16.6c0-3.2,2.4-5.5,5.6-5.5c2.2,0,3.5,0.9,4.2,1.9l-1.8,1.7c-0.5-0.7-1.3-1.1-2.2-1.1
			c-1.7,0-2.9,1.2-2.9,3.1s1.2,3.1,2.9,3.1c1,0,1.7-0.4,2.2-1.2l1.8,1.7c-0.7,1-2,1.9-4.2,1.9C31.3,22.1,28.9,19.8,28.9,16.6z"/>
		<path class="st0" d="M47.3,21.9l-2.8-4.1l-1.3,1.4v2.7h-2.8V7.3h2.8V16l4-4.7h3.4l-4.2,4.8l4.3,5.8H47.3z"/>
		<path class="st0" d="M52.3,8.9c0-0.3,0.3-0.6,0.6-0.6c0.3,0,0.6,0.3,0.6,0.6c0,0.3-0.3,0.6-0.6,0.6C52.7,9.5,52.3,9.3,52.3,8.9z
			 M52.7,21.9V11.3h0.7v10.5H52.7z"/>
		<path class="st0" d="M64.2,21.9v-7.3c0-2.2-1.1-2.9-2.7-2.9c-1.4,0-3,0.9-3.7,2v8.2h-0.7V11.3h0.7V13c0.8-1,2.4-1.9,3.8-1.9
			c2.1,0,3.3,1,3.3,3.4v7.3H64.2z"/>
		<path class="st0" d="M67.7,16.6c0-3.1,2.2-5.5,5.2-5.5c3.2,0,5.1,2.5,5.1,5.6v0.4h-8.5c0.1,2,1.5,3.6,3.8,3.6
			c1.2,0,2.4-0.5,3.3-1.4l0.8,1.1c-1.1,1-2.5,1.6-4.2,1.6C70,22.1,67.7,19.9,67.7,16.6z M72.9,12.4c-2.2,0-3.4,1.9-3.4,3.5h6.9
			C76.3,14.4,75.3,12.4,72.9,12.4z"/>
		<path class="st0" d="M87.2,21.9v-1.2c-0.8,1-2.1,1.5-3.5,1.5c-1.8,0-3.7-1.2-3.7-3.5c0-2.4,1.9-3.5,3.7-3.5c1.4,0,2.6,0.5,3.5,1.4
			v-1.9c0-1.4-1.1-2.2-2.7-2.2c-1.3,0-2.3,0.4-3.2,1.5l-0.8-1.1c1.1-1.2,2.5-1.7,4.2-1.7c2.2,0,4.1,1,4.1,3.6v7.2H87.2z M87.2,19.7
			v-2c-0.6-0.8-1.7-1.3-2.9-1.3c-1.5,0-2.6,1-2.6,2.3c0,1.4,1.1,2.3,2.6,2.3C85.4,21,86.5,20.5,87.2,19.7z"/>
		<path class="st0" d="M91.2,20.5l0.8-1.2c0.7,0.8,2,1.5,3.5,1.5c1.6,0,2.5-0.8,2.5-1.8c0-2.5-6.5-1-6.5-4.9c0-1.7,1.4-3,3.9-3
			c1.8,0,3.1,0.7,3.9,1.5l-0.8,1.1c-0.6-0.8-1.8-1.3-3.1-1.3c-1.4,0-2.3,0.7-2.3,1.7c0,2.3,6.5,0.8,6.5,4.9c0,1.8-1.4,3.2-4.1,3.2
			C93.7,22.1,92.3,21.6,91.2,20.5z"/>
		<path class="st0" d="M101.9,24.5c0.2,0.1,0.6,0.2,0.9,0.2c0.7,0,1.2-0.2,1.6-1.1l0.7-1.6l-4.4-10.6h1.8l3.5,8.6l3.5-8.6h1.8
			L105.9,24c-0.6,1.5-1.7,2.1-3.1,2.1c-0.3,0-0.9-0.1-1.2-0.2L101.9,24.5z"/>
	</g>
	<path class="st0" d="M135.7,4.8c0-0.1-0.1-0.1-0.1-0.2c-0.2-0.3-0.4-0.5-0.6-0.8c-0.2-0.2-0.3-0.4-0.5-0.6c-1.9-2-4.5-3.2-7.5-3.2
		c-2.9,0-5.6,1.2-7.5,3.2c-0.2,0.2-0.3,0.4-0.5,0.6c-0.2,0.3-0.4,0.5-0.6,0.8c0,0.1-0.1,0.1-0.1,0.2c-1,1.6-1.6,3.5-1.6,5.6v0v0
		c0,0.1,0,0.2,0,0.3c0,0,0,0.1,0,0.1c0,0.1,0,0.1,0,0.2c0,0,0,0.1,0,0.1c0,0.1,0,0.1,0,0.2c0,0,0,0.1,0,0.1c0,0.1,0,0.1,0,0.2
		c0,0,0,0.1,0,0.1c0,0.1,0,0.1,0,0.2c0,0,0,0.1,0,0.1c0,0.1,0,0.1,0,0.2c0,0,0,0.1,0,0.1c0,0.1,0,0.1,0,0.2c0,0,0,0.1,0,0.1
		c0,0.1,0,0.1,0,0.2c0,0,0,0.1,0,0.1c0,0.1,0,0.1,0,0.2c0,0,0,0.1,0,0.1c0,0.1,0,0.1,0,0.2c0,0,0,0.1,0,0.1c0,0.1,0,0.1,0,0.2
		c0,0,0,0.1,0,0.1c0,0.1,0,0.1,0.1,0.2c0,0,0,0,0,0.1c0,0.1,0,0.1,0.1,0.2c0,0,0,0,0,0.1c0,0.1,0,0.1,0.1,0.2c0,0,0,0,0,0.1
		c0,0.1,0,0.1,0.1,0.2c0,0,0,0,0,0.1c0,0.1,0,0.1,0.1,0.2c0,0,0,0,0,0.1c0,0.1,0.1,0.1,0.1,0.2c0,0,0,0,0,0c0,0.1,0.1,0.1,0.1,0.2
		c0,0,0,0,0,0c0,0.1,0.1,0.1,0.1,0.2c0,0,0,0,0,0c0,0.1,0.1,0.1,0.1,0.2c0,0,0,0,0,0c0,0.1,0.1,0.1,0.1,0.2c0,0,0,0,0,0
		c0,0.1,0.1,0.1,0.1,0.2c0,0,0,0,0,0c0,0.1,0.1,0.1,0.1,0.2c0,0,0,0,0,0c0,0.1,0.1,0.1,0.1,0.2c0,0,0,0,0,0c0,0.1,0.1,0.1,0.1,0.2
		c0,0,0,0,0,0c0,0.1,0.1,0.1,0.1,0.2c0,0,0,0,0,0c0,0.1,0.1,0.1,0.1,0.2c0,0,0,0,0,0c0.1,0.1,0.1,0.1,0.2,0.2c0,0,0,0,0,0
		c0.1,0.1,0.1,0.1,0.2,0.2c0,0,0,0,0,0c0.1,0.1,0.1,0.1,0.2,0.2c0,0,0,0,0,0c0.1,0.1,0.1,0.1,0.2,0.2c0,0,0,0,0,0
		c0.1,0.1,0.1,0.1,0.2,0.2l0,0l7.2,7.2l6.2-6.1c0,0,0,0,0,0c0.2-0.1,0.3-0.3,0.3-0.5c0-0.2-0.1-0.3-0.2-0.4l-6.8-6.8
		c-0.1-0.1-0.2-0.3-0.2-0.5V4.2c0-0.4,0.3-0.8,0.8-0.8c0.4,0,0.8,0.3,0.8,0.8v5.9l6.5,6.5c0,0,0,0,0,0c0.1,0.1,0.2,0.1,0.4,0.1
		c0.2,0,0.4-0.1,0.5-0.3c0,0,0,0,0,0c1.3-1.7,2.1-3.9,2.1-6.2v0v0C137.3,8.3,136.7,6.4,135.7,4.8z"/>
</g>
</svg>
