<svg id="Layer_1" data-name="Layer 1" xmlns="http://www.w3.org/2000/svg" viewBox="0 0 113.05 23.48"><defs><style>.cls-1{font-size:18px;font-family:ProximaNova-Bold, Proxima Nova;}.cls-1,.cls-5{fill:#fff;}.cls-2{font-weight:700;}.cls-3{stroke:#fff;stroke-miterlimit:10;stroke-width:0.2px;font-family:ProximaNovaT-Thin, Proxima Nova;}.cls-4{font-family:ProximaNova-Regular, Proxima Nova;}</style></defs><title>logo</title><text class="cls-1" transform="translate(0 18.2) scale(0.99 1)"><tspan class="cls-2">clock</tspan><tspan class="cls-3" x="42.47" y="0">in</tspan><tspan class="cls-4" x="55.61" y="0">easy</tspan></text><path class="cls-5" d="M111.7,3.95l-.11-.17q-.23-.34-.49-.66t-.41-.46a8.56,8.56,0,0,0-12.39,0q-.21.22-.41.46t-.49.66l-.11.17a8.52,8.52,0,0,0-1.35,4.61h0q0,.11,0,.22v.07c0,.05,0,.1,0,.15v.52l0,.13v.08l0,.13V10l0,.13v.08l0,.13,0,.07,0,.14,0,.07,0,.14,0,.07,0,.14,0,.06,0,.14,0,.06,0,.14,0,.06.05.14,0,.05.06.15,0,0,.06.15,0,0,.07.15,0,0,.07.15,0,0,.08.15,0,0,.08.15,0,0,.09.15,0,0,.09.15v0l.1.15v0l.1.16v0l.11.16h0l.12.16h0l.12.15h0l.13.15h0l.13.15h0l.14.15h0l.14.15h0l.15.15h0l6,5.93,5.13-5.1h0a.5.5,0,0,0,.06-.78L104,9.14a.64.64,0,0,1-.19-.45V3.53a.64.64,0,0,1,1.27,0V8.42l5.43,5.41h0a.5.5,0,0,0,.76-.13h0A8.52,8.52,0,0,0,113,8.56h0A8.52,8.52,0,0,0,111.7,3.95Z"/></svg>