<svg id="Layer_1" data-name="Layer 1" xmlns="http://www.w3.org/2000/svg" viewBox="0 0 327 515"><defs><style>.cls-1{fill:#0b050c;stroke:#000;stroke-miterlimit:10;stroke-width:3px;}</style></defs><title>phone-item</title><path class="cls-1" d="M71.5,21.5h184a50.06,50.06,0,0,1,49.63,44H21.87a50.06,50.06,0,0,1,49.63-44Zm184-20H71.5a70.08,70.08,0,0,0-70,70v372a70.08,70.08,0,0,0,70,70h184a70.08,70.08,0,0,0,70-70V311.83a10,10,0,1,0-20,0V419.42H19.83a10,10,0,0,0,0,20H305.5v4.08a50.06,50.06,0,0,1-50,50H71.5a50.06,50.06,0,0,1-50-50V85.5h284V313.43a10,10,0,1,0,20,0V71.5a70.08,70.08,0,0,0-70-70Z"/><path class="cls-1" d="M170.57,472.33a10,10,0,1,0-7.07,2.93,10.08,10.08,0,0,0,7.07-2.93Z"/></svg>