<?xml version="1.0" encoding="utf-8"?>
<!-- Generator: Adobe Illustrator 21.1.0, SVG Export Plug-In . SVG Version: 6.00 Build 0)  -->
<svg version="1.1" id="Object" xmlns="http://www.w3.org/2000/svg" xmlns:xlink="http://www.w3.org/1999/xlink" x="0px" y="0px"
	 viewBox="0 0 601.6 979" style="enable-background:new 0 0 601.6 979;" xml:space="preserve">
<style type="text/css">
	.st0{fill:url(#SVGID_1_);}
	.st1{opacity:0.71;fill:#FFFFFF;}
	.st2{opacity:0.7;fill:#FFFFFF;}
	.st3{opacity:0.4;fill:#FFFFFF;}
</style>
<linearGradient id="SVGID_1_" gradientUnits="userSpaceOnUse" x1="-75.506" y1="276.2409" x2="-75.506" y2="1284.7667" gradientTransform="matrix(-1 0 0 1 225.294 -245.002)">
	<stop  offset="0" style="stop-color:#5180EF"/>
	<stop  offset="1" style="stop-color:#3056D9"/>
</linearGradient>
<rect class="st0" width="601.6" height="979"/>
<path class="st1" d="M0.1,827c13.5-17.9,32.6-29,53.8-29c30.6,0,56.9,23.2,68.2,56.4c3-0.7,6.1-1,9.3-1c11,0,21.3,4.3,29.7,11.6
	c10.5-14.8,25.7-24.2,42.8-24.2c18.3,0,34.6,10.8,45.1,27.7c7.2-5.2,15.6-8.2,24.5-8.2c7.4,0,14.4,2,20.7,5.7
	c9.8-11.9,23.2-19.2,37.9-19.2c22.6,0,41.9,17.1,50.3,41.6c5.7-3.9,12.2-6,19.2-6c7.8,0,15.1,2.8,21.3,7.6
	c8.1-24.8,27.6-42.2,50.2-42.2c10.5,0,20.3,3.8,28.6,10.2c11.1-31.4,36.2-53.2,65.3-53.2c12.6,0,24.4,4.1,34.7,11.2v163H0.1
	C-0.2,978.6,0.1,827,0.1,827z"/>
<path class="st2" d="M601.5,874.9c-13.5-14.4-32.6-23.4-53.8-23.4c-30.6,0-56.9,18.7-68.2,45.5c-3-0.5-6.1-0.8-9.3-0.8
	c-11,0-21.3,3.5-29.7,9.4c-10.5-11.9-25.7-19.5-42.8-19.5c-18.3,0-34.6,8.7-45.1,22.3c-7.2-4.2-15.6-6.6-24.5-6.6
	c-7.4,0-14.4,1.7-20.7,4.6c-9.8-9.6-23.2-15.5-37.9-15.5c-22.6,0-41.9,13.8-50.3,33.6c-5.7-3.1-12.2-4.9-19.2-4.9
	c-7.8,0-15.1,2.2-21.3,6.1c-8.1-20-27.6-34-50.2-34c-10.5,0-20.3,3-28.6,8.3c-11.1-25.3-36.2-43-65.3-43c-12.6,0-24.4,3.3-34.7,9.1
	v113h601.5C601.8,978.7,601.5,874.9,601.5,874.9z"/>
<path class="st3" d="M139.7,378.3c0-0.1,0-0.2,0-0.2c0-7.1-5.7-12.8-12.7-12.8c-1.6,0-3.1,0.3-4.5,0.8c-3.1-6.5-9.7-11-17.4-11
	c-8.8,0-16.2,6-18.5,14.1c-2-1.2-4.4-1.9-7-1.9c-7.6,0-13.8,6.2-13.8,13.9c-7.6,0-13.8,6.2-13.8,13.9c0,7.7,6.2,13.9,13.8,13.9h64.6
	c9.2,0,16.6-7.5,16.6-16.8C147,386.4,144.1,381.3,139.7,378.3z"/>
<path class="st3" d="M540.7,562.3c0-0.1,0-0.2,0-0.2c0-7.1-5.7-12.8-12.7-12.8c-1.6,0-3.1,0.3-4.5,0.8c-3.1-6.5-9.7-11-17.4-11
	c-8.8,0-16.2,6-18.5,14.1c-2-1.2-4.4-1.9-7-1.9c-7.6,0-13.8,6.2-13.8,13.9c-7.6,0-13.8,6.2-13.8,13.9c0,7.7,6.2,13.9,13.8,13.9h64.6
	c9.2,0,16.6-7.5,16.6-16.8C548,570.4,545.1,565.3,540.7,562.3z"/>
</svg>
