<?xml version="1.0" encoding="utf-8"?>
<!-- Generator: Adobe Illustrator 21.1.0, SVG Export Plug-In . SVG Version: 6.00 Build 0)  -->
<svg version="1.1" id="Objects" xmlns="http://www.w3.org/2000/svg" xmlns:xlink="http://www.w3.org/1999/xlink" x="0px" y="0px"
	 viewBox="0 0 125 253.6" style="enable-background:new 0 0 125 253.6;" xml:space="preserve">
<style type="text/css">
	.st0{opacity:0.7;fill:#FFFFFF;}
	.st1{fill:#EDEDEF;}
	.st2{fill:#FFFFFF;}
	.st3{fill:#F3C82B;}
	.st4{fill:#F1F2F2;}
	.st5{fill:#F3B725;}
	.st6{fill:#5479E9;}
	.st7{fill:#D1ECFB;}
</style>
<g id="rocket_1_">
	<g>
		<path class="st0" d="M53,196c0-2.5-2-4.5-4.5-4.5c-2.5,0-4.5,2-4.5,4.5c0,2.5,4.5,30.2,4.5,30.2S53,198.5,53,196z"/>
		<path class="st0" d="M66.8,223.4c0-2.5-2-4.5-4.5-4.5c-2.5,0-4.5,2-4.5,4.5c0,2.5,4.5,30.2,4.5,30.2S66.8,225.9,66.8,223.4z"/>
		<path class="st0" d="M81.2,200.5c0-2.5-2-4.5-4.5-4.5c-2.5,0-4.5,2-4.5,4.5c0,2.5,4.5,30.2,4.5,30.2S81.2,202.9,81.2,200.5z"/>
	</g>
	<rect x="44.6" y="177.1" class="st1" width="35.8" height="11.8"/>
	<rect x="44.6" y="177.1" class="st2" width="17.9" height="11.8"/>
	<g>
		<path class="st3" d="M62.5,172.9c26.5,0,49.1,16.5,58.2,39.8c2.8-7,4.3-14.7,4.3-22.7c0-34.5-28-62.5-62.5-62.5
			C28,127.5,0,155.4,0,190c0,8,1.5,15.7,4.3,22.7C13.4,189.4,36,172.9,62.5,172.9z"/>
		<path class="st3" d="M78.4,129.5V175c19.4,5.1,35,19.2,42.2,37.7c2.8-7,4.3-14.7,4.3-22.7C125,161,105.2,136.6,78.4,129.5z"/>
		<path class="st2" d="M62.5,181c7.7,0,15.1,1.2,22,3.4c10.3-20.9,16.6-47.8,16.6-77.3c0-46.8-15.7-87.3-38.6-107.2
			C39.6,19.9,23.9,60.4,23.9,107.1c0,29.4,6.2,56.4,16.6,77.3C47.4,182.2,54.8,181,62.5,181z"/>
		<path class="st4" d="M62.5,0c-0.1,0.1-0.1,0.1-0.2,0.2l0,180.8c0.1,0,0.1,0,0.2,0c7.7,0,15.1,1.2,22,3.4
			c10.3-20.9,16.6-47.8,16.6-77.3C101.1,60.4,85.4,19.9,62.5,0z"/>
		<path class="st3" d="M62.5,44.3c9.7,0,19.2,0.3,28.5,1C84.2,26,74.3,10.2,62.5,0C50.7,10.2,40.8,26,34,45.2
			C43.3,44.6,52.8,44.3,62.5,44.3z"/>
		<path class="st5" d="M62.3,0.2v44.1c0.1,0,0.1,0,0.2,0c9.7,0,19.2,0.3,28.5,1C84.2,26,74.3,10.2,62.5,0
			C62.4,0.1,62.3,0.1,62.3,0.2z"/>
		<path class="st3" d="M62.5,123.7c-4.9,8.3-8.3,25.1-8.3,44.6c0,19.5,3.4,36.3,8.3,44.6c4.9-8.3,8.3-25.1,8.3-44.6
			C70.8,148.8,67.4,132,62.5,123.7z"/>
		<path class="st5" d="M62.3,124.1l0,88.3c0.1,0.1,0.1,0.3,0.2,0.4c4.9-8.3,8.3-25.1,8.3-44.6c0-19.5-3.4-36.3-8.3-44.6
			C62.4,123.8,62.3,124,62.3,124.1z"/>
		<path class="st6" d="M62.5,107.1c-12,0-21.7-9.7-21.7-21.7c0-12,9.7-21.7,21.7-21.7c12,0,21.7,9.7,21.7,21.7
			C84.2,97.4,74.4,107.1,62.5,107.1L62.5,107.1z"/>
		<path class="st2" d="M62.5,70.4c-8.3,0-15.1,6.8-15.1,15.1c0,8.3,6.8,15.1,15.1,15.1c8.3,0,15.1-6.8,15.1-15.1
			C77.5,77.1,70.8,70.4,62.5,70.4L62.5,70.4z"/>
		<g>
			<path class="st6" d="M62.5,63.8c-0.1,0-0.1,0-0.2,0l0,6.6c0.1,0,0.1,0,0.2,0c8.3,0,15.1,6.8,15.1,15.1c0,8.3-6.8,15.1-15.1,15.1
				c-0.1,0-0.2,0-0.2,0l0,6.6c0.1,0,0.1,0,0.2,0c12,0,21.7-9.7,21.7-21.7C84.2,73.5,74.4,63.8,62.5,63.8z"/>
			<path class="st7" d="M77.5,85.5c0-8.3-6.8-15.1-15.1-15.1c-0.1,0-0.2,0-0.2,0v30.1c0.1,0,0.1,0,0.2,0
				C70.8,100.5,77.5,93.8,77.5,85.5z"/>
		</g>
	</g>
</g>
</svg>
