<svg id="Isolation_Mode" data-name="Isolation Mode" xmlns="http://www.w3.org/2000/svg" viewBox="0 0 31.56 30.84"><defs><style>.cls-1{fill:#fff;}</style></defs><title>text</title><path class="cls-1" d="M30.75,2.53a.82.82,0,0,0-.82.82V25.05a4.16,4.16,0,0,1-4.16,4.16h-20a4.16,4.16,0,0,1-4.16-4.16V1.64H25.58V22.7a.82.82,0,1,0,1.64,0V.82A.82.82,0,0,0,26.4,0H.82A.82.82,0,0,0,0,.82V25a5.8,5.8,0,0,0,5.79,5.79h20A5.8,5.8,0,0,0,31.56,25V3.35a.81.81,0,0,0-.81-.82Zm0,0"/><path class="cls-1" d="M22.44,6.35a.82.82,0,0,0,0-1.64H4.61a.82.82,0,1,0,0,1.64Zm0,0"/><path class="cls-1" d="M22.44,21.39H4.61a.82.82,0,1,0,0,1.64H22.44a.82.82,0,0,0,0-1.64Zm0,0"/><path class="cls-1" d="M22.44,25.58h-15a.82.82,0,0,0,0,1.64h15a.82.82,0,0,0,0-1.64Zm0,0"/><path class="cls-1" d="M3.52,9.21v8.85a.82.82,0,0,0,.82.82h8.88a.82.82,0,0,0,.82-.82V9.21a.82.82,0,0,0-.82-.82H4.34a.82.82,0,0,0-.82.82ZM5.16,10H12.4v7.21H5.16Zm0,0"/><path class="cls-1" d="M22.88,9.21H17a.82.82,0,0,0,0,1.64h5.88a.82.82,0,0,0,0-1.64Zm0,0"/><path class="cls-1" d="M22.88,12.9H17a.82.82,0,0,0,0,1.64h5.88a.82.82,0,1,0,0-1.64Zm0,0"/><path class="cls-1" d="M23.7,17.65a.82.82,0,0,0-.82-.82H17a.82.82,0,0,0,0,1.64h5.88a.82.82,0,0,0,.82-.82Zm0,0"/></svg>