<svg id="Layer_1" data-name="Layer 1" xmlns="http://www.w3.org/2000/svg" viewBox="0 0 26.31 26.31"><defs><style>.cls-1{fill-rule:evenodd;}</style></defs><title>twitter</title><path class="cls-1" d="M18.79,10.54c0-.13,0-.26,0-.4a5.88,5.88,0,0,0,1.45-1.56A5.55,5.55,0,0,1,18.56,9a3,3,0,0,0,1.28-1.66A5.55,5.55,0,0,1,18,8.08a2.88,2.88,0,0,0-2.12-1,2.94,2.94,0,0,0-2.91,3,3.11,3.11,0,0,0,.07.7,8.18,8.18,0,0,1-6-3.31A3.24,3.24,0,0,0,8,11.65a2.79,2.79,0,0,1-1.32-.4v0A3.09,3.09,0,0,0,9,14.35a2.63,2.63,0,0,1-1.31,0,3,3,0,0,0,2.71,2.17,5.55,5.55,0,0,1-4.3,1.27,7.8,7.8,0,0,0,4.46,1.4c5.34,0,8.27-4.65,8.27-8.69Zm0,0"/><path class="cls-1" d="M26.31,13.15A13.15,13.15,0,1,0,13.15,26.31,13.16,13.16,0,0,0,26.31,13.15Zm-25.11,0a12,12,0,1,1,12,12,12,12,0,0,1-12-12Zm0,0"/></svg>