<svg id="Layer_1" data-name="Layer 1" xmlns="http://www.w3.org/2000/svg" viewBox="0 0 130.72 130.72"><defs><style>.cls-1{fill-rule:evenodd;}</style></defs><title>unlim</title><path class="cls-1" d="M130.72,65.36a65.36,65.36,0,1,0-65.36,65.36,65.37,65.37,0,0,0,65.36-65.36Zm-124.78,0a59.41,59.41,0,1,1,59.41,59.41A59.42,59.42,0,0,1,5.95,65.36Zm0,0"/><path d="M69.62,76.36l6.91-6.8c1,.95,2,2,3.18,2.92,3.24,2.6,6.85,3.48,10.82,1.92C94,73,95.75,70.2,96.22,66.61c.59-4.48-1.25-8-5-9.86a9.88,9.88,0,0,0-11.75,1.69c-7.05,6.93-14,13.94-21,20.94A20.16,20.16,0,0,1,26.1,74.16,20,20,0,0,1,56.28,49.43c1.77,1.36,3.29,3,5,4.66L54,61c-.88-.81-1.91-1.87-3-2.78-3.35-2.68-7.08-3.49-11.09-1.75-3.68,1.59-5.24,4.7-5.44,8.55-.22,4.32,1.63,7.4,5.35,9.1a9.76,9.76,0,0,0,11.48-1.87c5.66-5.53,11.2-11.17,16.8-16.76,1.46-1.46,2.91-2.95,4.4-4.39a20.21,20.21,0,0,1,27.45-.75,20.87,20.87,0,0,1,2.67,27.7c-6.29,8.25-20.5,9.65-28.76,2.76A51.63,51.63,0,0,1,69.62,76.36Z"/></svg>