<?xml version="1.0" standalone="no"?>
<!DOCTYPE svg PUBLIC "-//W3C//DTD SVG 1.1//EN" "http://www.w3.org/Graphics/SVG/1.1/DTD/svg11.dtd" >
<svg xmlns="http://www.w3.org/2000/svg" xmlns:xlink="http://www.w3.org/1999/xlink" version="1.1">
<metadata>
Created by FontForge 20161003 at Sun Jul  2 23:07:32 2017
 By www-data
</metadata>
<defs>
<font id="DeckerB" horiz-adv-x="1024" >
  <font-face 
    font-family="DeckerB"
    font-weight="700"
    font-stretch="normal"
    units-per-em="2048"
    panose-1="2 11 8 3 5 3 2 2 2 4"
    ascent="1638"
    descent="-410"
    x-height="1100"
    cap-height="1456"
    bbox="-342 -483 2574 1972"
    underline-thickness="0"
    underline-position="0"
    unicode-range="U+0020-2122"
  />
<missing-glyph horiz-adv-x="1229" 
d="M102 -362v1806h1024v-1806h-1024zM217 -248h795v1577h-795v-1577z" />
    <glyph glyph-name=".notdef" horiz-adv-x="1229" 
d="M102 -362v1806h1024v-1806h-1024zM217 -248h795v1577h-795v-1577z" />
    <glyph glyph-name="glyph1" horiz-adv-x="0" 
 />
    <glyph glyph-name="glyph2" horiz-adv-x="586" 
 />
    <glyph glyph-name="space" unicode=" " horiz-adv-x="586" 
 />
    <glyph glyph-name="exclam" unicode="!" horiz-adv-x="594" 
d="M199 360v1096h196v-1096h-196zM199 0v233h196v-233h-196z" />
    <glyph glyph-name="quotedbl" unicode="&#x22;" horiz-adv-x="614" 
d="M524 1436v-555h-139v555h139zM229 1436v-555h-139v555h139z" />
    <glyph glyph-name="numbersign" unicode="#" horiz-adv-x="1575" 
d="M969 858h-260l-93 -264h261zM924 1458l-162 -454h256l164 454h164l-160 -454h301l-51 -146h-303l-93 -262h322l-51 -147h-322l-162 -453h-165l161 453h-258l-162 -453h-165l159 453h-309l53 147h310l92 262h-330l51 146h332l162 454h166z" />
    <glyph glyph-name="dollar" unicode="$" horiz-adv-x="1171" 
d="M136 432h185q6 -119 66.5 -179t175.5 -60q105 0 167.5 64t62.5 171q0 38 -7.5 70t-21.5 55q-47 77 -194 112l-36 9q-183 47 -269.5 138t-86.5 237q0 159 82.5 265t226.5 132v211h179v-213q129 -20 207 -116.5t87 -248.5h-192q-6 86 -59 136.5t-138 50.5q-91 0 -145.5 -56
t-54.5 -149q0 -34 9.5 -62t29.5 -51q40 -47 171 -76q78 -17 119 -32q143 -51 217 -150t74 -237q0 -175 -90.5 -297t-234.5 -142v-256h-179v246q-161 22 -255.5 136.5t-95.5 291.5z" />
    <glyph glyph-name="percent" unicode="%" horiz-adv-x="1796" 
d="M240 1126q0 -82 57.5 -139t140.5 -57t140 56.5t57 139.5t-57 140t-140 57t-140.5 -57t-57.5 -140zM82 1126q0 73 27 138.5t77 115.5q51 51 116.5 78t137.5 27q73 0 138.5 -27t115.5 -78q51 -50 78 -115.5t27 -138.5t-27 -137.5t-78 -116.5q-50 -50 -115.5 -77t-138.5 -27
q-72 0 -137.5 27t-116.5 77q-50 51 -77 116.5t-27 137.5zM1217 1485h141l-776 -1516h-146zM1155 330q0 -83 58 -141t141 -58q82 0 139 57.5t57 141.5q0 83 -56.5 139.5t-139.5 56.5q-84 0 -141.5 -57t-57.5 -139zM997 330q0 72 27 137.5t78 116.5q50 50 115.5 77t138.5 27
q72 0 137.5 -27t116.5 -77q50 -51 77 -116.5t27 -137.5q0 -73 -26.5 -138t-77.5 -116t-116.5 -78t-137.5 -27q-73 0 -138.5 27t-115.5 78q-51 50 -78 115.5t-27 138.5z" />
    <glyph glyph-name="ampersand" unicode="&#x26;" horiz-adv-x="1421" 
d="M569 922q83 43 123.5 95t40.5 113q0 64 -42.5 109t-104.5 45q-64 0 -108 -43t-44 -108q0 -60 30 -107t105 -104zM840 412l-301 284q-106 -61 -154.5 -130t-48.5 -156q0 -100 63 -166t158 -66q89 0 159.5 58.5t123.5 175.5zM993 274q-81 -151 -190 -227t-244 -76
q-176 0 -302 128t-126 307q0 127 66 227.5t209 189.5q-88 69 -128 141.5t-40 159.5q0 150 101.5 250.5t254.5 100.5q136 0 236 -102.5t100 -239.5q0 -100 -58 -181.5t-174 -146.5l222 -209l141 362h213l-199 -499l342 -307l-127 -144z" />
    <glyph glyph-name="quotesingle" unicode="'" horiz-adv-x="317" 
d="M229 1436v-555h-139v555h139z" />
    <glyph glyph-name="parenleft" unicode="(" horiz-adv-x="650" 
d="M770 -186q-320 165 -466 389q-154 234 -154 550q0 314 151 550q149 230 469 398v-175q-231 -123 -349 -317q-122 -201 -122 -442q0 -265 111 -450q110 -188 360 -328v-175z" />
    <glyph glyph-name="parenright" unicode=")" horiz-adv-x="600" 
d="M-55 -20q242 139 357 326q111 183 111 452q0 249 -121 442q-120 194 -347 317v175q310 -166 466 -398q152 -232 152 -550t-154 -550q-152 -225 -464 -388v174z" />
    <glyph glyph-name="asterisk" unicode="*" 
d="M512 934l-176 -254l-137 94l194 246l-284 78l53 157l272 -94v295h154v-295l274 94l56 -157l-289 -78l196 -244l-135 -96z" />
    <glyph glyph-name="plus" unicode="+" horiz-adv-x="1706" 
d="M924 1221v-541h528v-139h-528v-541h-142v541h-528v139h528v541h142z" />
    <glyph glyph-name="comma" unicode="," horiz-adv-x="586" 
d="M195 -242v125q37 8 53 33t16 76v20h-69v234h196v-215q0 -121 -47.5 -187t-148.5 -86z" />
    <glyph glyph-name="hyphen" unicode="-" horiz-adv-x="678" 
d="M588 457h-498v184h498v-184z" />
    <glyph glyph-name="period" unicode="." horiz-adv-x="586" 
d="M393 0h-200v246h200v-246z" />
    <glyph glyph-name="slash" unicode="/" horiz-adv-x="569" 
d="M92 -190h-149l479 1675h147z" />
    <glyph glyph-name="zero" unicode="0" horiz-adv-x="1171" 
d="M88 512v430q0 135 20.5 208.5t67.5 135.5q73 96 178 146.5t232 50.5q132 0 239.5 -54t180.5 -157q40 -58 58.5 -134t18.5 -188v-444q0 -119 -19 -197t-60 -135q-70 -97 -179 -150t-239 -53q-126 0 -232 50.5t-182 146.5q-44 56 -64 136.5t-20 207.5zM305 475v-22
q0 -70 8 -103.5t27 -60.5q37 -55 101.5 -86t140.5 -31q142 0 212 77t70 234v488q0 91 -8 127.5t-27 64.5q-37 56 -102 87.5t-143 31.5q-76 0 -139 -29.5t-101 -83.5q-21 -29 -30 -70.5t-9 -125.5v-498z" />
    <glyph glyph-name="one" unicode="1" horiz-adv-x="1171" 
d="M711 0h-213v1284h-254v172h467v-1456z" />
    <glyph glyph-name="two" unicode="2" horiz-adv-x="1171" 
d="M1044 0h-921v203l510 489l8 8q201 194 201 322q0 112 -75 187t-189 75q-121 0 -188.5 -77t-67.5 -214v-16h-199v4q0 227 130 364.5t343 137.5q190 0 321.5 -132.5t131.5 -320.5q0 -106 -49.5 -201t-161.5 -200l-453 -426h659v-203z" />
    <glyph glyph-name="three" unicode="3" horiz-adv-x="1171" 
d="M104 446h197q5 -123 79 -200.5t185 -77.5q120 0 200.5 81.5t80.5 201.5q0 135 -82.5 209.5t-233.5 74.5q-21 0 -32 -0.5t-19 -0.5v197q7 0 16.5 -0.5t26.5 -0.5q112 0 169 45.5t57 136.5q0 77 -48 127.5t-120 50.5q-81 0 -128 -47t-51 -131h-192q6 170 109 271.5
t268 101.5q151 0 256.5 -106t105.5 -255q0 -90 -34 -156t-107 -116q117 -46 179.5 -147t62.5 -242q0 -208 -135.5 -350t-335.5 -142q-217 0 -343 126.5t-131 348.5z" />
    <glyph glyph-name="four" unicode="4" horiz-adv-x="1171" 
d="M932 0h-203v254h-641v186l641 1016h203v-1016h147v-186h-147v-254zM729 440v715l-436 -715h436z" />
    <glyph glyph-name="five" unicode="5" horiz-adv-x="1171" 
d="M78 444h205q16 -122 95.5 -195t194.5 -73q133 0 220.5 90t87.5 228q0 136 -86 220.5t-226 84.5q-83 0 -145 -32t-98 -93l-181 39l136 743h673v-205h-524l-70 -342q50 46 111.5 68t136.5 22q204 0 344 -147t140 -360q0 -222 -151.5 -371.5t-381.5 -149.5
q-211 0 -340.5 127.5t-140.5 345.5z" />
    <glyph glyph-name="six" unicode="6" horiz-adv-x="1171" 
d="M616 1456h232l-330 -495q31 12 59 18t54 6q190 0 324.5 -143.5t134.5 -345.5q0 -68 -18.5 -135.5t-55.5 -133.5q-69 -126 -179.5 -191t-254.5 -65q-103 0 -193.5 38t-161.5 110q-70 72 -108.5 163t-38.5 185q0 188 217 511v1zM279 498q0 -134 88.5 -228t212.5 -94
q131 0 216 87.5t85 223.5t-83.5 223t-211.5 87t-217.5 -88.5t-89.5 -210.5z" />
    <glyph glyph-name="seven" unicode="7" horiz-adv-x="1171" 
d="M483 0h-223l555 1255h-618v201h819v-221z" />
    <glyph glyph-name="eight" unicode="8" horiz-adv-x="1171" 
d="M332 440q0 -117 71 -193.5t177 -76.5q112 0 185 75t73 191q0 120 -69.5 193t-182.5 73q-115 0 -184.5 -71.5t-69.5 -190.5zM403 1100q0 -91 49 -145t132 -54q86 0 135 51.5t49 143.5q0 85 -50.5 139.5t-129.5 54.5q-80 0 -132.5 -54t-52.5 -136zM348 807
q-74 51 -112.5 125.5t-38.5 165.5q0 159 112 272t273 113q168 0 280.5 -111.5t112.5 -275.5q0 -92 -40.5 -166t-117.5 -123q109 -48 165 -139.5t56 -221.5q0 -207 -129 -341t-331 -134q-188 0 -316.5 135.5t-128.5 331.5q0 132 52.5 222.5t162.5 146.5z" />
    <glyph glyph-name="nine" unicode="9" horiz-adv-x="1171" 
d="M891 956q0 135 -88 228.5t-213 93.5q-137 0 -220 -85t-83 -226q0 -135 83.5 -221.5t213.5 -86.5q129 0 218 87t89 210zM555 0h-236l330 494q-31 -13 -59 -19t-53 -6q-191 0 -325 143.5t-134 345.5q0 68 19 137t57 136q67 122 179.5 188t252.5 66q103 0 193 -37.5
t161 -110.5t110.5 -164t39.5 -184q0 -187 -210 -501l-5 -8z" />
    <glyph glyph-name="colon" unicode=":" horiz-adv-x="592" 
d="M397 807h-202v246h202v-246zM397 0h-202v246h202v-246z" />
    <glyph glyph-name="semicolon" unicode=";" horiz-adv-x="592" 
d="M397 807h-200v246h200v-246zM199 -242v125q37 8 53 32.5t16 74.5v20h-71v236h200v-217q0 -119 -49 -185.5t-149 -85.5z" />
    <glyph glyph-name="less" unicode="&#x3c;" horiz-adv-x="1706" 
d="M1442 1006l-969 -396l969 -393v-154l-1178 484v129l1178 483v-153z" />
    <glyph glyph-name="equal" unicode="=" horiz-adv-x="1706" 
d="M1452 481v-139h-1198v139h1198zM1452 879v-140h-1198v140h1198z" />
    <glyph glyph-name="greater" unicode="&#x3e;" horiz-adv-x="1706" 
d="M1442 676v-129l-1178 -484v154l971 393l-971 396v153z" />
    <glyph glyph-name="question" unicode="?" horiz-adv-x="995" 
d="M348 0v236h197v-236h-197zM349 381q1 104 36.5 198t103.5 177q23 27 70 73q121 119 121 226q0 105 -65.5 170t-172.5 65q-98 0 -159 -69t-64 -184l-196 -1q3 197 126 323t308 126q186 0 311 -122t125 -304q0 -169 -174 -350l-14 -14q-87 -90 -118 -157.5t-37 -156.5h-201
z" />
    <glyph glyph-name="at" unicode="@" horiz-adv-x="2048" 
d="M1284 854l57 115h132l-146 -576q-4 -16 -6 -31t-2 -28q0 -46 25.5 -70t74.5 -24q48 0 102.5 26.5t106.5 75.5q80 76 125 186.5t45 233.5q0 259 -190.5 420t-499.5 161q-133 0 -246 -28t-211 -86q-191 -114 -296 -299.5t-105 -409.5q0 -177 61.5 -308t192.5 -230
q100 -77 236.5 -118.5t287.5 -41.5q169 0 328.5 49t292.5 141l55 -82q-148 -111 -314.5 -167t-349.5 -56q-190 0 -348 47t-280 140q-154 118 -230 274t-76 354q0 165 52 313t151 269q146 178 351.5 270t455.5 92q163 0 310 -45t253 -127q130 -100 197.5 -231t67.5 -283
q0 -175 -63.5 -315t-184.5 -236q-68 -54 -149.5 -83t-166.5 -29q-99 0 -149.5 39.5t-50.5 117.5v19q-55 -89 -129 -131.5t-172 -42.5q-153 0 -233.5 85t-80.5 247q0 235 138 394t339 159q85 0 145.5 -37.5t96.5 -112.5zM1190 475l59 236q-17 88 -68.5 136t-129.5 48
q-138 0 -232 -130t-94 -319q0 -105 48.5 -162t137.5 -57q97 0 174.5 69t104.5 179z" />
    <glyph glyph-name="A" unicode="A" horiz-adv-x="1233" 
d="M813 629l-205 553l-209 -553h414zM324 424l-164 -424h-223l569 1456h205l569 -1456h-231l-160 424h-565z" />
    <glyph glyph-name="B" unicode="B" horiz-adv-x="1053" 
d="M336 846h67q163 0 232.5 49.5t69.5 163.5q0 101 -63 149.5t-193 48.5h-113v-411zM334 197h166q146 0 215 54.5t69 168.5q0 124 -72 188t-212 64h-166v-475zM440 1456q233 0 354 -102t121 -297q0 -90 -39.5 -159t-115.5 -114q107 -32 169 -123t62 -217q0 -102 -38 -191.5
t-105 -148.5q-66 -56 -149.5 -80t-235.5 -24h-336v1456h313z" />
    <glyph glyph-name="C" unicode="C" horiz-adv-x="1540" 
d="M1452 365q-95 -191 -262.5 -292.5t-388.5 -101.5q-164 0 -302.5 63t-248.5 187q-93 103 -141 234.5t-48 281.5q0 152 58 288.5t170 248.5q106 104 235.5 157.5t278.5 53.5q224 0 393.5 -106t255.5 -300h-248q-70 97 -172 146t-231 49q-103 0 -196 -39t-165 -113
q-75 -77 -117 -179t-42 -208q0 -114 38 -215.5t109 -175.5q75 -78 173 -121t200 -43q125 0 225.5 47.5t165.5 137.5h260z" />
    <glyph glyph-name="D" unicode="D" horiz-adv-x="1384" 
d="M322 195h256q243 0 384.5 141.5t141.5 384.5q0 252 -150 394t-415 142h-217v-1062zM526 0h-409v1456h469q328 0 529.5 -203t201.5 -530q0 -186 -75.5 -339t-217.5 -255q-96 -69 -205 -99t-293 -30z" />
    <glyph glyph-name="E" unicode="E" horiz-adv-x="1014" 
d="M883 0h-756v1456h756v-194h-545v-435h545v-190h-545v-436h545v-201z" />
    <glyph glyph-name="F" unicode="F" horiz-adv-x="977" 
d="M123 0v1456h717v-194h-508v-435h508v-190h-508v-637h-209z" />
    <glyph glyph-name="G" unicode="G" horiz-adv-x="1612" 
d="M643 735h901q-15 -341 -221 -552.5t-522 -211.5q-164 0 -302.5 63t-248.5 187q-93 103 -141 234.5t-48 281.5q0 153 58 290t170 247q106 106 237 158.5t291 52.5q221 0 387.5 -103.5t251.5 -294.5h-260q-72 93 -172 140t-223 47q-103 0 -196 -39t-165 -113
q-75 -77 -117 -179t-42 -208q0 -114 38 -215.5t109 -175.5q75 -78 173 -121t200 -43q166 0 293 88.5t209 261.5h-660v205z" />
    <glyph glyph-name="H" unicode="H" horiz-adv-x="1270" 
d="M338 0h-211v1456h211v-618h594v618h211v-1456h-211v631h-594v-631z" />
    <glyph glyph-name="I" unicode="I" horiz-adv-x="465" 
d="M338 0h-211v1456h211v-1456z" />
    <glyph glyph-name="J" unicode="J" horiz-adv-x="905" 
d="M788 500q0 -154 -14.5 -226.5t-48.5 -126.5q-54 -85 -143 -130.5t-203 -45.5q-171 0 -271.5 96.5t-103.5 261.5l208 1q11 -81 53.5 -121.5t117.5 -40.5q110 0 152.5 65.5t42.5 294.5v928h210v-956z" />
    <glyph glyph-name="K" unicode="K" horiz-adv-x="1118" 
d="M346 723l549 733h254l-565 -723l551 -733h-265zM338 0h-211v1456h211v-1456z" />
    <glyph glyph-name="L" unicode="L" horiz-adv-x="858" 
d="M815 0h-688v1456h211v-1255h477v-201z" />
    <glyph glyph-name="M" unicode="M" horiz-adv-x="1724" 
d="M330 0h-203v1456h313l422 -1126l422 1126h309v-1456h-198l14 1264l-473 -1264h-150l-471 1264z" />
    <glyph glyph-name="N" unicode="N" horiz-adv-x="1384" 
d="M338 0h-211v1456h217l715 -1102l-10 1102h208v-1456h-202l-731 1135z" />
    <glyph glyph-name="O" unicode="O" horiz-adv-x="1612" 
d="M281 735q0 -114 38 -215.5t109 -175.5q75 -78 173 -121t200 -43q226 0 378 160.5t152 398.5q0 101 -36.5 192.5t-106.5 168.5q-83 89 -177.5 131.5t-209.5 42.5q-103 0 -196 -39t-165 -113q-75 -77 -117 -179t-42 -208zM61 737q0 153 58 290t170 247q106 104 235.5 157.5
t278.5 53.5q153 0 283.5 -53.5t238.5 -159.5q111 -109 167 -244t56 -291q0 -155 -48 -285.5t-144 -234.5q-113 -122 -252.5 -184t-302.5 -62q-164 0 -302.5 63t-248.5 187q-93 103 -141 234.5t-48 281.5z" />
    <glyph glyph-name="P" unicode="P" horiz-adv-x="1053" 
d="M336 780h153q163 0 236.5 57t73.5 181t-74.5 184t-228.5 60h-160v-482zM336 0h-209v1456h338q143 0 217.5 -14t130.5 -47q91 -53 145 -151.5t54 -213.5q0 -203 -137 -323.5t-371 -120.5h-168v-586z" />
    <glyph glyph-name="Q" unicode="Q" horiz-adv-x="1612" 
d="M1180 344q79 89 115 182.5t36 212.5q0 101 -36.5 193.5t-106.5 167.5q-82 89 -176.5 131.5t-210.5 42.5q-103 0 -196 -39t-165 -113q-78 -79 -119.5 -181.5t-41.5 -213.5q0 -34 5.5 -72t16.5 -80q48 25 106 36.5t134 11.5q163 0 327.5 -72t311.5 -207zM1020 225
q-112 103 -240.5 157t-261.5 54q-38 0 -73.5 -5.5t-69.5 -16.5q78 -112 192 -173t246 -61q48 0 99 11t108 34zM1208 90q-91 -59 -192.5 -89t-212.5 -30q-128 0 -245.5 41t-215.5 119q-136 110 -208.5 266t-72.5 340q0 152 58 288.5t170 248.5q106 104 235.5 157.5
t278.5 53.5q153 0 283.5 -53.5t238.5 -159.5q112 -111 168.5 -250t56.5 -303q0 -143 -45 -264t-137 -226q39 -18 80 -27t88 -9h27v-203h-19q-81 0 -165 25t-171 75z" />
    <glyph glyph-name="R" unicode="R" horiz-adv-x="1157" 
d="M338 700h108q219 0 326 71t107 216q0 141 -92 207t-291 66h-158v-560zM338 0h-211v1456h420q262 0 400 -121t138 -350q0 -178 -115.5 -297.5t-297.5 -128.5l413 -559h-264l-483 676v-676z" />
    <glyph glyph-name="S" unicode="S" horiz-adv-x="973" 
d="M50 420h189q5 -113 67 -180.5t161 -67.5q109 0 174.5 67.5t65.5 180.5q0 99 -48 153t-201 101q-8 2 -27 7q-183 49 -265 161q-37 49 -55.5 104.5t-18.5 118.5q0 187 111 302.5t291 115.5q167 0 269.5 -103.5t113.5 -283.5h-197q-5 87 -58.5 140.5t-134.5 53.5
q-87 0 -141.5 -59.5t-54.5 -153.5q0 -33 10 -62t31 -54q43 -51 184 -88q65 -17 100 -29q144 -54 218.5 -157t74.5 -247q0 -211 -120 -340t-318 -129q-186 0 -302.5 123.5t-118.5 325.5z" />
    <glyph glyph-name="T" unicode="T" horiz-adv-x="786" 
d="M500 0h-211v1260h-273v196h756v-196h-272v-1260z" />
    <glyph glyph-name="U" unicode="U" horiz-adv-x="1157" 
d="M113 1456h211v-926q0 -198 59 -275t201 -77q135 0 191 78.5t56 273.5v926h211v-924q0 -148 -16.5 -227t-54.5 -137q-66 -100 -160.5 -148.5t-222.5 -48.5q-140 0 -236 47t-166 148q-39 58 -56 130t-17 236v924z" />
    <glyph glyph-name="V" unicode="V" horiz-adv-x="1161" 
d="M643 0h-125l-561 1456h223l400 -1085l401 1085h221z" />
    <glyph glyph-name="W" unicode="W" horiz-adv-x="1726" 
d="M-31 1456h215l316 -1122l284 1122h158l283 -1122l315 1122h215l-440 -1456h-191l-262 1087l-264 -1087h-188z" />
    <glyph glyph-name="X" unicode="X" horiz-adv-x="1200" 
d="M600 569l-362 -569h-244l485 735l-473 721h246l348 -563l344 563h250l-473 -721l483 -735h-246z" />
    <glyph glyph-name="Y" unicode="Y" horiz-adv-x="1010" 
d="M608 524v-524h-211v537l-446 919h235l320 -700l319 700h234z" />
    <glyph glyph-name="Z" unicode="Z" horiz-adv-x="973" 
d="M932 0h-893v207l637 1044h-596v205h840v-184l-660 -1071h672v-201z" />
    <glyph glyph-name="bracketleft" unicode="[" horiz-adv-x="420" 
d="M440 1526v-166q-92 -74 -131 -176t-39 -311v-675q0 -208 39 -310q38 -99 131 -176v-165q-159 84 -237 240q-78 155 -78 386v725q0 231 78 387q77 155 237 241z" />
    <glyph glyph-name="backslash" unicode="\" horiz-adv-x="569" 
d="M479 -190l-479 1675h147l480 -1675h-148z" />
    <glyph glyph-name="bracketright" unicode="]" horiz-adv-x="420" 
d="M72 1526q159 -86 237 -241q79 -158 79 -387v-725q0 -229 -79 -386q-78 -156 -237 -240v165q93 76 132 176q39 102 39 310v675q0 209 -39 311q-40 102 -132 176v166z" />
    <glyph glyph-name="asciicircum" unicode="^" horiz-adv-x="2048" 
d="M1116 1458l510 -557h-180l-422 420l-424 -420h-180l510 557h186z" />
    <glyph glyph-name="underscore" unicode="_" 
d="M1024 -340v-143h-1024v143h1024z" />
    <glyph glyph-name="grave" unicode="`" 
d="M655 1241h-120l-285 348h201z" />
    <glyph glyph-name="a" unicode="a" horiz-adv-x="1319" 
d="M266 557q0 -167 110.5 -280t270.5 -113q146 0 257.5 113.5t111.5 265.5q0 162 -110.5 277.5t-262.5 115.5q-156 0 -266.5 -110t-110.5 -269zM1006 0v135q-76 -79 -169.5 -119.5t-199.5 -40.5q-248 0 -412 165.5t-164 414.5q0 116 41 220t117 183q83 87 181.5 128.5
t224.5 41.5q113 0 208 -40t173 -121v133h200v-1100h-200z" />
    <glyph glyph-name="b" unicode="b" horiz-adv-x="1319" 
d="M303 543q0 -152 111.5 -265.5t257.5 -113.5q159 0 269 112.5t110 280.5q0 158 -111 268.5t-266 110.5q-152 0 -261.5 -115t-109.5 -278zM311 135v-135h-200v1456h198v-489q80 81 175.5 121t207.5 40q126 0 224.5 -41.5t181.5 -128.5q77 -80 118 -184t41 -219
q0 -249 -164 -414.5t-413 -165.5q-106 0 -199.5 40.5t-169.5 119.5z" />
    <glyph glyph-name="c" unicode="c" horiz-adv-x="1241" 
d="M1161 375q-69 -199 -205 -301.5t-331 -102.5q-123 0 -223 42.5t-181 127.5q-77 81 -120.5 188.5t-43.5 219.5q0 115 39.5 215.5t116.5 183.5q85 91 191 138t227 47q189 0 328 -104.5t202 -293.5h-217q-52 101 -134 151t-196 50q-147 0 -249.5 -111t-102.5 -274
q0 -165 104 -275t259 -110q104 0 188 54.5t131 154.5h217z" />
    <glyph glyph-name="d" unicode="d" horiz-adv-x="1319" 
d="M266 557q0 -167 110.5 -280t270.5 -113q146 0 257.5 113.5t111.5 265.5q0 162 -110.5 277.5t-262.5 115.5q-156 0 -266.5 -110t-110.5 -269zM1006 0v135q-76 -79 -169.5 -119.5t-199.5 -40.5q-248 0 -412 165.5t-164 414.5q0 116 41 220t117 183q83 87 181.5 128.5
t224.5 41.5q112 0 207.5 -40t175.5 -121v489h198v-1456h-200z" />
    <glyph glyph-name="e" unicode="e" horiz-adv-x="1245" 
d="M973 655q-37 136 -128 210.5t-218 74.5q-130 0 -225.5 -76.5t-131.5 -208.5h703zM264 477q25 -138 124.5 -223.5t236.5 -85.5q98 0 178.5 47t128.5 133h223q-76 -183 -212.5 -280t-317.5 -97q-122 0 -223 43t-183 129q-77 81 -120.5 188.5t-43.5 219.5q0 116 39.5 217
t116.5 184q82 90 185 135.5t225 45.5q145 0 269.5 -67.5t205.5 -188.5q48 -75 71 -164.5t23 -204.5v-31h-926z" />
    <glyph glyph-name="f" unicode="f" horiz-adv-x="569" 
d="M369 0h-197v928h-131v172h125v33q0 169 94 254.5t281 85.5v-183h-17q-88 0 -126 -40t-38 -134v-16h181v-172h-172v-928z" />
    <glyph glyph-name="g" unicode="g" horiz-adv-x="1319" 
d="M133 -88h211q46 -77 120.5 -117.5t170.5 -40.5q167 0 269 100.5t102 266.5v14q-76 -79 -169.5 -119.5t-199.5 -40.5q-248 0 -412 165.5t-164 414.5q0 116 41 220t117 183q83 87 181.5 128.5t224.5 41.5q112 0 207.5 -40t175.5 -121v133h198v-918q0 -287 -149 -449.5
t-410 -162.5q-189 0 -323 89.5t-191 252.5zM266 557q0 -167 110.5 -280t270.5 -113q146 0 257.5 113.5t111.5 265.5q0 162 -110.5 277.5t-262.5 115.5q-156 0 -266.5 -110t-110.5 -269z" />
    <glyph glyph-name="h" unicode="h" horiz-adv-x="1157" 
d="M315 0h-198v1456h198v-481q48 71 124.5 107t178.5 36q200 0 311 -128t111 -359v-631h-198v567q0 183 -62 272t-190 89q-78 0 -138 -36t-96 -104q-22 -41 -31.5 -100t-9.5 -188v-500z" />
    <glyph glyph-name="i" unicode="i" horiz-adv-x="432" 
d="M313 1229h-196v227h196v-227zM117 0v1100h196v-1100h-196z" />
    <glyph glyph-name="j" unicode="j" horiz-adv-x="455" 
d="M326 -10q0 -187 -67.5 -266.5t-221.5 -79.5q-7 0 -21.5 1t-21.5 1v194q80 0 107.5 27.5t27.5 132.5v57v1043h197v-1110zM326 1229h-197v227h197v-227z" />
    <glyph glyph-name="k" unicode="k" horiz-adv-x="977" 
d="M117 0v1456h196v-866l392 510h231l-404 -522l478 -578h-254l-443 559v-559h-196z" />
    <glyph glyph-name="l" unicode="l" horiz-adv-x="432" 
d="M117 0v1456h196v-1456h-196z" />
    <glyph glyph-name="m" unicode="m" horiz-adv-x="1778" 
d="M795 555q0 201 -57 292t-181 91q-128 0 -189 -91.5t-61 -283.5v-563h-188v1100h176v-129q55 74 124.5 110.5t158.5 36.5q120 0 200 -46t131 -144q51 96 135 143t205 47q186 0 298 -121.5t112 -324.5v-672h-199v641q0 141 -61.5 219t-171.5 78q-128 0 -184 -83t-56 -280
v-575h-192v555z" />
    <glyph glyph-name="n" unicode="n" horiz-adv-x="1176" 
d="M315 0h-198v1100h190v-125q62 74 136.5 108.5t170.5 34.5q216 0 331.5 -127t115.5 -364v-627h-199v584q0 175 -65 259.5t-201 84.5q-148 0 -214.5 -99.5t-66.5 -328.5v-500z" />
    <glyph glyph-name="o" unicode="o" horiz-adv-x="1241" 
d="M258 551q0 -165 104.5 -275t260.5 -110q153 0 256.5 110.5t103.5 276.5q0 167 -103.5 276t-258.5 109q-154 0 -258.5 -110.5t-104.5 -276.5zM53 549q0 117 39.5 218.5t116.5 182.5q83 89 187 137t216 48q120 0 222.5 -43t185.5 -127q81 -83 124.5 -187t43.5 -215
q0 -113 -40.5 -220t-113.5 -187q-84 -92 -188.5 -139.5t-222.5 -47.5q-121 0 -223 43.5t-183 128.5q-77 81 -120.5 188.5t-43.5 219.5z" />
    <glyph glyph-name="p" unicode="p" horiz-adv-x="1319" 
d="M303 557q0 -163 109.5 -278t261.5 -115q155 0 266 110.5t111 268.5q0 167 -110 280t-269 113q-146 0 -257.5 -113.5t-111.5 -265.5zM309 133v-489h-198v1456h200v-135q76 78 169.5 118.5t199.5 40.5q249 0 413 -165t164 -414q0 -115 -41 -219t-118 -185
q-83 -87 -181.5 -128.5t-224.5 -41.5q-112 0 -207.5 40.5t-175.5 121.5z" />
    <glyph glyph-name="q" unicode="q" horiz-adv-x="1319" 
d="M647 936q-159 0 -269 -113t-110 -280q0 -159 110.5 -269t266.5 -110q152 0 261.5 115t109.5 278q0 152 -111.5 265.5t-257.5 113.5zM1208 -356h-200v489q-78 -81 -173 -121.5t-208 -40.5q-126 0 -224.5 41.5t-181.5 128.5q-77 81 -118.5 185t-41.5 219q0 249 164.5 414
t413.5 165q106 0 199.5 -40.5t169.5 -118.5v135h200v-1456z" />
    <glyph glyph-name="r" unicode="r" horiz-adv-x="592" 
d="M317 0h-198v1100h186v-127q49 73 112.5 108.5t147.5 36.5v-207q-133 -10 -190.5 -78.5t-57.5 -220.5v-612z" />
    <glyph glyph-name="s" unicode="s" horiz-adv-x="797" 
d="M41 356h186q0 -87 48.5 -143.5t121.5 -56.5q69 0 113.5 42.5t44.5 108.5q0 58 -31.5 98t-101.5 68q-24 10 -68 26q-117 44 -149 70q-59 47 -87 106.5t-28 137.5q0 134 93.5 228t228.5 94q141 0 224 -82.5t91 -231.5h-190q-5 61 -40 95t-94 34q-53 0 -88.5 -36.5
t-35.5 -90.5q0 -92 160 -151q45 -17 71 -27q126 -51 179.5 -127t53.5 -203q0 -148 -100 -246t-252 -98q-153 0 -247 103t-103 282z" />
    <glyph glyph-name="t" unicode="t" horiz-adv-x="563" 
d="M184 0v920h-155v180h155v356h197v-356h156v-180h-156v-920h-197z" />
    <glyph glyph-name="u" unicode="u" horiz-adv-x="1157" 
d="M1034 0h-190v123q-59 -75 -132.5 -111.5t-164.5 -36.5q-208 0 -322 129t-114 363v633h198v-576q0 -178 63 -267t189 -89q78 0 139 36.5t97 104.5q22 42 31.5 100t9.5 187v504h196v-1100z" />
    <glyph glyph-name="v" unicode="v" horiz-adv-x="1014" 
d="M571 0h-149l-418 1100h213l289 -803l297 803h209z" />
    <glyph glyph-name="w" unicode="w" horiz-adv-x="1460" 
d="M729 745l-225 -745h-111l-381 1100h211l226 -727l223 727h121l221 -727l227 727h209l-383 -1100h-111z" />
    <glyph glyph-name="x" unicode="x" horiz-adv-x="934" 
d="M719 0l-254 416l-266 -416h-219l372 571l-329 529h221l229 -377l234 377h229l-348 -522l352 -578h-221z" />
    <glyph glyph-name="y" unicode="y" horiz-adv-x="1049" 
d="M6 1100h213l297 -819l322 819h213l-592 -1456h-209l153 387z" />
    <glyph glyph-name="z" unicode="z" horiz-adv-x="825" 
d="M780 0h-760v160l531 760h-467v180h666v-203l-496 -711h526v-186z" />
    <glyph glyph-name="braceleft" unicode="{" 
d="M866 1327h-41q-120 0 -161 -44.5t-41 -184.5v-242q0 -160 -44.5 -228t-156.5 -98q113 -28 157 -96t44 -229v-242q0 -141 41.5 -185t162.5 -44h39v-148h-43q-108 0 -169 11.5t-103 37.5q-55 34 -77.5 97t-22.5 211v245q0 149 -54.5 210t-185.5 61q-7 0 -21.5 -1t-21.5 -1
v149q8 0 23 -1t22 -1q130 0 184 60.5t54 207.5v246q0 148 22.5 210.5t77.5 96.5q45 28 108.5 40t169.5 12h37v-150z" />
    <glyph glyph-name="bar" unicode="|" 
d="M588 1565v-2048h-150v2048h150z" />
    <glyph glyph-name="braceright" unicode="}" 
d="M575 1118v-246q0 -147 54 -207.5t184 -60.5q7 0 22 1t23 1v-149q-7 0 -22 1t-21 1q-132 0 -186 -60.5t-54 -210.5v-245q0 -148 -22.5 -211t-77.5 -97q-42 -26 -103 -37.5t-169 -11.5h-43v148h39q120 0 162 45t42 186v240q0 160 44.5 228t156.5 97q-112 30 -156.5 98
t-44.5 228v242q0 140 -42 184.5t-162 44.5h-39v150h37q107 0 171 -12.5t107 -39.5q55 -34 77.5 -96.5t22.5 -210.5z" />
    <glyph glyph-name="asciitilde" unicode="~" horiz-adv-x="1706" 
d="M1530 614q-104 -72 -199 -106.5t-190 -34.5q-93 0 -256 58q-22 8 -34 12q-5 2 -15 5q-176 60 -273 60q-84 0 -175 -37t-210 -120v155q106 72 202 108t185 36q62 0 127.5 -13.5t163.5 -48.5q16 -5 47 -17q159 -57 240 -57q88 0 179.5 37t207.5 119v-156z" />
    <glyph glyph-name="uni00A0" unicode="&#xa0;" horiz-adv-x="1171" 
 />
    <glyph glyph-name="exclamdown" unicode="&#xa1;" horiz-adv-x="594" 
d="M199 1096h196v-1096h-196v1096zM199 1456h196v-233h-196v233z" />
    <glyph glyph-name="cent" unicode="&#xa2;" horiz-adv-x="1171" 
d="M1110 549q-55 -172 -165 -275t-265 -127v-229h-168v232q-199 37 -326 198.5t-127 374.5q0 218 123.5 375.5t329.5 199.5v211h168v-209q155 -20 265 -120t165 -271h-209q-47 102 -125.5 152.5t-185.5 50.5q-141 0 -238.5 -111.5t-97.5 -277.5q0 -165 99 -274t247 -109
q102 0 180.5 54.5t120.5 154.5h209z" />
    <glyph glyph-name="sterling" unicode="&#xa3;" horiz-adv-x="1171" 
d="M127 -2v197h227q43 42 63.5 91t20.5 107q0 67 -24 128t-84 141h-219v190h108q-22 49 -32.5 93t-10.5 87q0 184 141.5 316.5t339.5 132.5q170 0 289 -103t154 -280h-215q-26 83 -89.5 130.5t-148.5 47.5q-114 0 -185 -72.5t-71 -187.5q0 -38 10.5 -78.5t32.5 -85.5h449
v-190h-320q41 -78 58.5 -136.5t17.5 -117.5q0 -66 -18 -119t-56 -99q9 -2 19.5 -3t31.5 -1h33q144 0 215.5 56t71.5 168q0 26 -3.5 53.5t-10.5 56.5h204q7 -31 10 -56t3 -46q0 -120 -50.5 -217t-138.5 -148q-51 -30 -124 -42.5t-259 -12.5h-35h-405z" />
    <glyph glyph-name="currency" unicode="&#xa4;" horiz-adv-x="1241" 
d="M926 887q0 125 -89 214t-214 89q-126 0 -215 -89t-89 -214q0 -126 89 -215.5t215 -89.5q125 0 214 89.5t89 215.5zM367 1219q57 43 120 64.5t134 21.5t134.5 -21.5t121.5 -64.5l204 204l82 -80l-205 -206q41 -55 61.5 -118t20.5 -134q0 -73 -20 -135.5t-62 -116.5
l205 -205l-82 -82l-204 205q-59 -44 -122 -65t-132 -21q-72 0 -135.5 21.5t-120.5 64.5l-205 -205l-82 82l207 205q-41 51 -62.5 116t-21.5 136q0 70 21 133t63 119l-207 206l82 80z" />
    <glyph glyph-name="yen" unicode="&#xa5;" horiz-adv-x="1171" 
d="M909 987h170v-143h-239l-82 -166h321v-141h-391v-537h-209v537h-391v141h322l-82 166h-240v143h170l-223 461h233l320 -696l315 696h232z" />
    <glyph glyph-name="brokenbar" unicode="&#xa6;" 
d="M588 408v-758h-150v758h150zM588 1432v-758h-150v758h150z" />
    <glyph glyph-name="section" unicode="&#xa7;" 
d="M657 408q48 28 75.5 70.5t27.5 86.5q0 55 -41.5 103t-136.5 100l-217 119q-54 -32 -80.5 -69t-26.5 -81q0 -56 34 -98t144 -104zM150 113h174v-11q0 -81 50.5 -126.5t141.5 -45.5q79 0 125.5 39t46.5 105q0 58 -45.5 106t-179.5 121l-182 98q-102 56 -151.5 126
t-49.5 159q0 84 44 155t134 132q-46 38 -69 88t-23 112q0 139 93.5 226.5t242.5 87.5q161 0 253.5 -85.5t92.5 -234.5v-10h-170q-3 81 -50.5 129.5t-125.5 48.5q-73 0 -115.5 -36.5t-42.5 -100.5q0 -55 39 -97t182 -118l176 -94q109 -58 156 -128t47 -171q0 -89 -51 -165.5
t-133 -111.5q52 -44 77 -97.5t25 -119.5q0 -138 -101.5 -228.5t-260.5 -90.5t-254.5 91t-95.5 243v4z" />
    <glyph glyph-name="dieresis" unicode="&#xa8;" 
d="M598 1300v209h184v-209h-184zM242 1300v209h184v-209h-184z" />
    <glyph glyph-name="copyright" unicode="&#xa9;" horiz-adv-x="1706" 
d="M1053 907q-13 77 -66 118.5t-139 41.5q-105 0 -165 -90.5t-60 -249.5q0 -157 62 -244.5t173 -87.5q82 0 136.5 47t68.5 129h145q-9 -130 -107.5 -211t-248.5 -81q-182 0 -285.5 120t-103.5 334q0 200 109 322.5t286 122.5q142 0 236.5 -75t105.5 -196h-147zM1493 727
q0 130 -47.5 246.5t-136.5 206.5q-93 92 -209 140t-246 48q-129 0 -243.5 -47t-204.5 -137q-93 -93 -143 -211.5t-50 -245.5q0 -126 49 -242t141 -209q92 -91 207.5 -139.5t243.5 -48.5q125 0 242 49t213 142q90 88 137 202.5t47 245.5zM852 1464q152 0 285.5 -54.5
t238.5 -160.5q104 -103 159.5 -238.5t55.5 -283.5q0 -149 -54.5 -281.5t-158.5 -234.5q-110 -107 -245.5 -164t-280.5 -57t-278.5 56t-239.5 163q-106 105 -161.5 238.5t-55.5 279.5q0 147 56 281.5t163 242.5q104 104 236 158.5t280 54.5z" />
    <glyph glyph-name="ordfeminine" unicode="&#xaa;" horiz-adv-x="989" 
d="M201 1075q0 -117 82.5 -195.5t201.5 -78.5q110 0 193.5 80t83.5 186q0 114 -82.5 194t-196.5 80q-117 0 -199.5 -77t-82.5 -189zM754 686v94q-56 -54 -126.5 -82t-150.5 -28q-186 0 -308 115t-122 290q0 80 30 153t87 130q62 61 136.5 90t168.5 29q85 0 156 -28.5
t129 -86.5v94h151v-770h-151z" />
    <glyph glyph-name="guillemotleft" unicode="&#xab;" horiz-adv-x="1375" 
d="M968 1314l-462 -462l462 -460l133 140l-327 320l327 329zM850 1516q176 0 329 -90q151 -87 240 -239q90 -150 90 -327q0 -182 -90 -330q-89 -152 -239 -237q-153 -88 -330 -88t-328 87q-150 84 -238 238q-90 151 -90 330q0 173 89 326q90 153 240 240q153 90 327 90v0z
" />
    <glyph glyph-name="logicalnot" unicode="&#xac;" horiz-adv-x="1706" 
d="M1452 860v-502h-137v363h-1061v139h1198z" />
    <glyph glyph-name="uni00AD" unicode="&#xad;" horiz-adv-x="678" 
d="M588 457h-498v184h498v-184z" />
    <glyph glyph-name="registered" unicode="&#xae;" horiz-adv-x="1706" 
d="M844 1057h-129v-277h133q113 0 162 31.5t49 101.5q0 76 -51 110t-164 34zM872 1159q174 0 261.5 -57.5t87.5 -171.5q0 -89 -50 -148t-141 -77l187 -381h-177l-170 356h-155v-356h-158v835h315zM1493 721q0 134 -46.5 251t-135.5 206q-92 93 -208.5 141.5t-248.5 48.5
q-130 0 -245 -47t-201 -135q-94 -95 -144.5 -214t-50.5 -245q0 -125 48.5 -240.5t139.5 -207.5q90 -92 206.5 -141.5t240.5 -49.5q130 0 246.5 48t212.5 140q90 88 138 202.5t48 242.5zM852 1464q151 0 286 -56t240 -163q103 -104 158 -238t55 -280q0 -151 -55 -283.5
t-160 -234.5q-109 -106 -244.5 -162.5t-279.5 -56.5q-147 0 -280.5 56.5t-239.5 164.5q-105 106 -160 238.5t-55 277.5q0 146 57.5 282.5t165.5 245.5q101 103 231.5 156t280.5 53z" />
    <glyph glyph-name="macron" unicode="&#xaf;" 
d="M242 1335v140h540v-140h-540z" />
    <glyph glyph-name="degree" unicode="&#xb0;" horiz-adv-x="674" 
d="M530 1169q0 81 -55.5 137t-136.5 56t-138 -56t-57 -137t57 -138.5t138 -57.5t136.5 57.5t55.5 138.5zM338 1456q118 0 202.5 -84.5t84.5 -204.5q0 -119 -84 -202.5t-205 -83.5t-204 83t-83 203t84.5 204.5t204.5 84.5z" />
    <glyph glyph-name="plusminus" unicode="&#xb1;" horiz-adv-x="1706" 
d="M1452 170v-141h-1198v141h1198zM924 1192v-340h528v-139h-528v-340h-142v340h-528v139h528v340h142z" />
    <glyph glyph-name="uni00B2" unicode="&#xb2;" horiz-adv-x="774" 
d="M690 582h-608v120l335 295l4 3q134 117 134 194q0 67 -49.5 112.5t-124.5 45.5q-79 0 -123.5 -46t-44.5 -128v-11h-131v2q0 137 85.5 219t225.5 82q126 0 212.5 -78.5t86.5 -191.5q0 -64 -32 -120.5t-107 -121.5l-299 -256h436v-120z" />
    <glyph glyph-name="uni00B3" unicode="&#xb3;" horiz-adv-x="774" 
d="M70 850h128q4 -74 52.5 -121t122.5 -47q79 0 132.5 48.5t53.5 121.5q0 80 -55 125t-154 45h-35l1 119q4 -1 10.5 -1.5t17.5 -0.5q74 0 112 27.5t38 82.5q0 46 -32 76.5t-79 30.5q-54 0 -85 -28t-34 -78h-127q5 101 73 162t177 61q100 0 170 -64t70 -154q0 -53 -23.5 -93
t-71.5 -68q77 -28 118.5 -88.5t41.5 -145.5q0 -125 -89.5 -210t-221.5 -85q-143 0 -225.5 75.5t-85.5 209.5z" />
    <glyph glyph-name="acute" unicode="&#xb4;" 
d="M369 1241l204 348h201l-285 -348h-120z" />
    <glyph glyph-name="mu" unicode="&#xb5;" horiz-adv-x="1151" 
d="M385 1071l-129 -600q-7 -32 -10.5 -64.5t-3.5 -68.5q0 -99 52 -153t148 -54q132 0 208.5 92.5t123.5 311.5l115 536h178l-156 -732q-1 -6 -4 -20q-18 -87 -18 -112q0 -37 16.5 -52.5t55.5 -15.5q12 0 18.5 0.5t13.5 1.5l-31 -143q-24 -5 -50 -7.5t-58 -2.5q-63 0 -97 29
t-52 100q-45 -66 -112.5 -98.5t-158.5 -32.5q-82 0 -143 27.5t-113 88.5l-110 -530h-181l318 1499h180z" />
    <glyph glyph-name="paragraph" unicode="&#xb6;" 
d="M958 1393h-120v-1393h-111v1393h-176v-1393h-113v782q-170 8 -271 102.5t-101 245.5q0 157 107.5 253t285.5 96h499v-86z" />
    <glyph glyph-name="periodcentered" unicode="&#xb7;" horiz-adv-x="586" 
d="M180 729q0 46 33 78.5t80 32.5q46 0 78 -32.5t32 -78.5q0 -47 -32 -80t-78 -33q-47 0 -80 33t-33 80z" />
    <glyph glyph-name="periodcentered" unicode="&#x2219;" horiz-adv-x="586" 
d="M180 729q0 46 33 78.5t80 32.5q46 0 78 -32.5t32 -78.5q0 -47 -32 -80t-78 -33q-47 0 -80 33t-33 80z" />
    <glyph glyph-name="cedilla" unicode="&#xb8;" 
d="M256 -426v100q79 -18 143 -28.5t103 -10.5q60 0 90.5 20.5t30.5 61.5q0 44 -32.5 65t-101.5 21q-20 0 -31 -0.5t-22 -0.5v198h76v-102h29q109 0 166 -46t57 -135q0 -91 -64 -139.5t-186 -48.5q-50 0 -115.5 11.5t-142.5 33.5z" />
    <glyph glyph-name="uni00B9" unicode="&#xb9;" horiz-adv-x="772" 
d="M469 582h-141v770h-168v104h309v-874z" />
    <glyph glyph-name="ordmasculine" unicode="&#xba;" horiz-adv-x="932" 
d="M195 1071q0 -115 77.5 -191.5t194.5 -76.5q115 0 192.5 77t77.5 193q0 118 -77.5 194t-194.5 76q-114 0 -192 -77.5t-78 -194.5zM41 1071q0 83 29.5 154t87.5 127q62 62 140 95.5t161 33.5q89 0 166 -30t141 -89q60 -59 92.5 -131.5t32.5 -149.5q0 -78 -30 -153.5
t-85 -132.5q-64 -64 -142 -96.5t-167 -32.5q-91 0 -167.5 30t-135.5 88q-59 56 -91 131.5t-32 155.5z" />
    <glyph glyph-name="guillemotright" unicode="&#xbb;" horiz-adv-x="1412" 
d="M578 400l461 460l-461 462l-134 -141l321 -321l-321 -328zM689 1508q173 0 327 -89q151 -90 240 -239q89 -156 89 -328q0 -178 -89 -330q-89 -150 -240 -237q-155 -88 -327 -88q-177 0 -325 88q-152 85 -237 237q-90 151 -90 330q0 174 90 326q84 148 238 241
q150 89 324 89z" />
    <glyph glyph-name="onequarter" unicode="&#xbc;" horiz-adv-x="1819" 
d="M1667 0h-129v141h-403v105l403 569h129v-569h92v-105h-92v-141zM1538 246v401l-274 -401h274zM1276 1485h143l-878 -1514h-146zM449 641h-136v719h-159v96h295v-815z" />
    <glyph glyph-name="onehalf" unicode="&#xbd;" horiz-adv-x="1819" 
d="M1737 0h-580v113l322 274l2 2q129 111 129 182q0 64 -47 106t-119 42q-76 0 -119 -43t-43 -119v-10h-125v2q0 127 81.5 203.5t215.5 76.5q120 0 203.5 -73.5t83.5 -177.5q0 -61 -31 -113.5t-102 -112.5l-287 -239h416v-113zM1276 1485h143l-878 -1514h-146zM449 641h-136
v719h-159v96h295v-815z" />
    <glyph glyph-name="threequarters" unicode="&#xbe;" horiz-adv-x="1819" 
d="M1667 0h-129v141h-403v105l403 569h129v-569h92v-105h-92v-141zM1538 246v401l-274 -401h274zM1276 1485h143l-878 -1514h-146zM66 891h124q4 -69 50.5 -112.5t115.5 -43.5q75 0 125.5 45.5t50.5 112.5q0 76 -51.5 118t-146.5 42q-14 0 -20.5 -0.5t-12.5 -1.5v112
q6 -1 12 -1.5t17 -0.5q70 0 105.5 26t35.5 77q0 43 -30.5 71.5t-75.5 28.5q-50 0 -80 -27t-33 -73h-121q5 95 69.5 152t168.5 57q96 0 162.5 -60t66.5 -143q0 -50 -22 -87t-68 -65q74 -26 114 -82.5t40 -134.5q0 -116 -85.5 -196t-211.5 -80q-138 0 -217 70t-82 196z" />
    <glyph glyph-name="questiondown" unicode="&#xbf;" horiz-adv-x="995" 
d="M637 1075q-2 -103 -38 -197t-105 -178q-23 -26 -68 -72q-123 -122 -123 -229q0 -104 66 -168.5t174 -64.5q98 0 158 68t63 183l198 1q-3 -196 -126.5 -321.5t-309.5 -125.5t-310 122t-124 304q0 171 175 353l12 12q88 91 119.5 159t35.5 154h203zM637 1456v-235h-197v235
h197z" />
    <glyph glyph-name="Agrave" unicode="&#xc0;" horiz-adv-x="1233" 
d="M813 629l-205 553l-209 -553h414zM324 424l-164 -424h-223l569 1456h205l569 -1456h-231l-160 424h-565zM751 1591h-120l-285 348h201z" />
    <glyph glyph-name="Aacute" unicode="&#xc1;" horiz-adv-x="1233" 
d="M813 629l-205 553l-209 -553h414zM324 424l-164 -424h-223l569 1456h205l569 -1456h-231l-160 424h-565zM465 1591l204 348h201l-285 -348h-120z" />
    <glyph glyph-name="Acircumflex" unicode="&#xc2;" horiz-adv-x="1233" 
d="M813 629l-205 553l-209 -553h414zM324 424l-164 -424h-223l569 1456h205l569 -1456h-231l-160 424h-565zM313 1591l197 348h196l197 -348h-123l-172 229l-174 -229h-121z" />
    <glyph glyph-name="Atilde" unicode="&#xc3;" horiz-adv-x="1233" 
d="M813 629l-205 553l-209 -553h414zM324 424l-164 -424h-223l569 1456h205l569 -1456h-231l-160 424h-565zM901 1868q-20 -101 -70.5 -154t-126.5 -53q-14 0 -30.5 2.5t-34.5 7.5l-97 27q-13 4 -25.5 6t-23.5 2q-31 0 -53.5 -17.5t-36.5 -52.5h-88q18 100 68 153.5
t125 53.5q17 0 32 -2t27 -6l99 -29q15 -4 28 -6t25 -2q33 0 56.5 17t37.5 53h88z" />
    <glyph glyph-name="Adieresis" unicode="&#xc4;" horiz-adv-x="1233" 
d="M813 629l-205 553l-209 -553h414zM324 424l-164 -424h-223l569 1456h205l569 -1456h-231l-160 424h-565zM694 1650v209h184v-209h-184zM338 1650v209h184v-209h-184z" />
    <glyph glyph-name="Aring" unicode="&#xc5;" horiz-adv-x="1233" 
d="M485 1741q0 -50 34 -84.5t83 -34.5q50 0 85.5 35t35.5 84q0 48 -36 84.5t-85 36.5q-47 0 -82 -36t-35 -85zM367 1739q0 97 68 165t165 68t165.5 -68t68.5 -165t-68.5 -165.5t-165.5 -68.5q-98 0 -165.5 68t-67.5 166zM813 629l-207 553l-207 -553h414zM324 424l-164 -424
h-223l567 1448h207l569 -1448h-236l-155 424h-565z" />
    <glyph glyph-name="AE" unicode="&#xc6;" horiz-adv-x="1720" 
d="M834 606v656h-33l-357 -656h390zM834 406h-502l-221 -406h-234l807 1456h905v-194h-547v-435h547v-190h-547v-436h547v-201h-755v406z" />
    <glyph glyph-name="Ccedilla" unicode="&#xc7;" horiz-adv-x="1540" 
d="M1452 365q-95 -191 -262.5 -292.5t-388.5 -101.5q-164 0 -302.5 63t-248.5 187q-93 103 -141 234.5t-48 281.5q0 152 58 288.5t170 248.5q106 104 235.5 157.5t278.5 53.5q224 0 393.5 -106t255.5 -300h-248q-70 97 -172 146t-231 49q-103 0 -196 -39t-165 -113
q-75 -77 -117 -179t-42 -208q0 -114 38 -215.5t109 -175.5q75 -78 173 -121t200 -43q125 0 225.5 47.5t165.5 137.5h260zM535 -426v100q79 -18 143 -28.5t103 -10.5q60 0 90.5 20.5t30.5 61.5q0 44 -32.5 65t-101.5 21q-20 0 -31 -0.5t-22 -0.5v198h76v-102h29
q109 0 166 -46t57 -135q0 -91 -64 -139.5t-186 -48.5q-50 0 -115.5 11.5t-142.5 33.5z" />
    <glyph glyph-name="Egrave" unicode="&#xc8;" horiz-adv-x="1014" 
d="M883 0h-756v1456h756v-194h-545v-435h545v-190h-545v-436h545v-201zM647 1591h-120l-285 348h201z" />
    <glyph glyph-name="Eacute" unicode="&#xc9;" horiz-adv-x="1014" 
d="M883 0h-756v1456h756v-194h-545v-435h545v-190h-545v-436h545v-201zM361 1591l204 348h201l-285 -348h-120z" />
    <glyph glyph-name="Ecircumflex" unicode="&#xca;" horiz-adv-x="1014" 
d="M883 0h-756v1456h756v-194h-545v-435h545v-190h-545v-436h545v-201zM209 1591l197 348h196l197 -348h-123l-172 229l-174 -229h-121z" />
    <glyph glyph-name="Edieresis" unicode="&#xcb;" horiz-adv-x="1014" 
d="M883 0h-756v1456h756v-194h-545v-435h545v-190h-545v-436h545v-201zM590 1650v209h184v-209h-184zM234 1650v209h184v-209h-184z" />
    <glyph glyph-name="Igrave" unicode="&#xcc;" horiz-adv-x="465" 
d="M338 0h-211v1456h211v-1456zM376 1591h-120l-285 348h201z" />
    <glyph glyph-name="Iacute" unicode="&#xcd;" horiz-adv-x="465" 
d="M338 0h-211v1456h211v-1456zM90 1591l204 348h201l-285 -348h-120z" />
    <glyph glyph-name="Icircumflex" unicode="&#xce;" horiz-adv-x="465" 
d="M338 0h-211v1456h211v-1456zM-62 1591l197 348h196l197 -348h-123l-172 229l-174 -229h-121z" />
    <glyph glyph-name="Idieresis" unicode="&#xcf;" horiz-adv-x="465" 
d="M338 0h-211v1456h211v-1456zM319 1650v209h184v-209h-184zM-37 1650v209h184v-209h-184z" />
    <glyph glyph-name="Eth" unicode="&#xd0;" horiz-adv-x="1407" 
d="M551 0h-410v647h-151v176h151v633h467q329 0 530 -203t201 -530q0 -187 -74.5 -340t-215.5 -254q-96 -69 -205 -99t-293 -30zM346 195h256q244 0 385 141.5t141 384.5q0 251 -150.5 393.5t-416.5 142.5h-215v-434h340v-176h-340v-452z" />
    <glyph glyph-name="Ntilde" unicode="&#xd1;" horiz-adv-x="1384" 
d="M338 0h-211v1456h217l715 -1102l-10 1102h208v-1456h-202l-731 1135zM985 1868q-20 -101 -70.5 -154t-126.5 -53q-14 0 -30.5 2.5t-34.5 7.5l-97 27q-13 4 -25.5 6t-23.5 2q-31 0 -53.5 -17.5t-36.5 -52.5h-88q18 100 68 153.5t125 53.5q17 0 32 -2t27 -6l99 -29
q15 -4 28 -6t25 -2q33 0 56.5 17t37.5 53h88z" />
    <glyph glyph-name="Ograve" unicode="&#xd2;" horiz-adv-x="1612" 
d="M281 735q0 -114 38 -215.5t109 -175.5q75 -78 173 -121t200 -43q226 0 378 160.5t152 398.5q0 101 -36.5 192.5t-106.5 168.5q-83 89 -177.5 131.5t-209.5 42.5q-103 0 -196 -39t-165 -113q-75 -77 -117 -179t-42 -208zM61 737q0 153 58 290t170 247q106 104 235.5 157.5
t278.5 53.5q153 0 283.5 -53.5t238.5 -159.5q111 -109 167 -244t56 -291q0 -155 -48 -285.5t-144 -234.5q-113 -122 -252.5 -184t-302.5 -62q-164 0 -302.5 63t-248.5 187q-93 103 -141 234.5t-48 281.5zM950 1591h-120l-285 348h201z" />
    <glyph glyph-name="Oacute" unicode="&#xd3;" horiz-adv-x="1612" 
d="M281 735q0 -114 38 -215.5t109 -175.5q75 -78 173 -121t200 -43q226 0 378 160.5t152 398.5q0 101 -36.5 192.5t-106.5 168.5q-83 89 -177.5 131.5t-209.5 42.5q-103 0 -196 -39t-165 -113q-75 -77 -117 -179t-42 -208zM61 737q0 153 58 290t170 247q106 104 235.5 157.5
t278.5 53.5q153 0 283.5 -53.5t238.5 -159.5q111 -109 167 -244t56 -291q0 -155 -48 -285.5t-144 -234.5q-113 -122 -252.5 -184t-302.5 -62q-164 0 -302.5 63t-248.5 187q-93 103 -141 234.5t-48 281.5zM664 1591l204 348h201l-285 -348h-120z" />
    <glyph glyph-name="Ocircumflex" unicode="&#xd4;" horiz-adv-x="1612" 
d="M281 735q0 -114 38 -215.5t109 -175.5q75 -78 173 -121t200 -43q226 0 378 160.5t152 398.5q0 101 -36.5 192.5t-106.5 168.5q-83 89 -177.5 131.5t-209.5 42.5q-103 0 -196 -39t-165 -113q-75 -77 -117 -179t-42 -208zM61 737q0 153 58 290t170 247q106 104 235.5 157.5
t278.5 53.5q153 0 283.5 -53.5t238.5 -159.5q111 -109 167 -244t56 -291q0 -155 -48 -285.5t-144 -234.5q-113 -122 -252.5 -184t-302.5 -62q-164 0 -302.5 63t-248.5 187q-93 103 -141 234.5t-48 281.5zM512 1591l197 348h196l197 -348h-123l-172 229l-174 -229h-121z" />
    <glyph glyph-name="Otilde" unicode="&#xd5;" horiz-adv-x="1612" 
d="M281 735q0 -114 38 -215.5t109 -175.5q75 -78 173 -121t200 -43q226 0 378 160.5t152 398.5q0 101 -36.5 192.5t-106.5 168.5q-83 89 -177.5 131.5t-209.5 42.5q-103 0 -196 -39t-165 -113q-75 -77 -117 -179t-42 -208zM61 737q0 153 58 290t170 247q106 104 235.5 157.5
t278.5 53.5q153 0 283.5 -53.5t238.5 -159.5q111 -109 167 -244t56 -291q0 -155 -48 -285.5t-144 -234.5q-113 -122 -252.5 -184t-302.5 -62q-164 0 -302.5 63t-248.5 187q-93 103 -141 234.5t-48 281.5zM1100 1868q-20 -101 -70.5 -154t-126.5 -53q-14 0 -30.5 2.5
t-34.5 7.5l-97 27q-13 4 -25.5 6t-23.5 2q-31 0 -53.5 -17.5t-36.5 -52.5h-88q18 100 68 153.5t125 53.5q17 0 32 -2t27 -6l99 -29q15 -4 28 -6t25 -2q33 0 56.5 17t37.5 53h88z" />
    <glyph glyph-name="Odieresis" unicode="&#xd6;" horiz-adv-x="1612" 
d="M281 735q0 -114 38 -215.5t109 -175.5q75 -78 173 -121t200 -43q226 0 378 160.5t152 398.5q0 101 -36.5 192.5t-106.5 168.5q-83 89 -177.5 131.5t-209.5 42.5q-103 0 -196 -39t-165 -113q-75 -77 -117 -179t-42 -208zM61 737q0 153 58 290t170 247q106 104 235.5 157.5
t278.5 53.5q153 0 283.5 -53.5t238.5 -159.5q111 -109 167 -244t56 -291q0 -155 -48 -285.5t-144 -234.5q-113 -122 -252.5 -184t-302.5 -62q-164 0 -302.5 63t-248.5 187q-93 103 -141 234.5t-48 281.5zM893 1650v209h184v-209h-184zM537 1650v209h184v-209h-184z" />
    <glyph glyph-name="multiply" unicode="&#xd7;" horiz-adv-x="1706" 
d="M860 709l469 469l98 -99l-469 -469l469 -469l-98 -96l-469 467l-469 -467l-98 96l469 469l-469 469l98 99z" />
    <glyph glyph-name="Oslash" unicode="&#xd8;" horiz-adv-x="1612" 
d="M1210 1364l193 221l133 -108l-193 -228q104 -105 154.5 -231t50.5 -281t-48 -285.5t-144 -234.5q-114 -123 -255.5 -184.5t-312.5 -61.5q-117 0 -219 33.5t-198 104.5l-224 -259l-133 117l224 264q-90 114 -133.5 239t-43.5 267q0 152 58 288.5t170 248.5
q104 104 233 156.5t281 52.5q118 0 220 -30t187 -89zM1200 1081l-690 -809q71 -46 143.5 -69t147.5 -23q226 0 378 160.5t152 398.5q0 97 -33 183.5t-98 158.5zM381 397l688 801q-63 39 -129 57.5t-139 18.5q-220 0 -371 -160.5t-151 -394.5q0 -88 25 -167.5t77 -154.5z" />
    <glyph glyph-name="Ugrave" unicode="&#xd9;" horiz-adv-x="1157" 
d="M113 1456h211v-926q0 -198 59 -275t201 -77q135 0 191 78.5t56 273.5v926h211v-924q0 -148 -16.5 -227t-54.5 -137q-66 -100 -160.5 -148.5t-222.5 -48.5q-140 0 -236 47t-166 148q-39 58 -56 130t-17 236v924zM723 1591h-120l-285 348h201z" />
    <glyph glyph-name="Uacute" unicode="&#xda;" horiz-adv-x="1157" 
d="M113 1456h211v-926q0 -198 59 -275t201 -77q135 0 191 78.5t56 273.5v926h211v-924q0 -148 -16.5 -227t-54.5 -137q-66 -100 -160.5 -148.5t-222.5 -48.5q-140 0 -236 47t-166 148q-39 58 -56 130t-17 236v924zM437 1591l204 348h201l-285 -348h-120z" />
    <glyph glyph-name="Ucircumflex" unicode="&#xdb;" horiz-adv-x="1157" 
d="M113 1456h211v-926q0 -198 59 -275t201 -77q135 0 191 78.5t56 273.5v926h211v-924q0 -148 -16.5 -227t-54.5 -137q-66 -100 -160.5 -148.5t-222.5 -48.5q-140 0 -236 47t-166 148q-39 58 -56 130t-17 236v924zM285 1591l197 348h196l197 -348h-123l-172 229l-174 -229
h-121z" />
    <glyph glyph-name="Udieresis" unicode="&#xdc;" horiz-adv-x="1157" 
d="M113 1456h211v-926q0 -198 59 -275t201 -77q135 0 191 78.5t56 273.5v926h211v-924q0 -148 -16.5 -227t-54.5 -137q-66 -100 -160.5 -148.5t-222.5 -48.5q-140 0 -236 47t-166 148q-39 58 -56 130t-17 236v924zM666 1650v209h184v-209h-184zM310 1650v209h184v-209h-184z
" />
    <glyph glyph-name="Yacute" unicode="&#xdd;" horiz-adv-x="1010" 
d="M608 524v-524h-211v537l-446 919h235l320 -700l319 700h234zM363 1591l204 348h201l-285 -348h-120z" />
    <glyph glyph-name="Thorn" unicode="&#xde;" horiz-adv-x="1053" 
d="M336 510h153q163 0 236.5 57t73.5 181t-74.5 183.5t-228.5 59.5h-160v-481zM336 315v-315h-209v1456h209v-270h129q149 0 221 -14t127 -46q91 -52 145 -151.5t54 -214.5q0 -202 -137.5 -323.5t-370.5 -121.5h-168z" />
    <glyph glyph-name="germandbls" unicode="&#xdf;" horiz-adv-x="1200" 
d="M307 977v-596h158q21 -102 82.5 -160.5t146.5 -58.5q98 0 171 73.5t73 172.5q0 128 -86 192t-260 64q-14 0 -31.5 -1l-52.5 -3v171h4q110 0 173 62t63 170q0 98 -62 162.5t-154 64.5q-119 0 -172 -73t-53 -240zM115 969q0 258 101 383t310 125q189 0 305.5 -111.5
t116.5 -290.5q0 -92 -34 -160t-97 -100q156 -42 238 -144t82 -253q0 -191 -123 -319t-305 -128q-140 0 -241 66t-161 196v-233h-192v969z" />
    <glyph glyph-name="agrave" unicode="&#xe0;" horiz-adv-x="1319" 
d="M266 557q0 -167 110.5 -280t270.5 -113q146 0 257.5 113.5t111.5 265.5q0 162 -110.5 277.5t-262.5 115.5q-156 0 -266.5 -110t-110.5 -269zM1006 0v135q-76 -79 -169.5 -119.5t-199.5 -40.5q-248 0 -412 165.5t-164 414.5q0 116 41 220t117 183q83 87 181.5 128.5
t224.5 41.5q113 0 208 -40t173 -121v133h200v-1100h-200zM852 1241h-120l-285 348h201z" />
    <glyph glyph-name="aacute" unicode="&#xe1;" horiz-adv-x="1319" 
d="M266 557q0 -167 110.5 -280t270.5 -113q146 0 257.5 113.5t111.5 265.5q0 162 -110.5 277.5t-262.5 115.5q-156 0 -266.5 -110t-110.5 -269zM1006 0v135q-76 -79 -169.5 -119.5t-199.5 -40.5q-248 0 -412 165.5t-164 414.5q0 116 41 220t117 183q83 87 181.5 128.5
t224.5 41.5q113 0 208 -40t173 -121v133h200v-1100h-200zM566 1241l204 348h201l-285 -348h-120z" />
    <glyph glyph-name="acircumflex" unicode="&#xe2;" horiz-adv-x="1319" 
d="M266 557q0 -167 110.5 -280t270.5 -113q146 0 257.5 113.5t111.5 265.5q0 162 -110.5 277.5t-262.5 115.5q-156 0 -266.5 -110t-110.5 -269zM1006 0v135q-76 -79 -169.5 -119.5t-199.5 -40.5q-248 0 -412 165.5t-164 414.5q0 116 41 220t117 183q83 87 181.5 128.5
t224.5 41.5q113 0 208 -40t173 -121v133h200v-1100h-200zM414 1241l197 348h196l197 -348h-123l-172 229l-174 -229h-121z" />
    <glyph glyph-name="atilde" unicode="&#xe3;" horiz-adv-x="1319" 
d="M266 557q0 -167 110.5 -280t270.5 -113q146 0 257.5 113.5t111.5 265.5q0 162 -110.5 277.5t-262.5 115.5q-156 0 -266.5 -110t-110.5 -269zM1006 0v135q-76 -79 -169.5 -119.5t-199.5 -40.5q-248 0 -412 165.5t-164 414.5q0 116 41 220t117 183q83 87 181.5 128.5
t224.5 41.5q113 0 208 -40t173 -121v133h200v-1100h-200zM1002 1518q-20 -101 -70.5 -154t-126.5 -53q-14 0 -30.5 2.5t-34.5 7.5l-97 27q-13 4 -25.5 6t-23.5 2q-31 0 -53.5 -17.5t-36.5 -52.5h-88q18 100 68 153.5t125 53.5q17 0 32 -2t27 -6l99 -29q15 -4 28 -6t25 -2
q33 0 56.5 17t37.5 53h88z" />
    <glyph glyph-name="adieresis" unicode="&#xe4;" horiz-adv-x="1319" 
d="M266 557q0 -167 110.5 -280t270.5 -113q146 0 257.5 113.5t111.5 265.5q0 162 -110.5 277.5t-262.5 115.5q-156 0 -266.5 -110t-110.5 -269zM1006 0v135q-76 -79 -169.5 -119.5t-199.5 -40.5q-248 0 -412 165.5t-164 414.5q0 116 41 220t117 183q83 87 181.5 128.5
t224.5 41.5q113 0 208 -40t173 -121v133h200v-1100h-200zM795 1300v209h184v-209h-184zM439 1300v209h184v-209h-184z" />
    <glyph glyph-name="aring" unicode="&#xe5;" horiz-adv-x="1319" 
d="M596 1421q0 -49 35 -83.5t84 -34.5t84 34.5t35 83.5q0 48 -35.5 83.5t-83.5 35.5t-83.5 -35t-35.5 -84zM479 1417q0 98 68 166t166 68q96 0 164.5 -68.5t68.5 -165.5q0 -96 -68 -163.5t-165 -67.5q-98 0 -166 67t-68 164zM266 557q0 -167 110.5 -280t270.5 -113
q146 0 257.5 113.5t111.5 265.5q0 162 -110.5 277.5t-262.5 115.5q-156 0 -266.5 -110t-110.5 -269zM1006 0v135q-76 -79 -169.5 -119.5t-199.5 -40.5q-248 0 -412 165.5t-164 414.5q0 116 41 220t117 183q83 87 181.5 128.5t224.5 41.5q113 0 208 -40t173 -121v133h200
v-1100h-200z" />
    <glyph glyph-name="ae" unicode="&#xe6;" horiz-adv-x="2191" 
d="M1921 655q-37 136 -128 210.5t-218 74.5q-130 0 -225.5 -76.5t-130.5 -208.5h702zM266 557q0 -167 110.5 -279t270.5 -112q147 0 258 112.5t111 264.5q0 163 -111 280t-262 117q-155 0 -266 -112t-111 -271zM1184 0h-178v135q-78 -80 -171.5 -122t-197.5 -42
q-248 0 -412 167t-164 417q0 116 41 220t117 183q84 89 183.5 132t222.5 43q110 0 205.5 -41.5t177.5 -124.5v133h176v-125q86 80 181.5 119t207.5 39q138 0 260.5 -67.5t204.5 -188.5q48 -75 71 -164.5t23 -204.5v-31h-924q25 -139 124 -225t235 -86q98 0 179.5 48
t129.5 134h221q-76 -183 -212 -280t-316 -97q-115 0 -210.5 38t-174.5 114v-123z" />
    <glyph glyph-name="ccedilla" unicode="&#xe7;" horiz-adv-x="1241" 
d="M1161 375q-69 -199 -205 -301.5t-331 -102.5q-123 0 -223 42.5t-181 127.5q-77 81 -120.5 188.5t-43.5 219.5q0 115 39.5 215.5t116.5 183.5q85 91 191 138t227 47q189 0 328 -104.5t202 -293.5h-217q-52 101 -134 151t-196 50q-147 0 -249.5 -111t-102.5 -274
q0 -165 104 -275t259 -110q104 0 188 54.5t131 154.5h217zM365 -426v100q79 -18 143 -28.5t103 -10.5q60 0 90.5 20.5t30.5 61.5q0 44 -32.5 65t-101.5 21q-20 0 -31 -0.5t-22 -0.5v198h76v-102h29q109 0 166 -46t57 -135q0 -91 -64 -139.5t-186 -48.5q-50 0 -115.5 11.5
t-142.5 33.5z" />
    <glyph glyph-name="egrave" unicode="&#xe8;" horiz-adv-x="1245" 
d="M973 655q-37 136 -128 210.5t-218 74.5q-130 0 -225.5 -76.5t-131.5 -208.5h703zM264 477q25 -138 124.5 -223.5t236.5 -85.5q98 0 178.5 47t128.5 133h223q-76 -183 -212.5 -280t-317.5 -97q-122 0 -223 43t-183 129q-77 81 -120.5 188.5t-43.5 219.5q0 116 39.5 217
t116.5 184q82 90 185 135.5t225 45.5q145 0 269.5 -67.5t205.5 -188.5q48 -75 71 -164.5t23 -204.5v-31h-926zM776 1241h-120l-285 348h201z" />
    <glyph glyph-name="eacute" unicode="&#xe9;" horiz-adv-x="1245" 
d="M973 655q-37 136 -128 210.5t-218 74.5q-130 0 -225.5 -76.5t-131.5 -208.5h703zM264 477q25 -138 124.5 -223.5t236.5 -85.5q98 0 178.5 47t128.5 133h223q-76 -183 -212.5 -280t-317.5 -97q-122 0 -223 43t-183 129q-77 81 -120.5 188.5t-43.5 219.5q0 116 39.5 217
t116.5 184q82 90 185 135.5t225 45.5q145 0 269.5 -67.5t205.5 -188.5q48 -75 71 -164.5t23 -204.5v-31h-926zM490 1241l204 348h201l-285 -348h-120z" />
    <glyph glyph-name="ecircumflex" unicode="&#xea;" horiz-adv-x="1245" 
d="M973 655q-37 136 -128 210.5t-218 74.5q-130 0 -225.5 -76.5t-131.5 -208.5h703zM264 477q25 -138 124.5 -223.5t236.5 -85.5q98 0 178.5 47t128.5 133h223q-76 -183 -212.5 -280t-317.5 -97q-122 0 -223 43t-183 129q-77 81 -120.5 188.5t-43.5 219.5q0 116 39.5 217
t116.5 184q82 90 185 135.5t225 45.5q145 0 269.5 -67.5t205.5 -188.5q48 -75 71 -164.5t23 -204.5v-31h-926zM338 1241l197 348h196l197 -348h-123l-172 229l-174 -229h-121z" />
    <glyph glyph-name="edieresis" unicode="&#xeb;" horiz-adv-x="1245" 
d="M973 655q-37 136 -128 210.5t-218 74.5q-130 0 -225.5 -76.5t-131.5 -208.5h703zM264 477q25 -138 124.5 -223.5t236.5 -85.5q98 0 178.5 47t128.5 133h223q-76 -183 -212.5 -280t-317.5 -97q-122 0 -223 43t-183 129q-77 81 -120.5 188.5t-43.5 219.5q0 116 39.5 217
t116.5 184q82 90 185 135.5t225 45.5q145 0 269.5 -67.5t205.5 -188.5q48 -75 71 -164.5t23 -204.5v-31h-926zM719 1300v209h184v-209h-184zM363 1300v209h184v-209h-184z" />
    <glyph glyph-name="igrave" unicode="&#xec;" horiz-adv-x="432" 
d="M117 0v1100h196v-1100h-196zM360 1241h-120l-285 348h201z" />
    <glyph glyph-name="iacute" unicode="&#xed;" horiz-adv-x="432" 
d="M117 0v1100h196v-1100h-196zM74 1241l204 348h201l-285 -348h-120z" />
    <glyph glyph-name="icircumflex" unicode="&#xee;" horiz-adv-x="432" 
d="M117 0v1100h196v-1100h-196zM-78 1241l197 348h196l197 -348h-123l-172 229l-174 -229h-121z" />
    <glyph glyph-name="idieresis" unicode="&#xef;" horiz-adv-x="432" 
d="M117 0v1100h196v-1100h-196zM303 1300v209h184v-209h-184zM-53 1300v209h184v-209h-184z" />
    <glyph glyph-name="eth" unicode="&#xf0;" horiz-adv-x="1241" 
d="M614 842q-133 0 -226 -100.5t-93 -247.5q0 -148 93 -247.5t230 -99.5q143 0 235.5 100t92.5 257q0 145 -94.5 241.5t-237.5 96.5zM872 930q-40 80 -85.5 141t-96.5 107l-291 -107l-45 115l221 84q-17 12 -42.5 26t-88.5 45l60 127q75 -32 136 -66t108 -69l292 109
l54 -117l-226 -86q134 -143 200.5 -309t66.5 -357q0 -272 -142 -437t-370 -165q-217 0 -364.5 152.5t-147.5 374.5q0 100 36 192t103 164q74 79 168.5 121.5t195.5 42.5q75 0 138.5 -21.5t119.5 -66.5z" />
    <glyph glyph-name="ntilde" unicode="&#xf1;" horiz-adv-x="1176" 
d="M315 0h-198v1100h190v-125q62 74 136.5 108.5t170.5 34.5q216 0 331.5 -127t115.5 -364v-627h-199v584q0 175 -65 259.5t-201 84.5q-148 0 -214.5 -99.5t-66.5 -328.5v-500zM893 1518q-20 -101 -70.5 -154t-126.5 -53q-14 0 -30.5 2.5t-34.5 7.5l-97 27q-13 4 -25.5 6
t-23.5 2q-31 0 -53.5 -17.5t-36.5 -52.5h-88q18 100 68 153.5t125 53.5q17 0 32 -2t27 -6l99 -29q15 -4 28 -6t25 -2q33 0 56.5 17t37.5 53h88z" />
    <glyph glyph-name="ograve" unicode="&#xf2;" horiz-adv-x="1241" 
d="M258 551q0 -165 104.5 -275t260.5 -110q153 0 256.5 110.5t103.5 276.5q0 167 -103.5 276t-258.5 109q-154 0 -258.5 -110.5t-104.5 -276.5zM53 549q0 117 39.5 218.5t116.5 182.5q83 89 187 137t216 48q120 0 222.5 -43t185.5 -127q81 -83 124.5 -187t43.5 -215
q0 -113 -40.5 -220t-113.5 -187q-84 -92 -188.5 -139.5t-222.5 -47.5q-121 0 -223 43.5t-183 128.5q-77 81 -120.5 188.5t-43.5 219.5zM768 1241h-120l-285 348h201z" />
    <glyph glyph-name="oacute" unicode="&#xf3;" horiz-adv-x="1241" 
d="M258 551q0 -165 104.5 -275t260.5 -110q153 0 256.5 110.5t103.5 276.5q0 167 -103.5 276t-258.5 109q-154 0 -258.5 -110.5t-104.5 -276.5zM53 549q0 117 39.5 218.5t116.5 182.5q83 89 187 137t216 48q120 0 222.5 -43t185.5 -127q81 -83 124.5 -187t43.5 -215
q0 -113 -40.5 -220t-113.5 -187q-84 -92 -188.5 -139.5t-222.5 -47.5q-121 0 -223 43.5t-183 128.5q-77 81 -120.5 188.5t-43.5 219.5zM482 1241l204 348h201l-285 -348h-120z" />
    <glyph glyph-name="ocircumflex" unicode="&#xf4;" horiz-adv-x="1241" 
d="M258 551q0 -165 104.5 -275t260.5 -110q153 0 256.5 110.5t103.5 276.5q0 167 -103.5 276t-258.5 109q-154 0 -258.5 -110.5t-104.5 -276.5zM53 549q0 117 39.5 218.5t116.5 182.5q83 89 187 137t216 48q120 0 222.5 -43t185.5 -127q81 -83 124.5 -187t43.5 -215
q0 -113 -40.5 -220t-113.5 -187q-84 -92 -188.5 -139.5t-222.5 -47.5q-121 0 -223 43.5t-183 128.5q-77 81 -120.5 188.5t-43.5 219.5zM330 1241l197 348h196l197 -348h-123l-172 229l-174 -229h-121z" />
    <glyph glyph-name="otilde" unicode="&#xf5;" horiz-adv-x="1241" 
d="M258 551q0 -165 104.5 -275t260.5 -110q153 0 256.5 110.5t103.5 276.5q0 167 -103.5 276t-258.5 109q-154 0 -258.5 -110.5t-104.5 -276.5zM53 549q0 117 39.5 218.5t116.5 182.5q83 89 187 137t216 48q120 0 222.5 -43t185.5 -127q81 -83 124.5 -187t43.5 -215
q0 -113 -40.5 -220t-113.5 -187q-84 -92 -188.5 -139.5t-222.5 -47.5q-121 0 -223 43.5t-183 128.5q-77 81 -120.5 188.5t-43.5 219.5zM918 1518q-20 -101 -70.5 -154t-126.5 -53q-14 0 -30.5 2.5t-34.5 7.5l-97 27q-13 4 -25.5 6t-23.5 2q-31 0 -53.5 -17.5t-36.5 -52.5
h-88q18 100 68 153.5t125 53.5q17 0 32 -2t27 -6l99 -29q15 -4 28 -6t25 -2q33 0 56.5 17t37.5 53h88z" />
    <glyph glyph-name="odieresis" unicode="&#xf6;" horiz-adv-x="1241" 
d="M258 551q0 -165 104.5 -275t260.5 -110q153 0 256.5 110.5t103.5 276.5q0 167 -103.5 276t-258.5 109q-154 0 -258.5 -110.5t-104.5 -276.5zM53 549q0 117 39.5 218.5t116.5 182.5q83 89 187 137t216 48q120 0 222.5 -43t185.5 -127q81 -83 124.5 -187t43.5 -215
q0 -113 -40.5 -220t-113.5 -187q-84 -92 -188.5 -139.5t-222.5 -47.5q-121 0 -223 43.5t-183 128.5q-77 81 -120.5 188.5t-43.5 219.5zM711 1300v209h184v-209h-184zM355 1300v209h184v-209h-184z" />
    <glyph glyph-name="divide" unicode="&#xf7;" horiz-adv-x="1706" 
d="M854 367q51 0 88 -37t37 -88q0 -52 -36.5 -88.5t-88.5 -36.5q-53 0 -89 36t-36 89q0 51 37 88t88 37zM1452 680v-139h-1198v139h1198zM854 1106q51 0 88 -37.5t37 -89.5q0 -51 -36.5 -88t-88.5 -37t-88.5 36.5t-36.5 88.5t37 89.5t88 37.5z" />
    <glyph glyph-name="oslash" unicode="&#xf8;" horiz-adv-x="1241" 
d="M326 322l471 567q-46 24 -89.5 35.5t-84.5 11.5q-153 0 -258 -111.5t-105 -277.5q0 -59 16 -114.5t50 -110.5zM915 782l-471 -573q42 -24 84 -35.5t86 -11.5q165 0 268 110t103 287q0 58 -17.5 113.5t-52.5 109.5zM924 1040l161 197l125 -94l-166 -207
q73 -85 109.5 -178.5t36.5 -196.5q0 -113 -40.5 -220t-113.5 -187q-83 -93 -188.5 -140t-231.5 -47q-79 0 -154 22.5t-147 67.5l-161 -194l-121 106l162 197q-71 87 -105.5 181.5t-34.5 199.5q0 117 39.5 218.5t116.5 182.5q84 90 188 136t222 46q82 0 158.5 -22.5
t144.5 -67.5z" />
    <glyph glyph-name="ugrave" unicode="&#xf9;" horiz-adv-x="1157" 
d="M1034 0h-190v123q-59 -75 -132.5 -111.5t-164.5 -36.5q-208 0 -322 129t-114 363v633h198v-576q0 -178 63 -267t189 -89q78 0 139 36.5t97 104.5q22 42 31.5 100t9.5 187v504h196v-1100zM716 1241h-120l-285 348h201z" />
    <glyph glyph-name="uacute" unicode="&#xfa;" horiz-adv-x="1157" 
d="M1034 0h-190v123q-59 -75 -132.5 -111.5t-164.5 -36.5q-208 0 -322 129t-114 363v633h198v-576q0 -178 63 -267t189 -89q78 0 139 36.5t97 104.5q22 42 31.5 100t9.5 187v504h196v-1100zM430 1241l204 348h201l-285 -348h-120z" />
    <glyph glyph-name="ucircumflex" unicode="&#xfb;" horiz-adv-x="1157" 
d="M1034 0h-190v123q-59 -75 -132.5 -111.5t-164.5 -36.5q-208 0 -322 129t-114 363v633h198v-576q0 -178 63 -267t189 -89q78 0 139 36.5t97 104.5q22 42 31.5 100t9.5 187v504h196v-1100zM278 1241l197 348h196l197 -348h-123l-172 229l-174 -229h-121z" />
    <glyph glyph-name="udieresis" unicode="&#xfc;" horiz-adv-x="1157" 
d="M1034 0h-190v123q-59 -75 -132.5 -111.5t-164.5 -36.5q-208 0 -322 129t-114 363v633h198v-576q0 -178 63 -267t189 -89q78 0 139 36.5t97 104.5q22 42 31.5 100t9.5 187v504h196v-1100zM659 1300v209h184v-209h-184zM303 1300v209h184v-209h-184z" />
    <glyph glyph-name="yacute" unicode="&#xfd;" horiz-adv-x="1049" 
d="M6 1100h213l297 -819l322 819h213l-592 -1456h-209l153 387zM381 1241l204 348h201l-285 -348h-120z" />
    <glyph glyph-name="thorn" unicode="&#xfe;" horiz-adv-x="1319" 
d="M672 936q-146 0 -257.5 -113.5t-111.5 -265.5q0 -163 109.5 -278t261.5 -115q156 0 266.5 110t110.5 269q0 167 -110 280t-269 113zM309 133v-489h-198v1812h198l2 -491q74 78 168 118.5t201 40.5q117 0 218.5 -38.5t180.5 -112.5q83 -78 130.5 -189t47.5 -225
q0 -254 -160 -421t-405 -167q-112 0 -207.5 40.5t-175.5 121.5z" />
    <glyph glyph-name="ydieresis" unicode="&#xff;" horiz-adv-x="1049" 
d="M6 1100h213l297 -819l322 819h213l-592 -1456h-209l153 387zM610 1300v209h184v-209h-184zM254 1300v209h184v-209h-184z" />
    <glyph glyph-name="OE" unicode="&#x152;" horiz-adv-x="2179" 
d="M2048 0h-756v188q-103 -110 -229 -163.5t-285 -53.5q-158 0 -292.5 63t-241.5 187q-90 104 -136.5 234.5t-46.5 281.5q0 153 56 288.5t166 248.5q103 104 228.5 157.5t268.5 53.5q158 0 281.5 -52.5t230.5 -164.5v188h756v-194h-545v-435h545v-190h-545v-436h545v-201z
M274 735q0 -113 37.5 -214.5t106.5 -176.5q73 -78 168 -121t192 -43q219 0 366.5 160.5t147.5 398.5q0 100 -34.5 192.5t-102.5 172.5q-80 86 -173 128t-204 42q-99 0 -188 -39t-160 -113q-74 -78 -115 -179.5t-41 -207.5z" />
    <glyph glyph-name="oe" unicode="&#x153;" horiz-adv-x="2163" 
d="M1890 655q-37 135 -128 210t-218 75q-128 0 -224.5 -77t-131.5 -208h702zM260 549q0 -165 104.5 -275t260.5 -110q153 0 256.5 110.5t103.5 276.5q0 167 -103.5 278t-258.5 111q-153 0 -258 -112.5t-105 -278.5zM1081 211q-87 -119 -201.5 -179.5t-254.5 -60.5
q-124 0 -224.5 42.5t-181.5 127.5q-78 81 -121 187.5t-43 218.5q0 116 39.5 218t116.5 185q83 89 186.5 136t216.5 47q145 0 264.5 -63t202.5 -181q91 122 203.5 183t247.5 61q255 0 414 -173.5t159 -453.5v-29h-923q24 -141 122.5 -227t235.5 -86q99 0 180.5 47.5
t128.5 132.5h222q-80 -186 -212.5 -279.5t-316.5 -93.5q-151 0 -264 59t-197 181z" />
    <glyph glyph-name="Scaron" unicode="&#x160;" horiz-adv-x="973" 
d="M50 420h189q5 -113 67 -180.5t161 -67.5q109 0 174.5 67.5t65.5 180.5q0 99 -48 153t-201 101q-8 2 -27 7q-183 49 -265 161q-37 49 -55.5 104.5t-18.5 118.5q0 187 111 302.5t291 115.5q167 0 269.5 -103.5t113.5 -283.5h-197q-5 87 -58.5 140.5t-134.5 53.5
q-87 0 -141.5 -59.5t-54.5 -153.5q0 -33 10 -62t31 -54q43 -51 184 -88q65 -17 100 -29q144 -54 218.5 -157t74.5 -247q0 -211 -120 -340t-318 -129q-186 0 -302.5 123.5t-118.5 325.5zM192 1939h121l174 -227l172 227h123l-197 -348h-196z" />
    <glyph glyph-name="scaron" unicode="&#x161;" horiz-adv-x="797" 
d="M41 356h186q0 -87 48.5 -143.5t121.5 -56.5q69 0 113.5 42.5t44.5 108.5q0 58 -31.5 98t-101.5 68q-24 10 -68 26q-117 44 -149 70q-59 47 -87 106.5t-28 137.5q0 134 93.5 228t228.5 94q141 0 224 -82.5t91 -231.5h-190q-5 61 -40 95t-94 34q-53 0 -88.5 -36.5
t-35.5 -90.5q0 -92 160 -151q45 -17 71 -27q126 -51 179.5 -127t53.5 -203q0 -148 -100 -246t-252 -98q-153 0 -247 103t-103 282zM104 1589h121l174 -227l172 227h123l-197 -348h-196z" />
    <glyph glyph-name="Ydieresis" unicode="&#x178;" horiz-adv-x="1010" 
d="M608 524v-524h-211v537l-446 919h235l320 -700l319 700h234zM592 1650v209h184v-209h-184zM236 1650v209h184v-209h-184z" />
    <glyph glyph-name="florin" unicode="&#x192;" horiz-adv-x="1171" 
d="M616 -47q-17 -209 -106.5 -292t-296.5 -83q-10 0 -30.5 1t-30.5 1v182h41q113 0 157 41.5t53 163.5l66 752h-242v174h254l15 217q14 209 101 291t290 82q29 0 44 -0.5t29 -1.5l1 -178h-33q-118 0 -163 -40t-56 -169l-17 -201h262v-174h-272z" />
    <glyph glyph-name="circumflex" unicode="&#x2c6;" 
d="M217 1241l197 348h196l197 -348h-123l-172 229l-174 -229h-121z" />
    <glyph glyph-name="tilde" unicode="&#x2dc;" 
d="M805 1518q-20 -101 -70.5 -154t-126.5 -53q-14 0 -30.5 2.5t-34.5 7.5l-97 27q-13 4 -25.5 6t-23.5 2q-31 0 -53.5 -17.5t-36.5 -52.5h-88q18 100 68 153.5t125 53.5q17 0 32 -2t27 -6l99 -29q15 -4 28 -6t25 -2q33 0 56.5 17t37.5 53h88z" />
    <glyph glyph-name="endash" unicode="&#x2013;" 
d="M0 477v144h1024v-144h-1024z" />
    <glyph glyph-name="emdash" unicode="&#x2014;" horiz-adv-x="2048" 
d="M0 477v144h2048v-144h-2048z" />
    <glyph glyph-name="quoteleft" unicode="&#x2018;" horiz-adv-x="473" 
d="M338 991h-203v217q0 125 47 188.5t156 88.5v-133q-38 -11 -54 -34t-16 -67v-18h70v-242z" />
    <glyph glyph-name="quoteright" unicode="&#x2019;" horiz-adv-x="473" 
d="M135 1456h203v-217q0 -125 -47 -188t-156 -88v131q38 10 54 33t16 67v18h-70v244z" />
    <glyph glyph-name="quotesinglbase" unicode="&#x201a;" horiz-adv-x="473" 
d="M135 246h203v-217q0 -125 -47 -188.5t-156 -88.5v131q38 11 54 34t16 67v18h-70v244z" />
    <glyph glyph-name="quotedblleft" unicode="&#x201c;" horiz-adv-x="807" 
d="M338 991h-203v217q0 125 47 188.5t156 88.5v-133q-38 -11 -54 -34t-16 -67v-18h70v-242zM670 991h-203v217q0 125 47 188.5t156 88.5v-133q-38 -11 -54 -34t-16 -67v-18h70v-242z" />
    <glyph glyph-name="quotedblright" unicode="&#x201d;" horiz-adv-x="807" 
d="M467 1456h203v-217q0 -125 -47 -188t-156 -88v131q38 10 54 33t16 67v18h-70v244zM135 1456h203v-217q0 -125 -47 -188t-156 -88v131q38 10 54 33t16 67v18h-70v244z" />
    <glyph glyph-name="quotedblbase" unicode="&#x201e;" horiz-adv-x="807" 
d="M467 246h203v-217q0 -125 -47 -188.5t-156 -88.5v131q38 11 54 34t16 67v18h-70v244zM135 246h203v-217q0 -125 -47 -188.5t-156 -88.5v131q38 11 54 34t16 67v18h-70v244z" />
    <glyph glyph-name="dagger" unicode="&#x2020;" 
d="M414 -233v1122h-355v172h355v395h196v-395h355v-172h-355v-1122h-196z" />
    <glyph glyph-name="daggerdbl" unicode="&#x2021;" 
d="M414 -233v393h-355v172h355v557h-355v172h355v395h196v-395h355v-172h-355v-557h355v-172h-355v-393h-196z" />
    <glyph glyph-name="bullet" unicode="&#x2022;" horiz-adv-x="1208" 
d="M307 762q0 123 87 209t210 86q122 0 208.5 -86.5t86.5 -208.5t-87.5 -209.5t-209.5 -87.5q-123 0 -209 87t-86 210z" />
    <glyph glyph-name="ellipsis" unicode="&#x2026;" horiz-adv-x="2048" 
d="M442 0h-200v246h200v-246zM1124 0h-200v246h200v-246zM1808 0h-200v246h200v-246z" />
    <glyph glyph-name="perthousand" unicode="&#x2030;" horiz-adv-x="2654" 
d="M2015 330q0 -84 57 -141.5t140 -57.5t140.5 58t57.5 141q0 82 -57.5 139t-140.5 57t-140 -56.5t-57 -139.5zM1855 330q0 71 28 136.5t79 117.5q51 50 116.5 77t137.5 27t137.5 -27t116.5 -77q51 -51 77.5 -116.5t26.5 -137.5q0 -73 -26.5 -138t-77.5 -116t-116.5 -78
t-137.5 -27t-137.5 27t-116.5 78t-79 116.5t-28 137.5zM240 1126q0 -82 57.5 -139t140.5 -57t140 56.5t57 139.5t-57 140t-140 57t-140.5 -57t-57.5 -140zM82 1126q0 73 27 138.5t77 115.5q51 51 116.5 78t137.5 27q73 0 138.5 -27t115.5 -78q51 -50 78 -115.5t27 -138.5
t-27 -137.5t-78 -116.5q-50 -50 -115.5 -77t-138.5 -27q-72 0 -137.5 27t-116.5 77q-50 51 -77 116.5t-27 137.5zM1217 1485h141l-776 -1516h-146zM1155 330q0 -83 58 -141t141 -58q82 0 139 57.5t57 141.5q0 83 -56.5 139.5t-139.5 56.5q-84 0 -141.5 -57t-57.5 -139z
M997 330q0 72 27 137.5t78 116.5q50 50 115.5 77t138.5 27q72 0 137.5 -27t116.5 -77q50 -51 77 -116.5t27 -137.5q0 -73 -26.5 -138t-77.5 -116t-116.5 -78t-137.5 -27q-73 0 -138.5 27t-115.5 78q-51 50 -78 115.5t-27 138.5z" />
    <glyph glyph-name="guilsinglleft" unicode="&#x2039;" horiz-adv-x="678" 
d="M524 238h-149l-248 313l248 311h149l-241 -313z" />
    <glyph glyph-name="guilsinglright" unicode="&#x203a;" horiz-adv-x="678" 
d="M154 238l241 311l-241 313h149l248 -311l-248 -313h-149z" />
    <glyph glyph-name="trademark" unicode="&#x2122;" horiz-adv-x="1706" 
d="M963 1458l151 -385l141 385h150v-538h-98v444l-166 -444h-56l-174 444v-444h-98v538h150zM694 1458v-80h-172v-458h-108v458h-172v80h452z" />
    <glyph glyph-name="glyph139" horiz-adv-x="1706" 
d="M1313 1112l-187 -235h326v-136h-416l-205 -262h621v-135h-709l-249 -317l-105 84l184 233h-319v135h408l204 262h-612v136h702l252 317z" />
    <glyph glyph-name="glyph142" horiz-adv-x="1706" 
d="M915 559q50 -89 116.5 -133.5t150.5 -44.5q101 0 165 67.5t64 172.5q0 101 -59 168t-148 67q-81 0 -146.5 -66.5t-142.5 -230.5zM793 666q-49 88 -115.5 132t-151.5 44q-101 0 -165 -66.5t-64 -171.5q0 -101 59 -168t148 -67q81 0 146.5 66t142.5 231zM842 737
q68 138 147 203.5t176 65.5q133 0 227.5 -113t94.5 -279q0 -174 -83.5 -281.5t-217.5 -107.5q-95 0 -168.5 58.5t-153.5 199.5q-71 -136 -148.5 -199t-172.5 -63q-135 0 -228.5 112t-93.5 277q0 175 83.5 283t217.5 108q95 0 170 -61.5t150 -202.5z" />
    <glyph glyph-name="glyph144" horiz-adv-x="1706" 
d="M1446 162v-139h-1184v139h1184zM1444 1059l-936 -309l936 -306v-149l-1182 395v121l1182 395v-147z" />
    <glyph glyph-name="glyph145" horiz-adv-x="1706" 
d="M1446 162v-139h-1184v139h1184zM1446 811v-121l-1184 -395v149l938 306l-938 309v147z" />
    <glyph glyph-name="glyph148" horiz-adv-x="1059" 
d="M756 621q15 87 22.5 168.5t7.5 156.5q0 129 -36.5 194.5t-108.5 65.5q-55 0 -127 -58t-108 -58t-60 22t-24 53q0 62 72 111t173 49q180 0 287 -155t107 -418q0 -335 -144.5 -556t-357.5 -221q-152 0 -253.5 108t-101.5 271q0 198 110.5 326.5t272.5 128.5
q101 0 166 -45.5t103 -142.5zM707 494q0 116 -43.5 178.5t-122.5 62.5q-109 0 -179.5 -129t-70.5 -336q0 -116 43 -177.5t123 -61.5q109 0 179.5 130t70.5 333z" />
    <glyph glyph-name="glyph149" horiz-adv-x="1380" 
d="M55 1473h1258v-193h-959l672 -717l-694 -764h1007v-192h-1314v149l725 801l-695 739v177z" />
    <glyph glyph-name="glyph150" horiz-adv-x="1550" 
d="M156 1473h1237v-1866h-240v1661h-758v-1661h-239v1866z" />
    <glyph glyph-name="glyph151" horiz-adv-x="1206" 
d="M1159 913h-182l-105 -487q-15 -74 -22.5 -120t-7.5 -68q0 -58 23.5 -82.5t78.5 -24.5q17 0 40 2.5t60 7.5l-30 -141q-30 -8 -57.5 -12t-53.5 -4q-118 0 -178.5 51t-60.5 151q0 46 10.5 118t44.5 233l80 376h-326l-194 -913h-181l195 913h-41q-54 0 -84 -32t-39 -101h-160
q28 166 99.5 228.5t236.5 62.5h889z" />
    <glyph glyph-name="glyph152" horiz-adv-x="1067" 
d="M311 -262q106 0 120 688q2 108 3 165q12 515 107 737t297 222q80 0 130 -42t50 -107q0 -54 -32 -85.5t-87 -31.5q-42 0 -70 19t-40 54q-6 15 -10.5 51t-20.5 36q-107 0 -121 -619q-4 -193 -8 -303q-17 -479 -111.5 -686t-290.5 -207q-79 0 -129.5 41.5t-50.5 106.5
q0 56 34 87.5t95 31.5q33 0 57 -14.5t39 -42.5q10 -18 15 -59.5t24 -41.5z" />
    <glyph glyph-name="glyph155" horiz-adv-x="1565" 
d="M1487 178v-178h-600v178q177 97 276 263t99 368q0 240 -132 385t-348 145t-348.5 -145.5t-132.5 -384.5q0 -202 99.5 -368t277.5 -263v-178h-600v178h319q-158 139 -230.5 288t-72.5 333q0 318 191.5 515t496.5 197q303 0 495.5 -196.5t192.5 -505.5q0 -194 -71 -342
t-232 -289h320z" />
    <glyph glyph-name="glyph161" horiz-adv-x="1305" 
d="M1305 1661v-96h-115l-594 -1606h-66l-319 883l-125 -45l-25 80l283 98l256 -709l516 1395h189z" />
    <glyph glyph-name="glyph163" horiz-adv-x="1706" 
d="M1530 430q-105 -73 -199.5 -107t-189.5 -34t-285 67.5t-293 67.5q-82 0 -171.5 -36t-213.5 -122v156q108 73 204 109t183 36q115 0 305 -68.5t273 -68.5q88 0 177 35.5t210 120.5v-156zM1530 799q-105 -73 -199.5 -107.5t-189.5 -34.5t-285 68t-293 68q-83 0 -171.5 -36
t-213.5 -122v156q106 72 202 107.5t185 35.5q116 0 305.5 -67.5t272.5 -67.5q87 0 175 34.5t212 120.5v-155z" />
    <glyph glyph-name="glyph164" horiz-adv-x="1370" 
d="M1102 178l-418 1084l-418 -1084h836zM797 1473l579 -1473h-1382l579 1473h224z" />
    <glyph glyph-name="glyph179" horiz-adv-x="1012" 
d="M506 1409l-385 -817l385 -825l385 825zM506 1653l500 -1061l-500 -1069l-500 1069z" />
    <glyph glyph-name="glyph182" horiz-adv-x="342" 
d="M539 1485h143l-879 -1514h-145z" />
    <glyph glyph-name="glyph186" horiz-adv-x="991" 
d="M670 0v1100h196v-1100h-196zM362 0h-194v928h-131v172h123v33q0 169 94 254.5t281 85.5v-183h-17q-88 0 -125 -39.5t-37 -134.5v-16h179v-172h-173v-928zM866 1229h-196v227h196v-227z" />
    <glyph glyph-name="glyph187" horiz-adv-x="991" 
d="M362 0h-194v928h-133v172h125v33q0 169 94 254.5t281 85.5v-183h-17q-88 0 -125 -39.5t-37 -134.5v-16h179v-172h-173v-928zM670 0v1456h196v-1456h-196z" />
    <glyph glyph-name="glyph189" horiz-adv-x="586" 
d="M180 729q0 46 33 78.5t80 32.5q46 0 78 -32.5t32 -78.5q0 -47 -32 -80t-78 -33q-47 0 -80 33t-33 80z" />
    <glyph glyph-name="glyph204" horiz-adv-x="1618" 
d="M836 1216q-1 6 -1.5 14t-0.5 23q0 124 95 229.5t236 131.5q1 -10 1.5 -23t0.5 -39q0 -131 -103.5 -234.5t-203.5 -103.5h-8q-3 0 -7.5 1t-8.5 1zM1505 403q-114 -247 -205 -342.5t-204 -95.5q-50 0 -131.5 33t-122.5 33q-45 0 -131 -33t-127 -33q-64 0 -128.5 44
t-129.5 132q-102 140 -157.5 295.5t-55.5 300.5q0 219 125 356.5t323 137.5q68 0 155 -34t124 -34q34 0 121.5 35t152.5 35q110 0 198 -40t161 -124q-102 -65 -151.5 -145.5t-49.5 -182.5q0 -113 60 -200t173 -138z" />
    <glyph glyph-name="glyph209" horiz-adv-x="432" 
d="M117 0v1100h196v-1100h-196z" />
    <glyph glyph-name="glyph213" 
d="M221 1554h109q5 -72 49 -105.5t133 -33.5t133.5 34.5t48.5 104.5h109q-11 -144 -81 -211t-210 -67q-141 0 -210.5 67t-80.5 211z" />
    <glyph glyph-name="glyph214" 
d="M416 1294v222h192v-222h-192z" />
    <glyph glyph-name="glyph215" 
d="M377 1475q0 -57 39 -96.5t96 -39.5q56 0 95.5 39.5t39.5 96.5q0 55 -40 95t-95 40q-57 0 -96 -39.5t-39 -95.5zM260 1475q0 106 73 180t179 74t180 -74t74 -180t-74 -179t-180 -73t-179 73t-73 179z" />
    <glyph glyph-name="glyph217" 
d="M569 1241l166 348h176l-245 -348h-97zM311 1241l138 348h178l-219 -348h-97z" />
    <glyph glyph-name="glyph218" 
d="M608 0q-71 -63 -104 -116.5t-33 -104.5q0 -43 21 -60.5t75 -17.5h84v-143h-86q-113 0 -169 42t-56 126q0 66 43.5 130.5t142.5 143.5h82z" />
    <glyph glyph-name="glyph219" 
d="M217 1589h121l174 -227l172 227h123l-197 -348h-196z" />
    <glyph glyph-name="glyph220" horiz-adv-x="883" 
d="M840 0h-688v508l-152 -105v191l152 104v758h208v-625l240 168v-190l-240 -166v-442h480v-201z" />
    <glyph glyph-name="glyph221" horiz-adv-x="487" 
d="M145 0v567l-145 -100v188l145 101v700h197v-588l145 105v-189l-145 -102v-682h-197z" />
    <glyph glyph-name="glyph224" horiz-adv-x="973" 
d="M932 0h-893v207l637 1044h-596v205h840v-184l-660 -1071h672v-201zM192 1939h121l174 -227l172 227h123l-197 -348h-196z" />
    <glyph glyph-name="glyph225" horiz-adv-x="825" 
d="M780 0h-760v160l531 760h-467v180h666v-203l-496 -711h526v-186zM119 1589h121l174 -227l172 227h123l-197 -348h-196z" />
    <glyph glyph-name="glyph233" horiz-adv-x="1706" 
d="M1452 682v-141h-1198v141h1198z" />
    <glyph glyph-name="glyph241" horiz-adv-x="1569" 
d="M123 0v1456h717v-194h-508v-435h508v-190h-508v-637h-209zM1294 0h-198v1100h186v-127q49 73 112.5 108.5t147.5 36.5v-207q-133 -10 -190.5 -78.5t-57.5 -220.5v-612z" />
    <glyph glyph-name="glyph242" horiz-adv-x="1612" 
d="M643 735h901q-15 -341 -221 -552.5t-522 -211.5q-164 0 -302.5 63t-248.5 187q-93 103 -141 234.5t-48 281.5q0 153 58 290t170 247q106 106 237 158.5t291 52.5q221 0 387.5 -103.5t251.5 -294.5h-260q-72 93 -172 140t-223 47q-103 0 -196 -39t-165 -113
q-75 -77 -117 -179t-42 -208q0 -114 38 -215.5t109 -175.5q75 -78 173 -121t200 -43q166 0 293 88.5t209 261.5h-660v205zM516 1904h109q5 -72 49 -105.5t133 -33.5t133.5 34.5t48.5 104.5h109q-11 -144 -81 -211t-210 -67q-141 0 -210.5 67t-80.5 211z" />
    <glyph glyph-name="glyph243" horiz-adv-x="1319" 
d="M133 -88h211q46 -77 120.5 -117.5t170.5 -40.5q167 0 269 100.5t102 266.5v14q-76 -79 -169.5 -119.5t-199.5 -40.5q-248 0 -412 165.5t-164 414.5q0 116 41 220t117 183q83 87 181.5 128.5t224.5 41.5q112 0 207.5 -40t175.5 -121v133h198v-918q0 -287 -149 -449.5
t-410 -162.5q-189 0 -323 89.5t-191 252.5zM266 557q0 -167 110.5 -280t270.5 -113q146 0 257.5 113.5t111.5 265.5q0 162 -110.5 277.5t-262.5 115.5q-156 0 -266.5 -110t-110.5 -269zM368 1554h109q5 -72 49 -105.5t133 -33.5t133.5 34.5t48.5 104.5h109
q-11 -144 -81 -211t-210 -67q-141 0 -210.5 67t-80.5 211z" />
    <glyph glyph-name="glyph244" horiz-adv-x="465" 
d="M338 0h-211v1456h211v-1456zM137 1644v222h192v-222h-192z" />
    <glyph glyph-name="glyph245" horiz-adv-x="973" 
d="M50 420h189q5 -113 67 -180.5t161 -67.5q109 0 174.5 67.5t65.5 180.5q0 99 -48 153t-201 101q-8 2 -27 7q-183 49 -265 161q-37 49 -55.5 104.5t-18.5 118.5q0 187 111 302.5t291 115.5q167 0 269.5 -103.5t113.5 -283.5h-197q-5 87 -58.5 140.5t-134.5 53.5
q-87 0 -141.5 -59.5t-54.5 -153.5q0 -33 10 -62t31 -54q43 -51 184 -88q65 -17 100 -29q144 -54 218.5 -157t74.5 -247q0 -211 -120 -340t-318 -129q-186 0 -302.5 123.5t-118.5 325.5zM231 -426v100q79 -18 143 -28.5t103 -10.5q60 0 90.5 20.5t30.5 61.5q0 44 -32.5 65
t-101.5 21q-20 0 -31 -0.5t-22 -0.5v198h76v-102h29q109 0 166 -46t57 -135q0 -91 -64 -139.5t-186 -48.5q-50 0 -115.5 11.5t-142.5 33.5z" />
    <glyph glyph-name="glyph246" horiz-adv-x="797" 
d="M41 356h186q0 -87 48.5 -143.5t121.5 -56.5q69 0 113.5 42.5t44.5 108.5q0 58 -31.5 98t-101.5 68q-24 10 -68 26q-117 44 -149 70q-59 47 -87 106.5t-28 137.5q0 134 93.5 228t228.5 94q141 0 224 -82.5t91 -231.5h-190q-5 61 -40 95t-94 34q-53 0 -88.5 -36.5
t-35.5 -90.5q0 -92 160 -151q45 -17 71 -27q126 -51 179.5 -127t53.5 -203q0 -148 -100 -246t-252 -98q-153 0 -247 103t-103 282zM143 -426v100q79 -18 143 -28.5t103 -10.5q60 0 90.5 20.5t30.5 61.5q0 44 -32.5 65t-101.5 21q-20 0 -31 -0.5t-22 -0.5v198h76v-102h29
q109 0 166 -46t57 -135q0 -91 -64 -139.5t-186 -48.5q-50 0 -115.5 11.5t-142.5 33.5z" />
    <glyph glyph-name="glyph247" horiz-adv-x="1540" 
d="M1452 365q-95 -191 -262.5 -292.5t-388.5 -101.5q-164 0 -302.5 63t-248.5 187q-93 103 -141 234.5t-48 281.5q0 152 58 288.5t170 248.5q106 104 235.5 157.5t278.5 53.5q224 0 393.5 -106t255.5 -300h-248q-70 97 -172 146t-231 49q-103 0 -196 -39t-165 -113
q-75 -77 -117 -179t-42 -208q0 -114 38 -215.5t109 -175.5q75 -78 173 -121t200 -43q125 0 225.5 47.5t165.5 137.5h260zM674 1591l204 348h201l-285 -348h-120z" />
    <glyph glyph-name="glyph248" horiz-adv-x="1241" 
d="M1161 375q-69 -199 -205 -301.5t-331 -102.5q-123 0 -223 42.5t-181 127.5q-77 81 -120.5 188.5t-43.5 219.5q0 115 39.5 215.5t116.5 183.5q85 91 191 138t227 47q189 0 328 -104.5t202 -293.5h-217q-52 101 -134 151t-196 50q-147 0 -249.5 -111t-102.5 -274
q0 -165 104 -275t259 -110q104 0 188 54.5t131 154.5h217zM494 1241l204 348h201l-285 -348h-120z" />
    <glyph glyph-name="glyph249" horiz-adv-x="1540" 
d="M1452 365q-95 -191 -262.5 -292.5t-388.5 -101.5q-164 0 -302.5 63t-248.5 187q-93 103 -141 234.5t-48 281.5q0 152 58 288.5t170 248.5q106 104 235.5 157.5t278.5 53.5q224 0 393.5 -106t255.5 -300h-248q-70 97 -172 146t-231 49q-103 0 -196 -39t-165 -113
q-75 -77 -117 -179t-42 -208q0 -114 38 -215.5t109 -175.5q75 -78 173 -121t200 -43q125 0 225.5 47.5t165.5 137.5h260zM522 1939h121l174 -227l172 227h123l-197 -348h-196z" />
    <glyph glyph-name="glyph250" horiz-adv-x="1241" 
d="M1161 375q-69 -199 -205 -301.5t-331 -102.5q-123 0 -223 42.5t-181 127.5q-77 81 -120.5 188.5t-43.5 219.5q0 115 39.5 215.5t116.5 183.5q85 91 191 138t227 47q189 0 328 -104.5t202 -293.5h-217q-52 101 -134 151t-196 50q-147 0 -249.5 -111t-102.5 -274
q0 -165 104 -275t259 -110q104 0 188 54.5t131 154.5h217zM342 1589h121l174 -227l172 227h123l-197 -348h-196z" />
    <glyph glyph-name="glyph251" horiz-adv-x="1341" 
d="M266 557q0 -168 111 -280.5t270 -112.5q145 0 257 113.5t112 265.5q0 162 -111 277.5t-262 115.5q-155 0 -266 -110t-111 -269zM1006 0v135q-74 -78 -168 -119t-201 -41q-248 0 -412 166t-164 414q0 242 161 407.5t403 165.5q111 0 206 -40t177 -121v233h-293v119h293
v137h198v-137h150v-119h-150v-1200h-200z" />
    </font>
</defs>
</svg>
