<svg id="Layer_1" data-name="Layer 1" xmlns="http://www.w3.org/2000/svg" viewBox="0 0 126.49 105.31"><defs><style>.cls-1{stroke:#000;stroke-miterlimit:10;stroke-width:2px;}</style></defs><title>audit</title><path class="cls-1" d="M52,84.35H22.79a2.51,2.51,0,1,0,0,5H49.86a5.67,5.67,0,0,0,5.33,3.73H71.25a5.67,5.67,0,0,0,5.33-3.73h27.1a2.51,2.51,0,0,0,0-5H74.45a2.5,2.5,0,0,0-2.51,2.51v.56a.67.67,0,0,1-.66.66H55.22a.67.67,0,0,1-.66-.66v-.56A2.54,2.54,0,0,0,52,84.35Zm0,0"/><path class="cls-1" d="M123,84.35h-6.6V26.42a2.51,2.51,0,0,0-5,0V86.87a2.52,2.52,0,0,0,2.54,2.51h6.58v3.45A6.46,6.46,0,0,1,114,99.29H12.48A6.46,6.46,0,0,1,6,92.83V89.38h6.58a2.5,2.5,0,0,0,2.51-2.51V26.42a2.51,2.51,0,0,0-5,0V84.35H3.51A2.5,2.5,0,0,0,1,86.87v6a11.5,11.5,0,0,0,11.48,11.48H114a11.5,11.5,0,0,0,11.48-11.48v-6A2.5,2.5,0,0,0,123,84.35Zm0,0"/><path class="cls-1" d="M73,18.68,58.52,33.1,53.47,28a2.51,2.51,0,0,0-3.56,3.56l6.81,6.86a2.54,2.54,0,0,0,1.78.74,2.59,2.59,0,0,0,1.78-.74l16.3-16.2A2.51,2.51,0,1,0,73,18.68Zm0,0"/><path class="cls-1" d="M94.28,1H32.21A9.23,9.23,0,0,0,23,10.22V46.89a9.24,9.24,0,0,0,9.22,9.22h2.62v11a3.72,3.72,0,0,0,3.73,3.71,3.64,3.64,0,0,0,2.79-1.29L53,56.11H94.28a9.24,9.24,0,0,0,9.22-9.22V10.22A9.23,9.23,0,0,0,94.28,1Zm4.19,45.89a4.19,4.19,0,0,1-4.19,4.19H51.82a2.49,2.49,0,0,0-1.9.86L39.83,63.6v-10a2.5,2.5,0,0,0-2.51-2.51H32.19A4.2,4.2,0,0,1,28,46.89V10.22A4.2,4.2,0,0,1,32.19,6H94.26a4.2,4.2,0,0,1,4.19,4.19V46.89Zm0,0"/></svg>