<svg id="Layer_1" data-name="Layer 1" xmlns="http://www.w3.org/2000/svg" viewBox="0 0 78.65 104.92"><defs><style>.cls-1{fill:none;stroke:#000;stroke-linecap:round;stroke-linejoin:round;stroke-width:7px;}</style></defs><title>face</title><path class="cls-1" d="M60.23,37.21c0,12.17-9.68,26.1-21.12,26.1S18.8,49.38,18.8,37.21s9.28-22,20.72-22S60.23,25,60.23,37.21Z"/><path class="cls-1" d="M24.77,74.81s15.84,16.15,30.57,0c2.36,0,17.17,3.28,19.8,20.52,0,0-32.09,13.71-70,0C4.87,95.32,6.49,77.65,24.77,74.81Z"/><path class="cls-1" d="M3.5,14.17V7.5a4,4,0,0,1,4-4h6.17"/><path class="cls-1" d="M15,66.17H7.5a4,4,0,0,1-4-4v-7"/><path class="cls-1" d="M73.5,55.5v6.67a4,4,0,0,1-4,4H61.83"/><path class="cls-1" d="M62.83,3.5H69.5a4,4,0,0,1,4,4v6.67"/></svg>