<svg id="Layer_1" data-name="Layer 1" xmlns="http://www.w3.org/2000/svg" viewBox="0 0 479.33 479.33"><defs><style>.cls-1,.cls-2,.cls-3,.cls-4{fill:#d2e4f7;}.cls-1{opacity:0.1;}.cls-2{opacity:0.4;}.cls-3{opacity:0.7;}.cls-10,.cls-5,.cls-7{fill:#fff;}.cls-6{fill:#5c82ee;}.cls-10,.cls-11,.cls-7,.cls-8{stroke:#5c82ee;stroke-width:5px;}.cls-7,.cls-8{stroke-miterlimit:10;}.cls-11,.cls-8{fill:none;}.cls-9{fill:#94c2ff;}.cls-10,.cls-11{stroke-linecap:round;stroke-linejoin:round;}</style></defs><title>item3</title><circle class="cls-1" cx="239.67" cy="239.67" r="239.67"/><circle class="cls-2" cx="239.67" cy="239.67" r="201.17"/><circle class="cls-3" cx="239.67" cy="239.67" r="162.67"/><circle class="cls-4" cx="239.67" cy="239.67" r="124.17"/><path class="cls-5" d="M221,404.43a4.56,4.56,0,0,1-3.63-7.59,4.7,4.7,0,0,1,3.4-1.48q1.52,0,3,0h1.71c.46-2.42.94-4.82,1.42-7.22l1-4.75H183.18a8.77,8.77,0,0,1-8.68-6.09,8.91,8.91,0,0,1-.42-3q0-21.33,0-42.67v-14.3q0-13.4,0-26.79a8.66,8.66,0,0,1,5.26-8.43,9.08,9.08,0,0,1,2.55-.66,10.19,10.19,0,0,1,1.44-.09H304.87a10.21,10.21,0,0,1,1.44.08,9.1,9.1,0,0,1,2.56.66,8.66,8.66,0,0,1,5.26,8.43v41.1q0,21.33,0,42.67a8.89,8.89,0,0,1-.42,3,8.58,8.58,0,0,1-6,5.74,6.36,6.36,0,0,1-1.84.31h-.22c-.21,0-.42,0-.64,0h-18.2a3.87,3.87,0,0,1-.5,0,3.72,3.72,0,0,1-.49,0h-25.6l.1.5q.29,1.41.57,2.82l.25,1.26c.49,2.46,1,4.93,1.46,7.39h1.71q1.52,0,3,0a4.7,4.7,0,0,1,3.4,1.48,4.56,4.56,0,0,1-3.63,7.59Z" transform="translate(0 3.27)"/><path class="cls-6" d="M256.61,283.84h48.27a7.77,7.77,0,0,1,1.09.06,6.8,6.8,0,0,1,1.87.46,6.2,6.2,0,0,1,3.8,6.15v1.7q0,3.7,0,7.4t0,7.4v0q0,3.64,0,7.28t0,7.39q0,3.69,0,7.39,0,22.59,0,45.17a6.58,6.58,0,0,1-.27,2.16,6.14,6.14,0,0,1-4.33,4.18,3.94,3.94,0,0,1-1.16.21h-.23c-.2,0-.4,0-.61,0h-18.4a1.39,1.39,0,0,1-.29,0,1.13,1.13,0,0,1-.27,0H257.28a8.11,8.11,0,0,0,.07.86c.36,1.82.74,3.63,1.11,5.44.64,3.22,1.29,6.44,1.9,9.66.13.67.38,1,1,1h.19l.19,0q1.28,0,2.56,0,1.49,0,3,0a2,2,0,0,1,2.12,2.21,2.05,2.05,0,0,1-2.29,1.87H221a2.05,2.05,0,0,1-2.29-1.87,2,2,0,0,1,2.12-2.21q1.49,0,3,0,1.28,0,2.56,0l.19,0h.19c.65,0,.91-.35,1-1,.61-3.23,1.26-6.44,1.9-9.66.36-1.82.74-3.63,1.11-5.44a8.11,8.11,0,0,0,.07-.86H183.18a6.24,6.24,0,0,1-6.33-4.43,6.58,6.58,0,0,1-.27-2.16q0-22.59,0-45.17,0-19.29,0-38.59a6.2,6.2,0,0,1,3.8-6.15,6.8,6.8,0,0,1,1.87-.46,7.77,7.77,0,0,1,1.09-.06h73.29m0-5H183.32a12.67,12.67,0,0,0-1.79.11,11.41,11.41,0,0,0-3.24.86,11.15,11.15,0,0,0-6.72,10.71q0,13.33,0,26.65v15.67q0,20.72,0,41.44a11.29,11.29,0,0,0,11.6,11.58H224.9l-.06.32-.27,1.37c-.35,1.73-.7,3.49-1,5.26l-2.76,0a7.17,7.17,0,0,0-5.19,2.29A7.06,7.06,0,0,0,221,406.93h46.1a7.06,7.06,0,0,0,5.47-11.78,7.17,7.17,0,0,0-5.19-2.29l-2.76,0c-.35-1.76-.7-3.52-1-5.24l-.28-1.39-.06-.32h22.39a6.17,6.17,0,0,0,.63,0,6.3,6.3,0,0,0,.64,0H305c.34,0,.62,0,.82,0h.06a8.84,8.84,0,0,0,2.52-.41,11.24,11.24,0,0,0,8.21-11.13q0-20.72,0-41.44V299.62q0-3.7,0-7.39v-1.7a11.15,11.15,0,0,0-6.72-10.7,11.4,11.4,0,0,0-3.24-.86,12.67,12.67,0,0,0-1.79-.11H256.61Z" transform="translate(0 3.27)"/><path class="cls-6" d="M302.44,293.13v3q0,1.9,0,3.8V304q0,2.52,0,5v6.45c0,.19,0,.37,0,.55v.4c0,.38,0,.75,0,1.1v.23h0v53.7H185.72c0-25.55,0-51.11,0-76.06v-2.3H302.44m2.26-5H183.38c-1.87,0-2.64,1-2.64,3.35q0,1.8,0,3.6c0,.12,0,.25,0,.39q0,39.81,0,79.63a4,4,0,0,0,0,.69,1,1,0,0,0,.17.44.64.64,0,0,0,.33.23,1.63,1.63,0,0,0,.5.06h0c2.77,0,5.54,0,8.31,0H306.25a5.37,5.37,0,0,0,.7,0l.07,0a.63.63,0,0,0,.36-.31,1.13,1.13,0,0,0,0-.14v-.09c0-.05,0-.11,0-.18s0-.1,0-.15,0-.13,0-.2,0-.26,0-.42q0-26.76,0-53.52v-3.93c0-.33,0-.67,0-1s0-.75,0-1.16v-2.54h0c0-1.26,0-2.49,0-3.74q0-2.86,0-5.72,0-1.69,0-3.39c0-2.24,0-4.48,0-6.72q0-.81,0-1.62a4.4,4.4,0,0,0-.71-2.73,2.4,2.4,0,0,0-2-.75Z" transform="translate(0 3.27)"/><rect class="cls-7" x="80.69" y="321.08" width="114.48" height="78.41" rx="3" ry="3"/><path class="cls-7" d="M206.89,392.51H69s0,3.45,0,3.75c.49,4.87,5.28,7.61,10,8h118c4.69-.34,9.47-3.08,10-8C206.94,396,206.91,392.51,206.89,392.51Z" transform="translate(0 3.27)"/><rect class="cls-7" x="293.17" y="338.48" width="49.46" height="68.08" rx="3" ry="3"/><line class="cls-7" x1="295" y1="393.54" x2="340.79" y2="393.54"/><line class="cls-8" x1="317.89" y1="401.65" x2="317.89" y2="397.94"/><rect class="cls-7" x="381.96" y="357.72" width="29.31" height="49.76" rx="3" ry="3"/><circle class="cls-6" cx="397.02" cy="397.81" r="2.95"/><path class="cls-9" d="M101.63,162.32a41,41,0,0,1-.5-6.59c.18-28.39,26.23-42.59,53.06-44.49,2.43-.17,4.87-.27,7.31-.3-.09,0,5.3-14.15,5.78-15a56.24,56.24,0,0,1,25.93-24.28c13-5.73,27.22-8.45,41.46-6.28,16.93,2.57,34.13,11.91,43.15,26.08.6.94,11.27-.19,12.79-.19a88.76,88.76,0,0,1,11.64.53c12.23,1.62,24.43,6.89,32.07,16.36,5.16,6.39,10.35,15.27,9.84,23.66,0-.33,9.83.87,10.38,1A62.13,62.13,0,0,1,375.85,140c9.9,5.79,17.14,16.33,17.62,27.6.51,12.19-7.49,23.34-17.87,29.9-13.35,8.44-32,5.94-47.67,5.93-18.13,0-36.26.13-54.39.16H267l-62.1,0c-10.51,0-21,.52-31.53.74-10.18.21-20.77.63-30.84-1.13C121.81,199.58,104.72,182.05,101.63,162.32Z" transform="translate(0 3.27)"/><path class="cls-6" d="M224.78,64.59a62.62,62.62,0,0,1,9.9.78c16.93,2.71,34.13,12.52,43.15,27.43.18.29,1.22.39,2.64.39,3.43,0,9.08-.59,10.15-.59a84.45,84.45,0,0,1,11.64.56c12.23,1.7,24.43,7.25,32.07,17.2,5.16,6.72,10.35,16.05,9.84,24.88,0,0,.15-.06.4-.06,1.85,0,9.49,1,10,1.07a60.11,60.11,0,0,1,21.29,7.64c9.9,6.09,17.14,17.17,17.62,29,.51,12.82-7.49,24.54-17.87,31.44-8.37,5.56-18.83,6.6-29.33,6.6-6.25,0-12.5-.37-18.34-.37H325.5c-17.32,0-34.63.13-52,.17H267l-62.1,0c-10.51,0-21,.55-31.53.78-4,.09-8.13.21-12.23.21a103,103,0,0,1-18.6-1.4c-20.75-3.82-37.84-22.25-40.92-43a45.28,45.28,0,0,1-.5-6.93c.18-29.85,26.23-44.78,53.06-46.79,2.43-.18,4.87-.28,7.31-.32-.09,0,5.3-14.88,5.78-15.82C173,86.67,182,77.17,193.22,72a75.09,75.09,0,0,1,31.56-7.39m0-5a79.65,79.65,0,0,0-33.67,7.86c-11.71,5.44-21.74,15.3-28.25,27.74-.17.33-.5.95-3.36,8.83-.57,1.57-1.13,3.11-1.59,4.4-1.4.06-2.76.13-4.09.23-15.18,1.13-29.11,6.1-39.22,14-12,9.35-18.37,22.4-18.46,37.75a50.44,50.44,0,0,0,.55,7.7c3.45,23.18,22.36,43,45,47.19a105.71,105.71,0,0,0,19.51,1.48c3.3,0,6.61-.08,9.8-.15l2.54-.06c3.91-.09,7.87-.22,11.7-.34,6.48-.21,13.18-.43,19.73-.44l62.09,0h6.53q11.08,0,22.16-.08c9.76,0,19.86-.09,29.78-.09h2.43c2.78,0,5.63.09,8.66.18s6.42.19,9.69.19c10.33,0,22.23-.88,32.1-7.44,12.94-8.59,20.64-22.31,20.1-35.8-.53-13.14-8.19-25.81-20-33.08a64.66,64.66,0,0,0-23.07-8.31c-.31-.05-3.48-.48-6.41-.79-1.1-9-6.21-17.38-10.69-23.21-7.87-10.25-20.42-17-35.35-19.11a88.84,88.84,0,0,0-12.33-.6h0c-.56,0-1.37.06-3,.19-2,.16-4.81.38-6.8.4C271.28,74,254.13,63.41,235.47,60.43a67.89,67.89,0,0,0-10.69-.84Z" transform="translate(0 3.27)"/><path class="cls-5" d="M232,160.68a1.84,1.84,0,0,0-2.6-2.6l-13.21,13.21v-43.6a1.82,1.82,0,0,0-1.83-1.83,1.84,1.84,0,0,0-1.85,1.83v43.6l-13.19-13.21a1.84,1.84,0,0,0-2.6,2.6L213.08,177a1.87,1.87,0,0,0,2.6,0Zm0,0" transform="translate(0 3.27)"/><path class="cls-5" d="M214.37,178.24a2.5,2.5,0,0,1-1.78-.73l-16.34-16.34a2.53,2.53,0,0,1,3.58-3.59l12,12V127.68a2.53,2.53,0,0,1,5.06,0v41.93l12-12a2.53,2.53,0,0,1,3.59,3.58h0l-16.34,16.34A2.59,2.59,0,0,1,214.37,178.24Zm-16.33-20a1.14,1.14,0,0,0-.81,2l16.33,16.33a1.16,1.16,0,0,0,1.63,0l16.33-16.33a1.15,1.15,0,1,0-1.62-1.63L216.7,171.77a.69.69,0,0,1-1.18-.49v-43.6a1.12,1.12,0,0,0-1.13-1.14,1.15,1.15,0,0,0-1.15,1.14v43.6a.69.69,0,0,1-1.18.49l-13.19-13.21A1.16,1.16,0,0,0,198,158.23Zm34,2.44h0Z" transform="translate(0 3.27)"/><path class="cls-5" d="M241.14,142.72a1.84,1.84,0,1,0,2.6,2.6L257,132.12v43.6a1.82,1.82,0,0,0,1.83,1.83,1.84,1.84,0,0,0,1.85-1.83v-43.6l13.19,13.21a1.84,1.84,0,0,0,2.6-2.6l-16.34-16.34a1.87,1.87,0,0,0-2.6,0Zm0,0" transform="translate(0 3.27)"/><path class="cls-5" d="M258.78,178.24a2.52,2.52,0,0,1-2.52-2.52V133.79l-12,12a2.53,2.53,0,0,1-3.59-3.58h0L257,125.89a2.56,2.56,0,0,1,3.58,0l16.34,16.34a2.53,2.53,0,0,1-3.58,3.59l-12-12v41.93A2.53,2.53,0,0,1,258.78,178.24ZM257,131.42a.68.68,0,0,1,.26.05.69.69,0,0,1,.43.64v43.6a1.12,1.12,0,0,0,1.13,1.14,1.15,1.15,0,0,0,1.15-1.14v-43.6a.69.69,0,0,1,1.18-.49l13.19,13.21a1.15,1.15,0,1,0,1.62-1.63l-16.33-16.33a1.17,1.17,0,0,0-1.63,0l-16.33,16.33a1.15,1.15,0,1,0,1.62,1.63l13.22-13.21A.69.69,0,0,1,257,131.42Z" transform="translate(0 3.27)"/><path class="cls-8" d="M143.06,213H111.14a10,10,0,0,0-10,10v92.27" transform="translate(0 3.27)"/><path class="cls-8" d="M357.15,213h31.93a10,10,0,0,1,10,10V353.53" transform="translate(0 3.27)"/><circle class="cls-6" cx="101.14" cy="252.39" r="7.78"/><circle class="cls-6" cx="101.14" cy="285.06" r="7.78"/><circle class="cls-6" cx="399.08" cy="264.43" r="7.78"/><circle class="cls-6" cx="399.97" cy="300.63" r="7.78"/><line class="cls-8" x1="237.45" y1="216.27" x2="237.45" y2="282.72"/><line class="cls-8" x1="327.82" y1="216.27" x2="327.82" y2="338.48"/><circle class="cls-6" cx="237.45" cy="247.46" r="7.78"/><circle class="cls-6" cx="327.82" cy="241.71" r="7.78"/><path class="cls-9" d="M162.54,363.41c-.15.68-.27,1.38-.46,2.05a9.38,9.38,0,0,1-8.95,6.69H121.48a7.63,7.63,0,0,1-7.26-4.07,7.55,7.55,0,0,1,6-11.07l.68-.07c.08-.57.13-1.13.23-1.68a9.37,9.37,0,0,1,11.62-7.35c.58.16.86.13,1.19-.45a11.22,11.22,0,0,1,11.84-5.36,11.35,11.35,0,0,1,9.11,9.63c.07.54-.09,1.24.19,1.6s1,.35,1.5.57a9.34,9.34,0,0,1,5.91,7.71,2.79,2.79,0,0,0,.11.38Z" transform="translate(0 3.27)"/><path class="cls-9" d="M268.7,336.22c-.15.68-.27,1.38-.46,2.05a9.38,9.38,0,0,1-8.95,6.69H227.64a7.63,7.63,0,0,1-7.26-4.07,7.55,7.55,0,0,1,6-11.07l.68-.07c.08-.57.13-1.13.23-1.68a9.37,9.37,0,0,1,11.62-7.35c.58.16.86.13,1.19-.45a11.22,11.22,0,0,1,11.84-5.36,11.35,11.35,0,0,1,9.11,9.63c.07.54-.09,1.24.19,1.6s1,.35,1.5.57a9.34,9.34,0,0,1,5.91,7.71,2.79,2.79,0,0,0,.11.38Z" transform="translate(0 3.27)"/><path class="cls-9" d="M330.2,366.39c-.08.34-.13.69-.23,1a4.69,4.69,0,0,1-4.47,3.34H309.67a3.81,3.81,0,0,1-3.63-2,3.77,3.77,0,0,1,3-5.54l.34,0c0-.28.06-.57.11-.84a4.68,4.68,0,0,1,5.81-3.67c.29.08.43.06.6-.23a5.61,5.61,0,0,1,5.92-2.68,5.68,5.68,0,0,1,4.55,4.82c0,.27,0,.62.09.8s.5.18.75.29a4.67,4.67,0,0,1,3,3.85,1.4,1.4,0,0,0,.05.19Z" transform="translate(0 3.27)"/><path class="cls-9" d="M403.9,377.13c0,.2-.08.41-.14.61a2.78,2.78,0,0,1-2.65,2h-9.37a2.26,2.26,0,0,1-2.15-1.21,2.23,2.23,0,0,1,1.76-3.28l.2,0c0-.17,0-.33.07-.5a2.77,2.77,0,0,1,3.44-2.18c.17,0,.25,0,.35-.13a3.32,3.32,0,0,1,3.51-1.59,3.36,3.36,0,0,1,2.7,2.85c0,.16,0,.37.06.47s.3.11.44.17a2.77,2.77,0,0,1,1.75,2.28.83.83,0,0,0,0,.11Z" transform="translate(0 3.27)"/><line class="cls-10" x1="80.69" y1="407.48" x2="41.25" y2="407.48"/><line class="cls-10" x1="424.04" y1="407.48" x2="405.21" y2="407.48"/><line class="cls-10" x1="368.17" y1="407.48" x2="349.34" y2="407.48"/><circle class="cls-11" cx="68.42" cy="127.24" r="7.02" transform="translate(-19.59 15.94) rotate(-9.26)"/><circle class="cls-11" cx="432" cy="288.09" r="7.02" transform="translate(-40.74 76.57) rotate(-9.26)"/><line class="cls-11" x1="102.62" y1="84.11" x2="102.62" y2="90.28"/><line class="cls-11" x1="102.62" y1="100.79" x2="102.62" y2="106.95"/><line class="cls-11" x1="114.05" y1="95.53" x2="107.88" y2="95.53"/><line class="cls-11" x1="97.37" y1="95.53" x2="91.2" y2="95.53"/><circle class="cls-11" cx="50.77" cy="236.1" r="7.02" transform="translate(-37.35 14.52) rotate(-9.26)"/><circle class="cls-11" cx="437.01" cy="189.12" r="7.02" transform="translate(-24.75 76.09) rotate(-9.26)"/><line class="cls-11" x1="405.29" y1="121.82" x2="405.29" y2="127.99"/><line class="cls-11" x1="405.29" y1="138.5" x2="405.29" y2="144.66"/><line class="cls-11" x1="416.71" y1="133.24" x2="410.54" y2="133.24"/><line class="cls-11" x1="400.03" y1="133.24" x2="393.87" y2="133.24"/><line class="cls-11" x1="34.1" y1="271.52" x2="34.1" y2="277.69"/><line class="cls-11" x1="34.1" y1="288.2" x2="34.1" y2="294.36"/><line class="cls-11" x1="45.52" y1="282.94" x2="39.35" y2="282.94"/><line class="cls-11" x1="28.84" y1="282.94" x2="22.68" y2="282.94"/><circle class="cls-11" cx="279.35" cy="44.79" r="7.02" transform="translate(-3.57 48.83) rotate(-9.26)"/></svg>