<svg id="Layer_1" data-name="Layer 1" xmlns="http://www.w3.org/2000/svg" viewBox="0 0 221.46 45.18"><defs><style>.cls-1{font-size:34.98px;font-family:ProximaNova-Bold, Proxima Nova;}.cls-1,.cls-5{fill:#5180e1;}.cls-2{font-weight:700;}.cls-3,.cls-4{fill:#68737c;}.cls-3{font-family:ProximaNovaT-Thin, Proxima Nova;}.cls-4{font-family:ProximaNova-Regular, Proxima Nova;letter-spacing:0em;}</style></defs><title>logo1</title><text class="cls-1" transform="translate(0 35.11)"><tspan class="cls-2">clock</tspan><tspan class="cls-3" x="82.55" y="0">in</tspan><tspan class="cls-4" x="108.09" y="0">easy</tspan></text><path class="cls-5" d="M218.85,7.63l-.22-.33q-.45-.66-1-1.27-.38-.46-.79-.89a16.55,16.55,0,0,0-24,0q-.41.43-.79.89-.51.61-1,1.27l-.22.33a16.48,16.48,0,0,0-2.61,8.92h0q0,.22,0,.43s0,.09,0,.14,0,.19,0,.29,0,.11,0,.16,0,.18,0,.27V18c0,.09,0,.18,0,.26l0,.16,0,.26,0,.16,0,.26,0,.15,0,.26,0,.15.05.26,0,.14.06.26,0,.14.07.27,0,.13.07.27,0,.13.08.27,0,.12.09.28,0,.11.1.28,0,.1.11.28,0,.09.12.29,0,.09.13.29,0,.08.14.29,0,.07.15.29,0,.06.16.3,0,.06.17.3,0,.05.18.3,0,0,.19.3,0,0,.2.3,0,0,.21.3,0,0,.22.3,0,0,.24.3v0l.25.3h0l.26.3h0l.27.29h0l.28.29h0l.29.28h-.05L204.88,39.9,214.81,30h0a1,1,0,0,0,.12-1.51L204,17.67a1.23,1.23,0,0,1-.36-.87v-10a1.23,1.23,0,1,1,2.46,0v9.47l10.51,10.47h0a1,1,0,0,0,1.47-.25h0a16.47,16.47,0,0,0,3.33-10h0A16.48,16.48,0,0,0,218.85,7.63Z"/></svg>