<svg id="Layer_1" data-name="Layer 1" xmlns="http://www.w3.org/2000/svg" viewBox="0 0 130.72 130.72"><defs><style>.cls-1{fill-rule:evenodd;}.cls-2,.cls-3{fill:none;stroke:#000;stroke-width:7px;}.cls-2{stroke-linecap:round;stroke-linejoin:round;}.cls-3{stroke-miterlimit:10;}</style></defs><title>mail</title><path class="cls-1" d="M130.72,65.36a65.36,65.36,0,1,0-65.36,65.36,65.37,65.37,0,0,0,65.36-65.36Zm-124.78,0a59.41,59.41,0,1,1,59.41,59.41A59.42,59.42,0,0,1,5.95,65.36Zm0,0"/><path class="cls-2" d="M21.44,70c4,3.27,8.06,6.53,12,9.87L54.72,97.79c2.74,2.31,5.42,5,8.76,6.43,3.66,1.57,6.81.38,9.68-2.17s5.62-5,8.5-7.4q12.75-10.83,25.59-21.55l7.53-6.3s3.76-3.9,0-7.66c-4.77-3.76-44.3-36.57-44.3-36.57s-4.41-2.75-8.67,0c-4.39,3.67-42.17,35.92-42.42,36.13-2.22,1.89-3.92,4.8-2,7.56a12,12,0,0,0,2.4,2.37Z"/><line class="cls-3" x1="16.5" y1="104.06" x2="16.5" y2="61.98"/><line class="cls-3" x1="116.67" y1="100.43" x2="116.67" y2="61.98"/><line class="cls-2" x1="42.38" y1="104.93" x2="31.57" y2="114.56"/><line class="cls-2" x1="89.33" y1="104.72" x2="101.06" y2="113.91"/><path d="M100.88,36.68V76.77a15.78,15.78,0,0,1,7-3.53V36.68a7.51,7.51,0,0,0-7.5-7.5H31.75a7.51,7.51,0,0,0-7.5,7.5V72.32a14.81,14.81,0,0,1,7,5.37v-41a.51.51,0,0,1,.5-.5h68.63A.51.51,0,0,1,100.88,36.68Z"/><path d="M73.68,77.4a8.81,8.81,0,0,1-4.47,2.88,1.26,1.26,0,0,0-1.1,1.41c0,.79,0,1.59,0,2.38a1,1,0,0,1-1,1.1c-.86,0-1.7,0-2.56,0A1,1,0,0,1,63.4,84c0-.57,0-1.15,0-1.73,0-1.28-.05-1.33-1.28-1.52a16.23,16.23,0,0,1-4.55-1.31c-1.12-.55-1.26-.84-.91-2,.24-.89.47-1.75.76-2.64s.6-1.15,1.52-.65a14.82,14.82,0,0,0,5,1.52,6.28,6.28,0,0,0,3.32-.44,2.58,2.58,0,0,0,.6-4.52A7.53,7.53,0,0,0,66,69.58a41.54,41.54,0,0,1-5.15-2.33c-2.64-1.6-4.32-3.77-4.13-7,.21-3.64,2.28-5.91,5.62-7.14,1.39-.5,1.39-.47,1.39-1.91V49.75c0-1.1.21-1.28,1.28-1.31h1c2.3,0,2.3,0,2.3,2.3,0,1.62,0,1.65,1.62,1.88A13.4,13.4,0,0,1,73.5,53.7a1.06,1.06,0,0,1,.68,1.39c-.29,1-.55,2-.89,3s-.6,1.07-1.49.63a11.51,11.51,0,0,0-5.68-1.12,4.34,4.34,0,0,0-1.52.31,2.14,2.14,0,0,0-.52,3.82,9.94,9.94,0,0,0,2.46,1.39,40.76,40.76,0,0,1,4.5,2A8.05,8.05,0,0,1,73.68,77.4Z"/></svg>