<svg id="Layer_1" data-name="Layer 1" xmlns="http://www.w3.org/2000/svg" viewBox="0 0 1920 1050"><defs><style>.cls-1{opacity:0.1;}.cls-2{fill:#abb3dc;}.cls-3{fill:none;}</style></defs><title>numerals1</title><g class="cls-1"><path class="cls-2" d="M812.22,525.14l-15-54.23c-9.42,1.57-17.93,2.67-26.3,4.44-41.33,8.77-76.81,25.08-105.81,49.79Z" transform="translate(0 0)"/><path class="cls-2" d="M25,525.19H80c2.23-7.72,4.63-15.49,6.79-23.47L40.59,483.11a33.08,33.08,0,0,0-2.26,3.71c-2.23,5.28-4.55,10.52-6.51,15.9a231.88,231.88,0,0,0-7,22.47Z" transform="translate(0 0)"/><path class="cls-2" d="M361.1,525.14q0-1.75,0-3.5c0-2.44-.47-4.87-.74-7.48H187.82c0,3.71,0,7.36,0,11Z" transform="translate(0 0)"/><path class="cls-2" d="M1772.18,374.85c-9.75-7.41-19.26-14.3-28.41-21.64-26.93-21.62-27.86-68.89-3.59-95.66,34.56-38.12,111.07-41.29,148.2-5.58,26.41,25.41,27.3,66.51,1.06,94.53-9.24,9.87-20.64,17.71-31.06,26.48,6.44,5.12,13.25,10.8,20.32,16.13,33.56,25.28,33,82.64-13.46,107.88-31,16.85-63.92,17.47-96,3.59-46.1-19.94-54.1-73.48-17.05-109.26C1758.3,385.38,1765.37,380.41,1772.18,374.85Zm44.91-108.08c-8.59,2.06-17.58,3.11-25.7,6.35-24.61,9.83-30.1,37.8-10.63,55.57,7.85,7.17,18.38,11.31,26.81,17.94,13.74,10.81,24.55,4.54,35.38-4.48.49-.41,1-.79,1.47-1.22,14.09-13,24-27.78,17.45-48C1856.82,277.26,1840.09,268.33,1817.09,266.77ZM1814.58,468a53,53,0,0,0,7.17-.38c14.63-2.61,26.68-9.21,31.74-24,4.73-13.82-.69-25.57-11.64-33.66-9.35-6.91-20.23-11.8-30.66-17.13-1.77-.91-5.11-.18-7.07.95-12.16,7-21.91,16.48-27.54,29.44-4.7,10.83-3,21.19,4.63,30.33C1789.78,463.74,1801.11,467.81,1814.58,468Z" transform="translate(0 0)"/><path class="cls-2" d="M509.5,525.14c-38.46-16.92-78.33-12.3-119.38,0Z" transform="translate(0 0)"/><path class="cls-2" d="M604.5,459.25l-10.39,37.17c-1.17.37-2.1,1-2.89.87-46-8.67-82-31.25-101.09-75.5-12.63-29.26-5.87-57.18,16.73-79.65,22.17-22,50-30.94,79.82-35.21,36.05-5.16,72.24-7.69,108.65-4.2,1.22.12,2.47-.18,6.31-.52l-81.19-81.63,30.42-28.08L775.42,317.61c-7.61,7.22-15.81,15.54-24.69,23.06-2.18,1.85-6.55,1.42-9.93,1.48-41.39.76-82.81.67-124.16,2.43-21.05.9-41.22,6.55-59.09,19.41-25.65,18.47-21.62,50.79-5,68.82C566.11,447.59,576.49,452.91,604.5,459.25Z" transform="translate(0 0)"/><path class="cls-2" d="M1121.23,525.14h45.41q-23.1-66.11-45.59-132.43c-6.17-18.27-20.6-28-32.93-41.77L960.46,477.53l34,33.61,90.87-92.26Z" transform="translate(0 0)"/><path class="cls-2" d="M370.13,444.67c-27.2-3.45-46.91-17.36-59.65-40.52-24.34-44.26,7.78-87.66,41.56-99.22,35-12,70.62.56,93.29,32.13,21.19,29.5,20.62,64.27-1.52,94.18-44,59.46-132.17,78.51-196.8,42.47-3.84-2.14-7.45-4.67-12-7.56l16.48-29.67C290.23,459.42,329.3,466.77,370.13,444.67Zm20.49-24.79c16,.27,33.53-20.51,33.69-39.89.18-21.38-19.46-40.72-42-41.33-20-.54-39.6,17.1-39.88,36C342.13,397.1,365.94,419.47,390.61,419.88Z" transform="translate(0 0)"/><path class="cls-2" d="M892.12,525.14c14.49-39.48,28.93-79,44.79-117.93,6-14.63,1.9-26.15-3.34-39.31l-89,25.7-17.29-57.48L793.09,346l16.49,57.61-35.24,11L783,443.8l35.43-10.35,26.8,91.69ZM906.9,407.49,874.54,488l-2.42.15-19.07-64.63Z" transform="translate(0 0)"/><path class="cls-2" d="M1368.59,525.14H1548c5.48-3.76,10.21-8.76,15-14.76l-66-65.15,42.94-39.88-26.19-26.59-41.62,43.69-23.33-26.71-23.23,23.35L1453.16,442ZM1477.54,470l36.36,36.55-83.48,10.12Z" transform="translate(0 0)"/><path class="cls-2" d="M940.59,308.55c2.08-7.27,3.05-15.11,6.42-21.73,15-29.52,37-52.48,67.51-66.14,24.07-10.79,47-5.28,64.1,13.94,16.78,18.82,19.54,43,6.06,65.33-17.49,29-39.78,53.31-73.44,63.35C976.87,373.53,940.75,344.75,940.59,308.55Zm46.14-31.37,1,2.61c23.75.87,47.5,1.86,71.26,2.39,1.94,0,4.91-2.66,5.78-4.76,4.07-9.89,3.06-19.37-4.28-27.55s-16.26-10.94-26.74-7.85C1013.63,248,1000.44,262.94,986.73,277.18ZM1049,302c-25.84-1.15-48.95-2.43-72.07-2.86-2.69-.05-7,4.11-7.91,7.1-2.94,10.17-.54,19.46,7.6,26.83s17.75,8.18,27.6,4.57C1022,331.13,1034.7,317.93,1049,302Z" transform="translate(0 0)"/><path class="cls-2" d="M932.76,247.21l-62.65,62.08-20.4-21.21,44.66-41.87-26.68-24.88c-3.22,3-7.56,7.6-12.41,11.54-21.62,17.57-46.07,18.92-66.91,3.92-22.61-16.27-30.9-41.9-21.15-67.52,10.35-27.21,31.13-43.37,58.74-53.63l10.33,24.2c-15.69,6.25-28.76,14.23-37.09,28.43-8,13.69-7.53,28.05,1.92,38,9.94,10.42,23.78,12.66,37.42,3.59,11.25-7.49,20.9-17.39,30.9-25.92Z" transform="translate(0 0)"/><path class="cls-2" d="M23.42,204.26c-.85-13.81-1.75-26,4.31-38.24Q63.93,92.84,98.89,19c3.8-8,8.19-11.85,17.28-10.72,6.55.82,13.28.16,21.56.16-13.84,28.16-27.05,55.13-40.33,82.07C84.22,117.27,71,144,57,172.36H149c0,9.77.29,18.56-.26,27.3-.1,1.64-3.56,4.39-5.49,4.4C103.8,204.32,64.3,204.26,23.42,204.26Z" transform="translate(0 0)"/><path class="cls-2" d="M1655.21,474.56c3.93-5.47,6.1-12.21,9.64-19.5,14.87,25,10.28,47.82-3.7,70.09h25.24c6.56-11.22,10.73-23.14,11.07-36.41.84-32.78-15-57.89-38.34-79-25.19-22.81-55.13-20.58-77.14,5.18-18.91,22.13-15.86,53,7,71.07C1609.62,502.29,1638.74,497.48,1655.21,474.56ZM1592.91,444c.44-14,12.78-25.63,27-25.33,13.86.29,30.14,12.26,29.8,21.91-.5,14.33-16.83,29.65-31.25,29.34C1605.21,469.65,1592.51,456.75,1592.91,444Z" transform="translate(0 0)"/><path class="cls-2" d="M140.06,487.27,183.78,442l15.47,16.71L132.17,525c-10.07-6.13-13.21-15.45-12.9-28.83a433.07,433.07,0,0,0-4-69.4C112.68,408.1,101,398,88.14,398c-13.75,0-26.78,12.15-31.29,29.12-.41,1.53-.91,3-1.79,6L35.13,428c3-18.81,10.89-34.07,24.59-46,25.23-22,56.69-15.28,70.53,15.85,11.57,26,11.18,54,10.55,81.81C140.77,481.13,140.52,482.65,140.06,487.27Z" transform="translate(0 0)"/><path class="cls-2" d="M580.73,220.31l-17.16,8.37c-7-8.85-12.76-17.78-20.18-25-10-9.74-22.29-10.8-31.45-4.62-8.36,5.65-11.71,14.37-6.87,23.19,5,9.05,11.81,17.08,18.29,26.22-3.18,6.34-9.19,9.1-17.13,9.66-13.62,1-27.19,2.61-42.83,4.17L500.79,295,483.6,311.37l-53.93-55.78c4.17-6.35,10.06-11.72,20.38-11.79,13.58-.09,27.16-1.48,42.13-2.39-1.72-2.72-2.52-4.24-3.55-5.57C477.35,221.28,475.86,208,484,194.32c9.14-15.24,25.63-23.46,42-20.61C552.91,178.38,568,196.84,580.73,220.31Z" transform="translate(0 0)"/><path class="cls-2" d="M55,269.37c5.71,1.89,9.93,2.88,13.81,4.64,17.95,8.13,26.69,28.3,19.76,45.1C80.35,339,58.71,348.78,39,341.52c-27.81-10.21-37.44-41.08-20.23-64.86,22.14-30.59,70.21-40.37,102.36-20.78a35,35,0,0,1,4,3.49l-7.83,13.71C97.41,261.94,77.54,257.44,55,269.37Zm-5,55c11,.15,21.18-9.07,21-19-.16-11.21-12.67-23.09-24.85-23.58-8.65-.35-18,10.46-18.08,21C27.95,314.79,37.55,324.24,50,324.42Z" transform="translate(0 0)"/><path class="cls-2" d="M647.62,137.74l79.57-77.87L708,39.73l12-12.4,53.81,54.33L760.45,94.11,744.23,74.52,685,133.77l29,4.37-2.46,16.1c-15.52-2-30.13-3.19-44.39-6.12C660.9,146.83,655.35,142,647.62,137.74Z" transform="translate(0 0)"/><path class="cls-2" d="M998.79,44.94c-6,7.88-10.2,15.6-16.41,21-11.47,9.9-27,9.71-38.87,1.23C930.73,58,925.16,41.56,930,27.44,939.47.08,969.49-8.68,991.65,9.7c15.14,12.56,25.8,28.17,29.24,47.86,3,17-2.71,31.86-13.37,46.4l-12.6-6.69C1005.15,79.79,1010.27,62.71,998.79,44.94ZM945,36.17a19.47,19.47,0,0,0,19.41,19.42c10.52-.09,22.51-11.93,22.51-22.23,0-7.75-12.42-16.88-22.61-16.63C953.32,17,944.93,25.45,945,36.17Z" transform="translate(0 0)"/><path class="cls-2" d="M1822.72,111.22,1790,146.79l-11.19-14.32L1828,83.27c6.59,3.79,9.64,9.13,9.93,17.93.68,20.55,1.41,41.33,5.08,61.48,2.76,15.16,16.84,21.42,28.11,14.51,5.57-3.42,9.41-9.86,13.55-15.3,1.61-2.12,1.88-5.26,3-8.74l14.21,3.8c-3.08,18.27-11.55,32-27.59,40.39-20,10.45-42-1.63-47.14-27.36-3.11-15.46-3.13-31.55-4.44-47.37C1822.51,119.59,1822.72,116.54,1822.72,111.22Z" transform="translate(0 0)"/><path class="cls-2" d="M1252.61,525.14h46.77a32.2,32.2,0,0,0,9.78-23.17c-.21-23-32.22-55.22-55.25-55.54-20.09-.28-36.71,20.72-30.73,39.89A69.78,69.78,0,0,0,1252.61,525.14Zm18.1-51.06,4.75-1.54c5.81,8,12.5,15.57,17.18,24.21a15.19,15.19,0,0,1-8.2,21.93c-8.88,3.19-13.78-.31-13.74-9.72C1270.75,497.33,1270.71,485.71,1270.71,474.09Zm-21.05-12.9c8-1.12,11.77,2.3,11.4,10.41-.54,11.67-1.07,23.34-1.75,38-10.58-9.34-18.6-17.28-22.17-28.5A15.51,15.51,0,0,1,1249.66,461.19Z" transform="translate(0 0)"/></g><rect class="cls-3" y="525" width="1920" height="525"/></svg>