<?xml version="1.0" encoding="utf-8"?>
<!-- Generator: Adobe Illustrator 21.1.0, SVG Export Plug-In . SVG Version: 6.00 Build 0)  -->
<svg version="1.1" id="Layer_1" xmlns="http://www.w3.org/2000/svg" xmlns:xlink="http://www.w3.org/1999/xlink" x="0px" y="0px"
	 viewBox="0 0 1920 525" style="enable-background:new 0 0 1920 525;" xml:space="preserve">
<style type="text/css">
	.st0{opacity:0.1;}
	.st1{fill:#ABB3DC;}
	.st2{fill:none;}
</style>
<g class="st0">
	<path class="st1" d="M812.2,525.1c-5.1-18.4-10-36.1-15-54.2c-9.4,1.6-17.9,2.7-26.3,4.4c-41.3,8.8-76.8,25.1-105.8,49.8H812.2z"/>
	<path class="st1" d="M25,525.2H80c2.2-7.7,4.6-15.5,6.8-23.5c-14.8-6-30.3-12.2-46.1-18.6c-1,1.6-1.8,2.6-2.3,3.7
		c-2.2,5.3-4.6,10.5-6.5,15.9c-2.7,7.5-5.1,15-7,22.5C24.9,525.2,25,525.2,25,525.2z"/>
	<path class="st1" d="M361.1,525.1c0-1.2,0-2.3,0-3.5c0-2.4-0.5-4.9-0.7-7.5H187.8c0,3.7,0,7.4,0,11H361.1z"/>
	<path class="st1" d="M1772.2,374.9c-9.8-7.4-19.3-14.3-28.4-21.6c-26.9-21.6-27.9-68.9-3.6-95.7c34.6-38.1,111.1-41.3,148.2-5.6
		c26.4,25.4,27.3,66.5,1.1,94.5c-9.2,9.9-20.6,17.7-31.1,26.5c6.4,5.1,13.2,10.8,20.3,16.1c33.6,25.3,33,82.6-13.5,107.9
		c-31,16.9-63.9,17.5-96,3.6c-46.1-19.9-54.1-73.5-17.1-109.3C1758.3,385.4,1765.4,380.4,1772.2,374.9z M1817.1,266.8
		c-8.6,2.1-17.6,3.1-25.7,6.4c-24.6,9.8-30.1,37.8-10.6,55.6c7.8,7.2,18.4,11.3,26.8,17.9c13.7,10.8,24.6,4.5,35.4-4.5
		c0.5-0.4,1-0.8,1.5-1.2c14.1-13,24-27.8,17.5-48C1856.8,277.3,1840.1,268.3,1817.1,266.8z M1814.6,468c2.1-0.1,4.7,0.1,7.2-0.4
		c14.6-2.6,26.7-9.2,31.7-24c4.7-13.8-0.7-25.6-11.6-33.7c-9.3-6.9-20.2-11.8-30.7-17.1c-1.8-0.9-5.1-0.2-7.1,0.9
		c-12.2,7-21.9,16.5-27.5,29.4c-4.7,10.8-3,21.2,4.6,30.3C1789.8,463.7,1801.1,467.8,1814.6,468z"/>
	<path class="st1" d="M509.5,525.1c-38.5-16.9-78.3-12.3-119.4,0H509.5z"/>
	<path class="st1" d="M604.5,459.2c-3.6,12.8-7,25-10.4,37.2c-1.2,0.4-2.1,1-2.9,0.9c-46-8.7-82-31.2-101.1-75.5
		c-12.6-29.3-5.9-57.2,16.7-79.7c22.2-22,50-30.9,79.8-35.2c36.1-5.2,72.2-7.7,108.6-4.2c1.2,0.1,2.5-0.2,6.3-0.5
		c-27.8-28-54.3-54.6-81.2-81.6c10.6-9.8,20.6-19,30.4-28.1c40.3,40.5,81.6,82,124.5,125.1c-7.6,7.2-15.8,15.5-24.7,23.1
		c-2.2,1.8-6.6,1.4-9.9,1.5c-41.4,0.8-82.8,0.7-124.2,2.4c-21.1,0.9-41.2,6.5-59.1,19.4c-25.6,18.5-21.6,50.8-5,68.8
		C566.1,447.6,576.5,452.9,604.5,459.2z"/>
	<path class="st1" d="M1121.2,525.1h45.4c-15.4-44.1-30.7-88.2-45.6-132.4c-6.2-18.3-20.6-28-32.9-41.8
		c-43.3,42.9-85.5,84.8-127.7,126.6c12,11.8,22.5,22.2,34,33.6c29.7-30.1,59.6-60.5,90.9-92.3
		C1097.4,454.5,1109.3,489.8,1121.2,525.1z"/>
	<path class="st1" d="M370.1,444.7c-27.2-3.4-46.9-17.4-59.6-40.5c-24.3-44.3,7.8-87.7,41.6-99.2c35-12,70.6,0.6,93.3,32.1
		c21.2,29.5,20.6,64.3-1.5,94.2c-44,59.5-132.2,78.5-196.8,42.5c-3.8-2.1-7.5-4.7-12-7.6c5.7-10.2,11-19.8,16.5-29.7
		C290.2,459.4,329.3,466.8,370.1,444.7z M390.6,419.9c16,0.3,33.5-20.5,33.7-39.9c0.2-21.4-19.5-40.7-42-41.3
		c-20-0.5-39.6,17.1-39.9,36C342.1,397.1,365.9,419.5,390.6,419.9z"/>
	<path class="st1" d="M892.1,525.1c14.5-39.5,28.9-79,44.8-117.9c6-14.6,1.9-26.1-3.3-39.3c-29.8,8.6-59,17-89,25.7
		c-5.9-19.5-11.4-37.9-17.3-57.5c-11.7,3.4-22.6,6.5-34.2,9.9c5.5,19.4,10.9,38.2,16.5,57.6c-12.1,3.8-23.2,7.2-35.2,11
		c3,10.2,5.8,19.5,8.6,29.2c12.2-3.6,23.6-6.9,35.4-10.3c9.1,31.1,17.9,61.3,26.8,91.7H892.1z M906.9,407.5
		c-11.6,28.8-22,54.6-32.4,80.5c-0.8,0.1-1.6,0.1-2.4,0.2c-6.2-21.1-12.5-42.2-19.1-64.6C870.4,418.3,887.3,413.3,906.9,407.5z"/>
	<path class="st1" d="M1368.6,525.1H1548c5.5-3.8,10.2-8.8,15-14.8c-21.5-21.3-42.8-42.2-66-65.1c14.8-13.7,28.9-26.8,42.9-39.9
		c-9.1-9.2-16.8-17.1-26.2-26.6c-13.5,14.2-26.8,28.2-41.6,43.7c-8.3-9.5-15.8-18.1-23.3-26.7c-7.9,7.9-14.5,14.6-23.2,23.4
		c8.7,7.2,17.7,14.7,27.6,22.9C1424.6,470.1,1397.6,496.7,1368.6,525.1z M1477.5,470c11,11.1,23,23.1,36.4,36.6
		c-28.4,3.4-55.5,6.7-83.5,10.1C1446.8,500.5,1462.2,485.2,1477.5,470z"/>
	<path class="st1" d="M940.6,308.5c2.1-7.3,3.1-15.1,6.4-21.7c15-29.5,37-52.5,67.5-66.1c24.1-10.8,47-5.3,64.1,13.9
		c16.8,18.8,19.5,43,6.1,65.3c-17.5,29-39.8,53.3-73.4,63.3C976.9,373.5,940.8,344.8,940.6,308.5z M986.7,277.2
		c0.3,0.9,0.7,1.7,1,2.6c23.8,0.9,47.5,1.9,71.3,2.4c1.9,0,4.9-2.7,5.8-4.8c4.1-9.9,3.1-19.4-4.3-27.5c-7.2-8.1-16.3-10.9-26.7-7.9
		C1013.6,248,1000.4,262.9,986.7,277.2z M1049,302c-25.8-1.1-48.9-2.4-72.1-2.9c-2.7-0.1-7,4.1-7.9,7.1c-2.9,10.2-0.5,19.5,7.6,26.8
		c8.2,7.5,17.8,8.2,27.6,4.6C1022,331.1,1034.7,317.9,1049,302z"/>
	<path class="st1" d="M932.8,247.2c-20.4,20.2-41.4,41.1-62.6,62.1c-6.1-6.3-12.6-13.1-20.4-21.2c14.5-13.6,29.5-27.7,44.7-41.9
		c-9.6-9-17.9-16.7-26.7-24.9c-3.2,3-7.6,7.6-12.4,11.5c-21.6,17.6-46.1,18.9-66.9,3.9c-22.6-16.3-30.9-41.9-21.2-67.5
		c10.4-27.2,31.1-43.4,58.7-53.6c3.5,8.1,6.8,15.8,10.3,24.2c-15.7,6.2-28.8,14.2-37.1,28.4c-8,13.7-7.5,28.1,1.9,38
		c9.9,10.4,23.8,12.7,37.4,3.6c11.3-7.5,20.9-17.4,30.9-25.9C890.2,204.7,911.5,225.9,932.8,247.2z"/>
	<path class="st1" d="M23.4,204.3c-0.8-13.8-1.8-26,4.3-38.2c24.1-48.8,47.8-97.8,71.2-147c3.8-8,8.2-11.8,17.3-10.7
		c6.5,0.8,13.3,0.2,21.6,0.2c-13.8,28.2-27.1,55.1-40.3,82.1C84.2,117.3,71,144,57,172.4c31.7,0,61.2,0,92.1,0
		c0,9.8,0.3,18.6-0.3,27.3c-0.1,1.6-3.6,4.4-5.5,4.4C103.8,204.3,64.3,204.3,23.4,204.3z"/>
	<path class="st1" d="M1655.2,474.6c3.9-5.5,6.1-12.2,9.6-19.5c14.9,25,10.3,47.8-3.7,70.1h25.2c6.6-11.2,10.7-23.1,11.1-36.4
		c0.8-32.8-15-57.9-38.3-79c-25.2-22.8-55.1-20.6-77.1,5.2c-18.9,22.1-15.9,53,7,71.1C1609.6,502.3,1638.7,497.5,1655.2,474.6z
		 M1592.9,444c0.4-14,12.8-25.6,27-25.3c13.9,0.3,30.1,12.3,29.8,21.9c-0.5,14.3-16.8,29.6-31.3,29.3
		C1605.2,469.6,1592.5,456.7,1592.9,444z"/>
	<path class="st1" d="M140.1,487.3c15.8-16.4,29.7-30.7,43.7-45.2c6.3,6.8,11,11.9,15.5,16.7c-21.9,21.6-44.4,43.9-67.1,66.2
		c-10.1-6.1-13.2-15.4-12.9-28.8c0.5-23.1-0.8-46.5-4-69.4C112.7,408.1,101,398,88.1,398c-13.8,0-26.8,12.2-31.3,29.1
		c-0.4,1.5-0.9,3-1.8,6c-6.6-1.7-13.2-3.4-19.9-5.1c3-18.8,10.9-34.1,24.6-46c25.2-22,56.7-15.3,70.5,15.8
		c11.6,26,11.2,54,10.6,81.8C140.8,481.1,140.5,482.6,140.1,487.3z"/>
	<path class="st1" d="M580.7,220.3c-6.9,3.4-12.6,6.1-17.2,8.4c-7-8.8-12.8-17.8-20.2-25c-10-9.7-22.3-10.8-31.4-4.6
		c-8.4,5.6-11.7,14.4-6.9,23.2c5,9.1,11.8,17.1,18.3,26.2c-3.2,6.3-9.2,9.1-17.1,9.7c-13.6,1-27.2,2.6-42.8,4.2
		c13.2,11.5,25.1,22,37.4,32.7c-8,7.6-12.5,11.9-17.2,16.3c-17.6-18.2-35.4-36.6-53.9-55.8c4.2-6.3,10.1-11.7,20.4-11.8
		c13.6-0.1,27.2-1.5,42.1-2.4c-1.7-2.7-2.5-4.2-3.6-5.6c-11.3-14.6-12.8-27.9-4.6-41.5c9.1-15.2,25.6-23.5,42-20.6
		C552.9,178.4,568,196.8,580.7,220.3z"/>
	<path class="st1" d="M55,269.4c5.7,1.9,9.9,2.9,13.8,4.6c17.9,8.1,26.7,28.3,19.8,45.1C80.4,339,58.7,348.8,39,341.5
		c-27.8-10.2-37.4-41.1-20.2-64.9c22.1-30.6,70.2-40.4,102.4-20.8c1.3,0.8,2.4,2,4,3.5c-2.6,4.5-5.1,8.9-7.8,13.7
		C97.4,261.9,77.5,257.4,55,269.4z M50,324.4c11,0.2,21.2-9.1,21-19c-0.2-11.2-12.7-23.1-24.9-23.6c-8.7-0.4-18,10.5-18.1,21
		C27.9,314.8,37.6,324.2,50,324.4z"/>
	<path class="st1" d="M647.6,137.7c27.5-26.9,53.2-52,79.6-77.9c-6.9-7.2-12.9-13.6-19.2-20.1c4.3-4.5,8.2-8.5,12-12.4
		c18.2,18.3,35.8,36.2,53.8,54.3c-3.5,3.3-7.6,7.1-13.3,12.5c-5.2-6.3-11-13.3-16.2-19.6c-20.6,20.7-39.6,39.7-59.2,59.3
		c9.3,1.4,18.5,2.8,29,4.4c-0.9,5.6-1.6,10.7-2.5,16.1c-15.5-2-30.1-3.2-44.4-6.1C660.9,146.8,655.3,142,647.6,137.7z"/>
	<path class="st1" d="M998.8,44.9c-6,7.9-10.2,15.6-16.4,21c-11.5,9.9-27,9.7-38.9,1.2C930.7,58,925.2,41.6,930,27.4
		c9.4-27.4,39.5-36.1,61.6-17.7c15.1,12.6,25.8,28.2,29.2,47.9c3,17-2.7,31.9-13.4,46.4c-4.3-2.3-8.3-4.4-12.6-6.7
		C1005.1,79.8,1010.3,62.7,998.8,44.9z M945,36.2c0.1,10.8,8.8,19.5,19.4,19.4c10.5-0.1,22.5-11.9,22.5-22.2
		c0-7.7-12.4-16.9-22.6-16.6C953.3,17,944.9,25.4,945,36.2z"/>
	<path class="st1" d="M1822.7,111.2c-11.6,12.6-21.6,23.5-32.7,35.6c-4.9-6.3-8.1-10.4-11.2-14.3c15.6-15.6,32.2-32.1,49.2-49.2
		c6.6,3.8,9.6,9.1,9.9,17.9c0.7,20.6,1.4,41.3,5.1,61.5c2.8,15.2,16.8,21.4,28.1,14.5c5.6-3.4,9.4-9.9,13.5-15.3
		c1.6-2.1,1.9-5.3,3-8.7c4.7,1.3,9.2,2.5,14.2,3.8c-3.1,18.3-11.5,32-27.6,40.4c-20,10.5-42-1.6-47.1-27.4
		c-3.1-15.5-3.1-31.6-4.4-47.4C1822.5,119.6,1822.7,116.5,1822.7,111.2z"/>
	<path class="st1" d="M1252.6,525.1h46.8c6-5.9,9.9-14.1,9.8-23.2c-0.2-23-32.2-55.2-55.3-55.5c-20.1-0.3-36.7,20.7-30.7,39.9
		C1228.5,503.3,1238.7,516.2,1252.6,525.1z M1270.7,474.1c1.6-0.5,3.2-1,4.8-1.5c5.8,8,12.5,15.6,17.2,24.2c4.9,9,0.4,18.8-8.2,21.9
		c-8.9,3.2-13.8-0.3-13.7-9.7C1270.7,497.3,1270.7,485.7,1270.7,474.1z M1249.7,461.2c8-1.1,11.8,2.3,11.4,10.4
		c-0.5,11.7-1.1,23.3-1.7,38c-10.6-9.3-18.6-17.3-22.2-28.5C1234.2,472,1240.5,462.5,1249.7,461.2z"/>
</g>
<rect y="525" class="st2" width="1920" height="525"/>
</svg>
