<svg id="Слой_1" data-name="Слой 1" xmlns="http://www.w3.org/2000/svg" xmlns:xlink="http://www.w3.org/1999/xlink" viewBox="0 0 800 590"><defs><style>.cls-1{fill:none;}.cls-2{fill:#fff;}.cls-3{fill:#d8ae51;}.cls-4{fill:#edcc80;}.cls-5{fill:#57649a;}.cls-6{fill:#c6d7f0;}.cls-7{fill:#d9e4f6;}.cls-8{fill:#acc2e7;}.cls-9{fill:#b3c9eb;}.cls-10{fill:#9ab5e1;}.cls-11{fill:#49527d;}.cls-12{fill:#69955a;}.cls-13{fill:#47583c;}.cls-14{fill:#5a744d;}.cls-15{fill:#7dae5d;}.cls-16{fill:#ecd94a;}.cls-17{fill:#7ec4df;}.cls-18{fill:#8bcae3;}.cls-19{fill:#75c1d9;}.cls-20{fill:#a3bce4;}.cls-21{fill:#f2df76;}.cls-22{fill:#d4c468;}.cls-23{fill:#f6ebae;}.cls-24{clip-path:url(#clip-path);}.cls-25{fill:#ecc7a4;}.cls-26{fill:#d4b8a1;}.cls-27{fill:#788a92;}.cls-28{fill:#e6e6e7;}.cls-29{clip-path:url(#clip-path-2);}.cls-30{fill:#eaccb3;}.cls-31{fill:#dce7ee;}.cls-32{fill:#f6f6fb;}</style><clipPath id="clip-path" transform="translate(0 -3.78)"><path class="cls-1" d="M253.92,180.55a64.49,64.49,0,0,1-25.31,51.36,63.16,63.16,0,0,1-76.73,0,64.47,64.47,0,0,1-25.31-51.36c0-35.53,28.5-64.33,63.67-64.33S253.92,145,253.92,180.55Z"/></clipPath><clipPath id="clip-path-2" transform="translate(0 -3.78)"><path class="cls-1" d="M686.29,166.14A64.42,64.42,0,0,1,661.65,217a62.77,62.77,0,0,1-33.19,13.25c-1.93.18-3.88.28-5.86.28-1,0-2,0-3-.08A62.78,62.78,0,0,1,584.92,218a64.42,64.42,0,0,1-26-51.85c0-35.53,28.5-64.33,63.67-64.33S686.29,130.61,686.29,166.14Z"/></clipPath></defs><title>sheme</title><path class="cls-2" d="M414.94,4.54c-30.14,0-54.66,24.78-54.66,55.23S384.8,115,414.94,115,469.6,90.23,469.6,59.78,445.08,4.54,414.94,4.54Z" transform="translate(0 -3.78)"/><path class="cls-2" d="M582.78,331.77l-.2-1.52q2.27-.3,4.51-.63l.22,1.52Zm9-1.33-.24-1.52q2.27-.36,4.49-.75l.26,1.51Q594.11,330.08,591.83,330.44Zm9-1.58-.28-1.51q2.26-.43,4.46-.88l.3,1.51Q603.11,328.43,600.84,328.86Zm9-1.84-.33-1.5q2.24-.5,4.43-1l.35,1.49Q612.06,326.52,609.8,327Zm8.9-2.13-.37-1.49q2.23-.57,4.4-1.17l.4,1.48Q620.94,324.32,618.7,324.9Zm8.83-2.43L627.1,321q2.2-.65,4.35-1.33l.45,1.47Q629.74,321.81,627.53,322.47Zm8.73-2.76-.48-1.46q2.18-.73,4.3-1.49l.51,1.45Q638.45,319,636.26,319.71Zm8.62-3.1-.54-1.44q2.15-.82,4.23-1.67l.57,1.43Q647,315.79,644.88,316.62Zm8.49-3.47-.6-1.41q2.11-.92,4.15-1.86l.63,1.4Q655.49,312.23,653.37,313.15Zm8.32-3.86-.67-1.38q2.06-1,4.05-2.06l.7,1.36Q663.77,308.27,661.69,309.29Zm8.13-4.26-.74-1.34q2-1.12,3.94-2.27l.77,1.32Q671.84,303.9,669.82,305Zm7.89-4.69-.81-1.3q1.94-1.23,3.81-2.49l.84,1.28Q679.67,299.1,677.71,300.34Zm7.62-5.14-.88-1.25q1.87-1.34,3.66-2.71l.92,1.22Q687.22,293.84,685.33,295.2Zm7.3-5.59-1-1.19q1.78-1.46,3.48-2.94l1,1.16Q694.43,288.14,692.63,289.61Zm6.95-6-1-1.13q1.68-1.56,3.29-3.16l1.07,1.1Q701.28,282,699.58,283.56Zm6.54-6.5L705,276q1.57-1.67,3.06-3.37l1.14,1Q707.71,275.37,706.12,277.06Zm6.08-6.93-1.17-1q1.46-1.78,2.83-3.58l1.21.94Q713.67,268.33,712.2,270.13Zm5.59-7.35-1.24-.89q1.33-1.88,2.57-3.77l1.27.85Q719.14,260.89,717.79,262.79Zm5.07-7.72-1.3-.8q1.19-2,2.3-3.95l1.32.76Q724.07,253.07,722.86,255.06Zm4.52-8.07-1.35-.71q1.05-2,2-4.1l1.37.66Q728.44,244.92,727.38,247Zm4-8.36-1.39-.62q.91-2.12,1.74-4.23l1.41.56Q732.25,236.49,731.33,238.63Zm3.38-8.62-1.43-.52q.77-2.18,1.46-4.34l1.45.47Q735.49,227.81,734.71,230Zm2.81-8.83-1.46-.42q.63-2.22,1.18-4.43l1.47.38Q738.16,218.94,737.52,221.19Zm2.25-9-1.49-.33q.49-2.26.91-4.5l1.49.29Q740.27,209.91,739.77,212.2Zm1.71-9.11-1.5-.24q.36-2.3.65-4.54l1.51.2Q741.84,200.78,741.48,203.1Zm1.18-9.19-1.51-.15q.23-2.32.39-4.58l1.52.11Q742.89,191.56,742.66,193.9Zm.67-9.25-1.52-.07q.1-2.34.15-4.59l1.52,0Q743.44,182.29,743.33,184.66ZM742,175.4c0-1.57,0-3.1-.1-4.59l1.52-.05q.08,2.25.1,4.63Zm-.31-9.18q-.14-2.39-.33-4.58l1.51-.14c.13,1.47.24,3,.34,4.62Zm-.79-9.15c-.19-1.65-.39-3.17-.59-4.55l1.51-.22c.2,1.39.4,2.93.59,4.6ZM739.56,148c-.51-2.85-.91-4.45-.91-4.47l1.48-.37c0,.07.41,1.66.93,4.57Z" transform="translate(0 -3.78)"/><path class="cls-3" d="M790.31,498.37H9.69a8.21,8.21,0,0,1-8.17-8.26v-.17a8.21,8.21,0,0,1,8.17-8.26H790.31a8.21,8.21,0,0,1,8.17,8.26v.17A8.21,8.21,0,0,1,790.31,498.37Z" transform="translate(0 -3.78)"/><path class="cls-4" d="M790.31,481.69H9.69a8.21,8.21,0,0,0-8.17,8.26v.17a8.25,8.25,0,0,0,.34,2.22,8.16,8.16,0,0,1,7.83-6H790.31a8.16,8.16,0,0,1,7.83,6,8.25,8.25,0,0,0,.34-2.22v-.17A8.21,8.21,0,0,0,790.31,481.69Z" transform="translate(0 -3.78)"/><path class="cls-5" d="M790.31,499.9H9.69A9.75,9.75,0,0,1,0,490.11v-.17a9.75,9.75,0,0,1,9.69-9.79H790.31a9.75,9.75,0,0,1,9.69,9.79v.17A9.75,9.75,0,0,1,790.31,499.9ZM9.69,483.23A6.69,6.69,0,0,0,3,489.94v.17a6.69,6.69,0,0,0,6.65,6.72H790.31a6.69,6.69,0,0,0,6.65-6.72v-.17a6.69,6.69,0,0,0-6.65-6.72Z" transform="translate(0 -3.78)"/><polygon class="cls-6" points="20.46 494.68 20.46 588.56 282.17 588.56 282.17 510.05 764.19 510.05 764.19 588.56 779.4 588.56 779.4 494.68 20.46 494.68"/><path class="cls-5" d="M781,593.78H762.74V515.27h-479v78.51H19v-97H781Zm-15.21-3.07h12.17V499.9H22.05v90.8H280.72V512.2H765.78Z" transform="translate(0 -3.78)"/><rect class="cls-6" x="35.74" y="509.96" width="231.29" height="63.14"/><polygon class="cls-7" points="38.78 570.02 38.78 509.95 35.74 509.95 35.74 573.09 267.03 573.09 267.03 570.02 38.78 570.02"/><polygon class="cls-8" points="35.74 509.95 38.78 513.03 263.99 513.03 263.99 570.02 267.03 573.09 267.03 509.95 35.74 509.95"/><path class="cls-5" d="M268.55,578.41H34.22V512.2H268.55ZM37.26,575.34H265.51V515.27H37.26Z" transform="translate(0 -3.78)"/><rect class="cls-6" x="43.35" y="517.64" width="216.08" height="47.77"/><path class="cls-5" d="M260.94,570.73H41.82V519.88H260.94ZM44.87,567.65h213V523h-213Z" transform="translate(0 -3.78)"/><rect class="cls-7" x="44.87" y="519.18" width="213.04" height="2.56"/><rect class="cls-9" x="44.87" y="558.66" width="213.04" height="5.16"/><rect class="cls-8" x="44.87" y="561.26" width="213.04" height="2.56"/><path class="cls-10" d="M181.65,533.85H121.12a12.24,12.24,0,0,1-12.18-12.31v-.12h84.88v.12A12.24,12.24,0,0,1,181.65,533.85Z" transform="translate(0 -3.78)"/><path class="cls-5" d="M181.65,535.39H121.12a13.79,13.79,0,0,1-13.7-13.84V520l1.52-.12h86.4v1.54A13.81,13.81,0,0,1,181.65,535.39ZM110.57,523a10.71,10.71,0,0,0,10.55,9.35h60.53A10.71,10.71,0,0,0,192.21,523Z" transform="translate(0 -3.78)"/><rect class="cls-9" x="22.05" y="496.12" width="755.89" height="3.59"/><rect class="cls-11" x="26.59" y="494.39" width="3.04" height="7.49"/><rect class="cls-11" x="770.51" y="494.84" width="3.04" height="9.35"/><path class="cls-11" d="M530.66,116.35c-5,3.52-9.86,3.63-14.88.41-.22,1-.37,1.86-.59,2.67a6.48,6.48,0,0,1-5.17,4.81c-1,.24-1.9.08-2.17-1.05s.37-1.63,1.42-1.92c3.25-.9,4.73-5.79,2.34-8.16-5.4-5.35-8-12-8.68-19.39a44.78,44.78,0,0,1,0-11.57,20.91,20.91,0,0,1,22.36-17.1C535.74,66.16,544,75.62,544,86.43a45,45,0,0,1-3.19,17.64,27.32,27.32,0,0,1-5.74,8.57c-2.57,2.64-1.35,7.64,2.13,8.64,1,.28,1.6.76,1.4,1.8s-1.08,1.36-2.1,1.18a6.75,6.75,0,0,1-5.5-5.61C530.92,118,530.82,117.36,530.66,116.35Zm10.39-28.81c0-.36,0-.71,0-1.07a18.47,18.47,0,0,0-17-18.42c-8.62-.68-17.24,6.49-18.43,15.64a42.69,42.69,0,0,0,.14,9c.76,8.9,4.38,16.26,11.76,21.48,3.13,2.21,6.4,2.64,9.81.66A24.84,24.84,0,0,0,537,105.1C539.92,99.64,540.87,93.68,541.05,87.54Z" transform="translate(0 -3.78)"/><path class="cls-11" d="M493.67,70.78c0-1.32,0-2.65,0-4,0-1.17.54-1.81,1.75-1.8h7.87c1,0,1.7.49,1.68,1.53S504.22,68,503.22,68c-1.66,0-3.33.07-5,0-1.29-.07-1.67.45-1.61,1.69.08,1.63,0,3.26,0,4.89,0,1.07-.41,1.86-1.54,1.83s-1.43-.79-1.42-1.79C493.68,73.33,493.67,72.05,493.67,70.78Z" transform="translate(0 -3.78)"/><path class="cls-11" d="M546.86,65h3.93a1.5,1.5,0,0,1,1.7,1.68c0,2.7,0,5.4,0,8.1,0,1-.47,1.61-1.43,1.62s-1.54-.66-1.54-1.69c0-1.63-.08-3.27,0-4.89.09-1.37-.3-1.94-1.75-1.84-1.6.12-3.23,0-4.84,0-1,0-1.69-.42-1.7-1.49s.66-1.52,1.68-1.51Z" transform="translate(0 -3.78)"/><path class="cls-11" d="M546.88,124.34h-3.93c-1,0-1.68-.45-1.69-1.51s.67-1.51,1.69-1.5c1.77,0,3.53,0,5.29,0,1,0,1.33-.37,1.3-1.35-.06-1.68,0-3.36,0-5,0-1.11.34-2,1.54-2s1.47.87,1.46,1.91c0,2.55,0,5.1,0,7.64,0,1.25-.58,1.89-1.85,1.87S548.14,124.34,546.88,124.34Z" transform="translate(0 -3.78)"/><path class="cls-11" d="M499.34,124.34h-3.93a1.52,1.52,0,0,1-1.72-1.67c0-2.7-.09-5.4.05-8.09a2.22,2.22,0,0,1,1.37-1.6c1-.19,1.51.62,1.52,1.64,0,1.53,0,3.06,0,4.58,0,2.12,0,2.13,2,2.13h3.78c1.12,0,2.45-.14,2.47,1.47s-1.25,1.57-2.41,1.55S500.4,124.35,499.34,124.34Z" transform="translate(0 -3.78)"/><path class="cls-2" d="M541.05,87.54c-.18,6.13-1.13,12.1-4.08,17.56a24.84,24.84,0,0,1-9.62,9.74c-3.4,2-6.68,1.55-9.81-.66-7.38-5.22-11-12.59-11.76-21.48a42.69,42.69,0,0,1-.14-9c1.18-9.15,9.81-16.33,18.43-15.64a18.47,18.47,0,0,1,17,18.42C541.05,86.83,541.05,87.19,541.05,87.54ZM519.46,98.36c-1.27-1.36-2.39-2.53-3.47-3.72-.74-.82-1.59-1.23-2.47-.37s-.46,1.66.24,2.42c1.38,1.49,2.74,3,4.13,4.47,1.22,1.29,2,1.3,3.14,0q7.17-7.89,14.31-15.8c.72-.8,1.16-1.68.24-2.53s-1.76-.32-2.47.47L527.9,89Z" transform="translate(0 -3.78)"/><path class="cls-11" d="M519.46,98.36,527.9,89l5.21-5.76c.71-.79,1.54-1.33,2.47-.47s.49,1.74-.24,2.53q-7.16,7.9-14.31,15.8c-1.19,1.31-1.92,1.3-3.14,0-1.39-1.48-2.75-3-4.13-4.47-.7-.75-1.06-1.61-.24-2.42s1.73-.46,2.47.37C517.07,95.83,518.19,97,519.46,98.36Z" transform="translate(0 -3.78)"/><path class="cls-11" d="M282.75,108.67c-5,3.52-9.86,3.63-14.88.41-.22,1-.37,1.86-.59,2.67a6.48,6.48,0,0,1-5.17,4.81c-1,.24-1.9.08-2.17-1.05s.37-1.63,1.42-1.92c3.25-.9,4.73-5.79,2.34-8.16-5.4-5.35-8-12-8.68-19.39a44.78,44.78,0,0,1,0-11.57,20.91,20.91,0,0,1,22.36-17.1c10.47,1.1,18.74,10.55,18.76,21.36a45,45,0,0,1-3.19,17.64,27.32,27.32,0,0,1-5.74,8.57c-2.57,2.64-1.35,7.64,2.13,8.64,1,.28,1.6.76,1.4,1.8s-1.08,1.36-2.1,1.18a6.75,6.75,0,0,1-5.5-5.61C283,110.33,282.91,109.68,282.75,108.67Zm10.39-28.81c0-.36,0-.71,0-1.07a18.47,18.47,0,0,0-17-18.42c-8.62-.68-17.24,6.49-18.43,15.64a42.69,42.69,0,0,0,.14,9c.76,8.9,4.38,16.26,11.76,21.48,3.13,2.21,6.4,2.64,9.81.66a24.84,24.84,0,0,0,9.62-9.74C292,92,293,86,293.15,79.86Z" transform="translate(0 -3.78)"/><path class="cls-11" d="M245.76,63.09c0-1.32,0-2.65,0-4,0-1.17.54-1.81,1.75-1.8h7.87c1,0,1.7.49,1.68,1.53s-.75,1.48-1.75,1.47c-1.66,0-3.33.07-5,0-1.29-.07-1.67.45-1.61,1.69.08,1.63,0,3.26,0,4.89,0,1.07-.41,1.86-1.54,1.83s-1.43-.79-1.42-1.79C245.77,65.64,245.76,64.37,245.76,63.09Z" transform="translate(0 -3.78)"/><path class="cls-11" d="M299,57.32h3.93a1.5,1.5,0,0,1,1.7,1.68c0,2.7,0,5.4,0,8.1,0,1-.47,1.61-1.43,1.62s-1.54-.66-1.54-1.69c0-1.63-.08-3.27,0-4.89.09-1.37-.3-1.94-1.75-1.84-1.6.12-3.23,0-4.84,0-1,0-1.69-.42-1.7-1.49s.66-1.52,1.68-1.51Z" transform="translate(0 -3.78)"/><path class="cls-11" d="M299,116.66H295c-1,0-1.68-.45-1.69-1.51s.67-1.51,1.69-1.5c1.77,0,3.53,0,5.29,0,1,0,1.33-.37,1.3-1.35-.06-1.68,0-3.36,0-5,0-1.11.34-2,1.54-2s1.47.87,1.46,1.91c0,2.55,0,5.1,0,7.64,0,1.25-.58,1.89-1.85,1.87S300.23,116.66,299,116.66Z" transform="translate(0 -3.78)"/><path class="cls-11" d="M251.43,116.66H247.5a1.52,1.52,0,0,1-1.72-1.67c0-2.7-.09-5.4.05-8.09a2.22,2.22,0,0,1,1.37-1.6c1-.19,1.51.62,1.52,1.64,0,1.53,0,3.06,0,4.58,0,2.12,0,2.13,2,2.13h3.78c1.12,0,2.45-.14,2.47,1.47s-1.25,1.57-2.41,1.55S252.49,116.66,251.43,116.66Z" transform="translate(0 -3.78)"/><path class="cls-2" d="M293.15,79.86C293,86,292,92,289.06,97.42a24.84,24.84,0,0,1-9.62,9.74c-3.4,2-6.68,1.55-9.81-.66-7.38-5.22-11-12.59-11.76-21.48a42.69,42.69,0,0,1-.14-9c1.18-9.15,9.81-16.33,18.43-15.64a18.47,18.47,0,0,1,17,18.42C293.14,79.14,293.15,79.5,293.15,79.86ZM271.55,90.67c-1.27-1.36-2.39-2.53-3.47-3.72-.75-.82-1.59-1.23-2.47-.37s-.46,1.66.24,2.42c1.38,1.49,2.74,3,4.13,4.47,1.22,1.29,2,1.3,3.14,0q7.17-7.89,14.31-15.8c.72-.8,1.16-1.68.24-2.53s-1.76-.32-2.47.47L280,81.36Z" transform="translate(0 -3.78)"/><path class="cls-11" d="M271.55,90.67,280,81.36l5.21-5.76c.71-.79,1.54-1.33,2.47-.47s.49,1.74-.24,2.53q-7.16,7.9-14.31,15.8c-1.19,1.31-1.92,1.3-3.14,0-1.39-1.48-2.75-3-4.13-4.47-.7-.75-1.06-1.61-.24-2.42s1.73-.46,2.47.37C269.17,88.15,270.28,89.31,271.55,90.67Z" transform="translate(0 -3.78)"/><path class="cls-12" d="M659.11,411.84,657,410.57a2.76,2.76,0,0,0-.06-2.21c-.68-1.78-3.38-5.31-13.87-9l.8-2.32c8.84,3.11,14,6.68,15.4,10.61A5,5,0,0,1,659.11,411.84Z" transform="translate(0 -3.78)"/><path class="cls-12" d="M665.53,413.83c-.39-.93-9.35-23.14,7.6-62.54l2.23,1c-16.5,38.33-7.69,60.39-7.6,60.6Z" transform="translate(0 -3.78)"/><path class="cls-13" d="M690.89,332.31c-.52-13.1-2.91-31.56-2.91-31.56-1.05,4.75-2.94,5.63-12.17,18.45s-16.92,29.37-7.5,47.67C676.1,363.12,692.7,356.87,690.89,332.31Z" transform="translate(0 -3.78)"/><path class="cls-11" d="M668.31,368.4a1.52,1.52,0,0,1-1.35-.83c-7.82-15.19-5.32-31.31,7.62-49.28,3-4.11,5.2-7,6.83-9.17,3.5-4.58,4.44-5.81,5.09-8.71a1.5,1.5,0,0,1,1.55-1.2,1.53,1.53,0,0,1,1.44,1.34c0,.19,2.4,18.66,2.92,31.68,1.77,24.19-13.73,31.46-22.05,35.37l-1.4.66A1.51,1.51,0,0,1,668.31,368.4Zm18.83-61.91c-.81,1.22-1.87,2.61-3.32,4.51-1.62,2.12-3.85,5-6.78,9.1-12,16.64-14.56,30.9-8,44.74l.07,0c8.2-3.85,21.92-10.28,20.3-32.38,0,0,0,0,0-.05C689,323.87,687.89,313,687.15,306.5Z" transform="translate(0 -3.78)"/><path class="cls-14" d="M583.2,391.92s17.05-12.11,29.76-14.75c24.31-5.06,36.42,13,38,23.66-16.34,12.35-26.23,1.62-40.24-5.51S588.36,390.59,583.2,391.92Z" transform="translate(0 -3.78)"/><path class="cls-11" d="M636.49,408c-6.87,0-12.93-3.56-19.2-7.24-2.33-1.37-4.74-2.79-7.26-4.07-13.18-6.71-21-4.7-26.09-3.37l-.36.09a1.52,1.52,0,0,1-1.76-.85,1.55,1.55,0,0,1,.51-1.9c.71-.5,17.46-12.32,30.33-15,10.15-2.11,19.43-.47,26.82,4.75,8.24,5.82,12.14,14.51,13,20.19a1.55,1.55,0,0,1-.59,1.46C646.16,406.37,641.14,408,636.49,408Zm-43.67-19.1c4.8,0,10.89,1.13,18.57,5,2.61,1.33,5.05,2.77,7.42,4.16,10.23,6,18.35,10.78,30.47,2.05a29,29,0,0,0-11.56-17.22c-6.69-4.72-15.15-6.2-24.46-4.26-7.51,1.56-16.72,6.61-22.76,10.32C591.25,388.93,592,388.89,592.83,388.89Z" transform="translate(0 -3.78)"/><path class="cls-13" d="M726.68,360.57s-20.82-1.08-33,3.51c-23.24,8.79-24,30.62-19.71,40.46,20.34,1.67,23.06-12.73,31.17-26.3S721.61,362.22,726.68,360.57Z" transform="translate(0 -3.78)"/><path class="cls-11" d="M677.1,406.21c-1,0-2.1,0-3.22-.14a1.52,1.52,0,0,1-1.27-.92c-2.28-5.26-3.55-14.71.36-24.07,3.51-8.4,10.5-14.77,20.21-18.44C705.48,358,725.89,359,726.76,359a1.54,1.54,0,0,1,.39,3l-.36.12c-5.05,1.64-12.69,4.12-20.32,16.88-1.46,2.44-2.76,4.94-4,7.35C697.18,396.56,692.17,406.21,677.1,406.21Zm-2-3.14c14.91.87,19.23-7.53,24.72-18.12,1.27-2.45,2.59-5,4.1-7.51,5.19-8.69,10.54-13,15.08-15.42-7.07.11-17.52.79-24.7,3.5-8.91,3.37-15.29,9.16-18.47,16.76A29.24,29.24,0,0,0,675,403.07Z" transform="translate(0 -3.78)"/><path class="cls-13" d="M705.17,378.23c-8,13.46-10.79,27.72-30.67,26.33,1.12-7,8.75-14.38,21.92-27.83,6.26-6.39,18.18-12,29.44-16.21l.81,0C721.61,362.22,713.28,364.66,705.17,378.23Z" transform="translate(0 -3.78)"/><path class="cls-11" d="M677.09,406.2q-1.3,0-2.7-.1a1.52,1.52,0,0,1-1.09-.58,1.55,1.55,0,0,1-.31-1.2c1.12-7.05,7.76-13.81,19.81-26.09l2.53-2.58c5.46-5.58,15.55-11.15,30-16.57a1.38,1.38,0,0,1,.58-.09l.84,0a1.54,1.54,0,0,1,.39,3l-.36.12c-5.05,1.64-12.69,4.12-20.32,16.88h0c-1.46,2.44-2.75,4.93-4,7.34C697.18,396.55,692.17,406.2,677.09,406.2Zm-.68-3.08c13.77.25,18-7.91,23.36-18.18,1.27-2.45,2.58-5,4.09-7.5h0a51.42,51.42,0,0,1,5.94-8.15c-5.41,2.87-9.57,5.75-12.3,8.53L695,380.4C684.78,390.79,678.25,397.43,676.41,403.12Z" transform="translate(0 -3.78)"/><path class="cls-13" d="M617.33,363.38v0c8,12.19,12.46,24.44,31.35,21.45,3.53-10.13,1.2-31.85-22.62-38.87-11-3.24-28.41-1.57-32.33-1.13h-.11l-.7.08c5.17,1.27,13.66,3.08,22.75,16l.84,1.21.1.15Z" transform="translate(0 -3.78)"/><path class="cls-11" d="M643.29,386.84c-13.24,0-18.64-8.76-24.32-18-.94-1.52-1.89-3.07-2.91-4.62v0l-.82-1.24-.79-1.15c-8.54-12.16-16.34-14.06-21.5-15.31l-.37-.09a1.54,1.54,0,0,1,.17-3l.72-.08c5-.56,22-2.09,33,1.17,9.95,2.93,17.39,8.77,21.5,16.88,4.59,9,4,18.57,2.13,24a1.53,1.53,0,0,1-1.2,1A36.18,36.18,0,0,1,643.29,386.84Zm-24.68-24.27c1,1.57,2,3.14,2.94,4.68,6.25,10.15,11.22,18.2,26,16.22a29.23,29.23,0,0,0-2.24-20.68c-3.73-7.34-10.52-12.64-19.65-15.33-7.37-2.17-17.88-2.06-24.89-1.64,4.7,2.07,10.36,6,16.17,14.25l.85,1.23.1.15.72,1.09Z" transform="translate(0 -3.78)"/><path class="cls-12" d="M664.14,408.09l-2.42-.14c0-.36,2-36.38-11.73-54.61l1.94-1.48C666.15,370.82,664.23,406.58,664.14,408.09Z" transform="translate(0 -3.78)"/><path class="cls-14" d="M626.57,289.77s16.3,17,26.83,30.06c20.15,24.93,9.55,43.74,6.59,53.88-22.38-11.13-28.32-34.39-30-55.08S629.29,295.5,626.57,289.77Z" transform="translate(0 -3.78)"/><path class="cls-11" d="M660,375.25a1.51,1.51,0,0,1-.67-.16c-24.53-12.2-29.35-38-30.85-56.33-.54-6.62-.81-11.45-1-15-.42-7.47-.55-9.72-2.27-13.35a1.55,1.55,0,0,1,.5-1.93,1.51,1.51,0,0,1,2,.19c.16.17,16.46,17.22,26.92,30.15,18.2,22.52,12,40.48,8.22,51.22-.51,1.47-1,2.86-1.35,4.07a1.52,1.52,0,0,1-1.46,1.1ZM629.87,295.5c.29,2,.43,4.53.63,8.11s.47,8.31,1,14.89c1.4,17.19,5.81,41.17,27.58,53,.26-.79.55-1.61.84-2.46,3.75-10.78,9.41-27.07-7.71-48.25C645.18,312.09,635.45,301.47,629.87,295.5Z" transform="translate(0 -3.78)"/><path class="cls-11" d="M664,414.81a2.28,2.28,0,0,1-2.16-1.55c-.19-.57-4.73-14.18-4.22-37,.47-20.88,5.48-53.79,26.66-91.94a2.27,2.27,0,0,1,3.11-.88l2.12,1.2a2.32,2.32,0,0,1,.87,3.14c-20.44,36.83-25.29,68.46-25.76,88.51-.5,21.41,3.8,34.6,3.84,34.73a2.31,2.31,0,0,1-1.42,2.92l-2.3.8A2.24,2.24,0,0,1,664,414.81Z" transform="translate(0 -3.78)"/><path class="cls-15" d="M664,412.5c-.19-.55-4.6-13.83-4.09-36.24.46-20.62,5.41-53.13,26.36-90.87l2.12,1.2c-20.67,37.24-25.58,69.27-26.05,89.59-.51,22,3.92,35.39,4,35.53Z" transform="translate(0 -3.78)"/><path class="cls-11" d="M662.46,417.16a2.28,2.28,0,0,1-1.21-.35,2.31,2.31,0,0,1-1-1.44c-.12-.54-3-13.42.12-33.06,2.84-18,11.45-45.4,36.35-73.8a2.26,2.26,0,0,1,3.22-.2l1.82,1.63a2.32,2.32,0,0,1,.2,3.26c-23.74,27.08-32,53.06-34.66,70.1-2.89,18.2-.26,30.37-.24,30.49a2.31,2.31,0,0,1-1.71,2.76l-2.37.55A2.23,2.23,0,0,1,662.46,417.16Z" transform="translate(0 -3.78)"/><path class="cls-15" d="M662.46,414.86c-.12-.52-2.88-12.95.15-32.18C665.4,365,673.88,338,698.42,310l1.82,1.63c-24.1,27.49-32.45,53.92-35.2,71.26-3,18.79-.24,31.24-.21,31.37Z" transform="translate(0 -3.78)"/><path class="cls-11" d="M655,416.11a2.25,2.25,0,0,1-1.21-.35l-2.06-1.3a2.32,2.32,0,0,1-.73-3.17c.07-.11,7.35-12.34,8.91-33.87,1.47-20.29-1.91-53.26-26.36-95.11a2.32,2.32,0,0,1-.24-1.75,2.3,2.3,0,0,1,1.05-1.41l2.09-1.25a2.27,2.27,0,0,1,3.12.81c25.42,43.51,28.88,78.07,27.3,99.4C665.17,401.58,657.3,414.5,657,415A2.27,2.27,0,0,1,655,416.11Z" transform="translate(0 -3.78)"/><path class="cls-15" d="M655,413.81l-2.06-1.3c.08-.12,7.63-12.6,9.25-34.92,1.5-20.62-1.92-54.08-26.67-96.45l2.09-1.25c25.12,43,28.54,77.06,27,98.05C662.94,400.81,655.35,413.29,655,413.81Z" transform="translate(0 -3.78)"/><path class="cls-12" d="M713.11,321.36s-3.27,23.46-7,39.86c-7.07,31.38-28.27,34.5-38,38.38-5.07-24.68,9.43-43.71,24.54-57.78S710.31,327.05,713.11,321.36Z" transform="translate(0 -3.78)"/><path class="cls-11" d="M668.15,401.14a1.5,1.5,0,0,1-.72-.18,1.54,1.54,0,0,1-.77-1c-5.56-27.05,11.61-46.75,25-59.22,4.83-4.5,8.43-7.68,11.06-10,5.57-4.93,7.26-6.41,9-10a1.51,1.51,0,0,1,1.81-.78,1.54,1.54,0,0,1,1.05,1.68c0,.24-3.32,23.71-7,40-6.39,28.35-24.25,34.41-34.91,38-1.46.5-2.84,1-4,1.43A1.5,1.5,0,0,1,668.15,401.14Zm42.52-73.62c-1.42,1.49-3.27,3.13-5.95,5.49s-6.2,5.48-11,10c-12.55,11.68-28.57,29.94-24.41,54.57l2.44-.84c10.72-3.64,26.91-9.14,32.92-35.81C707.13,349.92,709.44,335.63,710.67,327.52Z" transform="translate(0 -3.78)"/><path class="cls-14" d="M628.56,343.26s1.61,18.55,3.89,31.46c4.37,24.69,21.62,26.18,29.42,28.82,5.29-19.91-5.74-34.41-17.49-44.91S630.6,347.67,628.56,343.26Z" transform="translate(0 -3.78)"/><path class="cls-11" d="M661.87,405.07a1.53,1.53,0,0,1-.48-.08c-.94-.32-2-.62-3.2-.95C649.5,401.63,635,397.58,631,375c-2.27-12.83-3.89-31.41-3.91-31.59a1.54,1.54,0,0,1,1.12-1.62,1.51,1.51,0,0,1,1.77.83c1.25,2.69,2.43,3.69,6.82,7.4,2.05,1.73,4.86,4.1,8.63,7.47,16.48,14.73,22.35,29.92,18,46.46a1.53,1.53,0,0,1-.75,1A1.51,1.51,0,0,1,661.87,405.07ZM630.6,348.69c.65,6.48,1.86,17.37,3.34,25.76,3.66,20.69,16.53,24.27,25,26.64l1.79.51c3.37-14.89-2.2-28.21-17.41-41.81-3.73-3.34-6.52-5.69-8.56-7.41C633,350.83,631.65,349.7,630.6,348.69Z" transform="translate(0 -3.78)"/><path class="cls-15" d="M705.06,358.41s-20.64,2.92-31.71,9.76c-21.18,13.08-17.8,34.65-11.77,43.5,20.28-2.25,20.26-16.91,25.67-31.79S700.39,361,705.06,358.41Z" transform="translate(0 -3.78)"/><path class="cls-11" d="M661.57,413.2a1.52,1.52,0,0,1-1.25-.66c-3.22-4.72-6.25-13.77-4.16-23.7,1.87-8.92,7.54-16.52,16.39-22,11.21-6.92,31.44-9.85,32.3-10a1.52,1.52,0,0,1,1.65,1,1.55,1.55,0,0,1-.71,1.83l-.33.18c-4.65,2.58-11.69,6.47-16.78,20.46-1,2.68-1.78,5.38-2.56,8-3.5,11.75-6.81,22.85-24.38,24.8Zm36.16-51.89c-6.92,1.46-17.06,4.13-23.59,8.16-8.11,5-13.3,11.92-15,20A29.22,29.22,0,0,0,662.33,410c14.76-2,17.47-11.07,20.87-22.52.79-2.65,1.61-5.4,2.62-8.16C689.29,369.82,693.73,364.56,697.73,361.32Z" transform="translate(0 -3.78)"/><path class="cls-2" d="M682.2,295.83s-11.4-18.24,2.16-26,19-10.84,20-15.14c2,9.41,7.69,37.53-22.2,41.14" transform="translate(0 -3.78)"/><path class="cls-11" d="M682.2,297.37a1.52,1.52,0,0,1-1.29-.72c-.26-.42-6.44-10.44-4.25-19.27a13.9,13.9,0,0,1,6.95-8.9l.69-.39c12.21-7,17.78-10.19,18.62-13.76a1.55,1.55,0,0,1,1.49-1.18,1.53,1.53,0,0,1,1.47,1.21c1.26,5.87,4.61,21.45-3,32.29-4.21,6-11.1,9.58-20.48,10.71ZM703.72,259c-2.76,3.06-8.18,6.17-17.91,11.75l-.69.4a10.8,10.8,0,0,0-5.49,7c-1.55,6.22,2,13.6,3.39,16.05,8-1.15,13.82-4.27,17.37-9.31C705.95,277,704.93,265.86,703.72,259Z" transform="translate(0 -3.78)"/><path class="cls-11" d="M684.42,295.74a4.52,4.52,0,0,1-2-.47,4.26,4.26,0,0,1-2.12-5.58l8.27-17.2a4.17,4.17,0,0,1,5.65-1.76,4.26,4.26,0,0,1,2.12,5.58l-8.27,17.2a4,4,0,0,1-2.55,2.09A4.33,4.33,0,0,1,684.42,295.74Z" transform="translate(0 -3.78)"/><path class="cls-16" d="M686,292.5a1.9,1.9,0,0,1-2.6.7h0a1.94,1.94,0,0,1-1.07-2.5l8.27-17.2a1.9,1.9,0,0,1,2.6-.7h0a1.94,1.94,0,0,1,1.07,2.5Z" transform="translate(0 -3.78)"/><path class="cls-2" d="M696.81,314.21s-7.52-20.18,7.31-25,20.8-6.74,22.65-10.74c.11,9.63,0,38.33-30,35.77" transform="translate(0 -3.78)"/><path class="cls-11" d="M700.45,315.9q-1.83,0-3.77-.17a1.52,1.52,0,0,1-1.3-1c-.18-.47-4.22-11.54-.31-19.74a13.81,13.81,0,0,1,8.58-7.3l.75-.24c13.36-4.37,19.45-6.36,21-9.68a1.51,1.51,0,0,1,1.7-.85,1.53,1.53,0,0,1,1.2,1.49c.07,6,.24,21.94-9.41,31C714.29,313.73,708.1,315.9,700.45,315.9Zm-2.52-3.15c8,.5,14.4-1.37,18.88-5.58,7-6.6,8.25-17.68,8.42-24.64-3.31,2.44-9.25,4.38-19.9,7.86l-.75.24a10.74,10.74,0,0,0-6.77,5.7C695.06,302.11,697.11,310.07,697.93,312.75Z" transform="translate(0 -3.78)"/><path class="cls-11" d="M700.13,314.53a4.5,4.5,0,0,1-2.74-1,4.27,4.27,0,0,1-1-5.9L708,292.51a3.88,3.88,0,0,1,2.6-1.5,4.45,4.45,0,0,1,3.29.92,4.54,4.54,0,0,1,1.67,2.66,4,4,0,0,1-.71,3.24L703.28,313a3.88,3.88,0,0,1-2.6,1.5A4.15,4.15,0,0,1,700.13,314.53Zm11.45-19.21h0Z" transform="translate(0 -3.78)"/><path class="cls-16" d="M701.47,311.59a1.9,1.9,0,0,1-2.69.15h0a2,2,0,0,1-.55-2.67l11.53-15.16a1.9,1.9,0,0,1,2.69-.15h0a2,2,0,0,1,.55,2.67Z" transform="translate(0 -3.78)"/><path class="cls-2" d="M643.58,292.3s-21.33-.58-20.18-16.29,1.68-22-1.29-25.25c8.86,3.54,35.14,14.43,21.47,41.54" transform="translate(0 -3.78)"/><path class="cls-11" d="M643.58,293.83h0c-.49,0-12.17-.41-18.2-7.16a14,14,0,0,1-3.45-10.78l.06-.78c1-14.15,1.52-20.61-1-23.3a1.55,1.55,0,0,1-.14-1.91,1.51,1.51,0,0,1,1.81-.56c5.53,2.2,20.2,8.06,24.86,20.51,2.57,6.86,1.7,14.65-2.59,23.15A1.52,1.52,0,0,1,643.58,293.83Zm-18.3-40.09c1,4,.52,10.31-.31,21.59l-.06.78a10.89,10.89,0,0,0,2.67,8.49c4.25,4.76,12.32,5.85,15.08,6.09,3.5-7.34,4.18-14,2-19.77C641.29,261.86,631.59,256.54,625.29,253.74Z" transform="translate(0 -3.78)"/><path class="cls-11" d="M641.71,293.08a4,4,0,0,1-3.49-2l-9.54-16.51a4,4,0,0,1-.3-3.3,4.52,4.52,0,0,1,2-2.43,4.17,4.17,0,0,1,5.77,1.32l9.54,16.52a4,4,0,0,1,.3,3.3,4.56,4.56,0,0,1-4.27,3.06Zm0-4h0Z" transform="translate(0 -3.78)"/><path class="cls-16" d="M643.71,287.89a1.94,1.94,0,0,1-.88,2.57h0a1.9,1.9,0,0,1-2.65-.49l-9.54-16.51a1.94,1.94,0,0,1,.88-2.57h0a1.9,1.9,0,0,1,2.65.49Z" transform="translate(0 -3.78)"/><path class="cls-17" d="M689.71,472.3H631a12.29,12.29,0,0,1-12.23-12.35V410.86a3.06,3.06,0,0,1,3-3.07h77a3.06,3.06,0,0,1,3,3.07v49.09A12.29,12.29,0,0,1,689.71,472.3Z" transform="translate(0 -3.78)"/><path class="cls-18" d="M631,459.95V410.86a3.06,3.06,0,0,1,3-3.07H621.84a3.06,3.06,0,0,0-3,3.07v49.09A12.29,12.29,0,0,0,631,472.3h12.17A12.29,12.29,0,0,1,631,459.95Z" transform="translate(0 -3.78)"/><path class="cls-19" d="M698.89,407.79H688.24a3.06,3.06,0,0,1,3,3.07v49.09a12.29,12.29,0,0,1-12.23,12.35h10.65a12.29,12.29,0,0,0,12.23-12.35V410.86A3.06,3.06,0,0,0,698.89,407.79Z" transform="translate(0 -3.78)"/><path class="cls-11" d="M689.71,473.84H631A13.83,13.83,0,0,1,617.28,460V410.86a4.59,4.59,0,0,1,4.56-4.61h77a4.59,4.59,0,0,1,4.56,4.61V460A13.83,13.83,0,0,1,689.71,473.84Zm-67.86-64.52a1.53,1.53,0,0,0-1.52,1.54V460A10.77,10.77,0,0,0,631,470.77h58.68A10.77,10.77,0,0,0,700.41,460V410.86a1.53,1.53,0,0,0-1.52-1.54Z" transform="translate(0 -3.78)"/><path class="cls-17" d="M710.74,481.69H609.86a9.24,9.24,0,0,1-9.2-9.29v-.09H719.94v.09A9.24,9.24,0,0,1,710.74,481.69Z" transform="translate(0 -3.78)"/><path class="cls-19" d="M707.77,472.3v.09a9.24,9.24,0,0,1-9.2,9.29h12.17a9.24,9.24,0,0,0,9.2-9.29v-.09Z" transform="translate(0 -3.78)"/><path class="cls-11" d="M710.74,483.23H609.86a10.79,10.79,0,0,1-10.72-10.83v-1.54l1.52-.09H721.46v1.54A10.81,10.81,0,0,1,710.74,483.23Zm-108.41-9.39a7.7,7.7,0,0,0,7.53,6.31H710.74a7.71,7.71,0,0,0,7.54-6.31Z" transform="translate(0 -3.78)"/><polygon class="cls-11" points="648.64 438.57 642.08 431.94 644.23 429.77 648.64 434.22 654.12 428.68 659.6 434.22 665.08 428.68 670.57 434.22 674.98 429.77 677.13 431.94 670.57 438.57 665.08 433.03 659.6 438.57 654.12 433.03 648.64 438.57"/><rect class="cls-11" x="680.05" y="407.18" width="9.27" height="3.07"/><rect class="cls-11" x="694.59" y="412.36" width="3.04" height="25.17"/><rect class="cls-11" x="694.59" y="441.56" width="3.04" height="3.56"/><path class="cls-6" d="M230.76,441.88H132.54a3.82,3.82,0,0,1-3.8-3.84v-118a3.82,3.82,0,0,1,3.8-3.84h98.22a3.82,3.82,0,0,1,3.8,3.84V438A3.82,3.82,0,0,1,230.76,441.88Z" transform="translate(0 -3.78)"/><path class="cls-11" d="M230.76,443.42H132.54a5.36,5.36,0,0,1-5.32-5.38v-118a5.36,5.36,0,0,1,5.32-5.38h98.22a5.36,5.36,0,0,1,5.32,5.38V438A5.36,5.36,0,0,1,230.76,443.42ZM132.54,317.75a2.3,2.3,0,0,0-2.28,2.31V438a2.3,2.3,0,0,0,2.28,2.31h98.22A2.3,2.3,0,0,0,233,438v-118a2.3,2.3,0,0,0-2.28-2.31Z" transform="translate(0 -3.78)"/><path class="cls-20" d="M210.18,324.58H130.26V438a2.3,2.3,0,0,0,2.28,2.31H214V328.43A3.82,3.82,0,0,0,210.18,324.58Z" transform="translate(0 -3.78)"/><path class="cls-2" d="M204.09,456.4H105.87a3.82,3.82,0,0,1-3.8-3.84v-118a3.82,3.82,0,0,1,3.8-3.84h98.22a3.82,3.82,0,0,1,3.8,3.84v118A3.82,3.82,0,0,1,204.09,456.4Z" transform="translate(0 -3.78)"/><path class="cls-11" d="M204.09,457.94H105.87a5.36,5.36,0,0,1-5.32-5.38v-118a5.36,5.36,0,0,1,5.32-5.38h98.22a5.36,5.36,0,0,1,5.32,5.38v118A5.36,5.36,0,0,1,204.09,457.94ZM105.87,332.27a2.3,2.3,0,0,0-2.28,2.31v118a2.3,2.3,0,0,0,2.28,2.31h98.22a2.3,2.3,0,0,0,2.28-2.31v-118a2.3,2.3,0,0,0-2.28-2.31Z" transform="translate(0 -3.78)"/><path class="cls-6" d="M142.27,361.75h-24.5a4.34,4.34,0,0,1-4.32-4.37v-.09a4.34,4.34,0,0,1,4.32-4.37h24.5a4.34,4.34,0,0,1,4.32,4.37v.09A4.34,4.34,0,0,1,142.27,361.75Z" transform="translate(0 -3.78)"/><path class="cls-6" d="M173.06,361.75h-18a4.34,4.34,0,0,1-4.32-4.37v-.09a4.34,4.34,0,0,1,4.32-4.37h18a4.34,4.34,0,0,1,4.32,4.37v.09A4.34,4.34,0,0,1,173.06,361.75Z" transform="translate(0 -3.78)"/><path class="cls-6" d="M142.27,377.12h-24.5a4.34,4.34,0,0,1-4.32-4.37v-.09a4.34,4.34,0,0,1,4.32-4.37h24.5a4.34,4.34,0,0,1,4.32,4.37v.09A4.34,4.34,0,0,1,142.27,377.12Z" transform="translate(0 -3.78)"/><path class="cls-6" d="M192.2,377.12H155.09a4.34,4.34,0,0,1-4.32-4.37v-.09a4.34,4.34,0,0,1,4.32-4.37H192.2a4.34,4.34,0,0,1,4.32,4.37v.09A4.34,4.34,0,0,1,192.2,377.12Z" transform="translate(0 -3.78)"/><path class="cls-21" d="M128.72,396.61V383.85a6.17,6.17,0,0,0-6.14-6.2h-26a6.17,6.17,0,0,0-6.14,6.2v91.64a6.17,6.17,0,0,0,6.14,6.2H221.26a6.17,6.17,0,0,0,6.14-6.2V402.82a6.17,6.17,0,0,0-6.14-6.2Z" transform="translate(0 -3.78)"/><path class="cls-22" d="M221.26,475.54H96.59a6.17,6.17,0,0,1-6.14-6.2v6.15a6.17,6.17,0,0,0,6.14,6.2H221.26a6.17,6.17,0,0,0,6.14-6.2v-6.15A6.17,6.17,0,0,1,221.26,475.54Z" transform="translate(0 -3.78)"/><path class="cls-23" d="M96.59,383.79h26a6.17,6.17,0,0,1,6.14,6.2v-6.15a6.17,6.17,0,0,0-6.14-6.2h-26a6.17,6.17,0,0,0-6.14,6.2V390A6.17,6.17,0,0,1,96.59,383.79Z" transform="translate(0 -3.78)"/><path class="cls-23" d="M221.26,396.61H128.72v6.15h92.54a6.17,6.17,0,0,1,6.14,6.2v-6.15A6.17,6.17,0,0,0,221.26,396.61Z" transform="translate(0 -3.78)"/><path class="cls-11" d="M220.69,482.86H96a7.71,7.71,0,0,1-7.66-7.74V383.48A7.71,7.71,0,0,1,96,375.74h26a7.71,7.71,0,0,1,7.66,7.74v11.23h91a7.71,7.71,0,0,1,7.66,7.74v72.67A7.71,7.71,0,0,1,220.69,482.86ZM96,378.82a4.65,4.65,0,0,0-4.62,4.66v91.64A4.65,4.65,0,0,0,96,479.79H220.69a4.65,4.65,0,0,0,4.62-4.67V402.45a4.65,4.65,0,0,0-4.62-4.67H126.63V383.48a4.65,4.65,0,0,0-4.62-4.66Z" transform="translate(0 -3.78)"/><path class="cls-6" d="M192.2,361.75H186a4.34,4.34,0,0,1-4.32-4.37v-.09a4.34,4.34,0,0,1,4.32-4.37h6.23a4.34,4.34,0,0,1,4.32,4.37v.09A4.34,4.34,0,0,1,192.2,361.75Z" transform="translate(0 -3.78)"/><path class="cls-2" d="M451.21,97.43a51.87,51.87,0,0,1-73.89,0,53.19,53.19,0,0,1,0-74.67,51.87,51.87,0,0,1,73.89,0,53.19,53.19,0,0,1,0,74.67Z" transform="translate(0 -3.78)"/><path class="cls-6" d="M253.92,180.55a64.49,64.49,0,0,1-25.31,51.36,63.16,63.16,0,0,1-76.73,0,64.47,64.47,0,0,1-25.31-51.36c0-35.53,28.5-64.33,63.67-64.33S253.92,145,253.92,180.55Z" transform="translate(0 -3.78)"/><g class="cls-24"><g id="_14" data-name="14"><path class="cls-25" d="M207.54,198.38,206,194l-2.45-7.09,0,.08a3.6,3.6,0,0,0,0-.39,43.52,43.52,0,0,1-.24-13q-.94.92-1.92,1.81l-1,.87c-3.6,3.23-7.16,4.75-10.69,4.65-3.53.1-7.09-1.42-10.69-4.65l-1-.87a59.11,59.11,0,0,1-5.24-5.26,39.08,39.08,0,0,1-1.2,14.58,28.49,28.49,0,0,1-3.81,7.61,29,29,0,0,0-3.16,6.09.83.83,0,0,0,0,.51c3.2,10.5,6.29,21.82,15.71,28.45a17.84,17.84,0,0,0,4.41,2.36,13,13,0,0,0,12-2c4.76-3.7,5-10,6.69-15.38,1.39-4.47,2.74-8.95,4.1-13.42A.84.84,0,0,0,207.54,198.38Z" transform="translate(0 -3.78)"/><path class="cls-11" d="M188.85,231.91a14.07,14.07,0,0,1-4.59-.76,19.18,19.18,0,0,1-4.79-2.55C170,222,166.76,211.17,163.6,200.73l-.42-1.39a2.37,2.37,0,0,1,0-1.47,30.84,30.84,0,0,1,3.31-6.41l.16-.25a26.09,26.09,0,0,0,3.47-7,37.77,37.77,0,0,0,1.15-14,1.54,1.54,0,0,1,.91-1.57,1.51,1.51,0,0,1,1.76.41,58.07,58.07,0,0,0,5.1,5.13l1,.86c3.25,2.92,6.51,4.34,9.64,4.27,3.26.13,6.47-1.35,9.72-4.27l1-.87q1-.87,1.87-1.77a1.51,1.51,0,0,1,1.74-.27,1.54,1.54,0,0,1,.83,1.56,41.81,41.81,0,0,0,.22,12.53,1.86,1.86,0,0,1,0,.19L209,197.87h0a2.38,2.38,0,0,1,0,1.47l-1.31,4.3c-.93,3-1.85,6.09-2.79,9.13-.39,1.25-.7,2.54-1,3.91-1.06,4.47-2.16,9.09-6.2,12.23A14.45,14.45,0,0,1,188.85,231.91Zm-22.69-33.25.35,1.17c3,9.94,6.12,20.21,14.7,26.25a16.28,16.28,0,0,0,4,2.16,11.55,11.55,0,0,0,10.59-1.77c3.18-2.47,4.11-6.38,5.09-10.51.32-1.36.66-2.76,1.08-4.11q1.41-4.55,2.79-9.11l1.24-4.09-3.75-10.84a1.43,1.43,0,0,1-.27-.71c0-.06,0-.29,0-.35a39.11,39.11,0,0,1-.58-9.4l0,0c-3.85,3.46-7.8,5.12-11.74,5-3.87.08-7.81-1.58-11.66-5l-1-.88c-.79-.71-1.63-1.49-2.48-2.33a40.81,40.81,0,0,1-1.47,10.92,28.9,28.9,0,0,1-3.83,7.77l-.16.25A28.31,28.31,0,0,0,166.15,198.66Zm39.94-.23h0Z" transform="translate(0 -3.78)"/><path class="cls-25" d="M212.88,140.46l-.17-.33c-1.44-2.78-2.11-6.68-2.95-9.7s-2.45-5.72-2.79-8.92c.29,2.74-7.44,6.41-9.42,7.79a53.64,53.64,0,0,1-7.64,3.92v-.16s-.23.27-.21.26v0a73.94,73.94,0,0,0-14.08,5.19c-4.89,2.76-9.64,7.81-14.07,11.44.55,3,1.86,7.9,4.66,8.07.86.05,1.32,1.07,1.47,1.93a20.94,20.94,0,0,0,5.12,10.2,59.11,59.11,0,0,0,5.24,5.26l1,.87c3.6,3.23,7.6,4.91,11.13,4.81v-.17c3.39,0,6.8-1.54,10.26-4.64l1-.87q1-.89,1.92-1.81c3.72-3.63,6.94-7.69,8.63-12.72a14.55,14.55,0,0,0,.51-2.32c.93,0,2.29-.3,2.76-1.12a6.66,6.66,0,0,0,.65-2.68c.12-1.22.24-4.09.35-5.31C216.61,144.88,214.72,143.85,212.88,140.46Z" transform="translate(0 -3.78)"/><path class="cls-11" d="M189.83,182.59c-3.9,0-8.09-1.84-11.84-5.21l-1-.88a61.08,61.08,0,0,1-5.37-5.4,22.26,22.26,0,0,1-5.47-10.94,1.89,1.89,0,0,0-.23-.67c-2.82-.29-4.8-3.42-5.9-9.31a1.55,1.55,0,0,1,.54-1.48c1.39-1.13,2.79-2.4,4.28-3.74,3.21-2.89,6.53-5.88,10-7.85,1.79-1,10.36-4.5,14-5.19a1.5,1.5,0,0,1,.54-.32,1.47,1.47,0,0,1,.48-.08l1.47-.68a32.88,32.88,0,0,0,5.31-2.81c.49-.35,1.21-.76,2.12-1.29,4.37-2.54,6.61-4.25,6.66-5.09a1.52,1.52,0,1,1,3-.32,20.25,20.25,0,0,0,1.51,5.16,36.25,36.25,0,0,1,1.23,3.5c.23.83.44,1.71.67,2.63a31.67,31.67,0,0,0,2.16,6.77l.1.18.07.12c.44.81.89,1.47,1.32,2.12a10.18,10.18,0,0,1,2.16,7.71c-.06.6-.12,1.61-.17,2.62s-.12,2.07-.18,2.69a8.05,8.05,0,0,1-.84,3.29,4,4,0,0,1-2.78,1.76,7.19,7.19,0,0,1-.36,1.41c-1.54,4.6-4.41,8.83-9,13.33q-1,.94-2,1.85l-1,.88c-3.44,3.09-7,4.77-10.51,5a1.51,1.51,0,0,1-.7.2ZM163.22,150.5c.91,4.28,2.21,5.88,3.08,5.94,1.43.09,2.56,1.34,2.88,3.2a19.32,19.32,0,0,0,4.77,9.45,58.07,58.07,0,0,0,5.1,5.13l1,.86c3,2.71,6.41,4.29,9.43,4.42a1.53,1.53,0,0,1,.67-.17c3,0,6.15-1.46,9.26-4.25l1-.87q1-.87,1.87-1.77c4.24-4.15,6.87-8,8.25-12.12a4.12,4.12,0,0,0,.25-1,10.41,10.41,0,0,1,.21-1.17,1.52,1.52,0,0,1,1.46-1.19,2.64,2.64,0,0,0,1.48-.38,5.64,5.64,0,0,0,.44-2c.06-.59.11-1.58.17-2.57s.12-2.11.18-2.74c.27-2.81-.45-3.89-1.65-5.69-.45-.67-1-1.43-1.46-2.36v0l1.35-.72-1.41.6-.12-.23a34.3,34.3,0,0,1-2.42-7.45c-.21-.88-.42-1.74-.64-2.53a33.53,33.53,0,0,0-1.13-3.2c-.29-.74-.58-1.48-.84-2.25a38.65,38.65,0,0,1-6,4c-.81.47-1.49.86-1.9,1.15a35.76,35.76,0,0,1-5.79,3.09c-.68.31-1.37.62-2.06,1a1.42,1.42,0,0,1-.26.1l-.12,0a1.33,1.33,0,0,1-.54.08c-1.61.38-9.63,2.91-13.27,5-3.19,1.8-6.38,4.67-9.47,7.46C165.63,148.4,164.42,149.49,163.22,150.5Z" transform="translate(0 -3.78)"/><path class="cls-26" d="M168.14,191.76a4.1,4.1,0,0,1-.08.8l-.25-.28C167.92,192.12,168,191.92,168.14,191.76Z" transform="translate(0 -3.78)"/><path class="cls-5" d="M194.31,97a33.6,33.6,0,0,0-31.66,13.89,39.72,39.72,0,0,0-5,10.28c-2.89,8.48-4.76,17.87-3.17,26.82a27.4,27.4,0,0,0,4.85,11.63,19.42,19.42,0,0,0,9.09,6.71,8.12,8.12,0,0,1-1.58-2.42,17.28,17.28,0,0,1-1.05-2.41,20.27,20.27,0,0,1-.93-4.56,13.16,13.16,0,0,1,2.06-8.75c4-5.63,14-8.13,20-10.57s20.41-7.4,20-15.94A45.64,45.64,0,0,0,209.86,134c2.43,5.51,5.36,9.82,5.94,16.07a31.87,31.87,0,0,1-4.62,19.56,7.73,7.73,0,0,0,5.89-2.92c7.71-8.87,11.45-21.68,11.22-33.35-.19-10.07-3.23-18.61-11.22-24.85-.72-.56-7.47-4.37-7.42-3.09C209.46,100.76,197.58,97.44,194.31,97Z" transform="translate(0 -3.78)"/><path class="cls-11" d="M211.39,171.17h-.26a1.52,1.52,0,0,1-1.29-.82,1.55,1.55,0,0,1,.06-1.54,30.18,30.18,0,0,0,4.39-18.59c-.4-4.41-2.11-7.9-3.92-11.59-.63-1.29-1.28-2.6-1.89-4a34.18,34.18,0,0,1-2-6.7c-3.88,5.22-12.29,8.53-17.43,10.55l-1.44.57c-1.24.5-2.64,1-4.12,1.53-5.49,2-12.31,4.41-15.26,8.51a11.64,11.64,0,0,0-1.77,7.72,18.68,18.68,0,0,0,.86,4.21,16,16,0,0,0,1,2.19l.09.17a6.25,6.25,0,0,0,1.17,1.83,1.55,1.55,0,0,1,.26,1.91,1.51,1.51,0,0,1-1.8.66,21,21,0,0,1-9.81-7.24A28.74,28.74,0,0,1,153,148.27c-1.42-8-.37-17,3.23-27.59A40.76,40.76,0,0,1,161.42,110a34.93,34.93,0,0,1,33.09-14.52h0c2.32.31,14.06,3,16.3,8.28,2.81.59,7.15,3.49,7.2,3.52,7.73,6,11.59,14.56,11.81,26,.25,12.89-4.09,25.75-11.6,34.4A9.24,9.24,0,0,1,211.39,171.17Zm-4.41-51a1.53,1.53,0,0,1,1.51,1.35c.4,3.32,1.12,8.16,2.76,11.88.6,1.35,1.22,2.63,1.84,3.88,1.94,4,3.77,7.69,4.23,12.67a33.37,33.37,0,0,1-3.05,17.22,8,8,0,0,0,1.67-1.46c7-8.09,11.08-20.16,10.85-32.31-.2-10.63-3.58-18.15-10.63-23.67a34.45,34.45,0,0,0-5.78-2.95,1.52,1.52,0,0,1-2.23-1.29h0c-.12-2.91-9.42-6.34-14-7a31.92,31.92,0,0,0-30.22,13.26,37.83,37.83,0,0,0-4.76,9.89c-3.42,10-4.44,18.56-3.11,26a25.68,25.68,0,0,0,4.57,11,18.05,18.05,0,0,0,4,3.94c-.08-.21-.16-.43-.24-.66a21.74,21.74,0,0,1-1-4.91,14.72,14.72,0,0,1,2.34-9.78c3.5-4.88,10.82-7.5,16.7-9.61,1.44-.51,2.8-1,4-1.49l1.46-.58c6.26-2.46,17.9-7,17.56-13.86a1.53,1.53,0,0,1,1.39-1.61Z" transform="translate(0 -3.78)"/><path class="cls-27" d="M249.56,243.13c-1-11-2.4-21.26-3.71-26.21-2.81-10.61-9-13.42-19.31-16.6-1.56-.48-22.72-3.72-21.31-8.37-4.65,15.38-10.32,29.27-15,44.65l-2,6.52Z" transform="translate(0 -3.78)"/><path class="cls-11" d="M249.56,244.67H188.24A1.52,1.52,0,0,1,187,244a1.55,1.55,0,0,1-.23-1.36l2-6.53c2.33-7.67,4.95-15.08,7.48-22.25s5.19-14.7,7.52-22.4h0a1.52,1.52,0,0,1,1.9-1,1.54,1.54,0,0,1,1,1.92c.11.58,1.75,2.76,18.09,6,1.31.26,1.9.38,2.21.47,10.3,3.18,17.29,6.13,20.34,17.68,1.27,4.81,2.71,15,3.75,26.46a1.55,1.55,0,0,1-.39,1.18A1.51,1.51,0,0,1,249.56,244.67Zm-59.26-3.07h57.59c-1-10.64-2.33-19.84-3.51-24.27-2.57-9.7-7.79-12.29-18.29-15.53-.24-.07-.93-.2-1.9-.39-7.69-1.51-15.09-3.26-18.52-5.73-2.09,6.62-4.35,13-6.55,19.28-2.52,7.13-5.12,14.51-7.44,22.12Z" transform="translate(0 -3.78)"/><path class="cls-27" d="M146.21,243.13h37.25l-2-6.52c-4.67-15.39-8.3-30.07-13-45.45,0,.76-10.28,5.83-11.36,6.26-4.24,1.7-7.89,1.75-11.66,2.52C147.83,213.92,146.8,228.54,146.21,243.13Z" transform="translate(0 -3.78)"/><path class="cls-11" d="M183.46,244.67H146.21a1.52,1.52,0,0,1-1.1-.47,1.54,1.54,0,0,1-.42-1.13q.1-2.53.22-5.06c.55-12.59,1.13-25.6-.92-37.82a1.54,1.54,0,0,1,1.2-1.76c1.19-.24,2.36-.41,3.55-.59a32.28,32.28,0,0,0,7.86-1.85c1.17-.47,9.29-4.55,10.62-5.63a1.52,1.52,0,0,1,1.07-.72A1.54,1.54,0,0,1,170,190.7c2.33,7.67,4.42,15.28,6.46,22.64s4.16,15.1,6.51,22.81l2,6.52a1.54,1.54,0,0,1-.23,1.36A1.51,1.51,0,0,1,183.46,244.67Zm-35.66-3.07H181.4L180,237.06c-2.36-7.76-4.48-15.45-6.53-22.89-1.84-6.68-3.74-13.56-5.81-20.49a74.53,74.53,0,0,1-10,5.17,35.26,35.26,0,0,1-8.54,2l-1.94.3c1.81,12.09,1.26,24.73.72,37Q147.87,239.87,147.79,241.59ZM167,191.15h0Zm0,0h0Zm0,0h0Z" transform="translate(0 -3.78)"/><path class="cls-2" d="M181,243.13h10.14l6.58-15.65c1.68-4,3.68-7.27,4.91-11.44.72-2.43,1.81-4.72,2.5-7.17.35-1.23.51-6.81,1.24-7.44a28.4,28.4,0,0,1-30.44,4.38c-3-1.37-5.89-4.79-9.2-4.95A274.93,274.93,0,0,0,181,243.13Z" transform="translate(0 -3.78)"/><path class="cls-11" d="M191.16,244.67H181a1.52,1.52,0,0,1-1.4-.94,276.75,276.75,0,0,1-14.36-42.49,1.55,1.55,0,0,1,.3-1.34,1.48,1.48,0,0,1,1.25-.56c2.51.12,4.6,1.63,6.63,3.09a19.45,19.45,0,0,0,3.12,2,26.89,26.89,0,0,0,28.83-4.15h0a1.51,1.51,0,0,1,2.14.17,1.55,1.55,0,0,1,0,2,27.59,27.59,0,0,0-.56,4,20.73,20.73,0,0,1-.4,2.93c-.37,1.33-.86,2.61-1.33,3.84s-.84,2.23-1.17,3.34a50,50,0,0,1-3.12,7.59c-.62,1.29-1.26,2.62-1.84,4l-6.58,15.65A1.52,1.52,0,0,1,191.16,244.67ZM182,241.59h8.13l6.18-14.71c.62-1.47,1.27-2.83,1.9-4.15a46.86,46.86,0,0,0,2.95-7.13c.36-1.23.81-2.42,1.25-3.57s.9-2.38,1.24-3.58c.09-.32.2-1.47.3-2.39q.05-.53.1-1a30.52,30.52,0,0,1-16.37,4.87h-.21a30.29,30.29,0,0,1-12.19-2.71,21.93,21.93,0,0,1-3.65-2.29,24.09,24.09,0,0,0-2.81-1.85A276.61,276.61,0,0,0,182,241.59Z" transform="translate(0 -3.78)"/><path class="cls-27" d="M201.29,243.13c6.39-9.63,12.28-18.24,12-18.73l-6.71-12.12,9.13,1c-.94-2.93-3-17.32-5.72-18.77l-5.15-4.19-11,33-5.93,19.78Z" transform="translate(0 -3.78)"/><path class="cls-11" d="M201.29,244.67H187.94a1.52,1.52,0,0,1-1.22-.62,1.55,1.55,0,0,1-.23-1.36l5.93-19.78,11-33.08a1.53,1.53,0,0,1,1-1,1.51,1.51,0,0,1,1.38.28l5.07,4.12c2.11,1.32,3.41,6,5.34,15.31.39,1.9.73,3.53,1,4.25a1.55,1.55,0,0,1-.27,1.44,1.48,1.48,0,0,1-1.34.56l-6.2-.67,5.27,9.53c.65,1.17.67,1.22-8.37,14.77L202.55,244A1.52,1.52,0,0,1,201.29,244.67ZM190,241.59h10.48l3.26-4.89c3.43-5.14,7-10.45,7.89-12.17L205.26,213a1.55,1.55,0,0,1,.06-1.6,1.51,1.51,0,0,1,1.43-.68l7,.75c-.15-.69-.31-1.47-.49-2.33-.7-3.37-2.56-12.33-4-13.33a1.33,1.33,0,0,1-.22-.15l-3.45-2.81-10.28,30.95Z" transform="translate(0 -3.78)"/><path class="cls-27" d="M158.88,224.4c-.28.5,5.48,9.08,11.81,18.73h13.55l-5.93-19.78-10-32.92-6.11,4.07c-2.68,1.45-4.78,15.83-5.72,18.77l9.13-1Z" transform="translate(0 -3.78)"/><path class="cls-11" d="M184.24,244.67H170.69a1.52,1.52,0,0,1-1.27-.69l-2.85-4.34c-9.7-14.75-9.66-14.82-9-16h0l5.27-9.53-6.2.67a1.51,1.51,0,0,1-1.34-.56,1.55,1.55,0,0,1-.27-1.44c.23-.72.57-2.35,1-4.25,2-9.49,3.29-14.21,5.49-15.4l6-4a1.52,1.52,0,0,1,2.29.83l10,32.92,5.93,19.79a1.55,1.55,0,0,1-.23,1.36A1.52,1.52,0,0,1,184.24,244.67Zm-12.73-3.07h10.68l-5.34-17.8-9.42-31L163,195.78c-1.51,1.06-3.37,10-4.07,13.39-.18.86-.34,1.65-.49,2.33l7-.75a1.52,1.52,0,0,1,1.43.68,1.55,1.55,0,0,1,.06,1.6l-6.37,11.51c.95,1.83,4.81,7.7,8.56,13.39Zm-11.29-16.46h0Zm-1.33-.74h0Z" transform="translate(0 -3.78)"/><path class="cls-27" d="M148.28,243.13c-.48-5.44-1.18-10.85-1.05-16.33a141.86,141.86,0,0,0-1.74-26.86c-1.86.38-3.59,1.33-5.76,1.92-15.56,4.23-16,14.92-17.15,26.25-.52,5.21.18,10-.69,15Z" transform="translate(0 -3.78)"/><path class="cls-11" d="M148.28,244.67H121.89a1.52,1.52,0,0,1-1.17-.55,1.54,1.54,0,0,1-.33-1.25,45.93,45.93,0,0,0,.45-8.11,65.94,65.94,0,0,1,.22-6.8l.12-1.26c1.05-10.8,2.14-22,18.14-26.31a26.26,26.26,0,0,0,2.62-.91,20.13,20.13,0,0,1,3.24-1,1.51,1.51,0,0,1,1.16.24,1.53,1.53,0,0,1,.64,1,142.06,142.06,0,0,1,1.76,27.16,106,106,0,0,0,.72,12.68c.11,1.16.22,2.32.33,3.48a1.55,1.55,0,0,1-.39,1.17A1.51,1.51,0,0,1,148.28,244.67Zm-24.63-3.07h23q-.08-.89-.17-1.78a108.21,108.21,0,0,1-.73-13.05,140.75,140.75,0,0,0-1.45-24.88l-1.22.46a29.53,29.53,0,0,1-2.91,1c-14,3.8-14.87,13-15.9,23.65l-.12,1.27a63.28,63.28,0,0,0-.21,6.49A60.49,60.49,0,0,1,123.64,241.59Z" transform="translate(0 -3.78)"/><path class="cls-5" d="M171.61,184.68a6.84,6.84,0,0,1-1.45,3.15c-.38.36-2.6,1.74-2.52,2.21a27.38,27.38,0,0,1,.11,11.25c-.66,3.18-1.81,6.36-4.92,7.8a6,6,0,0,0-1.23.72,5.61,5.61,0,0,0-.47.39c-.85.77-.52,1.16-.33,2.24l.08.55a17,17,0,0,1,0,4.73,24.47,24.47,0,0,1-.87,4c-1.4,4.87-2.85,9.57-7.52,12.19-3,1.71-7.09,2.68-8.16,6-3.89-11.42,1.64-22.56,10.48-29.67l.22-.17a2.58,2.58,0,0,0,.77-.77,2.07,2.07,0,0,0,.05-1.71,7.36,7.36,0,0,0-.44-1.08,12.81,12.81,0,0,1,1.42-12.25c1.83-2.57,8.24-3.62,7.85-7.47a6.82,6.82,0,0,0-1.2-2.65c-3.5-6.28,2.24-11,7.28-14.24.41-.25.82-.5,1.2-.75.27.33.52.66.79,1A39.09,39.09,0,0,1,171.61,184.68Z" transform="translate(0 -3.78)"/><path class="cls-11" d="M144.36,241.43a1.52,1.52,0,0,1-1.44-1c-4.44-13.05,2.76-24.76,11-31.37l.32-.24,0,0a1.57,1.57,0,0,0,.25-.21.86.86,0,0,0-.07-.47,5.94,5.94,0,0,0-.36-.88,14.4,14.4,0,0,1,1.55-13.83,11.76,11.76,0,0,1,4-3c2.26-1.25,3.73-2.17,3.6-3.44a4.06,4.06,0,0,0-.69-1.5l-.32-.53c-4.65-8.33,4.7-14.33,7.78-16.31.43-.26.83-.5,1.2-.74a1.51,1.51,0,0,1,2,.31l.31.38c.15.18.29.37.44.54a1.54,1.54,0,0,1,.38.87,40.9,40.9,0,0,1-1.22,15.15h0l0,.17A7.67,7.67,0,0,1,171.2,189c-.14.13-.45.37-.84.64s-.75.54-1.09.81a29.1,29.1,0,0,1,0,11.19c-.66,3.21-1.92,7.11-5.78,8.89a4.4,4.4,0,0,0-.92.53,2.22,2.22,0,0,0-.26.21l-.15.14,0,.18c0,.18.09.39.13.62l.09.61a18.55,18.55,0,0,1,0,5.16,25.78,25.78,0,0,1-.92,4.2c-1.36,4.73-2.9,10.1-8.24,13.1-.79.45-1.64.84-2.46,1.23-2.25,1.05-4.38,2-5,3.91a1.53,1.53,0,0,1-1.43,1.06Zm27-70.1c-6.81,4.42-8.77,8-6.54,12l.27.45a6.41,6.41,0,0,1,1.13,2.83c.34,3.36-2.71,5.06-5.16,6.42a10.07,10.07,0,0,0-3,2.07,11.22,11.22,0,0,0-1.26,10.73,8.56,8.56,0,0,1,.5,1.25,3.51,3.51,0,0,1-.19,2.93,3.4,3.4,0,0,1-1,1.11l-.22.17-.22.17C149,216.86,143,226,145,236.33a18.6,18.6,0,0,1,4.53-2.66c.8-.37,1.56-.73,2.26-1.12,4-2.22,5.31-6.07,6.81-11.28a23,23,0,0,0,.83-3.74,15.52,15.52,0,0,0,0-4.33l-.08-.55c0-.12-.06-.27-.09-.41a2.88,2.88,0,0,1,.91-3.18l.16-.14a4.47,4.47,0,0,1,.48-.39,6.91,6.91,0,0,1,1.43-.83c2.09-1,3.31-3,4.08-6.72a26,26,0,0,0-.1-10.61c-.24-1.36.94-2.21,2.44-3.29.24-.17.44-.31.54-.4a5.55,5.55,0,0,0,1-2.26l0-.18A37.72,37.72,0,0,0,171.37,171.33Zm.24,13.35h0Z" transform="translate(0 -3.78)"/><path class="cls-11" d="M160.88,215.3a2.28,2.28,0,0,1-1-.24c-1.23-.62-3.62-1.8-5.86-2.68a2.32,2.32,0,0,1-.43-4.06l.11-.09a2.32,2.32,0,0,1,.52-2.21,2.26,2.26,0,0,1,2.23-.67,27.16,27.16,0,0,1,6.27,2.46,2.32,2.32,0,0,1,.27,3.85q0,.18.08.38l.09.64a2.31,2.31,0,0,1-.92,2.2A2.26,2.26,0,0,1,160.88,215.3Zm-7.13-6.83Z" transform="translate(0 -3.78)"/><path class="cls-28" d="M161.13,210.2c-.85.77-.52,1.16-.33,2.24l.08.55c-1.75-.88-4-2-6-2.77l.22-.17a2.58,2.58,0,0,0,.77-.77,2.07,2.07,0,0,0,.05-1.71,24.66,24.66,0,0,1,5.72,2.24A5.61,5.61,0,0,0,161.13,210.2Z" transform="translate(0 -3.78)"/></g></g><path class="cls-11" d="M190.24,246.43A64.15,64.15,0,0,1,151,233.13a65.63,65.63,0,0,1-25.91-52.59c0-36.32,29.24-65.87,65.19-65.87s65.2,29.55,65.2,65.87a65.67,65.67,0,0,1-25.91,52.59A64.11,64.11,0,0,1,190.24,246.43Zm0-128.68c-34.27,0-62.14,28.17-62.14,62.8a62.57,62.57,0,0,0,24.7,50.14,61.65,61.65,0,0,0,74.89,0,62.61,62.61,0,0,0,24.71-50.14C252.4,145.92,224.51,117.75,190.24,117.75Z" transform="translate(0 -3.78)"/><path class="cls-2" d="M183.75,154.4h0Z" transform="translate(0 -3.78)"/><path class="cls-2" d="M153.67,265.83h22.1a7.64,7.64,0,0,0,7.6-7.68V212.55a7.64,7.64,0,0,0-7.6-7.68h-22.1a7.64,7.64,0,0,0-7.6,7.68v45.59A7.64,7.64,0,0,0,153.67,265.83Z" transform="translate(0 -3.78)"/><path class="cls-11" d="M175.77,267.37H153.67a9.18,9.18,0,0,1-9.13-9.22V212.55a9.18,9.18,0,0,1,9.13-9.22h22.11a9.18,9.18,0,0,1,9.13,9.22v45.59A9.18,9.18,0,0,1,175.77,267.37Zm-22.11-61a6.12,6.12,0,0,0-6.08,6.15v45.59a6.12,6.12,0,0,0,6.08,6.15h22.11a6.12,6.12,0,0,0,6.08-6.15V212.55a6.12,6.12,0,0,0-6.08-6.15Z" transform="translate(0 -3.78)"/><ellipse class="cls-5" cx="175.7" cy="209.8" rx="3.09" ry="3.12"/><path class="cls-25" d="M142.8,241.34h8.48a2.81,2.81,0,0,0,2.8-2.83v-.06a2.82,2.82,0,0,0-2.8-2.83H142.8a2.82,2.82,0,0,0-2.8,2.83v.06A2.82,2.82,0,0,0,142.8,241.34Z" transform="translate(0 -3.78)"/><path class="cls-11" d="M151.28,242.87H142.8a4.4,4.4,0,0,1,0-8.79h8.48a4.4,4.4,0,0,1,0,8.79Zm-8.48-5.72a1.29,1.29,0,0,0-1.28,1.29,1.3,1.3,0,0,0,1.28,1.35h8.48a1.29,1.29,0,0,0,1.28-1.29,1.3,1.3,0,0,0-1.28-1.35Z" transform="translate(0 -3.78)"/><path class="cls-25" d="M144.51,247.05H153a2.82,2.82,0,0,0,2.8-2.83v-.06a2.82,2.82,0,0,0-2.8-2.83h-8.48a2.82,2.82,0,0,0-2.8,2.83v.06A2.82,2.82,0,0,0,144.51,247.05Z" transform="translate(0 -3.78)"/><path class="cls-11" d="M153,248.59h-8.48a4.4,4.4,0,0,1,0-8.79H153a4.4,4.4,0,0,1,0,8.79Zm-8.48-5.72a1.29,1.29,0,0,0-1.28,1.29,1.3,1.3,0,0,0,1.28,1.35H153a1.29,1.29,0,0,0,1.28-1.29,1.3,1.3,0,0,0-1.28-1.35Z" transform="translate(0 -3.78)"/><path class="cls-25" d="M142.8,252.77h8.48a2.82,2.82,0,0,0,2.8-2.83v-.06a2.82,2.82,0,0,0-2.8-2.83H142.8a2.82,2.82,0,0,0-2.8,2.83v.06A2.82,2.82,0,0,0,142.8,252.77Z" transform="translate(0 -3.78)"/><path class="cls-11" d="M151.28,254.31H142.8a4.4,4.4,0,0,1,0-8.79h8.48a4.4,4.4,0,0,1,0,8.79Zm-8.48-5.72a1.29,1.29,0,0,0-1.28,1.29,1.3,1.3,0,0,0,1.28,1.35h8.48a1.29,1.29,0,0,0,1.28-1.29,1.3,1.3,0,0,0-1.28-1.35Z" transform="translate(0 -3.78)"/><path class="cls-25" d="M144.35,257.23h2.77A2.19,2.19,0,0,0,149.3,255v0a2.19,2.19,0,0,0-2.18-2.21h-2.77a2.19,2.19,0,0,0-2.18,2.21v0A2.19,2.19,0,0,0,144.35,257.23Z" transform="translate(0 -3.78)"/><path class="cls-11" d="M147.12,258.76h-2.77a3.77,3.77,0,0,1,0-7.53h2.77a3.77,3.77,0,0,1,0,7.53Zm-2.77-4.46a.67.67,0,0,0-.66.67.68.68,0,0,0,.66.71h2.77a.67.67,0,0,0,.66-.67.68.68,0,0,0-.66-.71Z" transform="translate(0 -3.78)"/><path class="cls-26" d="M168.14,191.76a4.1,4.1,0,0,1-.08.8l-.25-.28C167.92,192.12,168,191.92,168.14,191.76Z" transform="translate(0 -3.78)"/><path class="cls-5" d="M194.31,97a33.6,33.6,0,0,0-31.66,13.89,39.72,39.72,0,0,0-5,10.28c-2.89,8.48-4.76,17.87-3.17,26.82a27.4,27.4,0,0,0,4.85,11.63,19.42,19.42,0,0,0,9.09,6.71,8.12,8.12,0,0,1-1.58-2.42,17.28,17.28,0,0,1-1.05-2.41,20.27,20.27,0,0,1-.93-4.56,13.16,13.16,0,0,1,2.06-8.75c4-5.63,14-8.13,20-10.57s20.41-7.4,20-15.94A45.64,45.64,0,0,0,209.86,134c2.43,5.51,5.36,9.82,5.94,16.07a31.87,31.87,0,0,1-4.62,19.56,7.73,7.73,0,0,0,5.89-2.92c7.71-8.87,11.45-21.68,11.22-33.35-.19-10.07-3.23-18.61-11.22-24.85-.72-.56-7.47-4.37-7.42-3.09C209.46,100.76,197.58,97.44,194.31,97Z" transform="translate(0 -3.78)"/><path class="cls-11" d="M211.39,171.17h-.26a1.52,1.52,0,0,1-1.29-.82,1.55,1.55,0,0,1,.06-1.54,30.18,30.18,0,0,0,4.39-18.59c-.4-4.41-2.11-7.9-3.92-11.59-.63-1.29-1.28-2.6-1.89-4a34.18,34.18,0,0,1-2-6.7c-3.88,5.22-12.29,8.53-17.43,10.55l-1.44.57c-1.24.5-2.64,1-4.12,1.53-5.49,2-12.31,4.41-15.26,8.51a11.64,11.64,0,0,0-1.77,7.72,18.68,18.68,0,0,0,.86,4.21,16,16,0,0,0,1,2.19l.09.17a6.25,6.25,0,0,0,1.17,1.83,1.55,1.55,0,0,1,.26,1.91,1.51,1.51,0,0,1-1.8.66,21,21,0,0,1-9.81-7.24A28.74,28.74,0,0,1,153,148.27c-1.42-8-.37-17,3.23-27.59A40.76,40.76,0,0,1,161.42,110a34.93,34.93,0,0,1,33.09-14.52h0c2.32.31,14.06,3,16.3,8.28,2.81.59,7.15,3.49,7.2,3.52,7.73,6,11.59,14.56,11.81,26,.25,12.89-4.09,25.75-11.6,34.4A9.24,9.24,0,0,1,211.39,171.17Zm-4.41-51a1.53,1.53,0,0,1,1.51,1.35c.4,3.32,1.12,8.16,2.76,11.88.6,1.35,1.22,2.63,1.84,3.88,1.94,4,3.77,7.69,4.23,12.67a33.37,33.37,0,0,1-3.05,17.22,8,8,0,0,0,1.67-1.46c7-8.09,11.08-20.16,10.85-32.31-.2-10.63-3.58-18.15-10.63-23.67a34.45,34.45,0,0,0-5.78-2.95,1.52,1.52,0,0,1-2.23-1.29h0c-.12-2.91-9.42-6.34-14-7a31.92,31.92,0,0,0-30.22,13.26,37.83,37.83,0,0,0-4.76,9.89c-3.42,10-4.44,18.56-3.11,26a25.68,25.68,0,0,0,4.57,11,18.05,18.05,0,0,0,4,3.94c-.08-.21-.16-.43-.24-.66a21.74,21.74,0,0,1-1-4.91,14.72,14.72,0,0,1,2.34-9.78c3.5-4.88,10.82-7.5,16.7-9.61,1.44-.51,2.8-1,4-1.49l1.46-.58c6.26-2.46,17.9-7,17.56-13.86a1.53,1.53,0,0,1,1.39-1.61Z" transform="translate(0 -3.78)"/><path class="cls-2" d="M73.47,108.47h39.69a7.64,7.64,0,0,1,7.6,7.68v24a7.64,7.64,0,0,1-7.6,7.68H91.73l-4.28,7.49a4.19,4.19,0,0,1-7.3,0l-4.28-7.49H73.47a7.64,7.64,0,0,1-7.6-7.68v-24A7.64,7.64,0,0,1,73.47,108.47Z" transform="translate(0 -3.78)"/><path class="cls-11" d="M83.8,159a5.67,5.67,0,0,1-5-2.9L75,149.37H73.47a9.18,9.18,0,0,1-9.13-9.22v-24a9.18,9.18,0,0,1,9.13-9.22h39.69a9.18,9.18,0,0,1,9.13,9.22v24a9.18,9.18,0,0,1-9.13,9.22H92.61l-3.84,6.72A5.67,5.67,0,0,1,83.8,159ZM73.47,110a6.12,6.12,0,0,0-6.08,6.15v24a6.12,6.12,0,0,0,6.08,6.15h3.27l4.72,8.26a2.68,2.68,0,0,0,4.67,0l4.72-8.26h22.31a6.12,6.12,0,0,0,6.08-6.15v-24a6.12,6.12,0,0,0-6.08-6.15Z" transform="translate(0 -3.78)"/><ellipse class="cls-5" cx="77.84" cy="125.09" rx="4.03" ry="4.07"/><ellipse class="cls-5" cx="93.32" cy="125.09" rx="4.03" ry="4.07"/><ellipse class="cls-5" cx="108.8" cy="125.09" rx="4.03" ry="4.07"/><path class="cls-6" d="M686.29,166.14A64.42,64.42,0,0,1,661.65,217a62.77,62.77,0,0,1-33.19,13.25c-1.93.18-3.88.28-5.86.28-1,0-2,0-3-.08A62.78,62.78,0,0,1,584.92,218a64.42,64.42,0,0,1-26-51.85c0-35.53,28.5-64.33,63.67-64.33S686.29,130.61,686.29,166.14Z" transform="translate(0 -3.78)"/><g class="cls-29"><g id="_9" data-name="9"><polygon class="cls-25" points="607.44 153.86 607.44 155.68 607.44 170.75 627.13 189.01 633.4 181.84 643.57 170.21 643.57 151.68 607.44 153.86"/><path class="cls-11" d="M627.12,194.32a1.51,1.51,0,0,1-1-.41l-19.68-18.25a1.54,1.54,0,0,1-.49-1.13V157.64a1.53,1.53,0,0,1,1.43-1.53l36.13-2.18a1.5,1.5,0,0,1,1.13.42,1.54,1.54,0,0,1,.48,1.12V174a1.54,1.54,0,0,1-.38,1l-16.45,18.8a1.52,1.52,0,0,1-1.06.52ZM609,173.86l18,16.74,15-17.19V157.09l-33.09,2Z" transform="translate(0 -3.78)"/><path class="cls-25" d="M657.14,126c-.06-1.27-.74-3.42-2.38-2.19-.74.56-.38,1.93-1.07,2.39-1.67,1.11-1.83-1.39-1.94-2.5-.42-4.21,1.45-8.26,1-12.4-.7-5.77-6-9.68-11-11.63A25.5,25.5,0,0,0,625,99.59c-.27-.1-.57-.17-.85-.25a25.46,25.46,0,0,0-15.83.37c-5,2-10.35,5.87-11,11.63-.5,4.14,1.38,8.18,1,12.4-.11,1.11-.27,3.61-1.94,2.5-.69-.46-.33-1.83-1.07-2.39-1.64-1.23-2.32.91-2.38,2.19a28.61,28.61,0,0,0,2.41,13.62c1.16,2.39,2.77,3.07,4.38,4.79,1.79,1.91,1.49,5.67,2.16,8.05a13.84,13.84,0,0,0,2.07,4.4c2,2.76,5.42,4,7.69,6.56,2.12,2.35,4.09,4.7,7,6.21a11.84,11.84,0,0,0,5.62.84l.85,0c2.26.11,4.71.1,6.47-.82,2.92-1.51,4.88-3.86,7-6.21,2.27-2.51,5.71-3.8,7.69-6.56a13.89,13.89,0,0,0,2.07-4.4c.67-2.39.37-6.14,2.16-8.05,1.61-1.73,3.22-2.41,4.38-4.79A28.61,28.61,0,0,0,657.14,126Z" transform="translate(0 -3.78)"/><path class="cls-11" d="M626.67,172.08c-.58,0-1.15,0-1.7,0l-.51,0h-.29a13.28,13.28,0,0,1-6.37-1,24.62,24.62,0,0,1-6.9-5.95l-.53-.59a19,19,0,0,0-3.28-2.66,17.72,17.72,0,0,1-4.52-4,15.45,15.45,0,0,1-2.3-4.88,20.55,20.55,0,0,1-.5-2.91c-.22-1.77-.44-3.59-1.3-4.51a17.22,17.22,0,0,0-1.47-1.36,11,11,0,0,1-3.17-3.82A30.14,30.14,0,0,1,591.28,126c0-.49.23-3,2-3.78a2.66,2.66,0,0,1,2.86.43,2.51,2.51,0,0,1,.62.67,22.64,22.64,0,0,0-.5-5.43,22.9,22.9,0,0,1-.47-6.7c.65-5.39,5.14-10.21,12-12.88a26.86,26.86,0,0,1,16.82-.41l.29.08.1,0a27,27,0,0,1,17.25.3c6.87,2.68,11.36,7.49,12,12.88a22.9,22.9,0,0,1-.47,6.7,22.55,22.55,0,0,0-.5,5.43,2.52,2.52,0,0,1,.63-.67,2.66,2.66,0,0,1,2.85-.43c1.72.82,1.93,3.29,2,3.78h0a30.12,30.12,0,0,1-2.56,14.38,11,11,0,0,1-3.17,3.82,17.68,17.68,0,0,0-1.47,1.36c-.86.92-1.08,2.74-1.3,4.51a20.55,20.55,0,0,1-.5,2.91,15.48,15.48,0,0,1-2.3,4.88,17.75,17.75,0,0,1-4.52,4,19.09,19.09,0,0,0-3.28,2.66l-.53.59a24.67,24.67,0,0,1-6.9,6A12,12,0,0,1,626.67,172.08ZM625,169H625c2,.11,4.25.11,5.7-.65a22,22,0,0,0,6-5.28l.54-.6a21.5,21.5,0,0,1,3.79-3.12,15.21,15.21,0,0,0,3.79-3.3,12.34,12.34,0,0,0,1.83-3.91,18.14,18.14,0,0,0,.41-2.46c.26-2.15.56-4.59,2.1-6.23a20.23,20.23,0,0,1,1.71-1.59,8.16,8.16,0,0,0,2.41-2.82,27,27,0,0,0,2.25-12.87h0c0-.09,0-.19,0-.28a2.68,2.68,0,0,1-1.08,1.68,2.48,2.48,0,0,1-2.54.32c-1.44-.69-1.63-2.64-1.74-3.79a24.1,24.1,0,0,1,.49-6.71,20.32,20.32,0,0,0,.45-5.8c-.76-6.29-7.91-9.54-10.08-10.39a24.19,24.19,0,0,0-15.63-.1,1.51,1.51,0,0,1-1,0l-.45-.14-.34-.1a24.09,24.09,0,0,0-14.85.33c-2.17.85-9.32,4.1-10.08,10.39a20.27,20.27,0,0,0,.45,5.81,24.07,24.07,0,0,1,.51,6.56c-.13,1.31-.32,3.25-1.76,3.95a2.48,2.48,0,0,1-2.54-.32,2.68,2.68,0,0,1-1.08-1.68c0,.09,0,.18,0,.28A27,27,0,0,0,596.57,139a8.15,8.15,0,0,0,2.4,2.82,20.25,20.25,0,0,1,1.71,1.59c1.54,1.65,1.84,4.09,2.11,6.24a18,18,0,0,0,.41,2.45A12.31,12.31,0,0,0,605,156a15.2,15.2,0,0,0,3.79,3.31,21.65,21.65,0,0,1,3.79,3.12l.54.6a22,22,0,0,0,6,5.28,10.68,10.68,0,0,0,4.88.67h.31l.5,0Z" transform="translate(0 -3.78)"/><path class="cls-5" d="M595,120.34a19,19,0,0,1,.7,6.55c0,.32,0,.8,0,1.33h3c0-.64,0-1.24,0-1.61a43.83,43.83,0,0,1,.06-4.86c.12-2.33-.16-4.72.07-7a12.34,12.34,0,0,1,11.48-10.83c4.2-.33,8.41.54,12.63.55,5.2,0,7.55-2.52,11.65-5.1,1.1-.69.45-.78,1.59-.49.75.19,1.7,1.22,2.35,1.62,3.9,2.41,10.9,4.8,12,9.89.88,4,.7,8.09.6,12.16a45.14,45.14,0,0,0-.38,5.72H653c.75-2.46,1.75-5.79,2-7.08a67,67,0,0,0,1-9.64c.85-7.79,1.27-15.26-3.48-21.79-5.09-7-12.63-11.09-16.66-10.57-.23,0-3,.28-2.61.59-1.44-1.31-4-1.4-5.73-1.83-9.45-2.28-21.41,3.66-28.28,10-7.25,6.7-6.18,15.32-5.36,23.59C594.2,114.39,594.18,117.58,595,120.34Z" transform="translate(0 -3.78)"/><path class="cls-11" d="M653,129.75h-2.34a1.53,1.53,0,0,1-1.52-1.44,32.33,32.33,0,0,1,.29-5c0-.39.08-.69.09-.83l0-.79a44.88,44.88,0,0,0-.58-11c-.72-3.26-4.74-5.37-8.28-7.23-1.1-.58-2.14-1.13-3.06-1.69a9.48,9.48,0,0,1-1-.73,6.6,6.6,0,0,0-.95-.7c-.12.09-.26.19-.43.29-.82.52-1.57,1-2.29,1.52-2.85,2-5.55,3.81-10.14,3.81h0c-1.83,0-3.65-.16-5.41-.32a42.12,42.12,0,0,0-7.09-.24,10.77,10.77,0,0,0-10.08,9.45,30.43,30.43,0,0,0-.06,3.76c0,1,.05,2.13,0,3.21a41.48,41.48,0,0,0-.06,4.7c0,.41,0,1.07,0,1.76a1.53,1.53,0,0,1-1.52,1.46h-3a1.53,1.53,0,0,1-1.52-1.51c0-.45,0-.88,0-1.21v-.2a17.5,17.5,0,0,0-.64-6.08h0a32.05,32.05,0,0,1-.91-6.66c-.06-.83-.11-1.65-.19-2.45l-.06-.64c-.81-8.06-1.72-17.19,5.91-24.24,7.24-6.69,19.61-12.79,29.66-10.37.41.1.87.18,1.34.26a12.12,12.12,0,0,1,4.17,1.27,18.6,18.6,0,0,1,2.16-.31c5.22-.66,13.16,4.24,18.2,11.17s4.65,14.76,3.77,22.87c-.07.63-.1,1.27-.13,2a47.77,47.77,0,0,1-.89,7.77c-.26,1.34-1.22,4.57-2,7.24A1.53,1.53,0,0,1,653,129.75ZM635.39,97.14a3.33,3.33,0,0,1,.85.14l.23.06a6,6,0,0,1,2.14,1.31,6.52,6.52,0,0,0,.63.49c.82.51,1.82,1,2.87,1.58,3.93,2.06,8.82,4.63,9.85,9.28a47.81,47.81,0,0,1,.65,11.74l0,.79c0,.18,0,.57-.11,1.1s-.12,1.09-.18,1.73c.51-1.7,1.07-3.67,1.24-4.53a45,45,0,0,0,.83-7.32c0-.79.07-1.5.14-2.2.85-7.77,1.19-14.69-3.19-20.71-4.67-6.42-11.8-10.39-15.24-10l-.19,0c-.88.09-1.36.17-1.63.22a1.51,1.51,0,0,1-2,0h0a7.69,7.69,0,0,0-3.53-1.17c-.54-.09-1.06-.19-1.53-.3-8.56-2.07-20,3.29-26.9,9.65-6.5,6-5.74,13.61-4.93,21.66l.07.65c.08.83.14,1.69.2,2.55a29.7,29.7,0,0,0,.8,6h0a19.66,19.66,0,0,1,.67,3.3c0-.49,0-1,.07-1.54,0-1,0-1.94,0-3a33.62,33.62,0,0,1,.07-4.14,13.82,13.82,0,0,1,12.87-12.21,45.69,45.69,0,0,1,7.59.24c1.7.15,3.46.3,5.15.31h0c3.65,0,5.66-1.38,8.43-3.28.75-.51,1.53-1.05,2.39-1.59a2.24,2.24,0,0,0,.41-.31A1.78,1.78,0,0,1,635.39,97.14Z" transform="translate(0 -3.78)"/><path class="cls-2" d="M634.55,229.74l9-24.39L627,186.65h-2.23s-17.44,18.51-17.31,19.86L617,229.74Z" transform="translate(0 -3.78)"/><path class="cls-11" d="M634.55,231.27H617a1.52,1.52,0,0,1-1.4-.95L606,207.09a1.56,1.56,0,0,1-.11-.45c-.07-.81-.19-2,17.73-21.06a1.52,1.52,0,0,1,1.1-.48H627a1.52,1.52,0,0,1,1.13.51l16.58,18.7a1.55,1.55,0,0,1,.29,1.56l-9,24.39A1.52,1.52,0,0,1,634.55,231.27ZM618,228.2h15.46l8.33-22.52-15.51-17.5h-.9c-7.2,7.66-14.82,16.14-16.3,18.36Zm-9.14-21.29Z" transform="translate(0 -3.78)"/><path class="cls-5" d="M616.4,226.13a.7.7,0,0,0,0,.41l1.23,3.2H633.3l1.23-3.2a.7.7,0,0,0,0-.41l-5.9-27a3.73,3.73,0,0,1,.34-2.53l2.24-4.25a.69.69,0,0,0-.15-.74l-2.59-2.6a7,7,0,0,1-1.63-1.91c-.24-.55-.91-1.79-1.69-1.26s-.91,1.18-1.35,1.79a15.68,15.68,0,0,1-1.66,1.66l-2.31,2.32a.69.69,0,0,0-.15.74l2.24,4.25a3.73,3.73,0,0,1,.34,2.53Z" transform="translate(0 -3.78)"/><path class="cls-11" d="M633.3,231.27H617.66a1.52,1.52,0,0,1-1.42-1L615,227.1a2.22,2.22,0,0,1-.09-1.31l5.89-27a2.17,2.17,0,0,0-.2-1.48L618.38,193l-.07-.16a2.24,2.24,0,0,1,.5-2.4l2.3-2.31c.19-.19.4-.38.61-.57a7,7,0,0,0,.89-.91,5.34,5.34,0,0,0,.29-.47,4.76,4.76,0,0,1,1.44-1.69,2.13,2.13,0,0,1,1.83-.3,3.75,3.75,0,0,1,2.1,2.21,4,4,0,0,0,.9,1l.42.41,2.58,2.59a2.23,2.23,0,0,1,.49,2.4l-.07.16-2.24,4.25a2.17,2.17,0,0,0-.2,1.48L636,225.8a2.24,2.24,0,0,1-.1,1.3l-1.23,3.2A1.52,1.52,0,0,1,633.3,231.27Zm-14.6-3.07h13.56l.76-2-5.84-26.81a5.29,5.29,0,0,1,.49-3.58l1.91-3.63-2.5-2.5a6.62,6.62,0,0,1-1.55-1.94,8.48,8.48,0,0,1-.46.73,9.25,9.25,0,0,1-1.31,1.38c-.17.16-.34.31-.5.47l-1.86,1.87,1.91,3.63a5.27,5.27,0,0,1,.49,3.59l-5.85,26.81Zm14.37-1.74v0Zm-16.67-.33h0Zm16.71-.15h0Zm-15.26,0h0ZM630,192.64h0Zm-9.07,0h0Z" transform="translate(0 -3.78)"/><path class="cls-27" d="M620.6,229.74l-9.67-32.44-5.68-19.07-.61.19-10,3c-12.92,4-33.06,10.13-33.6,10.5s-5.31,10.22-9.31,18.49a12.61,12.61,0,0,0-1.26,5.5v13.79Z" transform="translate(0 -3.78)"/><path class="cls-11" d="M620.6,231.27H550.45a1.53,1.53,0,0,1-1.52-1.54V215.95a14.25,14.25,0,0,1,1.41-6.17c8.93-18.47,9.32-18.74,9.82-19.09s2.35-1,34-10.7l5.15-1.56,4.89-1.48.58-.18a1.51,1.51,0,0,1,1.17.11,1.53,1.53,0,0,1,.74.91l15.35,51.51a1.55,1.55,0,0,1-.23,1.36A1.52,1.52,0,0,1,620.6,231.27ZM552,228.2h66.58l-14.32-48.06-4,1.22-5.14,1.56c-9.92,3-30.08,9.21-33.05,10.29-.54.91-2.43,4.47-8.92,17.91a11.16,11.16,0,0,0-1.1,4.82Z" transform="translate(0 -3.78)"/><path class="cls-27" d="M700.16,229.74V216.42a17.9,17.9,0,0,0-1.79-7.8c-3.8-7.83-8-16.37-8.42-16.66s-20.69-6.54-33.61-10.5l-10-3-.62-.19L637.78,204l-7.89,25.69Z" transform="translate(0 -3.78)"/><path class="cls-11" d="M700.16,231.27H629.89a1.52,1.52,0,0,1-1.22-.63,1.55,1.55,0,0,1-.23-1.37l15.82-51.51a1.54,1.54,0,0,1,.75-.91,1.51,1.51,0,0,1,1.16-.11L656.78,180c31,9.5,33.54,10.38,34,10.69s.87.6,9,17.27a19.56,19.56,0,0,1,1.94,8.48v13.31A1.53,1.53,0,0,1,700.16,231.27ZM632,228.2h66.69V216.42A16.44,16.44,0,0,0,697,209.3c-5.79-12-7.52-15.21-8-16.08-3-1.09-23.92-7.49-33.07-10.29l-9.19-2.79Z" transform="translate(0 -3.78)"/><path class="cls-2" d="M643.85,168.82,626,185.12a.71.71,0,0,1-1,0l-17.88-16.3-4,11.83,7.73,25.85,14-20a.71.71,0,0,1,1.17,0l14,20,7.73-25.85Z" transform="translate(0 -3.78)"/><path class="cls-11" d="M640.12,208a1.52,1.52,0,0,1-1.24-.65l-13.39-19-13.39,19a1.51,1.51,0,0,1-1.49.63,1.53,1.53,0,0,1-1.21-1.07l-7.73-25.85a1.55,1.55,0,0,1,0-.94l4-11.83a1.52,1.52,0,0,1,1.06-1,1.51,1.51,0,0,1,1.4.35l17.35,15.81,17.34-15.81a1.51,1.51,0,0,1,1.4-.35,1.52,1.52,0,0,1,1.06,1l4,11.83a1.55,1.55,0,0,1,0,.94l-7.73,25.85a1.53,1.53,0,0,1-1.21,1.07Zm-12.67-22.2,12.11,17.22,6.69-22.38-3.09-9.16Zm-22.73-5.16,6.69,22.38,12.11-17.22-15.71-14.32ZM626,184h0Z" transform="translate(0 -3.78)"/><path class="cls-27" d="M641.92,229.74,658,198.91l-9.39-4,10.79-5.36a77.34,77.34,0,0,0-3.09-8.09l-10-3L637.78,204,635,212.29l-5.87,17.45Z" transform="translate(0 -3.78)"/><path class="cls-11" d="M641.92,231.27H629.16a1.52,1.52,0,0,1-1.24-.64,1.55,1.55,0,0,1-.2-1.39l17.17-51.32a1.51,1.51,0,0,1,1.88-1l10,3a1.52,1.52,0,0,1,.94.82,80,80,0,0,1,3.16,8.27,1.54,1.54,0,0,1-.78,1.85l-7.8,3.87,6.32,2.69a1.52,1.52,0,0,1,.84.9,1.55,1.55,0,0,1-.09,1.23l-16.11,30.82A1.52,1.52,0,0,1,641.92,231.27Zm-10.64-3.07H641l14.9-28.52-7.86-3.35a1.54,1.54,0,0,1-.08-2.79l9.6-4.77c-.5-1.47-1.33-3.78-2.32-6l-7.94-2.41Z" transform="translate(0 -3.78)"/><path class="cls-27" d="M592.94,198.91l15.86,30.82h12.38l-5.25-17.45-5-15-6.29-18.88-10,3a80,80,0,0,0-3.09,8.09l10.79,5.36Z" transform="translate(0 -3.78)"/><path class="cls-11" d="M621.18,231.27H608.8a1.52,1.52,0,0,1-1.35-.83l-15.86-30.82a1.55,1.55,0,0,1-.08-1.23,1.52,1.52,0,0,1,.84-.89l6.31-2.69-7.8-3.87a1.54,1.54,0,0,1-.78-1.85,82.83,82.83,0,0,1,3.15-8.26,1.52,1.52,0,0,1,.94-.83l5.14-1.56,4.89-1.48a1.51,1.51,0,0,1,1.87,1l11.28,33.87,5.27,17.49a1.55,1.55,0,0,1-.23,1.36A1.52,1.52,0,0,1,621.18,231.27Zm-11.45-3.07h9.4l-4.66-15.46-10.8-32.42-3.47,1.05-4.48,1.36c-1,2.3-1.84,4.62-2.32,6l9.59,4.77a1.54,1.54,0,0,1-.08,2.79L595,199.68Z" transform="translate(0 -3.78)"/></g></g><path class="cls-11" d="M622.61,232c-1,0-2.06,0-3.07-.08A64.21,64.21,0,0,1,584,219.23a66.34,66.34,0,0,1-26.6-53.09c0-36.32,29.24-65.87,65.19-65.87s65.2,29.55,65.2,65.87a65.68,65.68,0,0,1-25.23,52,64.32,64.32,0,0,1-34,13.56C626.64,231.93,624.62,232,622.61,232Zm0-128.68c-34.27,0-62.15,28.17-62.15,62.8a63.25,63.25,0,0,0,25.36,50.62,61.61,61.61,0,0,0,74.9-1,62.62,62.62,0,0,0,24.05-49.61C684.77,131.52,656.88,103.34,622.61,103.34Z" transform="translate(0 -3.78)"/><path class="cls-30" d="M657.14,126c-.06-1.27-.74-3.42-2.38-2.19-.74.56-.38,1.93-1.07,2.39-1.67,1.11-1.83-1.39-1.94-2.5-.42-4.21,1.45-8.26,1-12.4-.7-5.77-6-9.68-11-11.63A25.5,25.5,0,0,0,625,99.59c-.27-.1-.57-.17-.85-.25v71.18l.85,0c2.26.11,4.71.1,6.47-.82,2.92-1.51,4.88-3.86,7-6.21,2.27-2.51,5.71-3.8,7.69-6.56a13.89,13.89,0,0,0,2.07-4.4c.67-2.39.37-6.14,2.16-8.05,1.61-1.73,3.22-2.41,4.38-4.79A28.61,28.61,0,0,0,657.14,126Z" transform="translate(0 -3.78)"/><path class="cls-25" d="M657.14,126c-.06-1.27-.74-3.42-2.38-2.19-.74.56-.38,1.93-1.07,2.39-1.67,1.11-1.83-1.39-1.94-2.5-.42-4.21,1.45-8.26,1-12.4-.7-5.77-6-9.68-11-11.63A25.5,25.5,0,0,0,625,99.59c-.27-.1-.57-.17-.85-.25a25.46,25.46,0,0,0-15.83.37c-5,2-10.35,5.87-11,11.63-.5,4.14,1.38,8.18,1,12.4-.11,1.11-.27,3.61-1.94,2.5-.69-.46-.33-1.83-1.07-2.39-1.64-1.23-2.32.91-2.38,2.19a28.61,28.61,0,0,0,2.41,13.62c1.16,2.39,2.77,3.07,4.38,4.79,1.79,1.91,1.49,5.67,2.16,8.05a13.84,13.84,0,0,0,2.07,4.4c2,2.76,5.42,4,7.69,6.56,2.12,2.35,4.09,4.7,7,6.21a11.84,11.84,0,0,0,5.62.84l.85,0c2.26.11,4.71.1,6.47-.82,2.92-1.51,4.88-3.86,7-6.21,2.27-2.51,5.71-3.8,7.69-6.56a13.89,13.89,0,0,0,2.07-4.4c.67-2.39.37-6.14,2.16-8.05,1.61-1.73,3.22-2.41,4.38-4.79A28.61,28.61,0,0,0,657.14,126Z" transform="translate(0 -3.78)"/><path class="cls-11" d="M626.67,172.08c-.58,0-1.15,0-1.7,0l-.51,0h-.29a13.28,13.28,0,0,1-6.37-1,24.62,24.62,0,0,1-6.9-5.95l-.53-.59a19,19,0,0,0-3.28-2.66,17.72,17.72,0,0,1-4.52-4,15.45,15.45,0,0,1-2.3-4.88,20.55,20.55,0,0,1-.5-2.91c-.22-1.77-.44-3.59-1.3-4.51a17.22,17.22,0,0,0-1.47-1.36,11,11,0,0,1-3.17-3.82A30.14,30.14,0,0,1,591.28,126c0-.49.23-3,2-3.78a2.66,2.66,0,0,1,2.86.43,2.51,2.51,0,0,1,.62.67,22.64,22.64,0,0,0-.5-5.43,22.9,22.9,0,0,1-.47-6.7c.65-5.39,5.14-10.21,12-12.88a26.86,26.86,0,0,1,16.82-.41l.29.08.1,0a27,27,0,0,1,17.25.3c6.87,2.68,11.36,7.49,12,12.88a22.9,22.9,0,0,1-.47,6.7,22.55,22.55,0,0,0-.5,5.43,2.52,2.52,0,0,1,.63-.67,2.66,2.66,0,0,1,2.85-.43c1.72.82,1.93,3.29,2,3.78h0a30.12,30.12,0,0,1-2.56,14.38,11,11,0,0,1-3.17,3.82,17.68,17.68,0,0,0-1.47,1.36c-.86.92-1.08,2.74-1.3,4.51a20.55,20.55,0,0,1-.5,2.91,15.48,15.48,0,0,1-2.3,4.88,17.75,17.75,0,0,1-4.52,4,19.09,19.09,0,0,0-3.28,2.66l-.53.59a24.67,24.67,0,0,1-6.9,6A12,12,0,0,1,626.67,172.08ZM625,169H625c2,.11,4.25.11,5.7-.65a22,22,0,0,0,6-5.28l.54-.6a21.5,21.5,0,0,1,3.79-3.12,15.21,15.21,0,0,0,3.79-3.3,12.34,12.34,0,0,0,1.83-3.91,18.14,18.14,0,0,0,.41-2.46c.26-2.15.56-4.59,2.1-6.23a20.23,20.23,0,0,1,1.71-1.59,8.16,8.16,0,0,0,2.41-2.82,27,27,0,0,0,2.25-12.87h0c0-.09,0-.19,0-.28a2.68,2.68,0,0,1-1.08,1.68,2.48,2.48,0,0,1-2.54.32c-1.44-.69-1.63-2.64-1.74-3.79a24.1,24.1,0,0,1,.49-6.71,20.32,20.32,0,0,0,.45-5.8c-.76-6.29-7.91-9.54-10.08-10.39a24.19,24.19,0,0,0-15.63-.1,1.51,1.51,0,0,1-1,0l-.45-.14-.34-.1a24.09,24.09,0,0,0-14.85.33c-2.17.85-9.32,4.1-10.08,10.39a20.27,20.27,0,0,0,.45,5.81,24.07,24.07,0,0,1,.51,6.56c-.13,1.31-.32,3.25-1.76,3.95a2.48,2.48,0,0,1-2.54-.32,2.68,2.68,0,0,1-1.08-1.68c0,.09,0,.18,0,.28A27,27,0,0,0,596.57,139a8.15,8.15,0,0,0,2.4,2.82,20.25,20.25,0,0,1,1.71,1.59c1.54,1.65,1.84,4.09,2.11,6.24a18,18,0,0,0,.41,2.45A12.31,12.31,0,0,0,605,156a15.2,15.2,0,0,0,3.79,3.31,21.65,21.65,0,0,1,3.79,3.12l.54.6a22,22,0,0,0,6,5.28,10.68,10.68,0,0,0,4.88.67h.31l.5,0Z" transform="translate(0 -3.78)"/><path class="cls-5" d="M595,120.34a19,19,0,0,1,.7,6.55c0,.32,0,.8,0,1.33h3c0-.64,0-1.24,0-1.61a43.83,43.83,0,0,1,.06-4.86c.12-2.33-.16-4.72.07-7,.6-6.09,5.77-9.52,11.49-10,4.2-.33,8.4-.31,12.61-.3,5.2,0,7.55-2.52,11.65-5.1,1.1-.69.45-.78,1.59-.49.75.19,1.7,1.22,2.35,1.62,3.9,2.41,10.9,4.8,12,9.89.88,4,.7,8.09.6,12.16a45.14,45.14,0,0,0-.38,5.72H653c.75-2.46,1.75-5.79,2-7.08a67,67,0,0,0,1-9.64c.85-7.79,1.27-15.26-3.48-21.79-5.09-7-12.63-11.09-16.66-10.57-.23,0-3,.28-2.61.59-1.44-1.31-4-1.4-5.73-1.83-9.45-2.28-21.41,3.66-28.28,10-7.25,6.7-6.18,15.32-5.36,23.59C594.2,114.39,594.18,117.58,595,120.34Z" transform="translate(0 -3.78)"/><path class="cls-11" d="M653,129.75h-2.34a1.53,1.53,0,0,1-1.52-1.44,32.33,32.33,0,0,1,.29-5c0-.39.08-.69.09-.83l0-.79a44.88,44.88,0,0,0-.58-11c-.72-3.26-4.74-5.37-8.28-7.23-1.1-.58-2.14-1.13-3.06-1.69a9.48,9.48,0,0,1-1-.73,6.6,6.6,0,0,0-.95-.7c-.12.09-.26.19-.43.29-.82.52-1.57,1-2.29,1.52-2.85,2-5.55,3.81-10.14,3.81h-.5c-4,0-8,0-12,.3-4.3.34-9.52,2.8-10.1,8.6a30.43,30.43,0,0,0-.06,3.76c0,1,.05,2.13,0,3.21a41.48,41.48,0,0,0-.06,4.7c0,.41,0,1.07,0,1.76a1.53,1.53,0,0,1-1.52,1.46h-3a1.53,1.53,0,0,1-1.52-1.51c0-.45,0-.88,0-1.21v-.2a17.5,17.5,0,0,0-.64-6.08h0a32.05,32.05,0,0,1-.91-6.66c-.06-.83-.11-1.65-.19-2.45l-.06-.64c-.81-8.06-1.72-17.19,5.91-24.24,7.24-6.69,19.61-12.79,29.66-10.37.41.1.87.18,1.34.26a12.12,12.12,0,0,1,4.17,1.27,18.6,18.6,0,0,1,2.16-.31c5.22-.66,13.16,4.24,18.2,11.17s4.65,14.76,3.77,22.87c-.07.63-.1,1.27-.13,2a47.77,47.77,0,0,1-.89,7.77c-.26,1.34-1.22,4.57-2,7.24A1.53,1.53,0,0,1,653,129.75ZM635.39,97.14a3.33,3.33,0,0,1,.85.14l.23.06a6,6,0,0,1,2.14,1.31,6.52,6.52,0,0,0,.63.49c.82.51,1.82,1,2.87,1.58,3.93,2.06,8.82,4.63,9.85,9.28a47.81,47.81,0,0,1,.65,11.74l0,.79c0,.18,0,.57-.11,1.1s-.12,1.09-.18,1.73c.51-1.7,1.07-3.67,1.24-4.53a45,45,0,0,0,.83-7.32c0-.79.07-1.5.14-2.2.85-7.77,1.19-14.69-3.19-20.71-4.67-6.42-11.8-10.39-15.24-10l-.19,0c-.88.09-1.36.17-1.63.22a1.51,1.51,0,0,1-2,0h0a7.69,7.69,0,0,0-3.53-1.17c-.54-.09-1.06-.19-1.53-.3-8.56-2.07-20,3.29-26.9,9.65-6.5,6-5.74,13.61-4.93,21.66l.07.65c.08.83.14,1.69.2,2.55a29.7,29.7,0,0,0,.8,6h0a19.66,19.66,0,0,1,.67,3.3c0-.49,0-1,.07-1.54,0-1,0-1.94,0-3a33.62,33.62,0,0,1,.07-4.14c.62-6.23,5.8-10.8,12.88-11.36,4.11-.33,8.25-.31,12.27-.31h.5c3.65,0,5.66-1.38,8.43-3.28.75-.51,1.53-1.05,2.39-1.59a2.24,2.24,0,0,0,.41-.31A1.78,1.78,0,0,1,635.39,97.14Z" transform="translate(0 -3.78)"/><path class="cls-2" d="M665.68,244.34h-22.1a7.64,7.64,0,0,1-7.6-7.68V191.07a7.64,7.64,0,0,1,7.6-7.68h22.1a7.64,7.64,0,0,1,7.6,7.68v45.59A7.64,7.64,0,0,1,665.68,244.34Z" transform="translate(0 -3.78)"/><path class="cls-11" d="M665.68,245.88H643.57a9.18,9.18,0,0,1-9.13-9.22V191.07a9.18,9.18,0,0,1,9.13-9.22h22.11a9.18,9.18,0,0,1,9.13,9.22v45.59A9.18,9.18,0,0,1,665.68,245.88Zm-22.11-61a6.12,6.12,0,0,0-6.08,6.15v45.59a6.12,6.12,0,0,0,6.08,6.15h22.11a6.12,6.12,0,0,0,6.08-6.15V191.07a6.12,6.12,0,0,0-6.08-6.15Z" transform="translate(0 -3.78)"/><ellipse class="cls-5" cx="643.64" cy="188.31" rx="3.09" ry="3.12"/><path class="cls-25" d="M676.54,219.85h-8.48a2.82,2.82,0,0,1-2.8-2.83V217a2.82,2.82,0,0,1,2.8-2.83h8.48a2.82,2.82,0,0,1,2.8,2.83V217A2.82,2.82,0,0,1,676.54,219.85Z" transform="translate(0 -3.78)"/><path class="cls-11" d="M676.54,221.39h-8.48a4.4,4.4,0,0,1,0-8.79h8.48a4.4,4.4,0,0,1,0,8.79Zm-8.48-5.72a1.29,1.29,0,0,0-1.28,1.29,1.3,1.3,0,0,0,1.28,1.35h8.48a1.29,1.29,0,0,0,1.28-1.29,1.3,1.3,0,0,0-1.28-1.35Z" transform="translate(0 -3.78)"/><path class="cls-25" d="M674.83,225.57h-8.48a2.82,2.82,0,0,1-2.8-2.83v-.06a2.81,2.81,0,0,1,2.8-2.83h8.48a2.82,2.82,0,0,1,2.8,2.83v.06A2.82,2.82,0,0,1,674.83,225.57Z" transform="translate(0 -3.78)"/><path class="cls-11" d="M674.83,227.1h-8.48a4.4,4.4,0,0,1,0-8.79h8.48a4.4,4.4,0,0,1,0,8.79Zm-8.48-5.72a1.29,1.29,0,0,0-1.28,1.29,1.3,1.3,0,0,0,1.28,1.35h8.48a1.29,1.29,0,0,0,1.28-1.29,1.3,1.3,0,0,0-1.28-1.35Z" transform="translate(0 -3.78)"/><path class="cls-25" d="M676.54,231.28h-8.48a2.81,2.81,0,0,1-2.8-2.83v-.06a2.82,2.82,0,0,1,2.8-2.83h8.48a2.82,2.82,0,0,1,2.8,2.83v.06A2.81,2.81,0,0,1,676.54,231.28Z" transform="translate(0 -3.78)"/><path class="cls-11" d="M676.54,232.82h-8.48a4.4,4.4,0,0,1,0-8.79h8.48a4.4,4.4,0,0,1,0,8.79Zm-8.48-5.72a1.29,1.29,0,0,0-1.28,1.29,1.3,1.3,0,0,0,1.28,1.35h8.48a1.29,1.29,0,0,0,1.28-1.29,1.3,1.3,0,0,0-1.28-1.35Z" transform="translate(0 -3.78)"/><path class="cls-25" d="M675,235.74h-2.77a2.19,2.19,0,0,1-2.18-2.21v0a2.19,2.19,0,0,1,2.18-2.21H675a2.19,2.19,0,0,1,2.18,2.21v0A2.19,2.19,0,0,1,675,235.74Z" transform="translate(0 -3.78)"/><path class="cls-11" d="M675,237.28h-2.77a3.77,3.77,0,0,1,0-7.53H675a3.77,3.77,0,0,1,0,7.53Zm-2.77-4.46a.67.67,0,0,0-.66.67.68.68,0,0,0,.66.71H675a.67.67,0,0,0,.66-.67.68.68,0,0,0-.66-.71Z" transform="translate(0 -3.78)"/><path class="cls-2" d="M741,98.94H701.34a7.64,7.64,0,0,0-7.6,7.68v24a7.64,7.64,0,0,0,7.6,7.68h21.43l4.28,7.49a4.19,4.19,0,0,0,7.3,0l4.28-7.49H741a7.64,7.64,0,0,0,7.6-7.68v-24A7.64,7.64,0,0,0,741,98.94Z" transform="translate(0 -3.78)"/><path class="cls-11" d="M730.71,149.46a5.67,5.67,0,0,1-5-2.9l-3.84-6.72H701.34a9.18,9.18,0,0,1-9.13-9.22v-24a9.18,9.18,0,0,1,9.13-9.22H741a9.18,9.18,0,0,1,9.13,9.22v24a9.18,9.18,0,0,1-9.13,9.22h-1.52l-3.84,6.72A5.67,5.67,0,0,1,730.71,149.46Zm-29.37-49a6.12,6.12,0,0,0-6.08,6.15v24a6.12,6.12,0,0,0,6.08,6.15h22.31l4.72,8.26a2.68,2.68,0,0,0,4.67,0l4.72-8.26H741a6.12,6.12,0,0,0,6.08-6.15v-24a6.12,6.12,0,0,0-6.08-6.15Z" transform="translate(0 -3.78)"/><ellipse class="cls-5" cx="705.71" cy="115.51" rx="4.03" ry="4.07"/><ellipse class="cls-5" cx="721.19" cy="115.51" rx="4.03" ry="4.07"/><ellipse class="cls-5" cx="736.67" cy="115.51" rx="4.03" ry="4.07"/><path class="cls-11" d="M453.67,20.28a55.32,55.32,0,0,0-78.82,0,56.74,56.74,0,0,0,0,79.65,55.32,55.32,0,0,0,78.82,0,56.74,56.74,0,0,0,0-79.65Zm-2.46,77.16a51.87,51.87,0,0,1-73.89,0,53.19,53.19,0,0,1,0-74.67,51.87,51.87,0,0,1,73.89,0,53.19,53.19,0,0,1,0,74.67Zm0,0" transform="translate(0 -3.78)"/><path class="cls-11" d="M369,60.1c0-25.23,20.31-45.76,45.28-45.76A44.74,44.74,0,0,1,439.42,22a1.73,1.73,0,0,0,2.42-.48,1.77,1.77,0,0,0-.48-2.44,48.4,48.4,0,0,0-61.58,6.13A49.66,49.66,0,0,0,377.92,93a1.73,1.73,0,0,0,2.46.14,1.77,1.77,0,0,0,.14-2.48A46,46,0,0,1,369,60.1Zm0,0" transform="translate(0 -3.78)"/><path class="cls-11" d="M454.82,32.72a1.73,1.73,0,0,0-2.42-.48,1.77,1.77,0,0,0-.48,2.44,45.87,45.87,0,0,1,7.62,25.42c0,25.23-20.31,45.76-45.28,45.76a45.09,45.09,0,0,1-28.51-10.21,1.73,1.73,0,0,0-2.45.26,1.77,1.77,0,0,0,.26,2.48,48.39,48.39,0,0,0,65.19-3.44,49.69,49.69,0,0,0,6.07-62.22Zm0,0" transform="translate(0 -3.78)"/><path class="cls-11" d="M444.45,26a45.54,45.54,0,0,1,3.36,3.37,1.73,1.73,0,0,0,2.46.12,1.77,1.77,0,0,0,.12-2.49,49.38,49.38,0,0,0-3.61-3.62,1.73,1.73,0,0,0-2.46.14,1.77,1.77,0,0,0,.14,2.49Zm0,0" transform="translate(0 -3.78)"/><path class="cls-11" d="M414.27,26.66A1.75,1.75,0,0,0,416,24.9V19.62a1.74,1.74,0,1,0-3.48,0V24.9a1.75,1.75,0,0,0,1.74,1.76Zm0,0" transform="translate(0 -3.78)"/><path class="cls-11" d="M412.52,95.3v5.28a1.74,1.74,0,1,0,3.48,0V95.3a1.74,1.74,0,1,0-3.48,0Zm0,0" transform="translate(0 -3.78)"/><path class="cls-11" d="M381.17,60.1a1.75,1.75,0,0,0-1.74-1.76h-5.22a1.76,1.76,0,0,0,0,3.52h5.22a1.75,1.75,0,0,0,1.74-1.76Zm0,0" transform="translate(0 -3.78)"/><path class="cls-11" d="M447.36,60.1a1.75,1.75,0,0,0,1.74,1.76h5.22a1.76,1.76,0,0,0,0-3.52H449.1a1.75,1.75,0,0,0-1.74,1.76Zm0,0" transform="translate(0 -3.78)"/><path class="cls-11" d="M398.36,28.74l-2.61-4.57a1.73,1.73,0,0,0-2.38-.64,1.77,1.77,0,0,0-.64,2.4l2.61,4.57a1.73,1.73,0,0,0,2.38.64,1.77,1.77,0,0,0,.64-2.4Zm0,0" transform="translate(0 -3.78)"/><path class="cls-11" d="M433.19,89.7a1.73,1.73,0,0,0-2.38-.64,1.77,1.77,0,0,0-.64,2.4L432.79,96a1.73,1.73,0,0,0,2.38.64,1.77,1.77,0,0,0,.64-2.4Zm0,0" transform="translate(0 -3.78)"/><path class="cls-11" d="M379.58,82.1a1.72,1.72,0,0,0,.87-.24L385,79.22a1.77,1.77,0,0,0,.64-2.4,1.73,1.73,0,0,0-2.38-.64l-4.53,2.64a1.77,1.77,0,0,0-.64,2.4,1.74,1.74,0,0,0,1.51.88Zm0,0" transform="translate(0 -3.78)"/><path class="cls-11" d="M444.43,44.26a1.72,1.72,0,0,0,.87-.24l4.53-2.64a1.77,1.77,0,0,0,.64-2.4,1.73,1.73,0,0,0-2.38-.64L443.56,41a1.77,1.77,0,0,0-.64,2.4,1.74,1.74,0,0,0,1.51.88Zm0,0" transform="translate(0 -3.78)"/><path class="cls-11" d="M435.17,23.52a1.73,1.73,0,0,0-2.38.64l-2.61,4.57a1.77,1.77,0,0,0,.64,2.4,1.71,1.71,0,0,0,.87.24,1.74,1.74,0,0,0,1.51-.88l2.61-4.57a1.77,1.77,0,0,0-.64-2.4Zm0,0" transform="translate(0 -3.78)"/><path class="cls-11" d="M397.72,89.06a1.73,1.73,0,0,0-2.38.64l-2.61,4.57a1.77,1.77,0,0,0,.64,2.4,1.73,1.73,0,0,0,2.38-.64l2.61-4.57a1.77,1.77,0,0,0-.64-2.4Zm0,0" transform="translate(0 -3.78)"/><path class="cls-11" d="M443.56,79.22l4.52,2.64a1.72,1.72,0,0,0,.87.24,1.74,1.74,0,0,0,1.51-.88,1.77,1.77,0,0,0-.64-2.4l-4.53-2.64a1.73,1.73,0,0,0-2.38.64,1.77,1.77,0,0,0,.64,2.4Zm0,0" transform="translate(0 -3.78)"/><path class="cls-11" d="M385,41l-4.53-2.64a1.73,1.73,0,0,0-2.38.64,1.77,1.77,0,0,0,.64,2.4L383.23,44a1.72,1.72,0,0,0,.87.24,1.74,1.74,0,0,0,1.51-.88A1.77,1.77,0,0,0,385,41Zm0,0" transform="translate(0 -3.78)"/><path class="cls-17" d="M426.39,83.08a1.72,1.72,0,0,0,.87-.24,1.77,1.77,0,0,0,.64-2.4l-9.66-16.91A5.3,5.3,0,0,0,416,55.12V31.94a1.74,1.74,0,1,0-3.48,0V55.12a5.29,5.29,0,0,0,1.74,10.26,5.17,5.17,0,0,0,1-.09l9.66,16.91a1.74,1.74,0,0,0,1.51.88Zm-13.87-23a1.74,1.74,0,1,1,1.74,1.76,1.75,1.75,0,0,1-1.74-1.76Zm0,0" transform="translate(0 -3.78)"/><path class="cls-2" d="M294.14,124c-1-1.06-1.57-1.56-1.57-1.56l1-1.16s.62.54,1.67,1.66Z" transform="translate(0 -3.78)"/><path class="cls-2" d="M330,197.33q-.65-2.24-1.31-4.4l1.45-.45q.66,2.17,1.32,4.41Zm-2.68-8.77q-.72-2.22-1.44-4.36l1.44-.5q.72,2.14,1.44,4.38Zm-2.94-8.69q-.78-2.2-1.57-4.31l1.42-.54q.79,2.12,1.58,4.33Zm-3.21-8.59q-.86-2.18-1.71-4.25l1.4-.59q.86,2.08,1.72,4.27Zm-3.5-8.46q-.94-2.15-1.88-4.18l1.38-.65q.94,2,1.89,4.21Zm-3.84-8.31q-1-2.13-2.06-4.09l1.35-.71q1,2,2.07,4.12Zm-4.21-8.12q-1.15-2.09-2.25-4l1.31-.78q1.11,1.9,2.28,4ZM305,138.51q-1.29-2.05-2.49-3.82l1.25-.87q1.21,1.79,2.52,3.87ZM299.89,131c-.93-1.26-1.86-2.46-2.78-3.59l1.17-1c.94,1.15,1.89,2.38,2.83,3.65Z" transform="translate(0 -3.78)"/><polygon class="cls-2" points="331.88 200.22 331.27 198 332.74 197.58 333.34 199.81 331.88 200.22"/><path class="cls-2" d="M500.45,199.43l-1.44-.5.32-.92,1.43.52Zm1.88-5.23-1.42-.54q.77-2.08,1.64-4.32l1.42.56Q503.11,192.13,502.33,194.21Zm3.32-8.59-1.41-.57q.84-2.11,1.72-4.29l1.41.58Q506.49,183.51,505.65,185.62Zm3.47-8.54-1.4-.59q.88-2.12,1.77-4.26l1.4.6Zm3.56-8.5-1.4-.61,1.81-4.24,1.4.61Zm3.63-8.46-1.39-.62,1.84-4.23,1.39.62Zm3.69-8.45-1.39-.62,1.86-4.22,1.39.63Zm3.73-8.43-1.39-.63,1.88-4.21,1.38.64Zm3.78-8.41-1.38-.64L528,130l1.38.65S528.71,132.15,527.51,134.82Z" transform="translate(0 -3.78)"/><path class="cls-2" d="M217,296.78q-2.32,0-4.58-.11l.05-1.54q2.24.08,4.54.11Zm-9.15-.33q-2.31-.14-4.57-.34l.13-1.53q2.23.2,4.53.33Zm-9.12-.8q-2.3-.27-4.54-.59l.22-1.52q2.22.32,4.5.59Zm-9.07-1.32q-2.29-.41-4.5-.87l.31-1.5q2.19.46,4.45.86Zm-9-1.89q-2.26-.55-4.43-1.17l.41-1.48q2.15.61,4.38,1.16Zm-8.82-2.5q-2.21-.72-4.34-1.5l.52-1.44q2.1.77,4.28,1.48Zm-8.62-3.17q-2.15-.89-4.21-1.84l.63-1.4q2,.94,4.15,1.82Zm-8.34-3.86q-2.07-1.07-4-2.2l.75-1.34q1.95,1.11,4,2.17Zm-8-4.58c-1.28-.81-2.57-1.67-3.83-2.56l.87-1.26c1.24.87,2.51,1.72,3.77,2.52ZM139.42,273c-1.22-.94-2.42-1.92-3.58-2.9l1-1.18c1.14,1,2.33,1.93,3.53,2.86Zm-7-6c-1.12-1-2.23-2.13-3.3-3.23l1.08-1.08c1.06,1.08,2.15,2.15,3.25,3.18Zm-6.45-6.61c-1-1.15-2-2.34-3-3.52l1.17-1c.95,1.17,1.94,2.33,3,3.47Zm-5.83-7.17q-1.38-1.87-2.67-3.77l1.26-.87q1.27,1.88,2.64,3.72Zm-5.19-7.66q-1.22-2-2.35-4l1.32-.76q1.12,2,2.32,3.93Zm-4.55-8.06q-1.06-2.07-2-4.16l1.38-.66q1,2.06,2,4.11Zm-3.92-8.39q-.91-2.15-1.73-4.3l1.42-.56q.81,2.12,1.71,4.24Zm-3.32-8.65q-.77-2.2-1.45-4.4l1.45-.46q.68,2.17,1.43,4.35Zm-2.75-8.85q-.63-2.25-1.17-4.48l1.48-.37q.54,2.21,1.16,4.44Zm-2.22-9q-.5-2.29-.92-4.54l1.49-.29q.42,2.23.91,4.5Zm-1.71-9.11q-.37-2.33-.68-4.59l1.51-.21q.3,2.24.67,4.55Zm-1.24-9.19q-.26-2.37-.44-4.62l1.51-.13q.19,2.23.44,4.58Zm-.78-9.24q-.14-2.41-.22-4.63l1.52-.05c.05,1.47.12,3,.22,4.6Zm-.32-9.28c0-.61,0-1.2,0-1.78,0-1,0-2,0-2.85l1.52,0c0,.89,0,1.83,0,2.83,0,.57,0,1.16,0,1.77Zm1.68-9.19-1.52-.07c.14-2.94.31-4.58.31-4.65l1.51.16S95.93,153.8,95.8,156.69Z" transform="translate(0 -3.78)"/><path class="cls-2" d="M603.49,481.69h-407a24.48,24.48,0,0,1-24.35-24.61v-.25H627.84v.25A24.48,24.48,0,0,1,603.49,481.69Z" transform="translate(0 -3.78)"/><path class="cls-31" d="M603.49,477.08h-407a24.42,24.42,0,0,1-23.95-20.25h-.4v.25a24.48,24.48,0,0,0,24.35,24.61h407a24.48,24.48,0,0,0,24.35-24.61v-.25h-.4A24.42,24.42,0,0,1,603.49,477.08Z" transform="translate(0 -3.78)"/><path class="cls-11" d="M603.49,483.23h-407a26,26,0,0,1-25.88-26.15v-1.79H629.37v1.79A26,26,0,0,1,603.49,483.23ZM173.71,458.37a23,23,0,0,0,22.8,21.79h407a23,23,0,0,0,22.8-21.79Z" transform="translate(0 -3.78)"/><ellipse class="cls-5" cx="334.29" cy="465.48" rx="2.05" ry="2.07"/><ellipse class="cls-5" cx="327.03" cy="465.48" rx="2.05" ry="2.07"/><ellipse class="cls-5" cx="319.77" cy="465.48" rx="2.05" ry="2.07"/><rect class="cls-32" x="563.81" y="462.37" width="36.86" height="6.21"/><path class="cls-11" d="M602.19,473.9h-39.9v-9.29h39.9Zm-36.86-3.07h33.82v-3.14H565.33Z" transform="translate(0 -3.78)"/><path class="cls-2" d="M572.79,448.91H227.21a5.61,5.61,0,0,1-5.58-5.64V209.13a5.61,5.61,0,0,1,5.58-5.64H572.79a5.61,5.61,0,0,1,5.58,5.64V443.26A5.61,5.61,0,0,1,572.79,448.91Z" transform="translate(0 -3.78)"/><path class="cls-11" d="M572.79,450.44H227.21a7.15,7.15,0,0,1-7.11-7.18V209.13a7.15,7.15,0,0,1,7.11-7.18H572.79a7.15,7.15,0,0,1,7.1,7.18V443.26A7.15,7.15,0,0,1,572.79,450.44ZM227.21,205a4.09,4.09,0,0,0-4.06,4.11V443.26a4.09,4.09,0,0,0,4.06,4.11H572.79a4.09,4.09,0,0,0,4.06-4.11V209.13a4.09,4.09,0,0,0-4.06-4.11Z" transform="translate(0 -3.78)"/><rect class="cls-6" x="243.96" y="222.28" width="312.07" height="200.28"/><path class="cls-11" d="M557.56,427.87H242.44V224.52H557.56ZM245.48,424.8h309V227.59h-309Z" transform="translate(0 -3.78)"/><rect class="cls-32" x="238.24" y="445.13" width="24.76" height="7.5"/><path class="cls-11" d="M264.52,457.94h-27.8V447.37h27.8Zm-24.76-3.07h21.72v-4.42H239.76Z" transform="translate(0 -3.78)"/><rect class="cls-32" x="537" y="445.13" width="24.76" height="7.5"/><path class="cls-11" d="M563.28,457.94h-27.8V447.37h27.8Zm-24.76-3.07h21.71v-4.42H538.52Z" transform="translate(0 -3.78)"/><ellipse class="cls-6" cx="400" cy="210.28" rx="4.03" ry="4.07"/><path class="cls-5" d="M400,219.67a5.61,5.61,0,1,1,5.55-5.61A5.59,5.59,0,0,1,400,219.67Zm0-8.15a2.54,2.54,0,1,0,2.51,2.54A2.53,2.53,0,0,0,400,211.52Z" transform="translate(0 -3.78)"/><path class="cls-6" d="M430.26,469.26H369.74A12.24,12.24,0,0,1,357.56,457v-.12h84.88V457A12.24,12.24,0,0,1,430.26,469.26Z" transform="translate(0 -3.78)"/><path class="cls-11" d="M430.26,470.8H369.74A13.79,13.79,0,0,1,356,457v-1.54l1.52-.12H444v1.54A13.81,13.81,0,0,1,430.26,470.8Zm-71.08-12.43a10.71,10.71,0,0,0,10.55,9.36h60.53a10.71,10.71,0,0,0,10.57-9.36Z" transform="translate(0 -3.78)"/><ellipse class="cls-5" cx="400" cy="210.28" rx="2.05" ry="2.07"/><ellipse class="cls-5" cx="385.48" cy="210.28" rx="2.05" ry="2.07"/><rect class="cls-31" x="239.76" y="446.66" width="21.72" height="2.21"/><rect class="cls-31" x="538.52" y="446.66" width="21.72" height="2.21"/></svg>