<svg id="Layer_1" data-name="Layer 1" xmlns="http://www.w3.org/2000/svg" viewBox="0 0 23.33 26.92"><defs><style>.cls-1{fill:#afb8bc;}</style></defs><title>time</title><path class="cls-1" d="M18.46,5.79l1.13-1.7h0a.88.88,0,0,0,.17-.49.9.9,0,0,0-.9-.9.89.89,0,0,0-.74.41h0L16.92,4.85a11.66,11.66,0,0,0-4.37-1.22s0,0,0,0V1.8h1.8a.9.9,0,0,0,0-1.8H9A.9.9,0,0,0,9,1.8h1.8V3.59a.12.12,0,0,0,0,0,11.68,11.68,0,1,0,7.68,2.16Zm-6.8,19.34a9.87,9.87,0,1,1,9.87-9.87,9.86,9.86,0,0,1-9.87,9.87Zm0,0"/><path class="cls-1" d="M17.68,9.25a.94.94,0,0,0-1.33,0L11,14.55a.94.94,0,1,0,1.33,1.33l5.3-5.31a.94.94,0,0,0,0-1.32Zm0,0"/></svg>